<svg width="252" height="321" viewBox="0 0 252 321" fill="none" xmlns="http://www.w3.org/2000/svg">
<g clip-path="url(#clip0_241_2735)">
<path d="M241.69 39.689C241.979 39.7152 242.267 39.7152 242.582 39.7152C243.159 39.689 243.736 39.5315 244.287 39.3215C245.468 38.849 246.439 38.0353 247.252 37.0641C249.377 34.5179 250.532 31.2368 251.214 28.0869C252.027 24.3858 252.237 20.5009 251.738 16.7735C251.319 13.3349 250.243 9.79128 247.987 7.08762C245.783 4.43646 242.582 3.09776 239.119 3.20276C238.699 3.22901 238.148 3.22901 237.728 3.334C237.781 3.88523 237.676 4.51521 237.623 5.09269C237.597 5.61767 237.571 6.1689 237.518 6.72013C237.571 5.56518 237.65 4.43646 237.676 3.30775C236.994 3.28151 236.338 3.25526 235.656 3.20276C234.396 3.17651 233.084 3.09776 231.825 3.04526C229.962 2.99277 228.126 2.91402 226.289 2.86152C223.902 2.75652 221.567 2.67778 219.179 2.62528C216.398 2.49403 213.591 2.41529 210.757 2.31029C207.583 2.20529 204.356 2.1003 201.181 1.9953C197.613 1.8903 194.071 1.78531 190.555 1.68031C186.725 1.54907 182.894 1.44407 179.09 1.33907C174.997 1.23408 170.957 1.12908 166.916 1.02408C162.64 0.919088 158.416 0.814092 154.139 0.709095C149.784 0.604099 145.455 0.525352 141.1 0.472854C136.666 0.367857 132.258 0.315359 127.824 0.262861C123.39 0.210363 118.983 0.131616 114.549 0.105366C110.167 0.0528683 105.76 0.000370173 101.404 -0.0258789H88.5485C84.4294 -0.0258789 80.3365 0.000370173 76.1912 0.0266193C72.2557 0.0528683 68.3465 0.131616 64.411 0.210363C60.7642 0.262861 57.1436 0.367857 53.4967 0.499103C50.1647 0.604099 46.8589 0.735344 43.5532 0.892839C40.6147 1.05033 37.65 1.20783 34.7115 1.44407C32.2191 1.62781 29.7004 1.83781 27.2079 2.12655C25.1615 2.33654 23.1675 2.62528 21.1473 2.96652C20.7276 3.01901 20.2815 3.12401 19.8618 3.20276C19.4682 3.25526 19.0484 3.41275 18.6549 3.41275C16.7921 3.544 15.008 3.72774 13.2764 4.46271C10.1018 5.85391 8.10787 8.76756 6.97971 11.9437C5.37929 16.3273 4.90704 21.1571 4.56597 25.8032C4.32984 28.7956 4.17242 31.8143 4.04124 34.8067C4.015 35.6466 3.9363 36.4866 3.91006 37.3003C3.88382 37.9303 3.96253 38.5603 4.04124 39.1902C4.17242 40.2927 4.25113 41.4214 4.38231 42.4976C4.77586 46.015 5.30058 49.5324 6.06144 52.971C6.58617 55.3859 7.24207 57.8008 8.02916 60.137C8.68507 62.0269 9.39345 63.8906 10.1281 65.7281C10.8365 67.6705 11.5448 69.6129 12.0958 71.6079C12.8304 74.154 13.3551 76.7527 13.7749 79.3776C14.3521 83.1837 14.6932 87.0161 14.9293 90.8484C15.2704 96.4657 15.3491 102.136 15.3491 107.779C15.3491 111.454 15.2179 115.181 15.2179 118.856C15.2179 122.715 15.4016 126.6 15.559 130.458C15.9001 138.307 15.7689 146.129 15.454 154.004C15.1392 161.826 14.5882 169.622 13.8274 177.418C13.0928 185.24 12.0958 193.036 11.0201 200.832C9.94442 208.602 8.73755 216.319 7.53067 224.089C6.3238 231.832 5.14317 239.576 4.09371 247.345C3.04426 255.115 2.12599 262.911 1.39137 270.707C1.23395 272.571 1.0503 274.461 0.919117 276.298C0.761699 278.162 0.709227 279.973 0.289445 281.81C0.132027 282.572 -0.0253906 283.359 -0.0253906 284.173C-0.0253906 284.593 0.000845704 285.144 0.289445 285.538C0.578045 285.879 0.97159 286.01 1.36513 286.063C1.70621 286.089 2.02104 286.089 2.36212 286.115C3.0705 286.142 3.28039 285.984 3.59522 286.509C3.83135 287.008 3.62146 288.242 3.62146 288.767C3.59522 290.263 3.46404 291.759 3.59522 293.255C3.75264 295.381 4.27737 297.691 5.37929 299.529C6.27133 301.051 7.68809 302.154 9.39345 302.678C11.0988 303.23 12.9616 303.203 14.6932 302.889C16.2674 302.6 17.8153 302.154 19.3895 301.839C21.0161 301.55 22.669 301.314 24.3482 301.104C28.8083 300.552 33.2423 300.132 37.7287 299.844C43.317 299.45 48.9316 299.135 54.52 298.925C60.8691 298.636 67.1921 298.452 73.5413 298.295C80.1266 298.164 86.6857 298.111 93.271 298.085C99.6727 298.085 106.074 298.137 112.476 298.269C118.248 298.374 124.072 298.557 129.844 298.82C134.541 299.056 139.316 299.292 144.012 299.844C145.796 300.054 147.606 300.369 149.417 300.552C149.417 311.944 149.417 320.948 149.469 320.948C154.27 317.378 162.299 311.209 167.1 307.64C172.295 310.947 179.982 317.509 184.967 320.922C184.993 320.528 184.993 312.207 184.993 301.55C187.538 301.497 190.083 301.445 192.628 301.392C199.922 301.235 207.189 301.025 214.457 301.182C215.217 301.209 216.057 301.13 216.765 301.366C217.684 301.707 218.602 302.022 219.52 302.285C221.199 302.784 222.879 303.203 224.61 303.518C227.522 304.017 230.487 304.227 233.426 303.886C237.964 303.335 242.32 301.392 245.337 297.796C248.118 294.463 249.43 290.131 249.535 285.8C249.692 280.813 248.354 275.878 246.098 271.442C244.838 269.001 243.29 266.717 241.48 264.617C241.428 264.565 241.349 264.486 241.296 264.46C240.798 264.066 239.958 263.909 239.407 263.777C238.515 263.567 237.571 263.462 236.653 263.436C236.154 263.41 235.629 263.384 235.105 263.384H234.37C234.16 263.41 233.714 263.515 233.557 263.279C233.452 263.121 233.426 262.859 233.399 262.701C233.347 262.491 233.268 262.307 233.216 262.124C233.111 261.704 233.006 261.284 232.901 260.864C231.274 253.96 231.353 246.768 231.851 239.733C232.376 232.252 233.426 224.824 234.16 217.343C234.842 210.702 235.367 203.851 234.318 197.236C234.108 195.871 233.793 194.506 233.399 193.194C233.216 192.511 233.006 191.855 232.743 191.251C232.612 190.936 232.507 190.674 232.376 190.359C232.245 190.07 232.009 189.729 231.956 189.387C232.192 189.282 232.638 189.335 232.953 189.282C233.268 189.256 233.583 189.177 233.845 189.099C234.422 188.941 235 188.758 235.524 188.469C236.548 187.97 237.44 187.209 238.148 186.343C239.827 184.243 240.588 181.513 241.034 178.914C241.611 175.475 241.69 171.984 241.559 168.519C241.428 164.53 241.034 160.54 240.562 156.576C240.09 152.56 239.539 148.544 239.014 144.554C238.542 140.958 238.096 137.414 237.781 133.818C237.571 131.193 237.387 128.463 237.781 125.838C237.912 124.998 238.096 124.106 238.489 123.371C238.594 123.214 238.725 123.056 238.778 122.899C238.883 122.662 238.804 122.269 238.83 122.032C238.856 121.665 238.883 121.324 238.935 120.982C239.04 119.617 239.171 118.279 239.329 116.966C240.037 111.086 241.034 105.207 241.349 99.2481C241.585 93.5783 241.296 87.6723 238.883 82.4487C238.515 81.6088 236.967 79.9026 236.941 79.0101C236.941 79.1938 239.407 78.6689 239.591 78.5901C240.352 78.1964 240.982 77.5664 241.454 76.8314C242.634 74.9152 242.897 72.4741 243.028 70.2429C243.238 67.093 243.028 63.9431 242.739 60.767C242.451 57.2759 242.031 53.811 241.637 50.3199C241.428 48.4299 241.244 46.54 241.06 44.6501C241.008 43.7576 240.929 42.8914 240.877 41.9989C240.85 41.5789 240.824 41.1589 240.824 40.7389C240.798 40.3452 240.693 39.8465 240.772 39.479C241.008 39.4527 241.428 39.6102 241.69 39.6627V39.689ZM23.8497 30.1081C23.7447 32.943 23.6135 35.7779 23.1151 38.6128C22.9314 39.584 22.5379 40.4765 22.4329 41.4214C20.6488 39.8727 20.1504 35.8566 19.783 33.5992C19.4944 31.998 19.3108 30.3706 19.2058 28.7431C19.1534 27.8769 18.9172 27.5357 19.6256 27.2207C20.4652 26.8532 21.9869 26.9057 22.8527 27.1157C24.1383 27.4307 23.9021 29.0581 23.8759 30.0818L23.8497 30.1081ZM13.1453 16.4848C13.3289 15.6711 13.5126 14.8836 13.6962 14.0961C13.8799 13.3612 14.011 12.5474 14.3521 11.865C14.7194 11.13 15.4016 10.5263 16.1887 10.4475C16.5297 10.395 16.8708 10.4213 17.2381 10.605C18.5237 11.1825 19.3108 12.8099 19.888 14.0436C20.5439 15.3823 21.0686 16.7735 21.6458 18.1385C21.8819 18.6635 22.3017 19.3459 22.3542 19.9759C22.4067 20.7371 21.3048 20.4484 20.8325 20.3959C19.1534 20.3697 17.5267 20.4222 15.8476 20.4222C15.0867 20.4222 14.2472 20.4747 13.4601 20.3959C12.9616 20.3697 12.5943 20.3959 12.3844 20.6846C12.5943 19.2934 12.8567 17.876 13.119 16.511L13.1453 16.4848ZM14.5095 287.795C14.3784 288.504 14.1685 289.213 13.9848 289.895C13.3289 292.021 12.4369 294.358 11.23 296.169C11.2038 295.985 11.1775 295.775 11.0988 295.591C10.9939 295.25 10.9152 294.909 10.784 294.568C10.5741 293.833 10.4429 293.176 10.3904 292.363C10.2855 291.076 10.2855 289.711 10.2855 288.373C10.3117 287.638 10.1805 286.693 10.9939 286.299C11.5711 286.01 12.3319 286.115 12.9354 286.142C13.2502 286.168 13.5913 286.194 13.9323 286.247C14.116 286.247 14.4308 286.115 14.562 286.273C14.8506 286.588 14.5882 287.454 14.5095 287.795ZM14.7457 279.343C14.7457 279.343 14.1947 279.343 14.0898 279.343H11.9384C10.4954 279.343 9.02614 279.396 7.58315 279.343C7.39949 279.343 7.16336 279.396 6.95347 279.238C6.82229 279.081 6.82229 278.661 6.79606 278.477C6.74358 277.847 6.76982 277.217 6.82229 276.587C6.95347 275.248 7.11089 273.936 7.29455 272.623C7.53067 270.917 7.81927 269.185 8.37024 267.583C8.58013 267.006 10.3117 263.042 10.9414 264.276C11.0726 264.565 11.1775 264.827 11.3087 265.09C11.6235 265.746 11.8597 266.376 12.122 267.059C12.5943 268.318 13.0141 269.631 13.3289 270.943C13.6437 272.387 13.9061 273.831 14.1947 275.274C14.4046 276.482 14.6932 277.689 14.8244 278.897C14.8506 279.028 14.8768 279.264 14.7719 279.317L14.7457 279.343ZM149.391 293.99C147.292 294.043 146.268 292.021 145.56 290.341C145.166 289.423 144.222 285.8 142.622 287.06C141.047 288.294 141.913 290.341 142.464 291.864C142.595 292.153 142.779 292.599 142.595 292.914C142.385 293.308 141.703 293.203 141.336 293.203C140.182 293.203 139.263 292.783 138.607 291.811C137.427 290.053 137.637 287.717 136.718 285.853C136.351 285.144 135.643 284.094 134.751 284.068C133.937 284.068 133.596 285.118 133.518 285.774C133.334 286.982 133.727 288.189 134.147 289.291C134.331 289.79 134.515 290.263 134.672 290.735C134.803 291.129 135.223 291.916 135.039 292.31C134.724 293.019 133.255 292.415 132.809 292.153C131.943 291.654 131.471 290.788 131.13 289.895C130.369 287.795 130.448 285.459 129.556 283.412C129.215 282.598 128.638 281.627 127.772 281.286C126.722 280.892 126.329 282.257 126.198 283.018C125.778 285.433 127.221 287.717 127.877 289.948C128.087 290.656 128.638 291.916 127.667 292.231C126.801 292.546 125.62 292.52 124.755 292.231C123.259 291.759 122.734 290.263 122.472 288.872C122.079 287.113 121.947 285.249 120.793 283.727C120.242 283.018 119.534 282.703 118.93 283.543C118.3 284.435 118.248 285.485 118.379 286.535C118.537 287.743 118.93 288.95 119.219 290.131C119.402 290.945 119.77 291.916 118.668 292.074C116.779 292.31 116.123 290.236 115.834 288.793C115.624 287.874 115.362 283.07 113.604 283.805C112.607 284.225 112.03 285.433 112.109 286.457C112.161 287.559 112.45 288.714 112.686 289.816C112.843 290.578 113.342 291.68 112.187 291.864C111.348 292.021 110.272 291.838 109.564 291.313C107.885 290.079 107.99 287.375 107.832 285.538C107.701 283.963 107.439 281.915 106.101 280.866C105.418 280.341 104.815 280.682 104.421 281.364C103.949 282.257 103.87 283.307 103.949 284.304C104.054 285.59 104.421 286.877 104.71 288.137C104.867 288.688 104.999 289.239 105.104 289.816C105.209 290.289 105.392 290.893 105.209 291.365C104.894 292.021 103.818 291.916 103.241 291.838C102.506 291.68 101.955 291.208 101.614 290.551C100.932 289.16 101.142 287.533 100.88 286.037C100.722 285.065 100.302 283.884 99.3316 283.438C98.3346 282.939 97.6262 284.068 97.4164 284.882C96.9966 286.614 97.7574 288.504 98.1772 290.131C98.2821 290.499 98.5183 291.181 98.151 291.496C97.8099 291.785 96.9179 291.523 96.5243 291.549C96.1832 291.575 95.3174 291.785 95.0813 291.496C94.9501 291.313 95.0551 290.788 95.0288 290.604C94.9764 290.289 94.8977 289.974 94.8452 289.685C94.3467 287.27 93.822 284.855 92.9037 282.598C92.72 282.125 91.4607 278.739 90.49 279.343C89.8341 279.763 89.8078 281.181 89.7816 281.837C89.7816 283.018 89.9128 284.199 90.0177 285.328C90.1751 286.588 90.3325 287.822 90.49 289.081C90.5949 289.711 91.1459 291.391 90.1489 291.496C89.388 291.601 88.5485 290.998 88.1287 290.42C87.6302 289.738 87.4203 288.871 87.2891 288.058C86.9743 285.932 87.2891 283.674 86.607 281.6C86.3708 280.866 85.9248 280.026 85.2689 279.527C84.4556 278.871 83.8522 279.527 83.4849 280.288C82.4879 282.519 83.4586 285.013 84.0096 287.244C84.2982 288.347 84.5081 289.528 84.4031 290.683C84.3506 291.418 83.7735 291.654 83.1176 291.549C81.1761 291.339 80.5202 289.58 80.284 287.848C79.9954 285.774 80.284 283.543 79.392 281.6C79.1034 280.944 78.3688 279.684 77.503 279.842C76.6109 280.026 76.2436 281.443 76.1387 282.204C75.8501 284.514 76.8733 286.745 77.2406 288.976C77.3456 289.528 77.7653 290.866 77.2669 291.286C77.0307 291.523 76.5585 291.47 76.2436 291.444C75.8501 291.418 75.509 291.418 75.0892 291.444C74.7219 291.47 74.2234 291.549 73.9086 291.286C73.62 291.076 73.5413 290.656 73.4363 290.315C73.2265 289.344 72.9116 288.399 72.5968 287.428C72.2557 286.43 68.9762 279.002 67.848 279.789C67.1396 280.262 67.5594 282.047 67.6381 282.703C67.7431 283.963 67.9529 285.249 68.2153 286.509C68.4514 287.585 68.6351 288.767 69.0286 289.843C69.2648 290.551 69.7633 291.523 68.6876 291.706C67.6644 291.864 66.6674 291.601 66.0377 290.735C64.8046 289.029 65.1981 286.693 64.2536 284.855C63.9388 284.225 63.3354 283.412 62.5745 283.28C61.7349 283.123 61.2364 284.12 61.1315 284.829C60.9741 285.8 61.184 286.719 61.4463 287.612C61.7874 288.767 62.4171 289.843 62.6532 290.971C62.8631 292.021 61.4988 291.943 60.7904 291.838C59.7935 291.706 59.0064 291.155 58.4816 290.315C57.301 288.557 57.3272 286.194 56.855 284.199C56.6189 283.175 56.2778 282.125 55.5956 281.312C55.1234 280.761 54.2313 279.947 53.5754 280.629C52.8408 281.364 52.8408 282.834 52.9458 283.779C53.1032 284.987 53.5754 286.142 53.9952 287.27C54.3888 288.452 54.8085 289.633 55.0447 290.84C55.0971 291.234 55.2021 291.706 54.8348 291.995C54.4675 292.336 53.7853 292.336 53.2868 292.363C51.5815 292.415 50.532 291.444 49.9286 289.921C49.2727 288.215 49.194 286.299 48.4856 284.619C48.1183 283.805 47.4099 282.572 46.4392 282.414C45.5471 282.257 45.1536 283.753 45.0486 284.435C44.8125 286.483 46.0194 288.452 46.6228 290.341C46.8065 290.919 47.4886 292.258 46.6228 292.599C45.8882 292.888 44.76 292.704 44.1566 292.231C42.5299 290.998 42.6349 288.425 42.1889 286.667C42.0052 285.853 41.6904 285.065 41.1657 284.409C40.7459 283.884 39.9063 283.307 39.2504 283.858C38.7519 284.252 38.5945 285.092 38.5683 285.722C38.4633 286.719 38.7519 287.69 39.0667 288.635C39.4603 289.816 39.985 290.945 40.2211 292.153C40.3261 292.52 40.3261 292.835 39.9325 293.045C39.539 293.255 38.9356 293.334 38.4895 293.281C36.1808 293.098 35.7347 290.551 35.4199 288.714C35.2625 287.638 35.1051 286.509 34.5803 285.538C34.2393 284.908 33.7145 284.094 32.9799 283.858C32.2191 283.648 31.6943 284.409 31.4844 285.092C31.2746 285.853 31.327 286.693 31.4844 287.48C31.7206 288.635 32.1928 289.738 32.5864 290.84C32.77 291.339 32.9537 291.838 33.0849 292.363C33.1898 292.704 33.3735 293.229 33.0586 293.518C32.8487 293.728 32.429 293.701 32.1666 293.728C31.5369 293.78 30.9335 293.833 30.3038 293.885C29.0182 294.043 27.7327 294.174 26.4471 294.358C25.214 294.515 23.9809 294.673 22.6953 294.856C22.1181 294.909 21.5146 294.988 20.9374 295.093C20.6226 295.145 19.6519 295.565 19.3895 295.25C19.1534 295.014 19.5207 294.358 19.5994 294.095C19.8355 293.439 20.0979 292.861 20.3078 292.179C20.6488 290.945 20.9637 289.685 21.1998 288.373C21.6196 285.827 21.8295 283.202 21.777 280.603C21.6458 275.511 20.6226 270.445 18.9435 265.667C18.8123 265.3 18.7074 264.932 18.5237 264.591C18.3663 264.25 18.1039 263.882 18.0514 263.489C17.999 262.754 19.1009 263.095 19.4944 263.174C21.6458 263.725 23.8759 264.014 26.0798 264.276C36.653 265.641 47.3837 266.009 58.0094 266.166C68.7925 266.324 79.6281 266.192 90.4112 266.114C101.116 266.009 111.846 266.009 122.525 266.402C127.877 266.586 133.229 266.796 138.581 267.111C142.228 267.295 145.875 267.61 149.495 267.977V285.118C149.259 285.512 149.181 285.984 149.154 286.378C149.102 287.218 149.259 287.979 149.469 288.793V294.016H149.443L149.391 293.99ZM131.943 208.733C133.15 208.234 134.173 207.473 135.223 206.712C135.433 206.554 135.643 206.371 135.931 206.318C136.22 206.213 136.561 206.266 136.666 206.423C136.797 206.554 136.718 206.764 136.64 206.922C136.718 206.764 136.797 206.554 136.64 206.449C136.508 206.292 136.167 206.266 135.905 206.344C135.616 206.397 135.407 206.581 135.197 206.738C134.147 207.473 133.124 208.234 131.943 208.733ZM131.996 215.322C133.229 214.797 134.252 214.035 135.275 213.274C135.485 213.117 135.748 212.959 136.01 212.88C136.115 212.854 136.194 212.88 136.299 212.88C136.194 212.88 136.115 212.88 136.01 212.907C135.721 213.012 135.485 213.143 135.275 213.3C134.252 214.035 133.229 214.797 132.022 215.348L131.996 215.322ZM136.561 213.615C136.561 213.615 136.613 213.589 136.613 213.563C136.561 213.904 136.43 214.245 136.299 214.587C136.404 214.272 136.482 213.93 136.535 213.615H136.561ZM136.745 212.959C136.745 212.959 136.718 212.933 136.692 212.933C136.613 212.88 136.535 212.828 136.43 212.828C136.43 212.828 136.482 212.828 136.508 212.828C136.613 212.854 136.666 212.88 136.692 212.933C136.823 212.014 136.85 211.043 136.85 210.098C136.823 210.124 136.797 210.151 136.745 210.177C136.771 210.151 136.797 210.124 136.85 210.098C136.85 210.098 136.876 210.098 136.876 210.072C136.876 211.069 136.876 212.04 136.745 212.985V212.959ZM136.85 209.258C136.85 209.258 136.797 209.258 136.771 209.258C136.771 209.258 136.823 209.258 136.85 209.258ZM136.351 209.311C136.062 209.416 135.826 209.547 135.616 209.704C134.593 210.439 133.57 211.2 132.363 211.752C133.596 211.227 134.619 210.439 135.643 209.704C135.853 209.547 136.115 209.389 136.377 209.311C136.456 209.284 136.561 209.311 136.666 209.311C136.561 209.311 136.482 209.311 136.377 209.337L136.351 209.311ZM136.141 231.229C136.141 231.229 136.167 231.439 136.167 231.57C136.141 231.386 136.115 231.202 136.036 230.992C136.089 231.097 136.089 231.15 136.141 231.229ZM137.401 233.617C137.401 233.617 137.269 233.512 137.191 233.46C137.296 233.486 137.348 233.565 137.401 233.617ZM146.032 239.891C145.612 239.707 145.166 239.471 144.747 239.182C143.933 238.657 143.173 238.001 142.543 237.24C142.517 237.213 142.49 237.187 142.438 237.187C142.044 236.662 141.73 236.006 141.546 235.297C141.205 234.431 141.939 233.775 142.123 233.355C142.176 232.803 141.126 233.118 140.759 232.515C140.129 231.622 141.126 230.809 140.26 230.126C139.867 229.837 139.447 229.47 139.578 229.05C139.683 228.394 140.496 228.184 140.549 227.527C140.365 226.976 138.476 228.052 138.24 226.871C137.951 225.847 140.024 225.007 139.237 224.666C138.712 224.351 137.086 225.559 136.823 224.509C136.587 223.643 138.739 222.934 138.371 222.383C138.24 222.041 137.453 222.278 136.771 222.54C136.587 222.593 136.377 222.593 136.194 222.54C136.246 222.356 136.325 222.146 136.377 221.91C136.535 221.516 136.692 221.149 136.771 220.729C137.007 220.598 137.269 220.44 137.532 220.256C138.739 219.705 140.182 218.419 138.502 218.629C138.083 218.734 137.584 218.996 137.086 219.259C137.243 218.366 137.296 217.422 137.296 216.503C137.794 216.109 138.161 215.794 138.214 215.479C138.24 214.902 137.689 215.112 137.243 215.269C136.928 215.374 136.692 215.453 136.666 215.269C136.482 214.954 137.007 213.405 137.086 212.487C137.558 209.468 136.508 206.423 137.715 203.483C138.24 202.197 139.473 201.173 140.68 200.386C145.114 198.155 145.927 193.692 148.997 190.516C149.102 190.411 149.154 190.359 149.233 190.28C149.758 189.939 150.309 189.571 151.07 189.256C151.201 189.204 151.306 189.151 151.463 189.125C151.489 189.125 151.516 189.099 151.594 189.099C151.831 189.046 152.119 188.968 152.355 188.941C152.224 188.941 152.119 188.967 151.988 188.967C153.273 188.574 154.926 188.338 157.025 188.338C156.868 188.39 156.684 188.443 156.527 188.443C156.737 188.443 156.92 188.416 157.104 188.338H157.209C157.445 188.311 157.734 188.233 157.97 188.154C158.127 188.154 158.285 188.101 158.442 188.049C158.809 187.944 159.203 187.813 159.596 187.655C159.911 187.55 160.174 187.419 160.488 187.288C161.066 187.051 161.695 186.736 162.273 186.448C162.666 186.264 163.086 186.08 163.506 185.87C163.532 185.844 163.611 185.844 163.663 185.818C164.03 185.634 164.398 185.503 164.765 185.398C164.791 185.371 164.817 185.371 164.87 185.371C165.054 185.319 165.237 185.24 165.421 185.188C165.447 185.188 165.473 185.188 165.526 185.161C165.919 185.056 166.339 184.978 166.707 184.951C166.916 184.925 167.126 184.925 167.362 184.925C167.362 184.925 167.345 184.916 167.31 184.899H167.52C167.52 184.899 167.625 184.925 167.677 184.925C167.703 184.925 167.73 184.925 167.782 184.951C168.15 185.004 168.517 185.109 168.858 185.188C168.989 185.214 169.094 185.24 169.225 185.293C169.278 185.319 169.356 185.319 169.409 185.345C169.461 185.345 169.514 185.345 169.54 185.371C169.881 185.476 170.196 185.581 170.537 185.739C171.167 185.975 171.744 186.29 172.374 186.579C172.059 186.421 171.796 186.264 171.482 186.106C172.846 186.736 174.21 187.393 175.627 187.944C175.627 187.944 175.644 187.953 175.679 187.97C175.915 188.075 176.152 188.154 176.388 188.18C176.44 188.206 176.519 188.233 176.571 188.233C176.624 188.233 176.676 188.259 176.703 188.259C177.7 188.548 178.749 188.679 179.851 188.653H180.192C180.481 188.679 180.769 188.705 181.084 188.758C181.189 188.784 181.241 188.784 181.32 188.784C181.609 188.81 181.845 188.889 182.081 188.915C182.186 188.941 182.265 188.941 182.37 188.967C182.921 189.099 183.445 189.256 183.97 189.44C184.18 189.545 184.364 189.624 184.6 189.755C184.783 189.886 184.967 189.991 185.151 190.122C185.098 190.07 184.993 189.991 184.915 189.939C184.862 189.834 184.783 189.781 184.705 189.755C184.993 189.886 185.256 190.07 185.544 190.28C185.964 190.647 186.384 191.094 186.725 191.566C186.41 191.199 186.095 190.884 185.754 190.569H185.728C185.912 190.726 186.043 190.884 186.2 191.094C188.483 194.427 189.637 197.997 193.258 199.966C194.255 200.622 195.304 201.357 196.012 202.25C198.321 204.822 196.826 208.628 197.377 211.752C197.403 212.067 197.429 212.408 197.508 212.775H197.482C197.482 212.775 197.377 213.09 197.482 213.274C197.534 213.327 197.587 213.405 197.639 213.432C197.875 214.639 198.138 215.899 197.954 216.844C198.085 217.264 199.633 219.154 198.977 219.915C198.662 220.204 197.98 219.548 197.429 219.075C197.403 219.075 197.377 219.049 197.324 219.023C196.747 218.498 196.039 218.261 195.829 218.524C195.462 218.944 197.009 220.099 197.744 220.808C197.849 221.228 197.98 221.648 198.164 222.068C198.269 222.356 198.348 222.619 198.452 222.934C198.269 223.144 197.928 223.249 197.429 223.065C196.327 222.514 194.779 221.333 194.465 221.91C193.992 222.671 197.692 224.036 197.298 225.349C197.141 226.057 196.065 225.637 195.409 225.48C194.701 225.375 194.911 226.057 195.593 226.635C196.17 227.186 195.986 228.079 195.225 228C194.701 227.947 193.94 227.58 193.782 227.947C193.494 228.42 194.858 229.024 194.674 229.864C194.465 231.255 193.179 230.152 192.366 230.52C192.077 230.887 193.179 231.491 193.441 232.278C193.835 233.381 192.89 233.433 192.182 233.381C191.605 234.09 193.153 234.536 192.943 235.481C192.628 237.24 191.237 235.507 190.319 235.98C190.109 236.636 191.92 237.423 190.949 238.342C190.319 238.867 189.663 239.313 188.902 239.707C188.876 239.707 188.876 239.733 188.85 239.733C187.932 240.101 186.987 240.547 186.095 241.019C185.938 241.046 185.807 241.151 185.702 241.203C185.334 241.387 184.967 241.597 184.6 241.833C184.573 241.833 184.573 241.859 184.547 241.859H184.521C184.521 241.859 184.495 241.886 184.495 241.912C183.865 242.253 183.288 242.621 182.711 243.014C182.501 243.146 182.317 243.303 182.133 243.434C181.294 244.117 180.507 244.931 179.667 245.665C179.51 245.823 179.326 245.98 179.169 246.085C179.038 246.19 178.933 246.269 178.828 246.374C178.697 246.479 178.592 246.558 178.46 246.689C178.434 246.689 178.408 246.689 178.408 246.715C178.277 246.768 178.198 246.873 178.067 246.952C178.041 246.952 177.962 246.978 177.936 247.004L177.909 247.03C177.804 247.057 177.726 247.135 177.595 247.188C177.542 247.214 177.463 247.24 177.411 247.293C176.729 247.608 175.968 247.844 175.102 247.923C174.525 247.923 173.869 247.818 173.213 247.713C173.213 247.739 173.187 247.739 173.187 247.739C173.187 247.739 173.178 247.73 173.161 247.713C172.82 247.66 172.505 247.582 172.19 247.529C171.954 247.477 171.691 247.398 171.455 247.345C170.012 246.978 168.569 246.584 167.362 246.637C166.733 246.663 166.103 246.768 165.473 246.873C165.264 246.899 165.054 246.978 164.844 247.004C164.713 247.03 164.608 247.057 164.476 247.057C164.345 247.083 164.24 247.109 164.135 247.109C163.925 247.135 163.716 247.214 163.479 247.267C162.85 247.424 162.246 247.555 161.643 247.66C161.328 247.713 161.066 247.765 160.751 247.792C160.515 247.818 160.252 247.844 160.016 247.844H159.544C159.544 247.844 159.492 247.844 159.439 247.818C159.439 247.818 159.43 247.818 159.413 247.818H159.387C159.387 247.818 159.334 247.844 159.255 247.818H158.941C158.941 247.818 158.809 247.792 158.731 247.792C158.678 247.792 158.573 247.792 158.521 247.765C158.495 247.765 158.416 247.765 158.39 247.739H158.363C158.363 247.739 158.18 247.713 158.075 247.687C158.022 247.687 157.944 247.66 157.891 247.634H157.865C157.865 247.634 157.812 247.634 157.76 247.608C157.734 247.608 157.707 247.582 157.707 247.582H157.655C157.419 247.45 157.156 247.293 156.947 247.162C156.527 246.925 156.081 246.637 155.687 246.322C155.005 245.665 154.323 244.983 153.615 244.406C153.431 244.248 153.273 244.091 153.116 243.986C152.775 243.644 152.434 243.356 152.093 243.146C151.909 242.988 151.752 242.857 151.568 242.778C151.227 242.489 150.86 242.253 150.466 242.043C150.466 242.043 150.44 242.043 150.44 242.017C150.256 241.912 150.073 241.807 149.889 241.676C149.417 241.387 148.918 241.151 148.394 240.941C148.105 240.783 147.816 240.652 147.502 240.547C147.16 240.416 146.846 240.311 146.531 240.153C147.292 240.521 148.079 240.862 148.84 241.229C148.971 241.282 149.076 241.361 149.207 241.439C149.548 241.623 149.889 241.833 150.204 242.096C148.787 241.361 147.265 240.704 145.822 239.943C146.032 239.969 146.216 240.074 146.452 240.127C146.347 240.101 146.242 240.022 146.137 239.969L146.032 239.891ZM138.319 202.04C138.817 201.383 139.499 200.832 140.418 200.36C142.202 199.257 143.435 198.05 144.406 196.842C143.382 198.233 142.202 199.467 140.418 200.36C139.84 200.727 139.263 201.121 138.791 201.567L138.319 202.04ZM197.718 212.67C197.429 210.518 197.744 208.182 197.613 206.029C197.849 208.156 197.482 210.544 197.718 212.67ZM175.391 300.106C174.84 299.765 174.21 299.424 173.554 299.056C173.423 298.951 173.266 298.872 173.134 298.82C173.029 298.715 172.925 298.662 172.793 298.61C172.242 298.269 171.639 297.927 171.088 297.612C170.773 297.429 170.458 297.245 170.17 297.087C169.75 296.799 169.33 296.589 168.963 296.405C168.779 296.274 168.622 296.195 168.464 296.116C168.438 296.09 168.412 296.09 168.412 296.09C168.307 296.038 168.228 295.985 168.123 295.932C168.097 295.932 168.097 295.906 168.071 295.906H168.045C168.045 295.906 168.018 295.906 168.018 295.88H167.966L167.913 295.854C167.887 295.828 167.808 295.828 167.782 295.801C167.651 295.775 167.572 295.749 167.467 295.696C167.257 295.801 167.048 295.854 166.811 295.985C166.68 296.038 166.575 296.09 166.444 296.169C163.479 297.534 160.095 299.975 157.235 300.972C156.474 300.789 159.203 300.054 158.914 299.056C158.809 298.426 157.76 298.479 157.314 298.321C156.92 298.19 156.894 297.822 157.183 297.429C157.734 296.536 159.99 296.615 160.279 295.408C160.488 294.673 159.36 294.331 158.39 294.646C157.681 294.856 157.235 294.699 157.104 294.358C157.419 294.358 157.786 294.358 157.996 294.2C158.363 293.885 158.022 293.308 157.944 292.993C157.917 292.888 157.891 292.783 157.839 292.678C157.97 292.573 158.127 292.546 158.258 292.52C159.806 291.601 159.229 290.63 157.393 290.63C157.34 290.604 157.261 290.525 157.235 290.473C157.183 290.105 157.209 289.764 157.288 289.449C157.707 289.081 158.495 288.793 158.967 288.635C159.177 288.53 159.36 288.399 159.518 288.242C159.911 287.822 159.938 287.192 159.334 286.982C158.783 286.929 158.101 286.877 157.55 286.955C156.107 286.378 157.524 285.013 158.547 284.645C159.36 284.12 159.124 283.149 158.153 283.097C156.212 282.887 157.078 281.942 158.206 280.997C158.783 280.288 157.97 279.789 157.366 279.501C156.71 279.133 156.999 278.162 157.839 277.768C158.521 277.427 159.387 277.296 159.964 276.876C161.197 275.852 159.911 275.012 158.521 275.458C157.812 275.642 157.288 275.642 157.078 275.117C156.264 272.86 159.675 273.017 160.069 271.468C160.069 269.395 156.133 272.361 157.183 269.788C157.34 269.473 157.576 269.158 157.76 268.896C157.97 268.581 158.127 268.266 158.049 268.003C157.891 267.61 157.366 267.426 157.13 266.98C156.763 266.009 157.34 265.247 158.311 264.959C158.993 264.644 159.649 263.987 159.465 263.462C158.652 262.465 157.524 263.594 156.999 262.701C156.999 262.491 157.052 262.229 157.235 262.019C157.524 261.599 158.075 261.205 158.626 260.995C160.305 260.286 160.016 258.843 158.311 259.105C157.839 259.236 157.393 259.315 157.025 258.974C156.92 258.606 156.842 257.74 156.868 256.9C158.075 256.953 159.518 256.874 161.223 256.611C162.745 256.401 163.716 256.113 164.345 255.771C164.345 255.771 164.371 255.745 164.398 255.745C164.581 255.64 164.765 255.588 164.975 255.535C164.844 255.561 164.739 255.588 164.608 255.588C164.634 255.588 164.66 255.561 164.713 255.535H164.739C164.739 255.535 164.922 255.509 165.027 255.483C165.919 255.168 166.89 255.115 167.861 255.246C167.494 255.246 167.153 255.273 166.785 255.299C169.409 255.299 172.216 256.559 174.761 256.559C175.102 256.559 175.443 256.533 175.784 256.454C175.574 256.48 175.312 256.48 175.05 256.48C175.365 256.48 175.627 256.454 175.942 256.428C176.23 256.375 176.519 256.27 176.808 256.191C176.834 256.191 176.912 256.165 176.965 256.165C177.096 256.165 177.201 256.113 177.332 256.034L177.437 255.981H177.542C177.647 258.003 177.7 260.942 177.726 264.329C177.726 266.455 177.752 268.817 177.752 271.258C177.752 279.369 177.647 288.478 177.647 294.699C177.621 297.586 177.647 299.87 177.673 301.104C177.673 301.287 177.647 301.34 177.358 301.209C177.227 301.156 177.044 301.025 176.808 300.894C176.781 300.894 176.781 300.867 176.755 300.867C176.388 300.631 175.942 300.369 175.469 300.132L175.391 300.106ZM155.136 245.98C155.136 245.98 155.241 246.086 155.267 246.112C155.477 246.296 155.687 246.479 155.923 246.637C156.028 246.689 156.107 246.768 156.212 246.82C156.422 247.004 156.684 247.162 156.92 247.293C156.133 247.004 155.399 246.479 154.769 245.718C154.9 245.823 155.058 245.902 155.163 246.007L155.136 245.98ZM177.778 256.139V261.572C177.778 258.475 177.778 256.323 177.752 255.876C177.778 255.903 177.804 256.008 177.778 256.113V256.139ZM161.695 247.713C161.879 247.66 162.063 247.608 162.273 247.555H162.299C162.115 247.608 161.879 247.687 161.669 247.713H161.695ZM156.92 247.267C156.92 247.267 156.999 247.293 157.078 247.319C157.078 247.319 157.104 247.319 157.104 247.345C157.052 247.345 156.973 247.267 156.92 247.267ZM156.081 259.971C156.081 259.971 156.264 259.788 156.369 259.735L156.081 260.024C156.081 260.024 155.871 260.208 155.713 260.26C155.871 260.155 156.002 260.076 156.081 259.971ZM155.294 288.294C155.294 288.294 155.53 288.242 155.635 288.189C155.845 288.137 156.028 288.137 156.186 288.215C155.95 288.163 155.635 288.189 155.294 288.268V288.294ZM155.084 285.617C155.084 285.617 154.9 285.669 154.795 285.669C155.267 285.512 155.661 285.38 156.002 285.17C155.766 285.38 155.451 285.538 155.084 285.59V285.617ZM155.031 293.596C155.189 293.57 155.32 293.491 155.451 293.465C155.32 293.491 155.163 293.57 155.058 293.623H155.031V293.596ZM153.667 271.127C153.982 270.917 154.402 270.786 154.821 270.655C154.402 270.838 153.982 270.996 153.667 271.127ZM156.632 289.501C156.658 289.134 156.658 288.845 156.632 288.661C156.737 288.898 156.763 289.186 156.632 289.501ZM151.358 282.125C151.043 282.335 150.86 282.598 150.86 282.965C150.807 282.598 150.86 282.257 151.358 282.125ZM153.824 301.025C153.824 301.025 153.693 301.077 153.641 301.13C153.667 301.104 153.693 301.077 153.772 301.025H153.824ZM153.431 301.314C153.326 301.497 153.326 301.865 153.457 302.232C153.326 301.891 153.247 301.524 153.431 301.314ZM156.527 303.072C155.661 303.413 154.821 303.702 154.218 303.728C154.874 303.623 155.661 303.387 156.527 303.072ZM179.221 246.085C179.746 245.613 180.271 245.088 180.822 244.589C181.556 243.854 182.396 243.198 183.288 242.621C181.871 243.723 180.586 245.036 179.195 246.085H179.221ZM196.695 234.09C196.931 233.617 197.193 233.171 197.456 232.672C197.088 233.486 196.721 234.247 196.432 234.982C196.459 234.693 196.537 234.405 196.668 234.09H196.695ZM201.916 219.469C201.889 219.626 201.758 219.758 201.575 219.836H201.26C201.024 219.784 200.63 219.443 200.341 219.128C200.892 219.495 201.627 220.02 201.916 219.469ZM202.545 212.565C201.391 211.935 200.446 211.069 199.476 210.282C200.446 211.095 201.391 211.962 202.545 212.565ZM190.319 197.341C191.237 198.338 192.366 199.178 193.494 199.966C193.31 199.861 193.127 199.756 192.943 199.625C191.867 199.073 191.028 198.26 190.319 197.341ZM152.119 308.112C152.119 308.112 152.172 308.086 152.198 308.06C152.198 308.06 152.145 308.112 152.119 308.112ZM160.462 305.277C160.541 305.067 160.541 304.857 160.462 304.647C160.252 304.096 159.57 303.886 158.967 303.886C158.442 303.833 157.917 304.043 157.471 304.175L156.894 304.358C155.136 304.936 153.326 305.54 151.411 305.723C153.326 305.513 155.163 304.936 156.92 304.358L157.498 304.175C157.917 304.043 158.468 303.833 158.993 303.886C159.57 303.886 160.252 304.096 160.488 304.647C160.567 304.857 160.567 305.067 160.488 305.303L160.462 305.277ZM159.596 301.996C159.439 302.022 159.282 302.101 159.124 302.127C159.623 301.944 160.121 301.76 160.567 301.629C160.2 301.786 159.859 301.917 159.57 301.996H159.596ZM232.743 270.077C234.842 270.313 236.915 271.075 238.515 272.466C239.748 273.542 240.641 274.959 241.218 276.508C242.425 279.684 242.398 283.254 242.293 286.614C242.267 288.399 242.346 290.263 242.057 292.048C242.031 292.205 241.926 292.599 241.769 292.94C241.585 293.413 241.349 293.754 241.113 293.124C240.824 292.441 240.798 291.601 240.693 290.919C240.509 289.895 239.932 286.299 238.096 287.559C236.548 288.583 236.862 291.05 237.361 292.599C237.597 293.36 239.145 297.639 236.889 296.772C235.131 296.09 234.58 294.148 234.318 292.441C234.108 291.181 234.16 287.559 232.087 287.795C231.038 287.927 230.854 289.213 230.854 290.053C230.828 291.339 231.222 292.625 231.563 293.859C231.746 294.541 232.061 295.46 231.668 296.142C231.195 296.956 230.067 296.904 229.306 296.641C227.208 295.88 226.893 293.465 226.735 291.496C226.552 289.475 226.525 287.297 225.345 285.564C224.977 285.013 224.322 284.278 223.613 284.75C222.905 285.223 222.721 286.299 222.616 287.06C222.406 289.423 223.429 291.733 223.823 293.99C224.007 294.883 224.19 296.037 222.957 296.011C221.934 296.011 220.989 295.513 220.491 294.646C219.573 293.045 219.914 290.998 219.337 289.265C219.127 288.53 218.707 287.717 217.999 287.349C217.343 287.008 216.792 287.244 216.451 287.848C215.611 289.344 216.11 291.208 216.582 292.73C216.765 293.413 217.133 294.489 216.11 294.62C215.113 294.751 214.194 294.279 213.565 293.518C212.227 291.811 212.043 289.318 211.781 287.244C211.649 286.168 211.597 284.934 211.072 283.963C210.442 282.86 209.498 283.149 208.711 283.963C207.898 284.829 208.16 285.905 208.344 286.982C208.553 288.215 208.737 289.475 208.999 290.761C209.104 291.339 209.183 291.943 209.314 292.52C209.367 292.861 209.55 293.386 209.314 293.701C208.842 294.279 207.478 293.911 207.006 293.57C205.51 292.573 205.641 290 205.563 288.478C205.458 286.798 205.379 284.514 203.883 283.385C203.149 282.834 202.493 283.333 202.152 284.068C201.627 285.144 201.627 286.352 201.811 287.559C201.994 288.767 202.362 289.974 202.65 291.181C202.781 291.759 202.886 292.389 202.939 293.019C202.991 293.386 203.096 293.885 202.808 294.2C202.335 294.725 201.076 294.62 200.499 294.384C199.738 294.043 199.292 293.229 199.056 292.441C198.4 290.21 198.898 287.69 197.98 285.485C197.692 284.803 196.905 283.517 195.96 283.884C195.147 284.225 194.806 285.512 194.727 286.299C194.517 288.661 195.593 291.024 195.986 293.281C196.144 294.121 196.17 294.909 195.225 295.145C194.517 295.303 193.651 295.303 192.969 294.988C191.579 294.358 191.028 292.73 190.687 291.339C190.319 289.816 190.162 288.268 189.768 286.798C189.532 285.958 189.217 285.118 188.666 284.435C188.325 283.963 187.564 283.228 186.908 283.438C186.358 283.595 186.148 284.409 186.043 284.882C185.859 285.722 185.885 286.562 186.043 287.349C186.462 289.606 187.669 291.654 188.115 293.911C188.299 294.751 188.22 295.67 187.197 295.775C186.436 295.828 185.675 295.486 185.151 294.935C185.124 294.909 185.098 294.83 185.046 294.804V271.967C185.465 272.02 185.885 272.072 186.305 272.098C196.826 272.991 207.609 273.437 218.051 271.888C220.648 271.521 223.22 270.97 225.817 270.497C228.1 270.13 230.461 269.788 232.77 270.077H232.743ZM234.422 72.0803C233.609 73.2878 232.533 74.2853 231.274 74.9152C230.566 75.2827 229.779 75.5715 229.018 75.729C228.598 75.834 227.995 75.939 227.68 76.3064C227.208 76.8839 227.863 77.5927 228.231 78.0651C228.755 78.7214 229.28 79.3251 229.752 80.0338C230.671 81.3988 231.353 82.8425 232.035 84.3387C232.192 84.6799 232.507 85.0474 232.56 85.4411C232.691 86.3598 231.143 87.0686 230.618 87.6723C230.382 87.961 230.12 88.2498 229.936 88.5648C229.752 88.906 229.543 89.2735 229.569 89.641C229.569 90.166 230.067 90.166 230.461 90.061C230.986 89.9297 231.51 89.6672 231.956 89.3522C232.35 89.116 232.638 88.7223 232.953 88.381C233.478 87.751 233.767 89.7722 233.793 90.0085C233.976 91.0847 233.609 91.2422 232.796 91.9246C232.166 92.4234 231.589 92.9746 230.959 93.4996C230.33 94.0246 229.7 94.5496 229.07 95.1008C228.519 95.5995 227.89 96.0982 227.391 96.6495C227.05 97.0432 226.657 97.6732 226.866 98.2507C227.103 98.9069 227.968 98.6707 228.441 98.4344C229.123 98.0932 229.674 97.5682 230.225 97.0695C231.379 95.9932 232.507 94.8645 233.793 93.8933C233.898 93.8408 234.081 93.6046 234.186 93.7621C234.239 93.8146 234.239 94.0508 234.291 94.1296C234.318 94.5496 234.318 94.9958 234.318 95.4158C234.318 95.757 234.318 96.0983 234.213 96.4395C234.055 97.0957 233.635 97.6207 233.137 98.0407C232.507 98.5657 231.878 99.0644 231.248 99.5894C230.566 100.114 229.962 100.666 229.306 101.217C228.755 101.716 228.204 102.241 227.785 102.897C227.575 103.264 227.286 103.815 227.444 104.262C227.68 104.918 228.624 104.498 229.018 104.288C229.674 103.92 230.277 103.448 230.854 102.949C231.484 102.398 232.035 101.794 232.612 101.243C232.901 101.007 233.163 100.744 233.452 100.508C233.609 100.377 233.767 100.272 233.872 100.141C234.003 100.036 234.16 99.8256 234.291 99.9044C234.501 99.9306 234.501 100.246 234.527 100.403C234.554 100.823 234.554 101.243 234.58 101.663C234.58 101.978 234.632 102.319 234.58 102.661C234.475 103.028 234.239 103.317 233.95 103.527C233.321 104.052 232.691 104.55 232.061 105.102C231.536 105.574 230.959 106.02 230.566 106.65C230.356 107.044 230.094 107.727 230.54 108.042C231.09 108.462 231.878 108.042 232.324 107.7C232.638 107.464 232.901 107.149 233.216 106.887C233.399 106.729 233.95 106.257 234.081 106.703C234.134 106.992 234.029 107.385 233.95 107.674C233.898 108.094 233.819 108.54 233.74 108.96C233.583 109.8 233.399 110.666 233.242 111.506C232.875 113.186 232.507 114.84 232.166 116.52C231.536 119.88 231.3 123.319 231.3 126.757C231.3 130.196 231.484 133.739 231.694 137.204C231.878 140.722 232.114 144.239 232.402 147.73C232.927 154.712 233.478 161.721 233.74 168.703C233.872 172.168 233.793 175.659 233.793 179.124C233.793 179.859 233.793 180.647 233.898 181.382C233.924 181.67 234.003 181.933 233.872 182.195C233.845 182.326 233.74 182.379 233.688 182.431C233.504 182.536 233.321 182.484 233.111 182.431C232.77 182.3 232.429 182.09 232.087 181.933C231.799 181.801 231.51 181.697 231.169 181.592C230.618 181.434 229.989 181.355 229.411 181.277C226.971 181.145 224.348 182.117 223.141 184.348C222.826 184.978 222.616 185.686 222.564 186.369C222.537 186.736 222.537 187.078 222.564 187.419C222.616 187.813 222.747 188.18 222.747 188.6C222.747 188.915 222.537 189.282 222.721 189.571C222.826 189.676 222.931 189.702 223.036 189.755C223.22 189.886 223.325 189.991 223.429 190.175C223.639 190.516 223.823 190.884 224.059 191.199C224.295 191.514 224.584 191.776 224.794 192.091C225.03 192.432 224.689 192.669 224.426 192.852C224.085 193.089 223.771 193.377 223.456 193.666C222.8 194.217 222.17 194.742 221.514 195.294C221.016 195.766 220.465 196.186 220.097 196.79C219.861 197.183 219.704 197.866 220.15 198.233C220.648 198.653 221.488 198.207 221.908 197.892C222.564 197.472 223.141 196.973 223.692 196.448C224.348 195.897 224.951 195.346 225.581 194.742C225.817 194.532 226.053 194.244 226.315 194.034C226.578 193.824 226.893 193.876 227.155 194.086C227.627 194.454 227.995 195.084 228.021 195.687C228.021 196.396 227.26 196.763 226.788 197.21C225.502 198.26 224.19 199.336 222.931 200.438C222.301 200.963 221.724 201.515 221.199 202.145C220.858 202.565 220.386 203.168 220.465 203.719C220.57 204.559 221.54 204.218 222.039 204.034C222.721 203.719 223.298 203.273 223.875 202.801C224.426 202.302 224.951 201.777 225.476 201.278C226.053 200.727 226.683 200.202 227.312 199.651C227.417 199.546 227.706 199.152 227.89 199.31C227.995 199.415 227.942 199.651 227.916 199.73C227.89 199.966 227.863 200.228 227.863 200.465C227.837 200.832 227.863 201.2 227.863 201.567C227.863 201.908 227.863 202.302 227.68 202.643C227.496 202.932 227.26 203.116 226.998 203.299C226.63 203.536 226.315 203.824 225.974 204.139C225.397 204.638 224.794 205.111 224.269 205.688C223.902 206.082 223.403 206.686 223.456 207.263C223.508 207.998 224.295 207.946 224.794 207.736C225.476 207.499 226.079 207.053 226.63 206.581C226.866 206.344 227.103 206.056 227.339 205.846C227.575 205.636 227.732 205.688 227.732 206.003C227.732 206.344 227.68 206.686 227.627 207.027C227.601 207.499 227.575 207.919 227.522 208.366C227.47 209.232 227.417 210.098 227.339 210.964C227.103 214.403 226.761 217.868 226.42 221.306C225.738 228.236 225.135 235.166 225.03 242.122C225.004 245.613 225.056 249.104 225.318 252.569C225.45 254.275 225.555 255.981 225.738 257.661C225.843 258.528 225.948 259.368 226.106 260.234C226.237 261.074 226.473 261.861 226.657 262.701C226.788 263.226 226.814 263.804 226.237 264.066C225.922 264.197 225.581 264.224 225.24 264.25C224.82 264.276 224.348 264.302 223.875 264.381C222.17 264.591 220.439 264.88 218.707 265.064C215.27 265.484 211.781 265.72 208.317 265.799C201.338 266.009 194.386 265.694 187.407 265.142C186.567 265.09 185.78 265.011 184.941 264.932V258.055C184.967 255.325 184.888 253.671 184.967 253.252C185.675 252.7 186.515 252.385 187.617 251.703C223.954 230.887 208.895 174.845 167.389 174.74H166.864C124.414 174.95 110.22 232.803 148.21 252.569C148.394 252.674 148.761 252.884 148.945 252.963C149.653 253.357 149.181 253.54 149.338 254.485V261.074C148.105 260.942 146.846 260.837 145.586 260.732C138.66 260.181 131.707 259.761 124.755 259.368C117.802 258.974 110.823 258.948 103.844 258.974C96.8392 259.026 89.8341 259.131 82.8552 259.184C75.8763 259.289 68.845 259.341 61.8399 259.315C54.861 259.315 47.8559 259.184 40.8508 258.921C34.0556 258.685 27.1555 258.265 20.4652 256.716C18.8648 256.349 17.2119 255.955 15.6377 255.43C14.9031 255.141 14.116 254.879 13.4076 254.511C13.0928 254.328 12.7517 254.118 12.4369 253.881C12.2007 253.671 11.8859 253.409 11.7285 253.146C11.2562 252.333 12.7255 252.517 13.0928 252.569C13.9061 252.674 14.6932 252.622 15.4803 252.464C16.2936 252.333 18.8385 251.703 17.9727 250.364C17.6317 249.813 16.897 249.524 16.2674 249.445C15.5065 249.314 14.6932 249.419 13.9061 249.498C13.1977 249.55 12.3844 249.629 11.781 249.183C11.2825 248.815 11.0463 248.133 11.1251 247.503C11.1775 246.82 11.7547 246.532 12.3844 246.532C12.673 246.532 12.9354 246.584 13.224 246.637C13.6175 246.689 14.0635 246.663 14.4833 246.637C15.2442 246.61 16.0837 246.505 16.8446 246.322C17.5005 246.164 18.2351 245.823 18.445 245.141C18.6549 244.484 18.1039 244.038 17.5792 243.802C16.9233 243.513 16.2149 243.434 15.5065 243.408C14.6932 243.356 13.9061 243.434 13.0928 243.566C12.5156 243.618 11.4924 243.933 11.23 243.172C11.0463 242.647 11.3612 241.991 11.7547 241.649C12.1483 241.334 12.6468 241.177 13.1453 241.124C14.3521 240.941 15.5328 241.308 16.7396 241.256C17.3955 241.229 18.0252 241.046 18.5762 240.573C19.1009 240.153 19.2058 239.418 18.6811 238.893C17.6054 237.791 15.7164 238.158 14.3521 238.368C13.4601 238.526 11.5448 239.103 11.4137 237.66C11.3087 236.741 11.8859 235.743 12.6205 235.245C13.7224 234.51 15.1917 234.588 16.451 234.693C18.0777 234.851 19.783 235.113 21.3572 234.562C21.9344 234.352 22.6428 233.985 22.8527 233.302C23.0363 232.646 22.5641 232.068 22.0131 231.754C21.3835 231.412 20.6488 231.281 19.9667 231.229C19.1271 231.124 18.34 231.202 17.5005 231.281C16.6609 231.386 15.8738 231.517 15.0343 231.648C14.3521 231.753 13.5388 231.859 12.8304 231.675C11.3087 231.281 11.8597 229.312 12.5156 228.394C13.7749 226.556 16.2936 226.504 18.2876 226.425C19.5469 226.399 20.8587 226.372 22.0656 225.952C22.7477 225.716 23.4561 225.401 23.9546 224.85C24.1645 224.64 24.3482 224.325 24.3482 224.01C24.3482 223.643 24.0596 223.301 23.7972 223.118C23.2462 222.698 22.5379 222.566 21.8557 222.488C21.0161 222.435 20.2291 222.488 19.3895 222.619C17.7891 222.934 16.2149 223.511 14.562 223.721C14.011 223.826 13.3027 223.853 12.9354 223.354C12.568 222.855 12.6992 222.173 12.9091 221.648C13.4863 220.283 14.9293 219.679 16.3198 219.521C17.8153 219.338 19.337 219.495 20.78 218.865C21.331 218.629 21.9607 218.235 22.1968 217.658C22.4067 217.002 21.9869 216.424 21.4622 216.109C20.0716 215.269 18.2876 215.768 16.8446 216.162C16.1362 216.372 15.3491 216.713 14.6145 216.503C13.9848 216.345 13.8536 215.742 13.9586 215.164C14.3259 213.773 15.7951 212.88 17.0545 212.513C18.5762 212.093 20.1504 212.093 21.6983 211.988C22.5379 211.935 23.3774 211.857 24.1907 211.673C24.8729 211.515 25.5813 211.305 26.1322 210.859C26.6307 210.465 27.103 209.783 26.7094 209.127C26.3946 208.576 25.66 208.313 25.0828 208.208C23.4037 207.814 21.7245 208.208 20.0979 208.628C19.337 208.838 18.5499 209.048 17.7366 209.206C17.0807 209.337 16.2411 209.494 15.6639 209.074C15.1917 208.733 15.1392 208.051 15.3229 207.526C15.4803 206.948 15.9001 206.476 16.3986 206.134C17.5792 205.294 19.0484 205.268 20.4389 205.137C21.1998 205.084 21.9869 204.979 22.7215 204.664C23.2725 204.454 23.8759 204.113 24.1645 203.562C24.4793 202.932 24.2695 202.328 23.7447 201.961C23.1938 201.541 22.4591 201.41 21.7245 201.41C20.9899 201.41 20.3078 201.567 19.5994 201.751C18.9435 201.935 18.2351 202.25 17.553 202.223C16.9233 202.223 16.4773 201.856 16.451 201.2C16.451 200.648 16.7396 200.097 17.1069 199.651C17.9203 198.68 19.1796 198.207 20.3865 197.918C21.9607 197.525 23.6398 197.446 25.2664 197.236C26.0011 197.131 26.7881 197.052 27.4965 196.763C28.0475 196.553 28.5984 196.107 28.5984 195.477C28.5984 194.769 27.9688 194.217 27.3916 193.929C26.7094 193.587 25.9486 193.587 25.1877 193.692C24.3744 193.824 23.6135 194.034 22.8002 194.244C21.9869 194.427 21.1998 194.585 20.3865 194.716C19.8355 194.769 18.8648 194.9 18.4975 194.349C18.1564 193.85 18.3925 193.141 18.6549 192.669C19.2321 191.514 20.5177 190.884 21.7245 190.621C23.2462 190.28 24.8204 190.411 26.3421 190.096C27.2342 189.912 28.441 189.519 28.6509 188.469C28.7559 188.049 28.6247 187.576 28.3099 187.261C27.995 186.946 27.549 186.868 27.1292 186.789C26.1322 186.631 25.0828 186.789 24.112 186.92C23.3512 187.051 22.5903 187.261 21.8557 187.471C21.2785 187.629 20.4389 187.708 20.0979 187.051C19.8618 186.526 20.0454 185.87 20.3078 185.424C20.6488 184.794 21.1998 184.348 21.8032 184.033C23.0888 183.35 24.6105 183.376 26.0273 183.298C27.4441 183.245 29.0182 183.061 30.1202 182.064C30.5399 181.67 30.881 181.093 30.5924 180.542C30.2776 179.912 29.5692 179.623 28.9658 179.492C27.3653 179.15 25.7125 179.728 24.2432 180.227C23.5873 180.437 22.8265 180.752 22.1443 180.515C21.6458 180.332 21.5146 179.833 21.5671 179.36C21.6196 178.179 22.3804 177.129 23.3512 176.552C24.6892 175.738 26.2897 175.922 27.7851 175.659C28.4673 175.502 29.1756 175.292 29.7266 174.819C30.1989 174.426 30.5662 173.796 30.3038 173.192C30.0414 172.588 29.2806 172.326 28.7034 172.273C27.9425 172.168 27.1817 172.378 26.4733 172.588C25.2664 172.982 23.4037 173.664 22.6166 172.221C21.9344 171.039 22.7477 169.648 23.6923 168.913C24.8729 167.994 26.4471 167.811 27.8376 167.312C28.5197 167.076 29.1756 166.761 29.7004 166.236C30.0939 165.842 30.4612 165.212 30.2513 164.608C30.0414 163.952 29.2806 163.742 28.7034 163.716C27.9688 163.663 27.1817 163.821 26.4995 164.031C25.7649 164.267 25.0565 164.687 24.3482 164.923C23.8234 165.107 23.0101 165.291 22.6166 164.792C22.223 164.267 22.5641 163.427 22.8265 162.928C23.1938 162.298 23.7185 161.852 24.3744 161.537C25.7649 160.828 27.3916 160.723 28.9133 160.435C29.6479 160.277 30.435 160.067 31.1434 159.726C31.7206 159.437 32.3502 159.096 32.7438 158.571C33.1373 158.046 33.1373 157.364 32.6388 156.891C32.1141 156.366 31.3008 156.235 30.6186 156.235C29.0182 156.235 27.4965 156.891 26.0535 157.521C25.3189 157.836 24.6105 158.23 23.8497 158.44C23.2987 158.597 22.5903 158.676 22.1705 158.151C21.777 157.626 21.8295 156.865 21.9869 156.235C22.1705 155.552 22.5379 154.949 23.0626 154.476C24.0858 153.584 25.4763 153.295 26.7357 153.033C27.9425 152.744 29.2806 152.403 30.1464 151.458C30.5399 151.038 30.8285 150.408 30.4875 149.856C30.1464 149.279 29.3068 149.095 28.7034 149.043C27.1817 148.99 25.8699 149.725 24.5318 150.303C23.8759 150.591 23.1151 150.959 22.3804 150.828C21.7508 150.696 21.5671 150.066 21.6458 149.463C21.8295 148.255 22.8789 147.441 23.9021 146.916C25.2927 146.208 26.8406 145.867 28.3623 145.499C29.2806 145.263 30.2776 145.027 31.1171 144.58C31.4582 144.37 31.8255 144.082 31.9305 143.714C32.0879 143.215 31.7993 142.717 31.432 142.428C30.2513 141.404 28.441 141.903 27.103 142.297C26.3684 142.585 25.5813 142.874 24.8467 143.189C24.1907 143.425 23.5086 143.767 22.8265 143.845C21.2523 143.977 21.4097 141.929 21.9344 141.01C22.5903 139.803 23.8497 139.173 25.109 138.805C26.552 138.412 28.1787 138.254 29.438 137.388C29.9627 137.047 30.4875 136.522 30.5399 135.866C30.5662 135.183 30.0152 134.763 29.3855 134.606C27.9425 134.186 26.3159 134.789 25.0041 135.419C24.3482 135.734 23.7185 136.076 23.0363 136.259C22.4854 136.417 21.8032 136.443 21.5146 135.866C21.226 135.288 21.5409 134.579 21.8557 134.081C22.2493 133.503 22.8527 133.057 23.4299 132.716C24.7679 132.007 26.2372 131.797 27.6277 131.325C28.2574 131.141 28.9133 130.8 29.1756 130.17C29.4642 129.513 29.0445 128.936 28.4935 128.595C27.4178 127.938 25.9486 128.201 24.8467 128.7C24.0858 129.041 23.2725 129.592 22.4067 129.618C22.0131 129.618 21.6721 129.408 21.5146 128.988C21.2785 128.332 21.5409 127.571 21.9344 127.02C22.774 125.76 24.3482 125.156 25.7125 124.71C27.2342 124.211 28.8083 123.844 30.3825 123.476C31.432 123.266 33.5571 122.61 32.9274 121.087C32.2715 119.644 30.3563 119.749 29.0969 120.116C28.3361 120.352 27.6015 120.641 26.8669 120.93C26.0535 121.166 25.2927 121.429 24.4793 121.691C23.8234 121.901 23.0363 122.216 22.328 122.19C21.6721 122.137 21.331 121.639 21.3047 121.009C21.1998 119.565 22.3542 118.226 23.4299 117.412C24.663 116.52 26.1322 115.995 27.549 115.47C28.3099 115.181 29.0707 114.919 29.8053 114.604C30.4612 114.315 31.1958 113.974 31.7206 113.449C32.1404 112.95 32.2715 112.294 31.878 111.743C31.5107 111.165 30.8023 110.903 30.1464 110.929C29.3331 110.929 28.5984 111.27 27.8638 111.585C27.1292 111.9 26.3684 112.241 25.6337 112.583C24.8729 112.898 24.0858 113.239 23.3512 113.606C22.8789 113.843 22.0918 114.341 21.6721 113.738C21.3572 113.344 21.4622 112.714 21.5671 112.215C21.7245 111.506 22.0918 110.824 22.6428 110.325C23.7447 109.275 25.3451 108.934 26.6832 108.225C27.2604 107.884 27.9163 107.49 28.3099 106.887C28.6772 106.335 28.7821 105.653 28.2049 105.18C27.103 104.183 25.3714 104.944 24.2432 105.522C23.9546 105.679 23.666 105.837 23.3774 106.02C23.0888 106.204 22.8002 106.388 22.4067 106.493C21.8295 106.624 21.4359 106.204 21.3835 105.627C21.226 104.34 22.0918 103.133 23.0888 102.398C24.3219 101.506 25.8436 101.164 27.2342 100.666C28.5722 100.246 30.1464 99.5631 30.9072 98.3032C31.2483 97.8044 31.327 97.122 30.8548 96.702C30.3563 96.2032 29.5167 96.177 28.8871 96.282C27.3391 96.4657 25.9223 97.2007 24.6105 97.9882C23.8759 98.3819 21.5409 100.141 21.3047 98.3819C21.0949 96.9907 22.1443 95.6258 23.2462 94.8908C24.4531 94.1296 25.8961 93.7883 27.2604 93.3683C28.4935 92.9746 29.7266 92.5021 30.7236 91.6621C31.4582 91.0847 32.3502 89.956 31.3533 89.1685C30.8548 88.7748 30.1202 88.7485 29.5167 88.7747C28.7034 88.8272 27.9163 89.116 27.1555 89.431C26.4208 89.746 25.66 90.1135 24.9516 90.4809C24.2695 90.8747 23.6135 91.3209 22.9314 91.6884C22.3804 91.9771 21.5409 92.2396 21.0686 91.5834C20.7013 91.0584 20.7538 90.2447 20.885 89.641C21.5409 86.6223 25.2402 86.5173 27.4965 85.3361C28.0737 84.9949 28.7034 84.6012 29.0969 84.0499C29.4643 83.5512 29.6217 82.8687 29.2019 82.3437C28.7296 81.8188 27.9688 81.7138 27.3129 81.7925C26.552 81.845 25.7649 82.1075 25.0565 82.4225C24.3219 82.7637 23.6398 83.1575 22.9576 83.6037C22.4329 83.9187 21.777 84.3649 21.1211 84.3387C20.439 84.2862 20.1504 83.6299 20.1241 83C20.1241 82.2912 20.3602 81.6088 20.8063 81.0575C21.6983 79.8763 23.1938 79.5088 24.5056 79.0101C25.1877 78.7739 25.8961 78.4589 26.5258 77.9601C27.0243 77.5664 27.5752 76.9627 27.549 76.2539C27.549 75.624 26.998 75.204 26.3946 75.0727C25.6862 74.9152 24.8729 75.099 24.1907 75.3615C23.4561 75.6502 22.774 76.044 22.0918 76.4377C21.5409 76.8052 20.885 77.3564 20.1766 77.2514C19.5994 77.1202 19.4682 76.5164 19.5207 75.9915C19.6256 75.2827 19.9929 74.6003 20.4914 74.049C21.4097 72.9728 22.774 72.4216 24.1383 71.9753C25.5813 71.5029 27.103 71.2141 28.4673 70.5579C29.438 70.0854 30.7761 69.1667 30.4875 67.933C30.33 67.2768 29.6479 66.9618 29.0445 66.9093C28.3098 66.8043 27.4965 66.9618 26.7881 67.198C25.2664 67.6967 23.9809 68.563 22.5903 69.2979C21.9082 69.6654 21.1736 70.0329 20.4389 70.3217C19.8093 70.5054 19.0484 70.6891 18.4975 70.2954C17.9727 69.9279 17.8678 69.2454 17.999 68.668C18.1302 67.9592 18.5499 67.3293 19.0747 66.8305C20.0716 65.9118 21.3572 65.5443 22.5641 64.9668C23.0888 64.7569 23.6398 64.4156 23.8497 63.8644C24.0596 63.1819 23.5086 62.4994 22.9314 62.2632C21.4884 61.5807 20.1241 62.7357 18.891 63.3394C18.34 63.6281 17.6579 63.8381 17.002 63.5756C16.5822 63.3919 16.2674 63.0244 16.0837 62.5782C15.9001 62.1057 15.7689 61.5807 15.7164 61.082C15.6902 60.8457 15.6639 60.5832 15.6115 60.3733C15.5065 59.9533 15.4016 59.5333 15.2704 59.1395C15.1654 58.8246 15.1392 58.4833 15.2966 58.2208C15.454 57.9583 15.7164 57.7483 16.005 57.6433C16.6609 57.3546 17.3693 57.2759 18.0514 57.0659C19.2321 56.6984 21.0161 55.6484 20.7538 54.1522C20.4389 52.5773 18.4975 52.866 17.4218 53.3123C16.7134 53.6272 16.0575 54.0472 15.3753 54.4935C14.8244 54.8347 14.0898 55.2547 13.4076 55.0184C12.7255 54.7822 12.3844 54.0472 12.1483 53.4697C11.8597 52.7085 11.676 51.9211 11.4924 51.1598C10.7577 47.8262 10.6003 44.3876 10.6003 40.9752C10.6003 37.7465 10.7315 34.5442 10.9414 31.368C11.0463 29.7668 11.1775 28.1394 11.3612 26.5382C11.4137 25.8032 11.5448 25.042 11.5711 24.307C11.5711 23.8345 11.3874 22.9158 11.9121 22.6271C12.0958 22.8371 12.0958 23.1521 12.0696 23.4408C12.0171 23.8083 11.9384 24.1758 11.8859 24.5433C11.781 25.3832 11.781 26.2494 11.781 27.0894C11.8072 28.8219 11.9384 30.5543 12.1745 32.2867C12.6468 35.4366 13.4601 38.5603 14.9293 41.4477C16.2149 44.0726 18.0777 46.4612 20.4652 48.2462C22.8789 50.0311 25.7649 51.2123 28.7296 51.6848C32.1404 52.2098 35.6035 51.8686 38.988 51.4486C42.4512 51.0286 45.9144 50.5561 49.3776 50.1886C56.3303 49.4274 63.3091 48.9024 70.288 48.3512C77.2931 47.8262 84.3244 47.3537 91.3295 46.96C98.3084 46.5662 105.313 46.225 112.319 45.91C119.271 45.595 126.25 45.3325 133.255 45.07C140.26 44.8075 147.265 44.5713 154.27 44.3351C161.276 44.0988 168.307 43.8363 175.286 43.6001C182.343 43.3114 189.348 43.0489 196.38 42.7076C203.332 42.3664 210.285 41.9989 217.238 41.5264C220.727 41.3164 224.217 41.0539 227.68 40.7914C228.546 40.6864 229.411 40.6339 230.277 40.5552C231.012 40.4502 231.773 40.3452 232.533 40.214C232.953 40.1877 233.557 40.1877 233.688 40.7389C233.74 41.0802 233.662 41.4477 233.635 41.7889C233.609 42.1826 233.635 42.6289 233.635 43.0226C233.74 44.7551 234.029 46.4875 234.265 48.1937C234.501 49.9261 234.764 51.6323 235 53.3647C235.288 55.0972 235.524 56.8296 235.761 58.5621C235.997 60.2945 236.18 62.0007 236.233 63.7331C236.285 66.6468 235.813 69.6654 234.16 72.0803H234.422ZM239.644 27.2207C239.171 26.6432 238.41 25.9607 237.676 26.4857C236.994 26.9582 236.967 28.0344 236.967 28.7431C236.967 29.8981 237.256 31.0268 237.65 32.0767C237.807 32.418 238.043 32.9167 237.676 33.1792C237.387 33.363 236.941 33.4154 236.6 33.4154C235.918 33.3629 235.367 32.8905 235 32.3392C233.976 30.8955 233.714 28.9794 233.373 27.2732C233.189 26.3807 233.032 25.4882 232.743 24.622C232.586 24.0708 232.324 23.2571 231.694 23.0471C230.881 22.7583 230.12 23.7558 229.779 24.3858C229.359 25.2782 229.805 26.4594 230.015 27.3782C230.251 28.4806 230.566 29.6093 230.854 30.738C231.012 31.2368 231.09 31.7618 231.222 32.2867C231.353 32.6542 231.589 33.3367 231.327 33.6779C231.09 33.9667 230.566 33.9929 230.251 34.0192C229.779 34.0717 229.333 34.1504 228.86 34.0192C227.995 33.8354 227.417 33.1792 227.024 32.3917C226.184 30.5543 226.473 28.4544 225.633 26.6432C225.292 25.9345 224.663 24.9107 223.849 24.727C223.167 24.5695 222.774 25.357 222.564 25.882C221.829 27.9294 222.957 30.1868 223.561 32.1292C223.771 32.8117 224.453 34.1504 223.429 34.4392C222.59 34.7279 221.724 34.3867 221.147 33.7829C220.465 33.1005 220.124 32.1555 219.861 31.2105C219.52 30.1343 219.284 28.9794 219.022 27.8506C218.812 26.8269 218.628 25.7507 218.287 24.727C218.051 23.992 217.526 22.7583 216.529 23.2046C215.768 23.572 215.034 24.4908 215.139 25.4095C215.244 26.4594 215.532 27.5094 215.795 28.5331C216.11 29.6881 216.424 30.8168 216.661 31.9718C216.792 32.4705 216.87 32.943 216.975 33.4154C217.028 33.7829 217.159 34.2817 216.818 34.5179C216.529 34.7017 216.11 34.7017 215.795 34.7017C215.322 34.7279 214.876 34.6754 214.43 34.5179C213.46 34.1767 212.935 33.3367 212.646 32.418C212.017 30.6593 212.069 28.7694 211.571 26.9844C211.335 26.1445 210.941 25.3045 210.338 24.6745C209.787 24.097 208.999 23.7033 208.449 24.4908C207.268 26.092 208.055 28.5069 208.606 30.1868C208.947 31.2105 209.288 32.208 209.524 33.2055C209.577 33.5992 209.839 34.2029 209.498 34.5442C209.288 34.7804 208.816 34.7279 208.527 34.7279C206.455 34.6229 205.825 32.6017 205.589 30.8693C205.3 29.0056 205.353 26.6432 203.805 25.3045C203.096 24.6745 202.362 24.6745 201.889 25.5145C201.365 26.4332 201.365 27.5619 201.548 28.5856C201.732 29.5831 202.099 30.5543 202.414 31.5255C202.572 32.0243 202.703 32.523 202.834 32.9692C202.965 33.3892 203.227 33.9929 203.044 34.4129C202.834 34.9641 201.942 34.9116 201.443 34.9116C200.735 34.9116 200.079 34.6229 199.607 34.0717C198.636 32.9692 198.531 31.2893 198.321 29.9243C198.138 28.9006 197.928 27.8244 197.298 26.9582C196.878 26.302 195.908 25.5407 195.199 26.2757C193.861 27.7194 194.622 29.9768 195.173 31.6043C195.33 31.998 195.462 32.418 195.593 32.8117C195.724 33.2842 195.96 33.7304 195.986 34.2292C195.986 34.6229 195.829 34.8591 195.462 34.9641C194.989 35.0954 194.491 35.1741 194.045 35.2004C193.074 35.2529 192.208 34.9904 191.552 34.2817C190.975 33.6517 190.582 32.8905 190.319 32.0767C189.742 30.4493 189.453 28.5594 188.273 27.2207C187.774 26.6694 186.725 25.672 186.069 26.5119C185.518 27.2469 185.439 28.2706 185.597 29.1369C185.78 30.1606 186.226 31.0793 186.646 31.9718C186.856 32.4442 187.04 32.8905 187.276 33.3629C187.433 33.7829 187.696 34.2554 187.774 34.7542C187.905 36.0141 185.649 35.1479 185.124 34.7804C183.865 33.8092 183.419 32.0505 183.052 30.5805C182.632 28.8481 182.317 26.9319 181.294 25.4357C180.9 24.8582 180.271 24.202 179.589 24.0183C178.67 23.8083 178.408 24.9895 178.303 25.6195C177.936 27.6931 179.011 29.7406 179.851 31.578C180.323 32.5755 180.664 33.5467 181.005 34.5967C181.11 34.9379 181.294 35.4366 181.032 35.7779C180.795 36.0929 180.192 36.1454 179.825 36.2504C178.959 36.4341 178.067 36.4078 177.332 35.8566C176.703 35.3841 176.309 34.6754 176.047 33.9667C175.391 32.4442 175.286 30.6855 174.263 29.3206C173.869 28.8219 172.767 27.7456 172.059 28.2969C171.35 28.8481 171.298 30.2131 171.403 31.0268C171.586 32.1292 172.137 33.153 172.61 34.1767C172.793 34.5967 173.003 35.0166 173.187 35.4366C173.371 35.7779 173.607 36.2766 173.423 36.6703C173.266 37.0378 172.793 37.0903 172.452 37.1953C171.928 37.3266 171.35 37.4316 170.773 37.3266C169.907 37.1428 169.278 36.4866 168.858 35.7516C167.861 33.9142 167.861 31.788 166.838 30.0031C166.444 29.2681 165.736 28.3231 164.817 28.2181C163.925 28.0606 163.611 29.3731 163.558 30.0031C163.348 32.0243 164.581 33.8092 165.29 35.5679C165.5 36.0666 165.683 36.5653 165.841 37.0903C165.972 37.4841 166.129 37.9303 165.71 38.1928C165.395 38.4028 165.001 38.429 164.66 38.5078C164.135 38.6128 163.584 38.6653 163.06 38.5078C161.617 38.0878 161.118 36.3816 160.672 35.0954C160.462 34.3867 160.252 33.6517 159.754 33.048C159.282 32.523 158.311 32.1555 157.707 32.733C157.235 33.258 157.314 34.1767 157.366 34.8329C157.471 35.6991 157.681 36.5653 157.944 37.4053C158.127 37.904 158.809 38.7965 158.652 39.3215C158.521 39.7415 157.812 39.8727 157.445 39.8465C156.238 39.8465 155.32 38.6653 154.717 37.7465C154.034 36.6966 153.51 35.5154 152.985 34.4129C152.749 33.7829 151.122 29.0581 150.178 29.9768C148.997 31.0793 149.312 33.1267 149.705 34.5179C150.099 35.8566 150.676 37.1166 151.096 38.4553C151.253 38.849 151.726 39.6102 151.489 40.0302C151.253 40.4502 150.519 40.4502 150.125 40.5027C148.866 40.6602 147.738 40.2927 147.003 39.2427C146.268 38.219 145.98 36.9853 145.586 35.8041C145.245 34.7542 144.72 33.6517 143.828 32.8905C143.068 32.2605 142.202 32.418 141.861 33.3892C141.441 34.4654 141.73 35.6204 142.149 36.6441C142.385 37.1953 142.648 37.7465 142.884 38.324C143.068 38.7178 143.723 39.584 143.435 40.0565C143.199 40.424 142.28 40.3452 141.913 40.3452C141.336 40.319 140.733 40.1615 140.208 39.8465C139.185 39.1902 138.607 38.0615 138.24 36.9328C137.768 35.5941 137.558 34.2029 136.955 32.943C136.666 32.313 136.299 31.7618 135.853 31.263C135.512 30.8955 134.987 30.3968 134.436 30.5018C133.386 30.6593 133.334 32.3392 133.386 33.1267C133.57 35.1479 134.829 36.8278 135.485 38.6915C135.59 38.9278 135.695 39.3215 135.433 39.5052C135.039 39.689 134.357 39.5052 133.99 39.374C132.284 38.9015 131.445 37.2478 130.999 35.6991C130.343 33.6779 130.159 31.368 128.9 29.6093C127.667 27.9031 125.961 27.9294 125.883 30.2656C125.752 32.4705 127.09 34.4129 127.903 36.3553C128.087 36.8541 128.926 38.2978 128.323 38.7965C127.824 39.1902 126.25 39.0853 125.673 39.0065C123.417 38.7703 122.341 36.9591 121.475 35.0691C121.003 34.0979 120.557 33.1792 119.901 32.3392C119.429 31.788 118.825 30.7643 118.143 31.683C117.592 32.4967 117.513 33.4417 117.645 34.3867C117.75 34.8854 117.854 35.4104 118.012 35.9091C118.169 36.4078 118.432 36.9328 118.51 37.4578C118.642 38.2715 117.986 38.4815 117.303 38.324C116.49 38.1665 115.703 37.6678 115.257 36.9591C114.365 35.4366 114.444 33.4679 114.155 31.788C114.024 31.0268 113.814 30.2393 113.447 29.5568C113.079 28.9269 112.266 27.9819 111.479 28.1919C110.613 28.4281 110.325 29.7668 110.298 30.4756C110.272 31.5255 110.535 32.5492 110.849 33.5467C111.19 34.5442 111.663 35.5154 111.873 36.5653C112.03 37.3266 112.03 38.1665 111.164 38.4815C110.43 38.7178 109.538 38.4815 108.882 38.0878C108.016 37.5891 107.544 36.7228 107.281 35.8041C106.783 34.1767 106.914 31.6305 105.235 30.5805C104.474 30.0556 103.608 30.528 103.267 31.3418C102.926 32.1555 103.083 33.1267 103.293 33.9929C103.529 35.0691 103.975 36.1191 104.264 37.2216C104.369 37.5103 104.579 37.9828 104.316 38.2453C104.054 38.5078 103.477 38.4553 103.162 38.4815C102.244 38.5078 101.457 38.1928 100.932 37.4316C100.407 36.6178 100.224 35.6466 100.066 34.7017C99.7776 32.838 99.7776 30.7118 98.5707 29.1631C98.2034 28.7431 97.5213 28.0081 96.8654 28.2444C96.157 28.4806 95.8684 29.6356 95.8159 30.3181C95.5798 32.3917 96.5505 34.3342 97.154 36.2766C97.2852 36.6966 97.3639 37.1691 97.4688 37.6416C97.5213 37.9828 97.6525 38.4028 97.3376 38.6653C97.1015 38.8753 96.6817 38.9015 96.3669 38.954C95.9471 39.0065 95.4749 39.059 95.0026 38.954C93.1136 38.4815 92.7725 36.1454 92.5626 34.5179C92.3527 32.8117 92.0641 30.7118 90.5949 29.6356C89.834 29.0581 89.1781 29.4518 88.8371 30.2656C88.4435 31.158 88.4435 32.1555 88.6272 33.1005C88.8633 34.2029 89.2831 35.3054 89.6504 36.4078C89.8078 36.9066 89.939 37.4053 90.0439 37.9303C90.1489 38.2978 90.3588 38.9015 90.0439 39.1902C89.8078 39.479 89.2044 39.5052 88.8633 39.5052C88.391 39.5052 87.945 39.374 87.5777 39.1377C86.8431 38.639 86.5545 37.7203 86.3971 36.8803C86.1872 35.8304 86.056 34.7804 85.8724 33.7304C85.6887 32.7592 85.4526 31.7618 84.8229 31.0005C84.5343 30.633 84.167 30.3181 83.7472 30.1868C83.275 30.0293 82.9339 30.2393 82.6978 30.6068C82.1468 31.4468 82.0156 32.4967 82.1468 33.4942C82.278 34.5704 82.6715 35.6466 83.0388 36.6703C83.3537 37.5103 83.7997 38.5078 83.5636 39.4002C83.3537 40.2402 82.5141 40.3977 81.7795 40.2402C80.8088 40.0565 80.1791 39.3215 79.8118 38.4815C78.9722 36.6178 79.287 34.4392 78.3688 32.6017C78.0015 31.8668 77.2669 31.053 76.3223 31.2105C75.4828 31.368 75.1679 32.2342 75.1155 32.9692C74.9581 34.9116 75.7976 36.7753 76.3748 38.5603C76.6634 39.3215 77.2668 40.5814 76.2436 41.0014C75.4041 41.3689 74.2759 41.3427 73.4363 41.0014C71.8359 40.3452 71.285 38.5078 70.839 36.9853C70.4454 35.4104 70.1043 33.6779 68.9762 32.4442C68.5039 31.9455 67.402 31.0005 66.8248 31.7618C66.1689 32.5755 66.1951 33.8879 66.405 34.8329C66.8248 36.9066 68.1366 38.639 68.7138 40.6864C68.8187 41.0014 68.9499 41.4214 68.7138 41.7364C68.5039 42.0251 68.0054 42.0252 67.6906 42.0514C66.7723 42.1039 65.854 41.9464 65.2244 41.2377C64.5422 40.4765 64.3061 39.4527 63.965 38.4815C63.624 37.5628 63.1517 36.6178 62.4696 35.9091C61.8399 35.2791 60.9216 34.9379 60.3444 35.8566C59.8722 36.5653 59.9246 37.5628 60.1345 38.4028C60.3707 39.4527 60.8954 40.4502 61.3676 41.4214C61.525 41.7102 61.7612 42.1039 61.6562 42.4189C61.4988 42.8389 60.8167 42.9176 60.4231 42.9176C59.4524 42.8914 58.7178 42.2351 58.1406 41.5264C57.4584 40.7127 56.9337 39.7677 56.4352 38.7965C55.9367 37.8253 55.5169 36.8541 55.0447 35.8566C54.8348 35.3841 54.6249 34.9379 54.3888 34.4654C54.2313 34.1242 54.0477 33.7304 53.7329 33.4942C52.3948 32.6017 52.4473 36.3028 52.4998 36.7753C52.6572 37.8515 52.9982 38.8753 53.418 39.899C53.7329 40.6602 54.1789 41.4477 54.3888 42.2876C54.8085 44.2563 51.5815 43.5738 50.6894 42.8651C49.5088 41.8939 49.2464 40.2665 48.8267 38.9015C48.5381 37.8515 48.197 36.8278 47.7772 35.8304C47.4099 35.0166 46.9376 34.1242 46.1768 33.6254C45.3635 33.0742 44.6551 33.7304 44.419 34.5442C44.1041 35.5679 44.314 36.6703 44.6551 37.6678C45.0224 38.7178 45.4946 39.7677 45.9407 40.7914C46.1506 41.3164 46.4129 41.8152 46.6228 42.3139C46.8065 42.7339 46.9901 43.3114 46.754 43.7313C46.3867 44.3876 45.3897 44.3876 44.7338 44.2826C43.8418 44.1251 43.1071 43.6001 42.6087 42.8389C41.6379 41.3427 41.5067 39.479 40.1687 38.1928C39.539 37.6153 38.7257 37.5103 38.2797 38.3765C37.8861 39.1377 37.9386 40.109 38.1485 40.9227C38.2797 41.4214 38.4633 41.8939 38.647 42.3401C38.8306 42.7601 39.0667 43.1801 39.2242 43.6001C39.5652 44.4663 38.7257 44.3351 38.1485 44.3088C37.0466 44.2826 35.8922 44.4138 34.7378 44.4401C33.5309 44.4663 32.324 44.4926 31.0909 44.4926C30.5924 44.4926 30.1202 44.4926 29.6479 44.5188C29.2806 44.5188 28.9658 44.4926 28.992 44.0463C29.0445 43.5213 29.2806 42.9964 29.3855 42.4714C29.5167 41.9464 29.6217 41.3952 29.7266 40.8439C30.1989 38.5603 30.5399 36.2766 30.6974 33.9404C31.0122 29.3993 30.7236 24.8058 29.6741 20.3697C29.1757 18.2697 28.4935 16.1698 27.6277 14.1486C27.2342 13.1512 26.7357 12.2062 26.1322 11.2612C25.8961 10.8412 25.6075 10.4213 25.3976 10.0013C24.9778 9.13505 25.5813 9.03005 26.3159 8.95131L28.0737 8.76756C29.2281 8.66257 30.3825 8.55757 31.5632 8.42632C33.8457 8.21633 36.1808 8.03259 38.4895 7.87509C43.317 7.56011 48.1708 7.37636 52.9982 7.21887C62.7057 6.90388 72.4394 6.74638 82.173 6.72013C91.8542 6.66764 101.509 6.69389 111.164 6.77263C120.898 6.87763 130.632 6.98263 140.391 7.16637C150.099 7.35011 159.806 7.56011 169.514 7.8226C179.195 8.05884 188.876 8.32133 198.557 8.63632C208.291 8.95131 218.025 9.2663 227.811 9.63378C230.198 9.68628 232.533 9.79128 234.921 9.92252C235.839 9.94877 236.758 9.94877 237.65 9.94877H238.384C239.46 9.92252 240.509 10.0013 241.48 10.5C244.261 11.9175 245.153 15.3561 245.468 18.191C245.652 20.0547 245.625 21.9446 245.363 23.782C245.074 26.0132 244.55 28.2969 243.5 30.3181C243.29 30.7118 243.028 31.1318 242.739 31.4993C242.503 31.788 242.057 32.2605 241.664 32.3392C241.244 32.3655 241.296 31.8143 241.296 31.5255C241.244 30.948 241.113 30.3706 240.982 29.7931C240.745 28.8744 240.352 27.9031 239.801 27.0894L239.644 27.2207Z" fill="#017EFE"/>
<path d="M55.4633 91.6357C94.7653 89.3521 134.907 86.5434 174.576 90.1658C177.567 90.507 183.103 90.0083 182.972 86.9897C181.844 77.9075 34.9727 78.9312 55.4633 91.6357Z" fill="#017EFE"/>
<path d="M55.6993 117.832C93.6895 115.391 123.73 112.74 161.143 116.31C164.16 116.625 169.617 116.205 169.486 113.107C168.148 104.025 35.786 105.285 55.6731 117.832H55.6993Z" fill="#017EFE"/>
<path d="M55.3323 143.845C95.7363 141.509 148.76 138.727 190.764 142.428C193.677 142.743 198.819 142.165 198.661 139.225C197.638 130.064 33.2413 131.009 55.3061 143.871L55.3323 143.845Z" fill="#017EFE"/>
<path d="M55.8573 170.042C91.355 167.102 112.082 165.973 148.498 168.283C173.317 155.421 33.399 157.468 55.8573 170.042Z" fill="#017EFE"/>
<path d="M156.526 188.442C155.529 188.6 154.559 188.652 153.562 188.784C154.559 188.679 155.582 188.626 156.526 188.442Z" fill="#017EFE"/>
<path d="M176.072 256.427H176.125H175.888C175.888 256.427 175.862 256.453 175.836 256.453C175.941 256.453 176.02 256.453 176.072 256.427Z" fill="#017EFE"/>
<path d="M161.458 227.159H161.799C163.4 227.474 165.053 226.057 167.309 223.695C170.09 220.807 173.527 217.5 176.282 214.507C180.558 210.019 178.25 206.37 173.685 209.651C173.265 209.966 172.819 210.307 172.399 210.701C169.487 213.142 166.916 216.738 163.584 218.497C160.409 220.046 154.637 215.137 154.952 218.077C155.319 220.23 159.307 226.582 161.485 227.159H161.458Z" fill="#017EFE"/>
</g>
<defs>
<clipPath id="clip0_241_2735">
<rect width="252" height="321" fill="white"/>
</clipPath>
</defs>
</svg>
