<svg width="223" height="277" viewBox="0 0 223 277" fill="none" xmlns="http://www.w3.org/2000/svg">
<path d="M208.814 87.6088C208.784 86.4831 208.755 85.3277 208.696 84.2316C208.637 84.2316 208.578 84.2908 208.519 84.2908C208.047 78.4844 207.545 72.826 207.133 67.5825C199.317 60.5614 187.667 59.9689 175.162 59.9096C175.545 47.0525 175.958 33.8695 172.419 22.3158C162.509 -3.57626 128.709 -6.83499 112.429 12.0064C103.109 12.1249 93.8777 16.2723 86.7697 26.2559C82.4637 28.9814 79.013 43.0235 79.2194 51.8221C74.7954 51.7924 70.7843 52.0887 67.4515 52.9182C66.6552 51.6739 64.3547 51.1111 60.1666 52.1776C50.2274 56.9175 28.4022 60.6206 21.5892 67.9972C19.3182 80.3211 7.37336 180.394 2.15302 222.253C1.56315 225.808 0.973284 229.423 0.265441 232.948C0.442402 232.918 0.648856 232.829 0.825817 232.77C0.471895 235.585 0.206454 237.806 0 239.08C0.530882 248.649 18.5219 245.39 23.9192 247.553C33.8585 251.286 38.1055 271.223 47.8384 276.259V276.467C47.8384 276.467 48.1038 276.437 48.2218 276.408C48.6642 276.615 49.0771 276.822 49.549 277C49.9029 276.733 50.1094 276.437 50.3748 276.171C96.7385 270.808 179.497 267.55 223 253.478C219.844 207.945 213.267 139.245 208.814 87.6681V87.6088ZM174.778 88.4383C176.518 90.8083 176.017 94.6891 172.419 95.7556C167.316 96.911 165.281 91.3119 167.552 88.3494C168.88 93.5041 173.127 93.0005 174.778 88.4087V88.4383ZM153.454 12.1841C153.248 12.3619 153.042 12.5396 152.924 12.747C152.658 13.5172 153.69 13.6061 154.133 13.5172C154.487 13.458 154.782 13.3099 155.106 13.1617C156.404 13.932 157.613 14.7911 158.734 15.7687C158.586 15.828 158.468 15.9168 158.35 15.9761C157.908 16.1835 157.436 16.3908 156.994 16.5686C156.079 16.9537 155.165 17.2796 154.398 17.7832C153.956 18.1091 153.366 18.7312 154.044 19.1459C154.605 19.5014 155.43 19.0867 155.991 18.8201C156.905 18.4349 157.701 17.9609 158.557 17.6055C159.029 17.3981 159.589 17.1315 160.12 17.0722C160.739 17.6943 161.329 18.3164 161.89 19.0274C162.008 19.8866 160.857 20.1828 160.267 20.3902C159.501 20.7161 158.763 21.0419 158.055 21.427C157.643 21.6048 157.023 21.8714 156.876 22.4047C156.758 23.1157 157.643 23.2045 158.114 23.1157C158.911 22.9972 159.619 22.5232 160.297 22.0788C160.887 21.7233 161.624 21.2789 162.302 21.4567C162.656 21.6048 162.922 21.901 163.099 22.2269C163.305 22.612 163.512 22.9972 163.63 23.3823C163.866 24.3599 162.863 24.5673 162.185 24.7746C161.713 24.982 161.093 25.1894 160.651 25.5449C160.474 25.693 160.326 25.8708 160.267 26.1078C160.267 26.3744 160.474 26.5818 160.68 26.7003C161.329 27.0261 162.096 26.641 162.656 26.2855C162.981 26.1078 163.305 25.8708 163.659 25.8115C164.043 25.693 164.279 25.9596 164.485 26.2559C164.839 26.878 165.193 27.7964 164.75 28.4481C164.338 29.1887 163.512 29.3665 162.774 29.6035C162.391 29.722 162.037 29.8405 161.654 30.0182C161.329 30.196 160.946 30.4034 160.828 30.7292C160.444 31.5883 161.595 31.7068 162.126 31.5587C162.951 31.3513 163.659 30.8477 164.338 30.433C164.573 30.2256 164.927 30.0479 165.252 30.1071C165.606 30.2256 165.724 30.7292 165.842 31.0847C166.048 31.8253 166.373 32.8326 165.635 33.4547C165.37 33.6917 164.927 33.8398 164.544 33.9287C164.102 34.1065 163.571 34.1953 163.04 34.3435C162.686 34.462 162.273 34.5804 161.89 34.6989C161.506 34.8174 161.093 34.9359 160.798 35.2322C160.592 35.4692 160.562 35.8247 160.798 36.0617C161.034 36.3283 161.447 36.3876 161.831 36.3876C162.568 36.3283 163.335 35.9728 163.984 35.6469C164.426 35.4396 164.809 35.2618 165.281 35.0841C165.635 34.9359 166.078 34.6989 166.432 34.8471C166.756 34.9656 166.844 35.2618 166.903 35.5581C167.021 35.9432 167.051 36.2691 167.139 36.6542C167.198 37.0097 167.257 37.4244 167.021 37.8096C166.785 38.1947 166.402 38.402 165.989 38.5798C165.193 38.8168 164.279 38.9945 163.571 39.4982C163.246 39.6759 162.981 39.9722 163.099 40.3573C163.217 40.6832 163.571 40.772 163.866 40.8017C164.632 40.9202 165.399 40.4758 166.048 40.1499C166.432 39.9425 167.139 39.4982 167.493 39.7352C167.434 40.5054 167.346 41.2756 167.257 42.0755V43.8826C167.08 44.0604 166.874 44.2085 166.667 44.3566C165.96 44.8306 165.163 45.275 164.514 45.8675C164.19 46.1045 163.748 46.5785 163.807 46.9932C163.925 47.7042 164.957 47.3784 165.34 47.171C166.078 46.7859 166.667 46.1341 167.257 45.5712V49.4225C166.992 49.6595 166.667 49.8668 166.402 50.0742C165.989 50.3112 165.635 50.6075 165.281 50.9037C165.045 51.1407 164.809 51.4369 164.721 51.7332C164.514 52.4738 165.34 52.4442 165.842 52.2961C166.196 52.1479 166.491 51.9702 166.815 51.7332C166.992 51.6147 167.139 51.4666 167.257 51.2888V54.9623C166.844 55.3178 166.314 55.5844 165.901 55.9695C165.665 56.1769 165.429 56.5324 165.429 56.8879C165.458 57.273 165.871 57.4212 166.225 57.4212C166.609 57.3915 166.874 57.2138 167.198 56.8879C167.198 56.8879 167.228 56.8583 167.257 56.8287V59.4949C167.257 59.4949 167.228 59.6726 167.198 59.7319C167.139 59.7911 167.051 59.8504 167.021 59.9096C161.329 59.88 155.548 59.6726 150.004 58.7839C156.817 39.3797 141.303 19.0571 122.575 13.5172C131.423 7.5034 143.84 7.23678 153.395 12.2137L153.454 12.1841ZM111.367 37.8984C111.161 31.0847 112.694 25.5153 115.378 21.1012C129.329 20.7753 143.014 29.9294 142.984 50.2223C143.191 52.1479 142.925 55.1697 142.984 58.0433C134.195 58.1618 122.87 56.5324 111.279 54.903C110.836 47.7042 110.541 41.3941 111.397 37.8984H111.367ZM110.6 89.3567C112.901 91.5489 112.665 96.0815 108.683 97.2961C103.021 98.5996 101.163 91.6081 104.672 89.0308C105.38 91.4304 106.206 93.356 107.268 94.6595C108.772 93.6226 109.804 91.7266 110.571 89.3863L110.6 89.3567ZM106.176 22.7009C104.997 29.3072 103.581 41.3053 102.903 53.7773C97.1219 53.0071 91.4592 52.3553 86.1799 51.9998C85.59 36.5061 94.9099 26.404 106.176 22.7009ZM47.6614 227.438C47.1895 231.082 46.9241 234.044 47.396 234.725C47.0421 244.561 46.9831 253.922 47.1895 262.632C42.4706 255.996 35.5691 249.064 34.5368 245.361C29.7884 236.533 15.2481 240.502 8.46462 237.066C8.64158 235.259 9.05449 231.526 9.67385 226.312H9.70335C11.0895 225.779 12.7412 226.431 14.1274 226.194C15.1596 226.045 17.1062 225.008 15.72 223.912C14.5698 223.053 12.7412 223.498 11.3845 223.764C10.9421 223.883 10.4112 223.942 9.99828 223.794C10.1752 222.372 10.3522 220.861 10.5292 219.261C10.7356 219.113 10.9421 218.995 11.2665 218.876C12.6822 218.491 14.2158 218.906 15.6905 218.876C16.6343 218.876 19.0528 218.935 19.1413 217.573C19.1707 216.417 17.3716 216.032 16.5753 216.032C15.2481 215.884 13.9209 216.269 12.6527 216.565C11.9448 216.714 11.355 216.684 10.9126 216.388C11.0895 215.143 11.237 213.87 11.3845 212.507C11.5909 212.329 11.7974 212.151 12.0333 212.092C13.3605 211.559 14.9532 211.885 16.3099 211.826C17.4011 211.796 19.7606 211.826 20.38 210.67C20.9109 209.752 19.4657 209.13 18.8168 208.982C17.3716 208.656 15.838 209.159 14.3633 209.337C13.39 209.515 12.3873 209.396 11.8564 208.596C11.9743 207.589 12.0923 206.582 12.2398 205.515C12.4462 205.249 12.7117 204.953 13.0361 204.775C14.1864 204.123 16.3394 204.419 17.1652 203.205C18.1385 201.753 15.1596 201.842 14.4813 201.901C13.8619 201.931 13.0951 201.96 12.7117 201.368C12.8591 200.213 13.0361 198.998 13.1541 197.783C13.5965 197.191 14.2748 196.806 15.1596 196.776C16.3689 196.806 18.6104 197.517 19.1118 195.947C19.6721 194.436 17.5781 194.347 16.6343 194.406C15.6315 194.554 14.3338 194.821 13.685 193.873C13.6555 193.814 13.6555 193.725 13.6555 193.665C13.7734 192.836 13.8619 191.918 13.9799 191.059C14.1274 190.851 14.2453 190.614 14.4223 190.436C15.543 189.429 17.1062 189.666 18.4629 189.785C19.4362 189.903 21.2353 189.992 21.7957 188.955C22.5035 187.77 20.3505 187.118 19.5247 187.03C18.0205 186.881 15.4251 187.741 14.5108 186.556C14.6582 185.4 14.7762 184.245 14.9532 183.089C15.3366 182.556 15.897 182.171 16.5753 182.053C17.7551 181.845 19.4657 182.319 20.321 181.223C21.2943 180.008 19.3772 179.475 18.5219 179.505C17.4896 179.564 16.1034 179.92 15.4546 178.912C15.661 177.194 15.8675 175.506 16.0739 173.758C16.8113 173.047 18.05 173.017 19.1118 172.987C20.2915 172.958 22.7395 173.047 23.3883 171.773C24.0962 170.321 21.7662 169.995 20.8224 170.084C19.5837 170.232 18.109 171.18 16.8703 170.706C16.6933 170.647 16.6343 170.529 16.5163 170.44C16.6933 169.018 16.8703 167.536 17.0767 166.085C18.6104 164.9 21.3238 165.463 23.2408 164.752C23.7127 164.574 24.3616 164.307 24.6565 163.804C24.981 163.093 24.5386 162.471 23.9487 162.234C22.651 161.611 21.1763 162.293 19.9081 162.767C19.1707 163.033 18.1385 163.33 17.4306 163.004C17.6076 161.434 17.814 159.864 18.0205 158.294C19.9966 156.368 23.1229 157.346 25.3939 155.983C26.1902 155.509 26.7506 154.235 25.7183 153.791C24.981 153.435 23.9192 153.672 23.0639 153.939C21.6482 154.383 19.9966 155.864 18.4334 155.687C18.4039 155.687 18.3744 155.657 18.3154 155.657C18.5219 153.939 18.7283 152.28 18.9348 150.591C19.2887 150.265 19.6721 149.969 20.085 149.732C21.4122 149.021 22.9459 148.932 24.3026 148.399C25.0399 148.162 26.1902 147.747 26.5146 147.006C27.1045 145.97 25.6003 145.584 24.8925 145.614C23.5063 145.584 22.2971 146.266 21.1173 146.918C20.5864 147.155 19.9376 147.392 19.3772 147.392C19.6131 145.496 19.8491 143.659 20.085 141.763C20.8519 141.052 21.8547 140.637 22.9459 140.4C24.1551 140.074 25.5118 139.985 26.5736 139.215C27.5469 138.563 27.6649 137.408 26.3966 137.201C24.8925 136.993 23.5948 137.823 22.1791 138.356C21.6187 138.534 21.0288 138.623 20.4979 138.534C20.8224 136.045 21.1173 133.646 21.4122 131.246C22.0611 130.979 22.7984 130.802 23.4768 130.654C24.627 130.298 26.4556 129.913 27.1635 128.817C28.0778 127.365 25.6003 127.276 24.7745 127.484C24.0077 127.691 23.2408 128.106 22.474 128.461C22.2676 128.521 22.0316 128.639 21.7367 128.698C25.2169 100.97 28.1662 77.5956 28.7266 72.7964C35.3627 67.5825 48.4577 65.5087 56.9224 61.7167C58.1611 61.5686 59.3113 61.302 60.4026 60.9465C58.633 108.168 50.0209 173.669 47.6614 227.467V227.438ZM210.613 250.604C210.17 249.271 209.964 247.82 209.698 246.427C209.433 245.272 209.256 243.435 208.194 242.695C207.457 242.161 206.808 242.843 206.454 243.554C206.041 244.679 206.395 245.924 206.631 247.049C207.015 248.294 207.339 249.597 207.634 250.93C205.805 251.138 203.741 251.375 201.617 251.641C201.499 251.286 201.44 250.93 201.381 250.634C201.204 249.33 201.116 248.057 200.673 246.842C200.497 246.368 200.29 245.835 199.818 245.538C199.287 245.272 198.727 245.479 198.432 245.894C197.695 246.901 197.872 248.294 198.196 249.39C198.343 250.13 198.55 250.812 198.727 251.493C198.756 251.671 198.786 251.849 198.845 251.967C196.751 252.204 194.539 252.5 192.238 252.737C191.825 251.375 191.383 250.13 190.882 248.827C190.528 247.968 190.026 246.042 188.817 246.131C187.608 246.161 187.578 248.057 187.667 248.886C187.932 250.219 188.434 251.463 188.965 252.678C188.994 252.797 189.083 252.915 189.142 253.093C187.755 253.241 186.281 253.419 184.835 253.567C184.6 253.211 184.482 252.648 184.364 252.352C183.833 250.989 183.243 249.567 182.771 248.116C182.535 247.405 182.329 246.694 182.034 245.983C181.827 245.361 181.503 244.65 181.031 244.176C180.706 243.85 180.234 243.613 179.733 243.791C179.291 244.028 179.025 244.62 178.937 245.124C178.76 246.072 179.055 247.049 179.35 247.879C179.763 249.182 180.264 250.308 180.736 251.552C180.942 252.115 181.09 252.648 181.326 253.122C181.473 253.567 181.591 253.982 181.06 254.041H180.942C180.411 254.1 179.91 254.07 179.379 254.07C178.612 254.1 177.816 254.13 177.049 254.189C176.607 254.219 175.928 254.426 175.604 254.041C175.427 253.893 175.368 253.508 175.25 253.3C175.132 252.885 175.014 252.471 174.837 252.086C174.513 251.078 174.218 250.071 173.834 249.123C173.569 248.412 173.097 247.316 172.271 247.197C170.974 246.931 170.767 248.768 170.885 249.686C171.033 251.049 171.681 252.382 172.212 253.626C172.36 253.893 172.596 254.426 172.065 254.485C171.622 254.604 171.092 254.485 170.649 254.485C170 254.515 169.292 254.515 168.585 254.604C167.995 254.663 167.611 254.811 167.375 254.278C167.169 253.745 167.021 253.182 166.844 252.708C166.579 251.937 166.284 251.167 166.019 250.397C165.635 249.182 165.281 247.583 164.308 246.723C163.276 245.716 162.361 246.96 162.243 248.086C162.126 249.212 162.597 250.308 162.981 251.286C163.187 251.76 163.364 252.234 163.571 252.648C163.748 253.241 164.043 253.804 164.161 254.367C164.338 254.93 163.954 254.989 163.512 254.93C162.863 254.93 162.184 254.959 161.506 255.048C160.769 255.078 160.061 255.107 159.324 255.196C159.147 255.196 158.94 255.255 158.734 255.196C158.527 255.048 158.38 254.574 158.321 254.337C157.908 252.945 157.466 251.582 156.817 250.278C156.463 249.419 155.313 248.145 154.457 249.419C153.72 250.456 154.192 251.908 154.516 252.974C154.723 253.567 154.959 254.13 155.224 254.693C155.46 255.167 155.548 255.611 154.87 255.641C154.31 255.67 153.838 255.641 153.277 255.67C152.865 255.7 152.068 255.996 151.685 255.7C151.478 255.522 151.478 255.226 151.36 254.959C151.242 254.633 151.124 254.367 151.006 254.041C150.771 253.3 150.564 252.648 150.269 251.937C150.004 251.226 149.797 250.545 149.502 249.864C149.296 249.242 148.971 248.501 148.5 248.086C148.146 247.76 147.674 247.612 147.29 247.849C146.7 248.086 146.553 248.827 146.494 249.39C146.376 250.693 146.936 251.937 147.408 253.063C147.644 253.715 147.851 254.396 148.146 255.048C148.264 255.285 148.618 255.848 148.293 256.055C148.087 256.263 147.467 256.085 147.172 256.115C146.406 256.174 145.668 256.263 144.901 256.322C144.341 256.44 143.81 256.559 143.279 256.559C142.571 256.589 142.453 255.848 142.247 255.255C141.716 253.922 141.244 252.56 140.743 251.226C140.33 250.012 139.976 248.353 139.032 247.553C138 246.605 137.115 247.76 137.027 248.797C136.879 249.893 137.263 250.93 137.646 251.908C138.177 253.122 138.59 254.337 139.032 255.581C139.15 255.848 139.504 256.44 139.357 256.766C139.18 257.033 138.442 256.944 138.177 256.944C136.761 257.063 135.286 257.151 133.871 257.388C133.458 257.448 132.898 257.714 132.662 257.27C132.514 257.063 132.455 256.826 132.396 256.648C132.278 256.263 132.131 255.878 131.983 255.522C131.511 254.189 131.01 252.797 130.568 251.404C130.332 250.693 130.037 250.012 129.771 249.301C129.535 248.708 129.24 248.057 128.739 247.583C128.415 247.346 128.002 247.168 127.559 247.434C127.028 247.79 126.822 248.471 126.792 249.034C126.733 250.338 127.205 251.523 127.648 252.678C128.179 254.011 128.562 255.285 129.034 256.589C129.181 256.944 129.506 257.507 129.299 257.803C129.063 258.129 128.297 258.011 127.913 258.04C127.264 258.099 126.527 258.247 125.819 258.307C125.406 258.366 125.023 258.366 124.639 258.455C124.403 258.484 123.99 258.633 123.725 258.514C123.342 258.336 123.253 257.507 123.135 257.122C122.87 256.352 122.575 255.552 122.339 254.781C122.132 254.159 121.896 253.478 121.631 252.826C121.395 252.234 121.071 251.582 120.54 251.226C119.507 250.427 118.741 251.7 118.623 252.737C118.564 253.833 118.947 254.841 119.331 255.818C119.537 256.292 119.684 256.826 119.891 257.329C119.95 257.566 120.097 257.862 120.156 258.129C120.274 258.307 120.422 258.573 120.392 258.781C120.363 259.195 119.773 259.136 119.448 259.136C118.829 259.136 118.21 259.284 117.531 259.344C116.824 259.462 116.145 259.521 115.526 259.61C115.113 259.669 114.169 260.025 113.815 259.758C113.491 259.492 113.402 258.899 113.225 258.455C112.871 257.714 112.577 257.003 112.223 256.292C111.987 255.641 111.633 254.959 111.249 254.367C110.984 253.804 110.659 253.241 110.129 252.915C108.89 252.086 108.241 253.833 108.359 254.841C108.506 256.263 109.303 257.566 109.893 258.781C110.07 259.047 110.158 259.344 110.335 259.581C110.394 259.758 110.571 259.906 110.6 260.114C110.659 260.558 109.952 260.499 109.657 260.499C109.067 260.529 108.447 260.647 107.887 260.736C107.415 260.795 106.678 261.151 106.265 260.854C106.088 260.677 105.999 260.38 105.852 260.114C105.734 259.847 105.587 259.492 105.41 259.195C105.026 258.544 104.702 257.833 104.407 257.122C103.758 255.818 103.168 254.515 102.519 253.211C102.136 252.411 101.192 250.693 100.042 251.375C99.0095 251.997 99.3929 253.656 99.6584 254.485C100.13 255.907 100.897 257.181 101.546 258.514C101.87 259.107 102.165 259.818 102.46 260.44C102.578 260.677 103.021 261.21 102.785 261.536C102.608 261.802 101.87 261.714 101.634 261.714C100.838 261.862 100.042 261.98 99.2455 262.128L98.2132 262.306C97.9772 262.336 97.5938 262.484 97.2989 262.425C96.827 262.365 96.5616 261.299 96.3846 260.854C95.7947 259.492 95.1754 258.07 94.438 256.826C93.9661 255.996 92.6094 254.633 91.8721 256.085C91.4002 257.181 91.7541 258.573 92.2555 259.551C92.521 260.143 92.8454 260.736 93.1698 261.358C93.3763 261.625 93.4942 261.891 93.6122 262.128C93.7302 262.306 93.9661 262.662 93.8482 262.869C93.7302 263.284 92.6684 263.224 92.285 263.284C91.5182 263.343 90.7514 263.55 89.955 263.728C89.4831 263.787 89.1292 263.728 88.8343 263.284C88.5099 262.721 88.3034 262.039 88.0085 261.388C87.3891 260.084 86.7992 258.81 86.1799 257.507C85.7965 256.737 84.8232 254.811 83.6434 255.611C82.6407 256.352 83.0536 258.04 83.4075 258.929C83.9679 260.292 84.6462 261.536 85.2361 262.869C85.3835 263.106 85.5015 263.343 85.649 263.61C85.708 263.758 85.8554 263.935 85.8849 264.143C85.8849 264.617 85.2361 264.587 84.9117 264.587C83.5844 264.646 82.3457 265.002 81.048 265.328C80.4581 265.476 80.2517 265.209 80.0157 264.706C79.7503 264.084 79.3964 263.402 79.0719 262.721C78.718 261.951 78.4526 261.18 78.0397 260.41C77.6858 259.818 77.2728 258.988 76.5945 258.781C75.5917 258.425 75.1493 259.61 75.0608 260.469C75.0313 261.802 75.7687 262.987 76.2996 264.054C76.4765 264.409 76.6535 264.765 76.8599 265.061C76.9189 265.298 77.1844 265.594 77.1254 265.802C77.0959 266.068 76.801 266.187 76.4765 266.217L75.7392 266.335C74.9724 266.394 74.2055 266.483 73.4682 266.572C73.1143 266.305 72.9373 265.594 72.7309 265.328C72.1115 263.906 71.4036 262.543 70.7548 261.151C70.3124 260.203 69.7225 258.396 68.3953 258.425C67.2156 258.484 67.2451 260.262 67.4515 261.091C67.776 262.513 68.5723 263.787 69.2211 265.061C69.4571 265.624 69.6635 266.157 69.988 266.661C70.047 266.779 70.1059 266.839 70.1354 266.928C68.5133 267.105 66.9796 267.283 65.505 267.402V267.135C65.446 266.483 65.2985 265.802 65.1215 265.061C64.9151 263.61 64.7971 262.128 64.4727 260.677C63.0865 254.752 61.1694 257.507 60.5501 258.929C60.0192 260.055 60.668 264.261 61.3169 267.816C57.4533 268.172 54.6514 268.409 53.1767 268.438C54.1795 254.485 55.8901 230.222 57.8662 202.523C59.2229 201.783 60.786 202.464 62.1427 202.079C63.116 201.872 65.0036 200.45 63.6764 199.205C62.5261 198.198 60.7565 198.939 59.4293 199.353C59.0164 199.502 58.4855 199.62 58.0726 199.502C58.2201 197.694 58.3381 195.858 58.456 194.051C58.6625 193.814 58.9279 193.577 59.2523 193.429C60.6385 192.836 62.1427 193.221 63.5289 193.103C64.4432 193.043 66.8027 192.925 66.8322 191.266C66.8617 189.874 65.092 189.548 64.3252 189.577C63.0275 189.518 61.7888 190.051 60.5796 190.496C59.8127 190.762 59.1639 190.733 58.751 190.259C58.8689 188.896 58.9574 187.504 59.0164 186.141C59.2818 185.696 59.5768 185.341 59.9897 185.104C61.1989 184.393 62.7326 184.689 64.0598 184.511C65.151 184.334 67.3925 184.245 67.9824 182.793C68.4543 181.638 67.0681 180.986 66.4488 180.868C65.0626 180.542 63.5584 181.282 62.1722 181.608C61.0514 181.934 59.8127 181.875 59.4588 180.305V180.038C59.4883 179.475 59.5178 178.942 59.5768 178.409C59.8127 177.55 60.2256 176.691 60.8745 176.217C61.9952 175.298 64.0598 175.506 64.8266 173.935C65.7704 172.128 62.9095 172.425 62.2607 172.573C61.6413 172.632 60.904 172.78 60.5206 172.039C60.1666 171.388 60.2551 170.262 60.3436 169.492C60.5501 167.714 61.4349 166.44 62.88 166.292C64.0598 166.233 66.1833 166.914 66.7142 164.959C67.1861 163.063 65.21 163.122 64.2957 163.27C63.3519 163.507 62.1132 163.922 61.4939 162.826C60.904 161.671 61.3464 159.656 62.1427 158.59C63.175 157.227 64.7086 157.434 66.0063 157.494C66.9501 157.494 68.6903 157.523 69.2506 156.19C69.87 154.679 67.8349 154.057 67.0681 153.998C65.1805 153.939 61.6413 155.983 61.9363 152.013C61.9952 150.324 62.8506 148.606 64.2367 148.132C65.3575 147.806 66.9796 148.28 67.8055 146.888C68.7492 145.318 66.8912 144.814 66.0653 144.933C65.0331 145.081 63.7059 145.584 63.0865 144.399C62.7326 143.689 62.8211 142.829 62.88 142.03C62.939 141.111 62.998 140.134 63.1455 139.245C63.5584 137.29 65.2395 137.053 66.5372 136.904C67.6875 136.786 70.047 136.727 70.6368 135.127C71.3447 133.29 69.0737 133.053 68.1594 133.231C66.9501 133.557 65.5639 134.771 64.3252 134.327C63.234 133.912 63.293 132.046 63.4994 130.831C64.2662 126.565 67.9824 127.898 70.4304 126.595C70.8728 126.358 71.5216 125.943 71.7871 125.292C72.0525 124.462 71.6691 123.721 71.0792 123.484C69.8405 122.833 68.3953 123.721 67.2156 124.403C66.2423 124.877 64.7971 125.558 64.2662 124.166C63.7354 122.773 64.3842 120.522 65.1805 119.307C67.0976 116.523 70.2239 117.619 72.4359 115.752C73.2028 115.13 73.7336 113.56 72.7014 113.056C71.9935 112.671 70.9613 113.056 70.1944 113.412C68.8082 114.064 67.2451 115.96 65.7409 115.9C64.5317 115.782 64.5317 114.093 64.7676 112.908C65.151 111.16 65.9769 109.531 67.3041 108.465C68.5428 107.517 70.0175 107.309 71.3447 106.569C72.0525 106.184 73.1143 105.621 73.4387 104.673C73.9991 103.369 72.5834 102.984 71.8755 103.103C70.5483 103.132 69.3686 104.11 68.2184 104.939C67.2156 105.68 65.6524 106.361 65.505 104.406C65.387 103.014 65.8294 101.355 66.3603 100.081C67.1271 98.333 68.4248 97.4738 69.8995 96.8813C71.0497 96.437 72.3769 96.1704 73.3797 95.1927C74.3235 94.3336 74.3825 92.882 73.1733 92.7043C71.7281 92.5561 70.4599 93.7115 69.1327 94.4225C68.2773 94.8669 67.2451 95.1335 66.5962 94.2151C65.5934 92.7635 66.0358 89.7714 66.7142 88.0235C66.9796 87.2829 67.3336 86.6016 67.8644 86.0979C68.6018 85.4462 69.5456 85.2388 70.3419 84.9129C71.4626 84.4389 73.2322 83.8168 73.8516 82.3948C74.7069 80.5877 72.3179 80.647 71.5511 80.9728C70.7843 81.2987 70.1059 81.832 69.3391 82.3356C68.9262 82.5726 68.3068 82.9873 67.8055 82.7503C67.1861 82.4245 67.2451 81.4468 67.363 80.6766C67.481 79.7582 67.5695 78.8991 67.6285 78.0104L66.9206 77.7438C67.4515 71.0782 67.9234 64.8866 68.3363 59.5245C76.2996 60.354 88.6278 61.302 102.637 62.3092C102.49 68.9748 102.667 75.433 103.257 80.9136C91.9016 84.7648 92.108 104.199 107.209 105.147C121.307 105.384 124.344 85.6536 112.016 81.0617C112.4 75.6108 112.164 69.2414 111.78 62.9906C130.45 64.3237 150.859 65.7161 167.346 67.1085V79.3139C155.607 82.8688 155.666 102.717 170.974 103.636C185.337 103.873 188.198 83.491 175.103 79.3435C174.896 75.6108 174.896 71.7003 174.955 67.7602C187.932 68.9452 197.37 70.1302 199.671 71.2263C199.995 76.2921 200.438 82.2467 200.998 88.7938C200.379 89.1789 199.818 89.5344 199.199 89.9195V90.1269C199.405 91.5489 199.995 93.593 199.022 94.8372C198.845 95.0742 198.638 95.2816 198.373 95.4297C196.662 96.5555 194.421 96.1704 192.651 96.8221C191.324 97.2961 189.083 99.2217 191.206 100.229C192.976 101.058 195.247 99.9031 196.928 99.1921C197.488 98.9255 198.225 98.6292 198.845 98.7477C199.966 98.8958 199.995 100.17 200.025 101.088C200.084 102.688 200.202 104.584 198.491 105.532C196.721 106.45 194.598 106.332 192.71 106.776C191.471 107.013 188.257 107.635 188.581 109.472C188.847 110.923 191.354 110.924 192.356 110.716C194.126 110.509 195.719 109.62 197.341 108.939C198.845 108.228 200.261 108.198 200.703 109.946C201.116 111.486 200.85 113.619 199.346 114.597C197.783 115.604 195.63 115.634 193.89 116.137C192.474 116.523 189.377 117.115 188.876 118.804C188.493 120.137 190.498 120.552 191.413 120.552C193.359 120.552 195.247 119.455 197.105 118.804C198.55 118.241 200.231 118.033 201.057 119.633C201.794 121.144 201.322 123.188 200.084 124.344C198.756 125.529 195.837 125.736 195.099 127.602C194.273 129.765 198.137 128.787 198.963 128.55C199.818 128.313 200.791 128.017 201.47 128.728C202.089 129.35 202.237 130.535 202.266 131.424C202.384 133.379 201.47 134.92 199.523 135.394C197.931 135.719 194.834 135.423 194.598 137.615C194.332 139.719 197.016 139.245 198.255 138.919C199.494 138.445 201.116 137.734 202.266 138.771C203.357 139.897 203.121 142.148 202.266 143.452C201.145 145.14 199.022 145.229 197.223 145.436C195.925 145.614 193.536 145.97 193.094 147.51C192.563 149.258 195.512 149.495 196.603 149.406C199.14 149.08 203.593 146.118 204.065 150.413C204.301 152.22 203.623 154.294 201.765 155.064C200.349 155.657 197.931 155.509 197.105 157.197C196.19 159.093 198.845 159.212 199.966 158.916C201.352 158.56 203.062 157.701 204.213 158.856C204.832 159.508 204.921 160.486 205.009 161.374C205.127 162.352 205.274 163.389 205.215 164.426C205.068 166.588 202.856 167.211 201.057 167.625C199.523 168.01 196.338 168.573 195.837 170.44C195.306 172.573 198.432 172.276 199.612 171.891C201.234 171.299 202.885 169.699 204.626 169.936C206.218 170.143 206.572 172.099 206.572 173.461C206.454 178.172 201.057 177.579 198.019 179.475C197.429 179.86 196.692 180.423 196.456 181.164C196.22 182.141 196.928 182.852 197.783 182.971C199.671 183.415 201.411 182.141 202.885 181.193C204.065 180.423 205.953 179.416 206.985 180.779C207.988 182.171 207.634 184.719 206.779 186.2C204.803 189.607 200.29 189.074 197.636 191.562C196.721 192.392 196.397 194.169 197.842 194.495C198.933 194.732 200.231 194.11 201.204 193.577C202.974 192.569 204.685 190.229 206.779 189.992C208.46 189.814 208.843 191.681 208.755 192.954C208.637 194.939 207.811 196.865 206.248 198.257C204.744 199.502 202.767 200.094 201.175 201.131C200.261 201.723 198.963 202.553 198.668 203.619C198.226 205.13 200.261 205.219 201.204 204.982C202.974 204.627 204.39 203.382 205.746 202.227C206.985 201.22 208.991 200.153 209.61 202.197C210.052 203.649 209.846 205.515 209.374 207.026C208.725 209.1 207.162 210.285 205.245 211.203C203.741 211.944 202.001 212.507 200.821 213.751C199.73 214.906 199.966 216.447 201.647 216.358C203.652 216.18 205.156 214.729 206.838 213.662C207.958 213.01 209.227 212.507 210.347 213.336C212.058 214.669 212.087 217.987 211.557 219.972C211.35 220.831 211.026 221.661 210.406 222.283C209.551 223.142 208.312 223.587 207.28 224.061C205.894 224.831 203.593 225.838 203.003 227.527C202.266 229.66 205.51 229.097 206.513 228.534C207.457 228.06 208.312 227.319 209.227 226.638C209.787 226.253 210.554 225.69 211.232 225.838C212.176 226.016 212.264 227.082 212.323 227.941C212.382 228.949 212.441 229.897 212.53 230.845L213.651 231.022C214.24 240.532 214.447 247.405 214.034 250.19C213.002 250.308 211.851 250.427 210.672 250.575L210.613 250.604Z" fill="#017EFE"/>
</svg>
