<svg width="26" height="26" viewBox="0 0 26 26" fill="none" xmlns="http://www.w3.org/2000/svg">
<g clip-path="url(#clip0_286_259)">
<path d="M24.1428 12.9999C24.1428 10.0447 22.9689 7.21047 20.8792 5.12079C18.7895 3.03112 15.9553 1.85715 13 1.85715C10.0448 1.85715 7.21058 3.03112 5.1209 5.12079C3.03123 7.21047 1.85726 10.0447 1.85726 12.9999V20.0895C1.85726 20.9367 1.85726 22.2439 1.85726 23.1435C1.85726 23.6958 2.30495 24.1427 2.85724 24.1427C3.9554 24.1427 5.60449 24.1427 5.91045 24.1427H13C15.9553 24.1427 18.7895 22.9687 20.8792 20.8791C22.9689 18.7894 24.1428 15.9552 24.1428 12.9999Z" stroke="black" stroke-width="2"/>
<path d="M17.457 11.8857H8.54281M12.9999 17.4571H8.54281" stroke="black" stroke-width="2" stroke-linecap="round" stroke-linejoin="round"/>
</g>
<defs>
<clipPath id="clip0_286_259">
<rect width="26" height="26" fill="white" transform="matrix(-1 0 0 1 26 0)"/>
</clipPath>
</defs>
</svg>
