<svg width="18" height="18" viewBox="0 0 18 18" fill="none" xmlns="http://www.w3.org/2000/svg">
<path d="M8.51256 11.244C8.36986 11.244 8.25419 11.1283 8.25419 10.9856C8.25738 10.4817 8.3132 10.0718 8.42165 9.75598C8.5301 9.44019 8.68959 9.17384 8.90012 8.95694C9.11384 8.73684 9.37859 8.52632 9.69438 8.32536C9.93042 8.17225 10.1282 8.01116 10.2877 7.84211C10.4504 7.66986 10.5732 7.48166 10.6561 7.27751C10.7422 7.07018 10.7853 6.84529 10.7853 6.60287C10.7853 6.25837 10.7039 5.95694 10.5413 5.69856C10.3818 5.44019 10.1649 5.24083 9.89055 5.10048C9.61623 4.95694 9.3116 4.88517 8.97668 4.88517C8.6577 4.88517 8.35945 4.95534 8.08194 5.09569C7.80762 5.23285 7.58274 5.437 7.4073 5.70813C7.302 5.87193 7.2259 6.05957 7.17902 6.27105C7.12627 6.50897 6.9325 6.70335 6.6888 6.70335C6.4326 6.70335 6.22277 6.49022 6.26793 6.23803C6.32786 5.90332 6.4429 5.60229 6.61304 5.33493C6.85865 4.94896 7.1872 4.65072 7.59868 4.44019C8.01017 4.22648 8.4695 4.11962 8.97668 4.11962C9.50618 4.11962 9.97189 4.22966 10.3738 4.44976C10.7757 4.66667 11.0899 4.96491 11.3164 5.3445C11.5429 5.72089 11.6561 6.15311 11.6561 6.64115C11.6561 6.96332 11.6051 7.25678 11.503 7.52153C11.4009 7.78628 11.2478 8.0303 11.0437 8.25359C10.8427 8.47687 10.5907 8.6874 10.2877 8.88517C10.0006 9.07656 9.77253 9.26635 9.60347 9.45455C9.43441 9.64274 9.3132 9.85805 9.23983 10.1005C9.16647 10.3397 9.12659 10.6348 9.12022 10.9856C9.12022 11.1283 9.00454 11.244 8.86184 11.244H8.51256ZM8.71352 14.1244C8.52532 14.1244 8.36264 14.0574 8.22548 13.9234C8.09151 13.7863 8.02452 13.6236 8.02452 13.4354C8.02452 13.244 8.09151 13.0813 8.22548 12.9474C8.36264 12.8134 8.52532 12.7464 8.71352 12.7464C8.90171 12.7464 9.0628 12.8134 9.19677 12.9474C9.33393 13.0813 9.40251 13.244 9.40251 13.4354C9.40251 13.5598 9.37061 13.6746 9.30682 13.7799C9.24621 13.8852 9.16328 13.9697 9.05801 14.0335C8.95594 14.0941 8.84111 14.1244 8.71352 14.1244Z" fill="#828282"/>
<path d="M9 17.5C13.6944 17.5 17.5 13.6944 17.5 9C17.5 4.30558 13.6944 0.5 9 0.5C4.30558 0.5 0.5 4.30558 0.5 9C0.5 13.6944 4.30558 17.5 9 17.5Z" stroke="#828282"/>
</svg>
