<?xml version="1.0" encoding="UTF-8"?>
<svg id="Layer_1" data-name="Layer 1" xmlns="http://www.w3.org/2000/svg" viewBox="0 0 182 240">
  <defs>
    <style>
      .cls-1 {
        fill: #017efe;
      }
    </style>
  </defs>
  <path class="cls-1" d="M69.61,23.49c.46,1.02.28,2.32.62,3.31.31.92,1.15,1.75,1.44,2.9,0,0,0,0,0,0,0,0,.38.69.65,1.49.17.49.33.98.48,1.45-.2.04-.38.22-.37.43.01.25.2.44.45.45.06,0,.13,0,.19,0,.07.22.14.45.21.66-.13,0-.27.02-.4.02-.23,0-.46.21-.45.45.01.25.2.44.45.45.22,0,.44,0,.66-.02.07.23.13.45.19.68-.02,0-.05,0-.07,0-.2,0-.4.03-.6.06-.1.02-.22.12-.27.21-.06.1-.08.24-.05.35.04.11.1.21.21.27.04.02.07.03.11.05.08.02.16.02.24,0,0,0,.01,0,.02,0,.22-.03.44-.02.66,0,.07.27.14.53.2.78-.2.02-.41.02-.61,0-.07-.01-.14-.02-.22-.04-.12-.03-.24-.02-.35.04-.09.06-.18.16-.21.27-.05.23.07.49.31.55.42.1.85.11,1.28.05.05.21.1.43.15.63-.5,0-1,0-1.5-.01-.23,0-.46.21-.45.45.01.24.2.45.45.45.57,0,1.13,0,1.7.01,0,0,0,0,0,0,.05.21.09.41.13.61-.61-.03-1.22-.04-1.83-.02-.23,0-.46.2-.45.45.01.24.2.46.45.45.67-.03,1.34-.02,2.01.03.05.24.09.48.13.7l-1.6-.03c-.23,0-.46.21-.45.45.01.25.2.44.45.45l1.75.03c.04.27.08.5.11.72-.44-.04-.88-.02-1.31.06-.11.02-.22.12-.27.21-.06.1-.08.24-.05.35.04.11.1.21.21.27.11.06.22.07.35.04.05,0,.1-.02.15-.02.35-.04.7-.04,1.04,0,.02.21.04.34.04.34,0,.11.01.2.02.31h-.95c-.23,0-.46.21-.45.45.01.24.2.45.45.45h1.02c.02.27.03.52.04.77-.25-.03-.5-.05-.75-.02-.06,0-.12.01-.17.04-.06.02-.1.05-.14.09-.08.08-.14.21-.13.32,0,.12.04.24.13.32.08.08.2.14.32.13.22-.02.44-.02.67,0,.02,0,.04,0,.07.01.01,0,.03,0,.04,0,0,.25,0,.48,0,.71h-.48c-.11,0-.24.05-.32.13-.08.08-.14.21-.13.32,0,.12.04.24.13.32s.2.13.32.13h.47c0,.25-.02.48-.03.7h-.22c-.11,0-.24.05-.32.13s-.14.21-.13.32c0,.12.04.24.13.32.09.08.2.13.32.13h.16c-.02.2-.04.39-.05.55,0,.05-.01.1-.02.15h-.09c-.11,0-.24.05-.32.13s-.14.21-.13.32c0,.12.04.24.13.32.08.08.18.12.29.13-.02.14-.04.3-.07.49-.22,1.58-.4,2.92-.56,4.07-.09,0-.18,0-.29-.01-.23,0-.48.13-.51.38-.02.22.13.5.38.51.11,0,.21,0,.29.01-.03.24-.06.47-.1.69-.3,0-.53,0-1.03-.03-.23,0-.48.13-.51.38-.02.22.13.5.38.51.5.02.73.02,1.03.03-.03.24-.07.47-.1.67-.18,0-.38,0-.68-.02-.23,0-.48.13-.51.38-.02.22.13.5.38.51.29.01.49.02.67.02-.04.27-.08.51-.11.7-.02,0-.03-.01-.05-.01-.78,0-.9,0-1.68-.03-.23,0-.48.13-.51.38-.02.22.13.5.38.51.78.03.9.02,1.68.03,0,0,.01,0,.02,0-.04.23-.08.46-.12.67-.31,0-.54,0-1.05-.03-.23,0-.48.13-.51.38-.02.22.13.5.38.51.49.02.72.02,1.01.02-.04.24-.09.46-.13.68-.75,0-.88,0-1.65-.03-.23,0-.48.13-.5.38-.02.22.13.5.38.51.75.03.9.02,1.6.03-.05.24-.09.46-.14.68-.68,0-.84,0-1.58-.03-.23,0-.48.13-.51.38-.02.22.13.5.38.51.71.03.88.02,1.49.03-.06.23-.12.46-.18.68-.62,0-.79,0-1.5-.03-.23,0-.48.13-.51.38-.02.22.13.5.38.51.66.03.85.02,1.37.03-.07.25-.14.5-.21.77-.37,0-.59,0-1.16-.03-.23,0-.48.13-.5.38-.02.22.13.5.38.51.53.02.75.02,1.09.03-.03.18-.06.37-.09.56-.32,0-.64,0-.96.01-.24,0-.45.24-.42.47.02.25.22.43.47.42.28,0,.56,0,.83,0,0,.22-.01.44,0,.67-.24,0-.48,0-.72.02-.23.02-.43.28-.38.51.05.25.26.4.51.38.17-.01.33-.02.5-.02.05,0,.1,0,.15,0,.03.23.06.43.1.62-.22,0-.43,0-.65.02-.23.02-.43.28-.38.51.05.25.26.4.51.38.17-.01.33-.02.5-.02.1,0,.2.01.3.02.08.18.15.33.23.45-.06,0-.12,0-.17,0-.23.02-.43.28-.38.51.05.25.26.4.51.38.17-.01.65-.02.81-.03.3,0,.6.02.9.06.02,0,.04,0,.07,0,0,0,0,0,.01,0,.12.01.25,0,.37-.02.24-.05.49-.21.6-.42.02-.04.07-.17.06-.36-.03-.49-.48-.86-.55-.92-.73-.63-.96-3.03-.7-5.12.28-2.27,1.16-3.89,1.22-4.17,3.23-14.63,2.61-27.44-3.94-40.92-.19-.39-.16-.96-.5-1.64-.59-1.19-1.36-1.57-1.4-2.45,0-.12,0-.41-.19-.55-.17-.13-.45-.1-.63,0-.5.26-.51,1.07-.51,1.26,0,.38.1.67.14.79.27.72.91.9,1.11,1.36Z"/>
  <path class="cls-1" d="M52.69,51.26c.92,4.74,2.22,8.05,3.52,11.37.94,2.39,2.42,5.84,5.63,8.29,1.65,1.26,2.18,1.04,2.33.94.65-.42,0-2.08-.47-4.59-.09-.48-.17-1.27-.27-2.43,0-.05,0-.1-.01-.15-.13-1.65-.28-4.03-.49-7.36,0,0-.09-1.45-1.74-4.94-.06-.12-.18-.35-.37-.38-.19-.03-.46.12-.49.32,0,.06-.02.11-.03.16-.06.36-.2.84-.25,1.04-.12.43.04.93.41,1.93.16.43.27.73.37.95-1.74.03-3.49.01-5.23-.04-.03-.18-.06-.38-.1-.61,1.45.13,2.92.05,4.37.05.58,0,.58-.9,0-.9-.86,0-1.72,0-2.59.01-.64,0-1.29-.02-1.93-.08-.02-.15-.05-.28-.07-.41,1.19,0,2.39,0,3.58,0,.58,0,.58-.9,0-.9-1.24,0-2.48,0-3.72,0-.05-.3-.08-.48-.12-.65.38-.03.76-.06,1.14-.07.1,0,.19,0,.29,0,.06,0,.11,0,.17,0,.01,0,.08,0,.11,0,.21.01.41.04.62.08.23.04.49-.11.53-.35.04-.24-.1-.48-.35-.53-.89-.16-1.79-.1-2.69-.02-.01,0-.03,0-.04.01-.09-.29-.18-.52-.27-.73,1.66-.05,3.32-.03,4.98.07.06,0,.1,0,.15-.02,0,0,.01,0,.02,0,0,0,.02-.01.02-.01.04-.01.07-.04.11-.06.01-.01.03-.01.04-.03.01-.01.02-.03.03-.04.05-.06.09-.13.15-.22.07-.11.3-.48.34-.99.06-.82-.41-1.55-.55-1.76-1.52-2.38-1.98-4.52-3.35-5.76-.45-.4-.63-.35-1.23-.9-.17-.16-.45-.43-.76-.39-.04,0-.16.02-.26.12-.03.03-.11.13-.11.46,0,.25.05.32.07.52.04.36-.1.42-.08.64.05.47.72.53,1.36,1.29.06.06.12.16.21.3-.68-.1-1.36-.1-2.05-.09-.04,0-.08.01-.12.03.01-.47.02-.96.04-1.5,0,0,.08-2.71-.87-3.79-.09-.1-.33-.39-.55-.31-.14.05-.25.15-.3.27-.05.13-.02.26-.02.28.1.48-.48,4.83.89,11.86ZM53.6,48.87c-.03-.2-.06-.41-.08-.64,1.4.16,2.84.11,4.25.1.03.04.07.09.09.11.13.17.24.33.35.49-1.54.01-3.07,0-4.61-.06ZM57.05,47.02c.05.12.11.26.18.41-.52,0-1.03,0-1.55,0-.74,0-1.48-.01-2.21-.1,0-.12,0-.25,0-.38,1.18,0,2.37,0,3.55,0,0,.02.02.04.03.06ZM60.14,65.8c-.1-.19-.21-.37-.42-.64,0,0-.01-.02-.02-.03.78,0,1.55.02,2.33.05.13.28.28.48.34.75-.73-.13-1.48-.14-2.22-.13ZM58.98,64.25c-.18-.22-.35-.44-.53-.66,1.12.09,2.25.07,3.37.05.01.35-.02.45-.01.65-.94-.04-1.88-.05-2.83-.04ZM61.49,61.1c-1.49-.08-2.97-.09-4.46-.05-.01-.03-.03-.06-.04-.08-.11-.25-.2-.47-.29-.68,1.6.06,3.2.08,4.8.06,0,.25-.01.5,0,.76ZM61.59,62.01c.01.08.02.15.04.24.02.09.06.25.1.48-.54,0-1.08,0-1.62,0-.77,0-1.54,0-2.31-.11-.08-.15-.16-.3-.25-.48-.04-.07-.06-.13-.09-.19,1.38-.03,2.76-.01,4.14.06ZM61.52,59.45c-1.65.01-3.31,0-4.96-.07-.08,0-.15.02-.21.05-.09-.22-.16-.43-.23-.63,1.74-.06,3.48-.04,5.22.06.06,0,.11,0,.16-.02.02.21.02.41.02.61ZM61.61,67.56c-.28.06-.6-.36-.93-.85.23,0,.46,0,.68,0,.1,0,.19.01.29.02.06,0,.11.01.17.02.01,0,.08,0,.11.01.09.01.18.04.28.05-.11.21-.23.38-.31.49-.17.22-.25.25-.28.25ZM60.94,57.32c.09,0,.16-.03.22-.06.02.06.04.12.06.19.06.18.1.35.14.52,0,0-.01,0-.02,0-1.76-.1-3.52-.12-5.28-.06-.07,0-.13.02-.19.04-.03-.14-.07-.35-.13-.66,1.73.05,3.46.07,5.19.04ZM54.2,50.4s-.08.02-.11.03c-.09-.19-.17-.4-.26-.65,1.64.06,3.27.07,4.91.05.03.05.06.1.08.15.1.18.17.33.24.47-1.61-.08-3.23-.1-4.85-.05ZM53.62,45.32c.42,0,.84-.01,1.27.01.1,0,.19.01.29.02.06,0,.11.01.17.02.01,0,.08,0,.11.01.21.03.41.07.61.12.07.02.15.01.22,0,.1.17.21.36.31.56-1.04,0-2.08,0-3.12,0,0-.24,0-.49.01-.76.04.02.09.03.14.03Z"/>
  <path class="cls-1" d="M77.49,83.66c-1.45.59-2.1,1.96-2.22,2.23-.79,1.69-.51,3.79.72,5.27,1.35,1.62,3.49,2.1,5.2,1.63.56-.15,1.72-.58,2.58-1.74.1-.14,1.1-1.55.86-3.22-.41-2.91-4.4-5.28-7.14-4.17ZM82.16,90.27c-.98,1.21-2.77,1.43-3.71.84.06-.02.12-.05.17-.1.08-.08.14-.21.13-.32,0-.12-.04-.24-.13-.32-.08-.08-.2-.14-.32-.13-.17.01-.35,0-.52,0-.08-.14-.17-.29-.27-.47.33.02.67.05,1,.05.23,0,.46-.21.45-.45-.01-.24-.2-.45-.45-.45-.52,0-1.03-.03-1.53-.09-.12-.24-.2-.41-.25-.54.38-.01.76-.01,1.14,0,.2.01.39.02.59.04.1,0,.2.02.29.03.14.02.14.02.27.04.23.03.49-.06.55-.31.05-.21-.07-.52-.31-.55-.84-.12-1.69-.18-2.54-.15.06-.2.14-.38.25-.53.05,0,.1,0,.15,0,.3,0,.6.02.9.06.23.03.48-.14.5-.39.02-.24-.14-.47-.39-.5-.12-.02-.24-.02-.36-.03.38-.3,1.02-.69,1.89-.71.15,0,1.68-.03,2.6,1.22.79,1.08.8,2.66-.09,3.76Z"/>
  <path class="cls-1" d="M148.94,93.66c-.38-3.76-2.36-6.43-3.56-8.01-1.38-1.81-4.9-6.45-10.95-7.77-2.63-.58-4.95-.35-6.92-.16-2.98.29-4.85,1.01-5.7,1.37-.45.19-2.56,1.1-4.87,3.06-1.13.96-4.71,4.09-6.27,9.4-.73,2.5-.76,4.59-.76,5.1,0,.52.18,2.92.42,4.16.08.41.1.74.15,1.39.04.55.02.67-.02.8-.18.49-.72.69-1.26.91-1.31.55-.83.55-2.22,1.13-1.86.78-2.06.64-3.55,1.24-2.03.82-1.92,1.12-3.73,1.79-.74.27-1.63.51-2.85.67-3.38.45-3.32-.18-5.76.53-1.23.36-2.6.94-3.62.27-.33-.21-.59-.6-1.09-1.36-.85-1.29-.81-1.6-1.27-2.27-.73-1.06-2.31-2.43-3.9-2.31-.53.04-1.05.07-2.08.27-1.24.25-1.62.48-2.63.55-.53.04-1.07.07-1.76-.09-.8-.19-1.48-.62-2.79-1.46-.74-.47-.72-.55-.99-.63-.49-.16-1.45-.27-2.4.11-.27.11-.47.22-.62.13-.17-.1-.18-.39-.15-.7.46-.05.91-.06,1.37-.04.02,0,.04,0,.05,0,.13,0,.23,0,.34-.07.09-.06.17-.18.18-.29.02-.12,0-.25-.07-.34-.07-.09-.17-.18-.28-.18-.49-.03-.99-.02-1.48.02.02-.2.04-.39.05-.59.03,0,.06.02.09.02.82-.02,1.64-.04,2.46-.06.23,0,.46-.2.45-.45-.01-.24-.2-.46-.45-.45-.82.02-1.64.04-2.46.06-.01,0-.02,0-.03,0,.02-.21.05-.42.08-.62.11,0,.22.03.32.03.28,0,.56-.03.84-.07.1-.02.22-.12.27-.21.06-.1.08-.24.04-.35-.04-.11-.1-.21-.21-.27-.11-.06-.22-.06-.35-.05,0,0,0,0,0,0-.28.04-.57.04-.86.02-.01-.24-.06-.48-.12-.72.39.02.78,0,1.18-.05.1-.01.22-.12.27-.21.06-.1.08-.24.04-.35-.04-.11-.1-.21-.21-.27-.11-.06-.22-.06-.34-.05h.06c-.43.05-.87.05-1.31,0-.08-.22-.18-.45-.28-.7.26.02.53.06.79.07.23,0,.46-.21.45-.45-.01-.25-.2-.44-.45-.45-.38-.01-.76-.05-1.14-.09-.06-.18-.12-.35-.19-.55h.12c.12,0,.24-.05.32-.13s.14-.21.13-.32c0-.12-.04-.24-.13-.32-.09-.08-.2-.13-.32-.13h-.38c-.03-.1-.05-.18-.08-.28-.15-.61-.26-1.2-.35-1.76h.24c.11,0,.24-.08.3-.16.07-.08.12-.22.1-.33-.02-.12-.06-.23-.16-.3-.03-.02-.06-.04-.1-.06-.07-.03-.15-.05-.23-.04-.1,0-.2,0-.29,0-.03-.23-.06-.47-.08-.69.33,0,.67-.02,1-.02.23,0,.46-.2.45-.45-.01-.24-.2-.46-.45-.45-.36,0-.73.02-1.09.03-.02-.27-.05-.54-.07-.79l1.93-.05c.23,0,.46-.2.45-.45-.01-.24-.2-.46-.45-.45-.68.02-1.35.03-2.03.05-.03-.26-.07-.51-.11-.75.92-.01,2.92,0,3.7-.01.23,0,.46-.2.45-.45-.01-.24-.2-.46-.45-.45-.82.02-3.05,0-3.86.01-.01,0-.03,0-.04,0-.03-.09-.05-.19-.08-.28-.02-.06-.07-.21-.14-.39.57-.01,1.14-.03,1.71-.04.23,0,.46-.2.45-.45-.01-.24-.2-.46-.45-.45-.66.02-1.32.03-1.97.05-.04-.16-.09-.32-.13-.5-.02-.1-.04-.19-.06-.28.25,0,.5,0,.74,0,.11,0,.24-.08.3-.16.07-.08.12-.22.1-.33-.02-.12-.06-.23-.16-.3-.03-.02-.06-.04-.1-.06-.07-.03-.15-.05-.23-.04-.28,0-.55,0-.83,0-.09-.63-.12-1.08-.14-1.28-.36-3.79-6.39-9.62-10.41-14.3.05,0,.1,0,.14,0,.23,0,.46-.21.45-.45-.01-.25-.2-.44-.45-.45-.19,0-.52-.01-.9-.01-.21-.25-.4-.5-.59-.74.61,0,1.21,0,1.5.02.23.01.46-.21.45-.45-.01-.25-.2-.44-.45-.45-.39-.02-1.37-.02-2.16-.02-.12-.18-.27-.43-.45-.73.54,0,1.04,0,1.29.02.23.01.46-.21.45-.45-.01-.25-.2-.44-.45-.45-.33-.01-1.08-.02-1.79-.02-.12-.22-.24-.46-.37-.72.04,0,.09,0,.13,0,.23.01.46-.21.45-.45-.01-.25-.2-.44-.45-.45-.13,0-.32,0-.55-.01-.11-.25-.23-.53-.34-.81.12-.08.22-.22.21-.37-.01-.25-.2-.44-.45-.45-.02,0-.06,0-.09,0-1.85-4.85-3.64-12.93-1.62-23.88.18-1,.69-3.76,1.76-3.87.3-.03.54.15.64.22,5.12,3.9,7.69,5.86,7.89,6.1,2.37,2.82,6.9,8.36,8.84,17.17.2.91.62,2.99.83,5.71.05.72.09,1.42.11,2.11-.04,0-.07,0-.11,0-.23,0-.48.13-.51.38-.02.22.13.5.38.51.09,0,.17,0,.25,0,0,.18,0,.36,0,.53-.19,0-.38,0-.57.02-.23.02-.43.28-.38.51.05.25.26.4.51.38.15-.01.3-.02.45-.02,0,.19,0,.39,0,.58-.16,0-.35,0-.61-.02-.23,0-.48.13-.51.38-.02.22.13.5.38.51.32.01.53.02.73.02,0,.21,0,.43,0,.64-.41,0-.62,0-1.21-.03-.23,0-.48.13-.5.38-.02.22.13.5.38.51.64.03.84.02,1.33.03,0,.22,0,.44,0,.66-.03,0-.05,0-.08,0-.08,0-.15,0-.23,0,0,0-.02,0-.03,0-.04,0-.07,0-.11,0-.16,0-.33,0-.49,0-.12,0-.23,0-.33.09-.09.07-.16.19-.17.3-.02.22.13.5.38.51.36,0,.71,0,1.07,0,0,.23,0,.46,0,.69-.32-.01-.63-.03-.95-.04-.23-.01-.46.21-.45.45.01.25.2.44.45.45.32.01.65.03.97.04,0,.22.02.45.02.67-.46-.02-.92-.04-1.38-.06-.23-.01-.46.21-.45.45.01.25.2.44.45.45.47.02.94.04,1.42.06.01.2.02.41.03.62-.6-.02-1.42-.01-1.96-.03-.23,0-.46.21-.45.45.01.25.2.44.45.45.55.02,1.42.02,2.02.03.02.23.04.47.06.71-.74-.04-1.56-.07-1.91-.1-.23-.02-.47.19-.47.43,0,.25.18.45.43.47.37.03,1.26.07,2.03.11.02.22.05.44.08.67-.13,0-.26,0-.39-.01-.11-.01-.25.06-.32.13-.08.08-.14.21-.13.32,0,.12.04.24.13.32.03.02.06.05.09.07.07.04.15.06.23.06.18.02.37.01.55.02.05.22.11.44.18.66-.41-.02-.83-.04-1.24-.05-.23,0-.46.21-.45.45.01.25.2.44.45.45.55.02,1.1.05,1.65.07.12.21.26.41.42.6-.22-.01-.43,0-.65.03-.23.04-.38.34-.31.55.08.25.3.35.55.31-.07.01.08,0,.09,0,.06,0,.11,0,.17,0,.09,0,.19,0,.28.02.04,0,.09,0,.13.01.01,0,.1.01.11.02.1.01.21.03.31.05.16.03.91.14,1.61.25.79.15,1.49.12,1.77.1,1.71-.1,2.01-.8,3.68-1.23,2.94-.75,5.66.46,6.59.88,2.41,1.08,1.79,1.82,4.01,2.77,3.06,1.31,5.16.29,6.6,2.02.2.24.92,1.1.69,1.94-.36,1.3-2.9,1.56-2.73,2.52.05.25.14.42.27.53.59.54,1.52-.23,2.21.19.7.44.79,1.89.4,2.75-.02.04,0,0-.49.9-.39.73-.44.82-.54.95-.36.49-.8.75-1.06.88-1.08.56-3.05.49-4.36.82-.29,0-.57.05-.85.09-.27.04-.54.05-.82.05-.62,0-1.24-.02-1.85.12-.24.05-.38.33-.31.55.07.24.32.37.55.31.55-.13,1.12-.08,1.68-.09.11,0,.21-.02.32-.03-.02.07-.03.16-.06.27-.02.09-.03.17-.05.26-.47.05-.94.11-1.41.16-.23.02-.46.19-.45.45,0,.22.2.47.45.45.42-.04.83-.09,1.25-.14-.03.21-.06.4-.08.57-.11.02-.21.03-.32.05l-.22.03s-.02,0-.03,0c-.04,0-.07,0-.11.01-.16.02-.32.04-.49.06-.12.01-.23.04-.32.13-.08.08-.14.21-.13.32,0,.22.2.48.45.45.34-.04.68-.1,1.03-.15-.05.23-.11.47-.18.71-.1,0-.21.02-.31,0-.11-.02-.22-.01-.31.05-.09.05-.18.16-.21.27-.05.22.07.5.31.55.08.02.16.01.24.02-.54,1.61-1.22,3.17-.91,3.5.13.14.33.23.51.23,1.2.02,3.16-6.09,3.38-7.01.27-.04.67-.1,1.17-.18,2.5-.43,3.76-.65,4.34-1.44.33-.45.06-.47.53-1.74.5-1.36.92-1.63,1.26-2.56.28-.78.19-1.16.17-3.1-.05-3.83.29-3.68-.01-4.52-.77-2.17-2.99-3.2-3.66-3.47-1.74-.71-2.3-.09-4.2-.44-3.68-.67-3.61-3.34-7.37-4.4-.59-.16-3.47-.97-6.46.14-1.59.59-2.72,1.75-3.69,1.27-.73-.36-.91-1.37-.98-1.79-.72-4.37-.74-13.38-.76-14.64-.06-5.54-1.42-10.03-2.8-14.56-.41-1.34-.83-2.56-1.22-3.64.38-.17.32-.86-.19-.86-.05,0-.08.01-.12.03-.1-.26-.2-.51-.29-.75.18-.01.36-.03.53-.07.11-.02.21-.12.27-.21.06-.1.08-.24.04-.35-.04-.11-.1-.21-.21-.27-.11-.06-.22-.07-.35-.04-.04,0-.08.01-.12.02-.18.02-.36.03-.54.02-.04-.09-.07-.18-.11-.26-.03-.11-.05-.23-.08-.36.37-.04.74-.06,1.11-.04.23.01.46-.21.45-.45-.01-.25-.2-.44-.45-.45-.42-.02-.83.01-1.24.06-.02-.16-.03-.34-.04-.52.22.01.43.03.65.04.11,0,.24-.05.32-.13s.14-.21.13-.32c-.01-.26-.2-.43-.45-.45-.22-.01-.44-.03-.65-.04,0-.16.02-.31.03-.46.03,0,.05.02.08.02.58,0,.58-.9,0-.9,0,0,0,0-.01,0,.11-1.61-.12-1.66.02-2.89.06-.54.38-1.61,1-3.74.4-1.37.44-1.41.49-1.78.11-.85.01-1.45.36-2.41.07-.18.05-.11.25-.57.96-2.25.8-2.76.67-2.97-.03-.05-.14-.22-.32-.25-.2-.04-.38.11-.44.16-.93.75-2.67,5.74-2.67,5.74-.28.8-.54,1.66-.77,2.59-.69,2.79-.85,5.33-.8,7.42-3.02-3.08-5.28-4.85-6.74-5.87-1.04-.72-1.49-.94-2.94-2-2.43-1.77-2.82-2.36-3.51-2.32-.4.02-2.03.31-3.53,6.47-2.71,11.16.22,20.5.4,21.32.04.19.57,1.4,1.26,2.89-.02,0-.04,0-.06,0,.07.09.13.19.19.28.52,1.14,1.11,2.4,1.63,3.51.02.07.05.14.09.2.62,1.32,1.14,2.37,1.3,2.62,4.01,6.37,11.31,10.52,12.58,18.82.42,2.74.66,5.11.77,7.76.06,1.39,1.05,2.85,1.32,4.07,1.01,4.53-.24,6.91-3.11,10.28-1.47,1.72-2.97,3.11-4.43,4.59-.01,0-.03,0-.04,0,0,0,0,.02.01.03-1.49,1.51-2.94,3.11-4.25,5.23-.73,1.18-1.2,2.03-1.87,3.33-4.87,9.48-6.35,18.61-6.73,21.17-.77,5.28-1.06,11.03-1.06,11.03,0,0-.34,6.98-2.06,11.61-.37.99-.77,1.74-.94,2.06-.84,1.51-1.57,2.59-2.77,3.55-1.93,1.54-3.02,1.13-4.18,2.68-.41.55-.71,1.27-.85,2.29-.08.56-.16,1.16.19,1.59.33.41.72.24,1.19.52.95.57.5,1.93,1.23,3.32.74,1.42,2.23,1.98,2.56,2.1,2.14.75,4.22-.41,4.83-.75,1.52-.85,1.73-1.67,2.2-1.53,1.43.42,1.22,8.52-1.44,9.44-.9.31-1.91-.27-3.45.47-.72.34-1.17.79-1.38,1.01-1.4,1.41-1.05,2.68-2.22,6.91-.38,1.39-.98,3.21-1.37,5.21-.05.24-.11.58-.16,1-.04.29-.05.51-.06.6-.07.85-.24,1.69-.27,1.86-.18,1.07.5,2.9,1.55,5.22,1.15,2.55,1.73,3.84,2.53,4.61.7.68,1.84,1.78,3.51,1.76,1.33-.02,2.3-.75,2.7-1.09.21.16.96.68,2,.6.13-.01,1.33-.13,2.06-1.13.22-.3.33-.59.39-.79.23-.01.61-.07,1.01-.29.61-.35.88-.89,1.03-1.2.69-1.45.18-3.02.06-3.38-.54-1.53-1.69-2.39-1.99-2.61-1.04-.76-1.78-.75-2.94-1.84-.35-.33-.58-.55-.8-.93-.59-1.02-.63-2.44-.08-3.38.23-.39.55-.67.96-1.03.44-.39.62-.48,1.04-.76,1.11-.74.96-1.32,2.01-1.95.17-.1.74-.41,1.53-.52,2.94-.4,1.5,1.31,1.48,2.96,0,.26.05.61.2,1.01.48,1.29,1.63,1.43,2.69,2.55.2.21,1.14,1.2,1.34,2.59.24,1.6-.7,2.26-.61,3.79,0,.01,0,.03,0,.04s.01.03.01.04c.01.14.02.28.05.44.05.25.06.65.3,1.05.37.64.99.91,1.22,1.02,1.23.53,1.82-.14,2.53.27.82.49.4,1.62,1.11,3.35.19.46.95,2.18,2.57,3.08,2.11,1.18,4.49.31,5,.11.27.1,3.61,1.32,5.49-.43.23-.22.48-.51.69-.92,2.02.4,3.75-.19,4.28-1.31.42-.9-.03-1.92-.35-2.64-.87-1.98-2.63-2.96-3.18-3.23-1.54-.77-2.06-.34-3.99-1.22-.71-.32-1.62-.74-2.53-1.56-3.06-2.76-2.73-7-2.56-7.69.04-.16.22-.89.34-1.92.03-.28.05-.59.06-.96.02-1.77-.63-2.33-.3-3.48.32-1.1.96-.94,1.64-2.21.82-1.51.22-2.28.77-4.26.23-.81.34-.72,1.81-3.37,1.3-2.35,1.96-3.53,2.41-4.8.8-2.25.91-3.93.94-4.49.06-1.31-.08-2.28-.13-2.57-.21-1.33-.61-2.4-.94-3.13.23-.46.59-1.19.96-2.1.52-1.27,1.6-4.16,2.36-11.01.18-1.61.38-3.82.5-6.48.9.4,1.81.8,2.74,1.19,4.78,2,15.14,6.51,23.22,7.52.37.05,1.71.2,3.36-.19,2.91-.69,5.51-2.78,5.35-4.21-.02-.16-.1-.6-.38-1.08-.31-.53-.71-.85-.95-1.02,2.64-2.03,4.77-3.73,6.24-4.91,4.85-3.91,4.18-3.57,5.07-4.12,0,0,.99-.61,5.89-4.7.06-.05.2-.17.27-.37.02-.06.07-.24.01-.49-.28-1.17-4.09-9.07-4.81-10.63-.29-.64-.51-1.39-1.28-1.57-.82-.19-1.75-.13-2.58-.18-1.91-.12-3.82-.27-5.72-.45-3.81-.35-7.6-.79-11.39-1.32-1.82-.25-3.64-.62-5.46-.8-.69-.07-1.4,0-1.96.43-.57.44-.7.86-1.25,1.84-.17.3-.9,1.27-2.36,3.21-.9,1.19-1.34,1.78-1.61,2.07-.45.5-.86,1.04-1.32,1.54-.28.3-.77.83-.83,1.53-.01.13,0,.24,0,.26.05.66.5,1.11.64,1.26.97,1.01,1.61,2.3,2.56,3.32,1.14,1.22,2.1,2.59,3.18,3.86,1.35,1.6,3.27,3.93,5.71,7.07-.23.2-.59.45-1.06.56-1.11.25-2.3-.62-4.65-2.39-2.98-2.25-3.85-2.93-4.67-3.58-1.21-.96-.94-.77-1.61-1.3-1.29-1.01-2.52-1.9-3.51-2.89-.11-.11-.34-.38-.81-.93,0,0-.48-.56-.68-1-.1-.22-.15-.43-.17-.67,0,0-.02-.29.04-.6.66-3.14,3.88-6.74,3.88-6.74,1.4-1.57,3.13-3.5,4.75-4.45.21-.12.59-.33.95-.76.91-1.09.38-2.04,1.05-2.64.9-.79,2.59.2,3.05-.53.2-.33.01-.75,0-.78-.28-.61-1.33-1-2.44-.99-.07-.02-.15-.03-.23-.01-1.09.18-2.21-.07-3.31.05-.24.03-.45.19-.45.45,0,.22.21.48.45.45.38-.04.77-.04,1.15-.03-.18.19-.3.4-.41.62-.34,0-.68.02-1.02.03-.23,0-.46.2-.45.45.01.24.2.46.45.45.22,0,.44-.01.65-.02-.08.22-.17.44-.28.68-.21.02-.41.04-.62.05-.23,0-.46.2-.45.45.01.24.2.46.45.45.01,0,.02,0,.03,0-.11.14-.22.28-.36.43-.75.77-1.59,1.17-2.16,1.39-.41-1.94-.78-5.05.07-8.67.37-1.56.89-2.89,1.41-3.97,2.27-.75,3.53-.88,4.27-.84.16,0,.86.05,1.8,0,.4-.02.78-.04,1.2-.12.88-.16,1.36-.46,2.1-.81.51-.24.28-.09,2.7-.96,1.1-.39,1.89-.68,2.82-1.05,1.32-.52,1.5-.65,2.73-1.16,2.92-1.21,4.39-1.8,5.1-1.3.22.15.2.25.77,1.24-.86.03-1.72.06-2.58.1-.58.03-.58.93,0,.9,1.04-.05,2.07-.08,3.11-.12,0,0,0,.01.01.02.24.38.39.61.48.76-.75.03-1.5.05-2.25.08-.57.03-.58.93,0,.9.78-.04,1.55-.06,2.33-.09-.1.22-.27.46-.49.7-.68.02-1.36.04-2.04.08-.58.03-.58.93,0,.9.31-.01.63-.02.94-.04-.31.23-.67.47-1.06.72-1.49.05-2.97.1-4.46.14-.58.02-.58.92,0,.9.96-.03,1.92-.06,2.88-.09-.42.24-.86.49-1.33.75-.9.03-1.8.06-2.7.1-.57.03-.58.93,0,.9.31-.01.63-.02.95-.04-.21.12-.42.23-.64.35-.04.02-.14.07-.25.14-.4.01-.8.03-1.2.04-.48.02-.55.64-.24.84-.3.2-.54.36-.84.54-.09.05-.29.17-.72.38-1.62.8-3.36,1.43-4.53,2.61-.15.16-.39.42-.39.76,0,.47.43.89.74,1.04.97.45,2.43-.87,3.36-1.64,2.06-1.71,4.59-2.76,6.84-4.22,1.65-1.06,4.08-2.55,7.23-4.18.46.25,1.16.62,2.03,1.01,2.67,1.2,10.24,4.6,18.41,1.76.73-.26,6.77-2.43,9.89-7.51.63-1.02,1.12-2.14,1.18-2.26,1.53-3.46,1.7-6.57,1.78-8.2.05-1.11.08-1.78,0-2.68ZM68.86,185.21c-.21,0-.42,0-.64.01-.11,0-.24.09-.3.17-.07.09-.11.22-.09.33.02.11.07.23.17.3.1.07.21.09.33.09.02,0,.03,0,.05,0-.07.14-.14.29-.2.43-.42,0-.84.01-1.26.02-.11,0-.23.09-.3.17-.07.09-.11.22-.09.33.02.11.07.23.17.3.1.07.21.09.33.09.26,0,.53,0,.79-.01,0,.01-.01.03-.01.04-.06.19-.11.34-.15.51-.77-.06-1.54-.08-2.3-.06-.23,0-.47.16-.48.42,0,.22.17.49.42.48.72-.02,1.43,0,2.15.05-.05.3-.09.56-.12.78-.86-.06-1.71-.09-2.57-.06-.23,0-.46.2-.45.45.01.24.2.46.45.45.78-.03,1.56,0,2.33.05-.07.16-.17.32-.31.5-.07.09-.14.17-.21.25-.42,0-.84-.03-1.25-.08-.23-.03-.46.23-.45.45.01.27.2.42.45.45.15.02.3.02.45.03-.24.28-.46.6-.62,1.08-.05.16-.15.47-.21.89-.11,0-.22.02-.32.02-.23,0-.46.21-.45.45.01.25.2.44.45.45.09,0,.19,0,.28-.01,0,.15.03.29.05.42-.1.02-.21.05-.31.06-.25.03-.5.05-.75.04-.23,0-.46.21-.45.45.01.25.2.44.45.45.41.01.81-.03,1.21-.12.01.1.02.22.03.34,0,.12.01.23.02.33-.08-.02-.15-.02-.24-.01.1-.01-.02,0-.04,0-.05,0-.09.01-.14.01-.08,0-.16.01-.24.02-.16,0-.33.01-.49.01-.16,0-.32-.01-.47-.02-.08,0-.16-.02-.24-.02-.02,0-.03,0-.03,0,0,0-.02,0-.02,0-.05,0-.09-.01-.14-.02-.23-.04-.49.06-.55.31-.05.22.07.51.31.55.76.12,1.51.13,2.27.03,0,.1-.02.2-.03.31,0,.06-.02.12-.02.18-.91,0-1.82.01-2.73.02-.23,0-.46.21-.45.45.01.24.2.45.45.45.87,0,1.74-.01,2.61-.02-.02.16-.05.32-.07.49,0,0,0,0-.01,0-.46.05-.92.09-1.38.11-.23.01-.46.2-.45.45.01.23.2.46.45.45.42-.02.83-.06,1.25-.1-.02.11-.04.23-.06.36-.02.13-.03.26-.05.39-.02,0-.04-.01-.06-.01-.12,0-.24,0-.36,0-.06,0-.12.01-.17.04-.06.02-.1.05-.14.09-.04.04-.07.09-.09.14-.03.05-.04.11-.04.17,0,.04.01.08.02.12.02.08.06.14.12.2.03.02.06.05.09.07.07.04.15.06.23.06.12,0,.24,0,.36,0,.01,0,.02,0,.04,0,.05.95.31,1.81.53,2.53.03.09.07.23.13.42.09.26.29.84.66,1.55h-.06c-.11,0-.24.08-.3.16-.07.08-.12.22-.1.33.02.12.06.23.16.3.03.02.06.04.1.06.07.03.15.05.23.04.17,0,.34,0,.51,0,.12.18.25.37.4.55-.33-.03-.66-.06-.99-.03-.23.02-.46.19-.45.45.01.23.2.47.45.45.63-.04,1.25.07,1.88.11.15.14.3.28.45.39-.16,0-.31-.01-.47,0-.23.02-.46.19-.45.45.01.23.2.47.45.45.73-.05,1.45.1,2.18.12.08.04.16.08.25.13,3.06,1.5,4.28.78,5.93,2.2,1.05.9,1.96,2.4,1.54,3.09-.22.36-.79.51-1.24.39-.84-.23-.64-1.33-1.68-2.48-.76-.85-1.6-1.11-3.17-1.6-.49-.15-1.08-.29-1.43.01-.08.07-.2.16-.21.3-.06.66,2.49.77,3.59,2.49.1.15.72,1.13.35,1.92-.39.84-1.67.99-2.4.93-.86-.07-1.49-.5-1.84-.74-.92-.62-1-1.14-1.91-1.55-.36-.17-1.15-.45-1.35-.2-.15.19.02.74,1.34,2.28-1.37.37-2.19-.01-2.47-.18-1.06-.59-1.73-2-1.86-3.19.21,0,.43,0,.64,0,.11,0,.24-.08.3-.16.07-.08.12-.22.1-.33-.02-.12-.06-.23-.16-.3-.03-.02-.06-.04-.1-.06-.07-.03-.15-.05-.23-.04-.21,0-.42,0-.63,0-.02-.2-.06-.42-.12-.64.36.01.72.03,1.08.04.12,0,.23,0,.33-.08.09-.07.17-.18.18-.29.02-.22-.13-.5-.38-.51-.54-.02-1.08-.04-1.62-.06-.06-.1-.14-.21-.26-.33.23-.03.46-.19.45-.45,0-.22-.2-.48-.45-.45-.74.09-1.49.13-2.23.13-.77,0-1.07.23-1.37,0-.1-.08-.17-.19-.22-.36.33,0,.66,0,.99-.06.23-.04.44-.23.41-.48-.03-.22-.24-.45-.48-.41-.33.06-.66.06-.99.06,0-.18.02-.35.04-.5.67,0,1.34,0,2.01-.01.23,0,.46-.21.45-.45-.01-.24-.2-.45-.45-.45-.6,0-1.2,0-1.8.01.06-.17.12-.33.18-.49.76,0,1.52,0,2.27-.01.23,0,.46-.21.45-.45-.01-.24-.2-.45-.45-.45-.68,0-1.36,0-2.04.01.02-.18.02-.36.02-.53.2,0,.39-.02.59-.03.24,0,.44-.26.4-.49-.04-.25-.24-.41-.49-.41-.22,0-.44.02-.65.03-.28-1.03-.88-1.86-1.11-2.19-.47-.64-.86-.92-1.14-1.25h.03c.06,0,.12-.01.17-.04.06-.02.1-.05.14-.09.04-.04.07-.09.09-.14.03-.05.04-.11.04-.17,0-.04-.01-.08-.02-.12-.02-.08-.06-.14-.12-.2-.03-.02-.06-.05-.09-.07-.07-.04-.15-.06-.23-.06-.12,0-.24,0-.36,0-.02,0-.03,0-.05.01-.03-.18-.03-.34-.01-.49.29,0,.58,0,.87,0,.24,0,.45-.24.43-.47-.02-.26-.21-.43-.47-.43-.25,0-.49,0-.74,0,0-.14-.02-.3-.06-.49-.01-.06-.03-.11-.05-.16.57,0,1.15,0,1.72,0,.24,0,.45-.24.43-.47-.02-.26-.21-.43-.47-.43-.69-.02-1.37-.02-2.06-.01-.02,0-.03,0-.05.01-.1-.16-.2-.33-.27-.56.67,0,1.33,0,2,.01.24,0,.45-.24.43-.47-.02-.26-.21-.43-.47-.43-.69-.02-1.37-.02-2.06-.01,0,0-.01,0-.02,0,0-.16.03-.33.06-.49h.92c.23,0,.45-.23.43-.46-.02-.25-.21-.43-.46-.43h-.61c.05-.12.09-.24.14-.38.64-1.65,1.6-2.31,1.87-2.37.21-.04.35-.01.67-.11,0,0,.52-.16.98-.56.3-.26.98-1.01,1.69-3.31.4-1.3.42-1.75.92-2.11.41-.29.63-.16,1.17-.42.35-.16,1-.53,1.69-1.96,1.15-2.37.49-3.62,1.57-6.56.29-.79.48-1.3.91-1.91.86-1.21,1.76-1.42,3.09-2.65.92-.86,1.58-1.65,1.98-2.16.09.26.19.6.29.98-.15,0-.3.01-.47.02-.58.03-.58.93,0,.9.22-.01.44-.02.66-.02.02.13.05.32.07.56-.71.02-1.41.03-2.12.04-.58,0-.58.9,0,.9.73,0,1.45-.03,2.18-.05,0,.18,0,.36,0,.56-1.39.04-2.77.07-4.16.14-.58.03-.58.93,0,.9,1.37-.06,2.73-.1,4.1-.14-.02.17-.03.34-.05.51-1.66.04-3.33.09-4.99.17-.58.03-.58.93,0,.9,1.61-.08,3.22-.13,4.83-.17-.04.19-.09.38-.15.58-1,.03-2.01.07-3.01.11-.58.03-.58.93,0,.9.91-.04,1.82-.07,2.73-.1-.09.24-.18.47-.27.69-.62.02-1.25.04-1.87.07-.57.03-.58.93,0,.9.48-.02.96-.04,1.45-.05-.1.2-.21.4-.31.59-.38.01-.76.02-1.14.04-.57.03-.58.93,0,.9.2,0,.41-.01.61-.02-.11.18-.22.35-.35.53-.24,0-.48.02-.71.03-.58.03-.58.93,0,.9.04,0,.08,0,.12,0-.04.06-.07.12-.11.18-.47.77-.85,1.39-1.17,1.95ZM123.79,132.69c.62,1.28,1.26,2.48,1.89,3.6-.71.02-1.29-.04-1.7-.11-.63-.1-1.27-.26-1.36-.08-.06.13.23.29.19.6-.02.16-.11.19-.18.47-.05.18-.07.27-.04.34.09.22.58.21,1.29.22.32,0,.78.03,1.35.07-.18.16-.36.32-.54.48-.63.03-1.25.06-1.88.06-.23,0-.46.21-.45.45.01.24.2.45.45.45.28,0,.55-.02.83-.03-.22.19-.44.38-.65.56-.37.01-.73.03-1.1.03-.23,0-.46.21-.45.45.01.24.2.45.45.45,0,0,0,0,.01,0-.22.19-.44.37-.65.55-.18,0-.36.02-.54.02-.23,0-.46.21-.45.45,0,.1.05.2.11.27-.85.7-1.62,1.32-2.31,1.87-1.62,1.29-3.03,2.34-3.8,2.91-1.25.93-2.48,1.82-3.69,2.67-.18-.13-.41-.22-.69-.25.02-.11.06-.26.11-.43.24-.81.56-1.23.89-1.88.08-.16.18-.38.28-.63.32-.02.64-.05.95-.09.1-.01.22-.12.27-.21.06-.1.08-.24.05-.35-.04-.11-.1-.21-.21-.27-.04-.01-.07-.03-.11-.05-.08-.02-.16-.02-.24,0,0,0,0,0,0,0-.12.02-.25.02-.38.03.08-.16.15-.33.23-.5.43,0,.85-.02,1.28-.03.23,0,.46-.2.45-.45-.01-.24-.2-.45-.45-.45-.28,0-.57.01-.85.02.1-.21.19-.41.29-.62.44-.02.89-.04,1.33-.07.23-.02.46-.19.45-.45-.01-.23-.2-.47-.45-.45-.3.02-.6.04-.9.05l.28-.61s.1-.02.15-.02c.02,0,.04,0,.06,0,0,0,.01,0,.03,0,.04,0,.09-.01.14-.02.19-.02.38-.04.57-.05.39-.03.78-.03,1.16-.02.23,0,.46-.21.45-.45-.01-.25-.2-.44-.45-.45-.56-.02-1.11.02-1.66.08.1-.21.2-.43.3-.64.33.03.66.04,1,0,.2-.03.4-.07.6-.1.03,0,.05,0,.08,0,.04,0,.09,0,.13,0,.04,0,.09,0,.13,0-.09,0,.07.02.09.02.23.06.5-.08.55-.31.05-.24-.07-.49-.31-.55-.44-.12-.87-.02-1.3.05-.02,0-.16.02-.08.01-.05,0-.09,0-.14.01-.1,0-.2.01-.3.01-.02,0-.04,0-.06,0,.1-.22.21-.45.31-.67.86,0,1.71-.03,2.56-.09.23-.02.46-.19.45-.45-.01-.23-.2-.47-.45-.45-.71.05-1.43.08-2.14.09.14-.3.28-.6.42-.89,2.85.27,4.16.4,4.16.4.16.02.21.02.3.03.24.02.54.05.75.03.38-.03.98-.23,1.05-.61.04-.21-.1-.39-.17-.49-.28-.37-.72-.41-.81-.42-1.49-.14-2.61-.25-4.1-.39.06-.09.13-.19.19-.28.71,0,1.42-.03,2.13-.09.23-.02.46-.19.45-.45-.01-.23-.2-.47-.45-.45-.5.04-1.01.06-1.51.08.12-.18.23-.35.36-.52.68-.01,1.37-.03,2.05-.09.23-.02.46-.19.45-.45-.01-.23-.2-.47-.45-.45-.47.04-.94.06-1.41.08.21-.29.41-.59.63-.89.53-.01,1.06-.04,1.6-.08.23-.02.46-.19.45-.45-.01-.23-.2-.47-.45-.45-.31.02-.62.04-.93.05.7-.96,1.4-1.9,2.1-2.8.56,1.43,1.22,2.94,1.98,4.51ZM116.39,127.02c1.32.15,2.61.27,3.85.36-.56.89-1.18,1.81-1.84,2.75-1.12,1.58-2.26,3-3.36,4.28-.56-1.21-1.11-2.43-1.67-3.64l-.99-2.24c.73,0,1.46-.03,2.18-.09.23-.02.46-.19.45-.45-.01-.23-.2-.47-.45-.45-.86.06-1.72.1-2.58.09l-.57-1.29c1.59.26,3.25.49,4.98.68ZM113.46,134.9c-.68-.09-1.59-.22-2.66-.36-1.05-.14-2.12-.27-3.51-.43-.92-.1-2.12-.23-3.52-.35.07-.09.14-.18.21-.27.67-.01,1.34-.03,2-.08.23-.02.46-.19.45-.45-.01-.23-.2-.47-.45-.45-.43.03-.86.06-1.3.07.14-.18.27-.35.41-.52.6-.01,1.19-.04,1.78-.08.23-.02.46-.19.45-.45-.01-.23-.2-.47-.45-.45-.34.03-.69.04-1.03.06.14-.17.28-.35.43-.52.41-.02.83-.04,1.24-.07.23-.02.46-.19.45-.45-.01-.23-.2-.47-.45-.45-.15.01-.3.02-.45.03.2-.24.41-.47.61-.7.25-.01.5-.01.75-.03.23-.02.46-.19.45-.45,0-.21-.17-.42-.39-.44.32-.35.63-.7.94-1.04,1.28,2.67,2.62,5.3,4.04,7.9ZM102.82,125.35c1.78.24,3.52.44,5.23.62-1.04,1.09-2.1,2.23-3.17,3.41-1.05,1.16-2.05,2.32-3.01,3.45-.57-1.41-1.18-2.86-1.83-4.33-.58-1.31-1.16-2.57-1.75-3.8,1.48.23,2.99.45,4.53.65ZM91.13,132.2c1.48-.04,2.96-.08,4.45-.09.58,0,.58-.9,0-.9-1.24.01-2.48.05-3.71.08.17-.22.35-.44.52-.66.56-.02,1.12-.03,1.68-.06.58-.03.58-.93,0-.9-.32.01-.64.02-.96.03.05-.06.1-.12.14-.18.12-.16.23-.31.35-.47.59-.01,1.17-.03,1.76-.04.58,0,.58-.9,0-.9-.36,0-.71.01-1.07.02.19-.25.38-.5.56-.75.39-.01.79-.02,1.18-.04.57-.03.58-.93,0-.9-.18,0-.35.01-.53.02.3-.42.61-.85.9-1.26.54,1.3,1.11,2.62,1.71,3.96.08.18.16.34.24.52-.1,0-.19,0-.29,0-.23,0-.46.21-.45.45.01.24.2.45.45.45.23,0,.46-.02.69-.02.1.21.2.43.29.64-.58.03-1.16.05-1.73.04-.23,0-.46.21-.45.45.01.24.2.45.45.45.72,0,1.43-.02,2.15-.07.2.42.39.83.59,1.24-1.49-.24-3.05-.46-4.66-.65-1.48-.17-2.92-.31-4.31-.42.02-.02.04-.04.05-.07ZM91.4,133.97c1.38.14,2.76.29,4.16.45,1.76.2,3.5.41,5.21.63.43,1.1.62,2.01.71,2.65.18,1.25.14,2.47.82,3.03.18.15.5.33.77.45.41.19.67.31.82.2.18-.13.15-.54-.04-1-.06-.29-.12-.6-.18-.9.48.01.96,0,1.43-.07.12-.02.23-.04.32-.13.08-.08.14-.21.13-.32,0-.12-.04-.24-.13-.32-.08-.07-.2-.15-.32-.13-.53.07-1.06.09-1.6.07,0,0,0,0,0,0-.03-.16-.06-.33-.08-.5.69,0,1.39-.01,2.08-.03.23,0,.46-.2.45-.45-.01-.24-.2-.46-.45-.45-.74.02-1.49.03-2.23.04-.01-.09-.03-.18-.05-.27-.01-.07-.02-.14-.03-.21.2,0,.39,0,.59.02.11.01.25-.06.32-.13.08-.08.14-.21.13-.32,0-.12-.04-.24-.13-.32-.03-.02-.06-.05-.09-.07-.07-.04-.15-.06-.23-.06-.24-.03-.48-.03-.72-.02-.02-.18-.05-.37-.08-.54,1.28.16,2.33.3,3.06.4,2.5.34,3.75.53,5.82.75.66.07,1.2.13,1.56.16-.72,1.41-1.43,2.92-2.13,4.5-.68,1.53-1.28,3.02-1.83,4.45l-2.27,4.92c-.1.11-.2.22-.3.33-.27.04-.54.09-.82.15,0-.08.02-.17.02-.25,0-.15-.02-.3-.04-.45-.01-.1-.12-.22-.21-.27-.02-.01-.06-.02-.08-.03-.16-.78-.31-1.56-.47-2.34.22-.02.45-.03.67-.06.1-.01.22-.12.27-.21.06-.1.08-.24.05-.35-.04-.11-.1-.21-.21-.27-.04-.01-.07-.03-.11-.04-.08-.02-.16-.02-.24,0,0,0,0,0,0,0-.2.03-.4.04-.6.05-.05-.25-.1-.5-.15-.76.64-.01,1.29-.03,1.93-.04.23,0,.46-.2.45-.45-.01-.24-.2-.45-.45-.45-.7.01-1.4.03-2.11.04-.04-.19-.07-.37-.11-.56.15,0,.31-.02.46-.05.11-.02.22-.12.27-.21.06-.1.08-.24.05-.35-.04-.11-.1-.21-.21-.27-.04-.01-.07-.03-.11-.05-.07-.02-.15-.02-.22,0,0,0,0,0,0,0-.14.02-.28,0-.42,0-.02-.09-.04-.19-.06-.28-.13-.17-.34-.42-.66-.63-.59-.4-1.43-.63-1.61-.39-.07.1.02.23.14.67.13.47.14.72.19,1.04.08.45.42,2.02,1.48,6.58-.08.05-.13.12-.17.21l-12.43-16.82ZM83.18,129.96c-.59.38-.89.58-1.12.51-.6-.17-.54-1.65-.71-3.38-.03-.32-.38-3.56-2.11-6.53-1.31-2.26-2.26-2.38-2.58-2.38-.17,0-.62,0-.85.29-.59.74,1,2.35,2.28,5.42.58,1.39.9,2.61,1.08,3.4-.04,0-.07,0-.11,0-.23,0-.46.2-.45.45.01.24.2.46.45.45.09,0,.19-.02.28-.03.03.17.06.35.08.52-.22.02-.43.05-.65.05-.23,0-.46.2-.45.45.01.24.2.46.45.45.25,0,.5-.04.75-.07.02.24.04.49.06.73-.38.01-.76.02-1.13.02-.23,0-.46.21-.45.45.01.24.2.45.45.45.39,0,.79,0,1.18-.02,0,.22.01.44.01.65-.34,0-.67.02-1.01.02-.23,0-.46.21-.45.45.01.24.2.45.45.45.33,0,.67,0,1-.02,0,.23-.01.45-.03.66-.09,0-.17,0-.26,0-.23,0-.46.21-.45.45.01.24.2.45.45.45.07,0,.14,0,.21,0,0,.18-.01.37-.02.58-.06,0-.13,0-.19,0-.23,0-.46.21-.45.45.01.24.2.45.45.45.06,0,.13,0,.19,0,0,.13,0,.32.02.53-.25,0-.49.01-.74.01-.23,0-.46.21-.45.45.01.24.2.45.45.45.27,0,.54,0,.82-.01.04.16.11.33.2.51-.54.02-1.09.04-1.63.04-.23,0-.46.21-.45.45.01.24.2.45.45.45.73,0,1.47-.03,2.2-.07.12.16.25.32.4.48-.27,0-.54.01-.82.01-.23,0-.46.21-.45.45.01.24.2.45.45.45.54,0,1.09-.01,1.63-.04.15.15.31.31.47.46-.02,0-.04,0-.06,0-.23,0-.46.21-.45.45.01.24.2.45.45.45.34,0,.68,0,1.02-.02,1.51,1.33,3.32,2.75,5.05,4.03-.11.08-.2.21-.19.35.01.24.2.45.45.45.27,0,.54,0,.82-.01.24.17.47.34.7.51-.22,0-.43.01-.65.01-.23,0-.46.21-.45.45.01.24.2.45.45.45.62,0,1.23-.02,1.85-.05.24.17.48.34.7.49-.5.02-.99.03-1.49.03-.23,0-.46.21-.45.45.01.24.2.45.45.45.89,0,1.77-.03,2.66-.1,0,0,.01,0,.02,0,.11.08.22.16.32.23.12.09.29.2.48.33-.25,0-.51.01-.76.01-.23,0-.46.21-.45.45.01.24.2.45.45.45.71,0,1.41-.02,2.12-.07.19.11.4.22.6.32-.01,0-.02,0-.03,0-.23,0-.46.21-.45.45.01.24.2.45.45.45.89,0,1.77-.03,2.66-.1.03,0,.06-.01.09-.02.31,0,.61-.07.87-.2.24-.12,1.62-.89,1.98-.52.05.05.08.11.35.47.22.29.26.32.27.36,0,.01,0,.02,0,.02.02.12-.74.2-.79.41-.08.31,1.26,1.39,2.39,1.07,1.02-.28,1.08-1.47,2.06-1.57.53-.06,1.15.21,1.27.62.15.49-.47,1.05-.65,1.2-1.02.91-2.34.77-2.34,1.07,0,.21.64.38.78.42.2.05.84.2,1.49-.03,1.2-.43,1.1-1.67,2.03-1.94.82-.24,1.99.39,2.08,1.05.14.97-1.99,2.19-3.82,2.68-.8.21-2.24.46-4.13,0-.05-.02-.11-.03-.16-.05.41-.15.36-.87-.16-.87-.89,0-1.77.02-2.66.03-11.18-3.35-19.01-6.42-20.73-7.47-.24-.15-1.18-.75-2.11-1.41.19-.05.36-.21.35-.43-.01-.23-.2-.47-.45-.45-.34.03-.67.04-1.01.06-.03-.03-.07-.06-.11-.08-.27-.21-.45-.37-.59-.5.4-.02.8-.04,1.2-.07.23-.02.46-.19.45-.45-.01-.23-.2-.47-.45-.45-.75.06-1.49.08-2.24.09-.1-.07-.2-.17-.3-.31-.08-.12-.13-.24-.17-.37.63-.01,1.25-.04,1.88-.08.23-.02.46-.19.45-.45-.01-.23-.2-.47-.45-.45-.64.05-1.28.07-1.92.08.01-.19.01-.42,0-.7.73,0,1.46-.03,2.19-.09.23-.02.46-.19.45-.45-.01-.23-.2-.47-.45-.45-.75.06-1.5.08-2.25.09-.02-.26-.05-.54-.08-.82.24-.01.49-.02.73-.04.23-.02.46-.19.45-.45-.01-.23-.2-.47-.45-.45-.27.02-.55.03-.82.05-.03-.27-.06-.54-.1-.81.1,0,.2,0,.31,0,.12,0,.23-.04.32-.13.08-.08.14-.21.13-.32-.01-.23-.2-.47-.45-.45-.14.01-.29,0-.43-.01-.05-.35-.1-.69-.15-1.03.06.01.13.02.19.02.11,0,.24-.05.32-.13s.14-.21.13-.32c0-.12-.04-.24-.13-.32-.09-.08-.19-.13-.32-.13-.11,0-.22-.02-.34-.03-.12-.77-.25-1.47-.36-2.01-.75-3.67-1.51-3.4-1.53-5.69,0-.8.08-1.89-.64-2.66-.49-.52-1.42-.97-2.12-.62-.49.24-.68.77-.74.95-.18.53-.13,1.09.17,1.89.23.61.52,1.11.79,1.51-.43.02-.85.03-1.28.05-.57.03-.58.93,0,.9.65-.03,1.31-.05,1.96-.07.01.01.03.03.04.04.24.27.44.56.63.87-1.77.04-3.54.1-5.3.18-.57.03-.58.93,0,.9,1.91-.09,3.83-.15,5.74-.19.11.29.21.59.29.9-1.65.04-3.31.09-4.96.17-.58.03-.58.93,0,.9,1.72-.08,3.44-.13,5.16-.18.04.24.08.48.12.73-1.18.04-2.36.07-3.55.13-.57.03-.58.93,0,.9,1.22-.06,2.43-.09,3.65-.13.02.24.04.47.06.71-.86.03-1.72.06-2.58.1-.58.03-.58.93,0,.9.88-.04,1.76-.07,2.64-.1.02.3.03.6.05.9-.64.02-1.27.04-1.91.07-.58.03-.58.93,0,.9.65-.03,1.31-.05,1.96-.07.02.28.04.57.06.85-.57.02-1.13.04-1.7.06-.58.03-.58.93,0,.9.59-.03,1.19-.05,1.78-.07.03.26.06.51.1.77-.42.02-.85.03-1.27.05-.57.03-.58.93,0,.9.48-.02.95-.04,1.43-.05.05.26.1.48.13.71-.34.01-.68.02-1.02.04-.57.03-.58.93,0,.9.37-.02.73-.03,1.1-.04,0,.29,0,.52,0,.72-.05,0-.09,0-.14,0-.58.03-.58.93,0,.9.12,0,.24,0,.36-.01.17.26.35.33.9.75.15.11.29.23.42.34-.42.14-.39.87.13.87.26,0,.53,0,.79,0,.2.21.36.4.48.56-.03,0-.05,0-.08,0-.58,0-.59.89-.01.9.24,0,.47,0,.71,0,.04.06.07.12.11.19.09.16.15.35.22.53-.29,0-.59.02-.88.01-.58,0-.59.89-.01.9.38,0,.76-.01,1.13-.02.04.22.07.45.1.69-.37,0-.74.02-1.11.02-.58,0-.59.89-.01.9.4,0,.79-.01,1.19-.02,0,.2,0,.41,0,.61-.5,0-1.01.01-1.51,0-.58,0-.59.89-.01.9.5,0,1,0,1.5,0,0,.19-.02.38-.03.58-.72.02-1.45.03-2.17.02-.58,0-.59.89-.01.9.7,0,1.41,0,2.11-.02-.02.21-.04.42-.06.64-.86.03-1.71.04-2.57.04-.58,0-.59.89-.01.9.83,0,1.65,0,2.48-.03-.02.22-.05.43-.07.64-.94.03-1.88.05-2.83.04-.58,0-.59.89-.01.9.91,0,1.82-.01,2.73-.04-.02.12-.03.25-.05.37-.01.09-.02.17-.03.25-1.23.05-2.46.09-3.69.08-.58,0-.59.89-.01.9,1.2.01,2.39-.02,3.58-.07-.03.24-.06.46-.09.67-1.05.04-2.1.07-3.16.06-.58,0-.59.89-.01.9,1.02,0,2.03-.02,3.05-.05-.03.24-.07.46-.1.66-1.01.04-2.02.06-3.04.05-.58,0-.59.89-.01.9.96,0,1.93-.01,2.89-.05-.05.24-.1.46-.16.67-2.87.03-5.75.09-8.62.19-.58.02-.58.92,0,.9,2.78-.1,5.57-.16,8.36-.19-.06.2-.13.42-.21.66-2.38.04-4.75.11-7.13.22-.58.03-.58.93,0,.9,2.26-.11,4.53-.17,6.79-.21-.07.18-.15.37-.24.56-1.45.08-2.9.12-4.36.1-.58,0-.59.89-.01.9,1.31.01,2.62-.02,3.94-.09-.08.16-.16.32-.25.49-.02.03-.05.09-.08.14-.89.03-1.78.05-2.68.04-.58,0-.59.89-.01.9.71,0,1.42,0,2.13-.02-.13.2-.28.42-.45.66-.87.04-1.94.04-2.8.02-.23,0-.46.2-.46.44,0,.24.19.45.44.46.64.02,1.41.02,2.12,0-.17.21-.36.43-.55.66-.87.04-2.03.03-2.88.01-.23,0-.46.2-.46.44,0,.24.19.45.44.46.6.02,1.35.02,2.05.01-.19.2-.4.4-.62.6-.64,0-1.31,0-1.85-.01-.23,0-.46.2-.46.44,0,.24.19.45.44.46.27,0,.56.01.87.01-.66.55-1.26.98-1.74,1.31-.35-1.34-.19-2.3.05-2.97.68-1.87,2.57-2.82,2.23-3.62-.09-.22-.34-.39-.57-.45-.01,0-.03,0-.04,0-.06-.03-.12-.05-.19-.05-.82.04-1.65.04-2.47,0-.23-.01-.46.21-.45.45.01.25.2.44.45.45.32.01.64.02.96.02-.16.14-.32.29-.47.47,0,0-.01.02-.02.03-.76.03-1.52.03-2.28,0-.23-.01-.46.21-.45.45.01.25.2.44.45.45.56.02,1.12.03,1.68.01-.12.22-.22.44-.31.66-.37,0-.73,0-1.1-.02-.23-.01-.46.21-.45.45.01.25.2.44.45.45.28.01.54.02.78.03-.07.26-.13.5-.17.72-.09,0-.18,0-.27-.01-.23-.01-.46.21-.45.45.01.25.2.44.45.45.05,0,.09,0,.14,0-.01.14-.02.22-.02.22-.1,2.3.81,2.84.71,5.29,0,.1-.01.22-.02.34-.23,0-.45,0-.68,0-.11,0-.24.08-.3.16-.07.08-.12.22-.1.33.02.12.06.23.16.3.03.02.06.04.1.06.07.03.15.05.23.04.17,0,.35,0,.52,0-.02.18-.04.37-.06.55-1.13,0-2.26,0-3.39,0-.58,0-.61.9-.03.9,1.1-.01,2.21,0,3.31,0-.03.2-.05.38-.07.52-.85,0-1.71,0-2.56.02-.58,0-.61.91-.03.9.79-.01,1.57-.01,2.36-.01-.05.16-.12.33-.2.52-.89.03-1.78.06-2.68.1-.57.03-.58.93,0,.9.7-.03,1.4-.05,2.1-.08-.18.19-.39.35-.64.43-.03.01-.06.01-.09.02-1.66.04-3.32.09-4.98.17-.58.03-.58.93,0,.9,1.14-.05,2.28-.09,3.41-.13-.02.07-.04.12-.06.2-.02.07-.09.27-.21.55-1,.03-2,.06-3,.11-.57.03-.58.93,0,.9.85-.04,1.69-.07,2.54-.1-.13.21-.27.43-.43.65-.03.03-.05.06-.07.09-.8.03-1.59.05-2.39.09-.57.03-.58.93,0,.9.48-.02.96-.04,1.44-.05-.24.2-.46.36-.67.49-.97.03-1.94.06-2.92.11-.57.03-.58.93,0,.9.47-.02.93-.04,1.4-.05-.18.16-.35.34-.51.53-.87.03-1.75.06-2.62.1-.57.03-.58.93,0,.9.66-.03,1.32-.05,1.98-.07-.12.19-.23.38-.34.58-.43.02-.86.03-1.29.05-.57.03-.58.93,0,.9.25-.01.51-.02.76-.03-.13.21-.26.41-.39.59-.3.01-.59.02-.89.03-.5.02-.57.71-.19.87-.28.12-.76.27-1.31.15-.38-.08-.5-.24-.92-.36,0,0-.44-.13-1.06-.08-.69.02-1.57.02-2.22.01-.23,0-.46.21-.45.45.01.25.2.45.45.45.21,0,.44,0,.69,0-.09.11-.19.24-.29.37-.16,0-.32.01-.48,0-.23,0-.46.21-.45.45,0,.19.12.35.28.41-.27.36-.59.75-.98,1.17,0,0-.01.01-.02.02-.22,0-.44-.02-.66-.03-.23,0-.46.21-.45.45,0,.18.11.33.26.4-.08.07-.15.13-.22.19-.32-.01-.64-.04-.97-.04-.23,0-.46.21-.45.45.01.25.2.44.45.45.03,0,.05,0,.08,0-.08.11-.16.22-.24.35-.3-.01-.61-.03-.91-.04-.23,0-.46.21-.45.45.01.25.2.44.45.45.19,0,.37.02.56.03-.04.13-.06.26-.08.39-.85.13-1.72-.04-2.58.09-.23.04-.44.23-.41.48.03.23.23.45.48.41.8-.12,1.61,0,2.42-.08,0,.05,0,.11,0,.16,0,.13,0,.3.02.49-.48-.03-.95-.05-1.43-.06-.23,0-.46.21-.45.45.01.25.2.44.45.45.51.01,1.03.04,1.54.07.03.17.07.35.12.53-.48-.03-.95-.05-1.43-.07-.23,0-.46.21-.45.45.01.25.2.44.45.45.58.02,1.17.05,1.75.08.09.2.19.4.3.59-.31-.01-.61-.03-.92-.04-.23,0-.46.21-.45.45.01.25.2.44.45.45.53.01,1.06.04,1.59.07.06.06.11.12.17.18-.02,0-.03,0-.05,0-.23,0-.46.21-.45.45.01.25.2.44.45.45.51.01,1.02.04,1.53.07.27.12.54.25.91.49.2.13.69.47,1.17,1.03.32.37.77.9.98,1.72.1.38.3,1.16-.11,1.74-.08.1-.15.18-.21.23-.04-.18-.1-.42-.21-.7-.23-.57-.52-.95-.66-1.11-.68-.82-1.53-1.17-2.07-1.3-.28-.06-.55-.08-.82.04-.1.05-.38.17-.4.35-.04.34.92.46,1.68,1.11.88.75,1.48,2.19.99,3.13-.22.42-.7.7-1.15.74-.84.07-1.56-.75-2.16-1.41-.66-.74-.79-1.2-1.45-1.45-.36-.14-.88-.22-1.03-.02-.13.2.13.62.65,1.46.44.7.66.94.57,1.17-.13.34-.76.38-.84.38-1.31.08-2.41-1.42-2.92-2.12-.14-.19-.26-.37-.38-.56.08-.03.16-.07.21-.13.07-.08.12-.22.1-.33-.02-.11-.06-.23-.16-.3-.03-.02-.06-.04-.1-.06-.07-.03-.15-.05-.23-.04-.1,0-.21,0-.31,0-.12-.25-.23-.49-.33-.74.2,0,.4-.01.6-.02.24,0,.44-.25.42-.48-.03-.25-.23-.42-.48-.42-.29,0-.58.02-.87.02-.08-.24-.16-.48-.23-.73.66-.03,1.32-.05,1.98-.05.24,0,.44-.25.42-.48-.03-.25-.23-.42-.48-.42-.69,0-1.37.02-2.06.05-.03,0-.06.02-.09.03-.04-.18-.09-.38-.16-.62.59-.02,1.18-.04,1.77-.05.24,0,.44-.25.42-.48-.03-.25-.23-.42-.48-.42-.66,0-1.31.02-1.97.05-.11-.34-.17-.5-.21-.61.17,0,.34.01.51.02.23.01.46-.22.45-.45-.01-.26-.2-.43-.45-.45-.23-.01-.47-.02-.7-.03,0-.15,0-.31,0-.49.51-.02,1.03-.04,1.54-.04.24,0,.44-.25.42-.48-.03-.25-.23-.42-.48-.42-.45,0-.91.02-1.36.04.03-.16.06-.34.1-.53.33,0,.66-.02.99-.03.24,0,.44-.25.42-.48-.03-.25-.23-.42-.48-.42-.25,0-.49.01-.74.02,0,0,0-.01,0-.02.05-.22.09-.41.13-.59h.11c.11,0,.24-.08.3-.16.07-.08.12-.22.1-.33-.02-.11-.06-.23-.16-.3-.03-.02-.06-.04-.1-.06-.02,0-.05,0-.07-.01.07-.31.13-.53.19-.68.56-1.55,1.29-2.22,1.78-4.65.11-.55.18-1.07.25-1.56.13,0,.27,0,.4,0,.23-.01.46-.2.45-.45-.01-.23-.2-.46-.45-.45-.1,0-.19,0-.29,0,.02-.17.04-.34.07-.49.66,0,1.33,0,1.99-.04.23-.01.46-.2.45-.45-.01-.23-.2-.46-.45-.45-.59.03-1.18.03-1.77.03.13-.34.3-.58.58-.68.28-.09.33.06,1.3.14.46.04.93.07,1.41.03.02,0,.04.01.07.01.72,0,1.43,0,2.15-.04.23-.01.46-.2.45-.45-.01-.23-.2-.46-.45-.45-.1,0-.19,0-.29,0,.1-.1.22-.22.34-.36.03-.03.06-.07.1-.11.54,0,1.09,0,1.63-.03.23-.01.46-.2.45-.45-.01-.23-.2-.46-.45-.45-.28.01-.57,0-.85.02.12-.16.25-.33.37-.5,0,0,.01,0,.02,0,.72,0,1.44,0,2.15-.04.23-.01.46-.2.45-.45-.01-.23-.2-.46-.45-.45-.54.03-1.08.03-1.62.03.04-.08.09-.17.13-.25.04-.09.07-.19.11-.28.32,0,.63,0,.95-.02.23-.01.46-.2.45-.45-.01-.23-.2-.46-.45-.45-.21,0-.42,0-.62.01.06-.21.13-.42.17-.64.71,0,1.42,0,2.12-.04.23-.01.46-.2.45-.45-.01-.23-.2-.46-.45-.45-.65.03-1.31.04-1.96.04.03-.19.05-.38.07-.57.1,0,.2,0,.3,0,.23-.01.46-.2.45-.45-.01-.23-.2-.46-.45-.45-.07,0-.14,0-.21,0,.07-.83.12-1.69.21-2.62h.07c.11,0,.24-.08.3-.16.07-.08.12-.22.1-.33-.02-.12-.06-.23-.16-.3-.03-.02-.06-.04-.1-.06-.04-.02-.08-.01-.11-.02.01-.1.02-.2.04-.31.02-.11.04-.22.05-.33.26,0,.52,0,.78,0,.11,0,.24-.08.3-.16.07-.08.12-.22.1-.33-.02-.12-.06-.23-.16-.3-.03-.02-.06-.04-.1-.06-.07-.03-.15-.05-.23-.04-.18,0-.36,0-.54,0,.05-.23.09-.46.14-.67.49.06.98.12,1.48.1.23-.01.46-.18.46-.44,0-.23-.19-.47-.44-.46-.43.02-.86-.03-1.29-.08.05-.2.1-.39.15-.57h.31c.11,0,.24-.08.3-.16.07-.08.12-.22.1-.33-.02-.12-.06-.23-.16-.3-.03-.02-.06-.04-.1-.06-.07-.03-.15-.05-.23-.04h0c.3-1.26.39-2.17-.22-2.98-.46-.6-.94-.67-1.15-1.38-.4-1.3.85-1.95,1.02-3.88.13-1.51-.82-2.64-1.17-3.07-.61-.73-1.02-.76-1.14-.77-.63-.01-1.27.61-1.32,1.2-.05.67.69.77,1.13,1.69.49,1.03.03,1.78-.11,2.93-.13,0-.27,0-.4,0-.11,0-.24.05-.32.13-.08.08-.14.21-.13.32,0,.12.04.24.13.32.09.08.19.13.32.13.13,0,.26,0,.38,0,0,.14.01.27.03.42.01.07.02.15.04.23-.29,0-.57.01-.86.06-.23.04-.44.23-.41.48.03.23.23.45.48.41.31-.05.61-.06.92-.06.01.13.03.25.04.4,0,.11.01.21.02.31-.58,0-1.16-.05-1.74.04-.23.04-.44.23-.41.48.03.23.23.45.48.41.55-.08,1.1-.05,1.65-.04-.03.28-.07.49-.12.68-.71.04-1.43-.05-2.15.05-.23.04-.44.23-.41.48.03.23.23.45.48.41.63-.1,1.27-.03,1.91-.04-.02.25-.02.47,0,.67-.04,0-.08-.02-.13-.01-.87.15-1.76-.04-2.64.1-.23.04-.44.23-.41.48.03.23.23.45.48.41.88-.13,1.77.05,2.64-.1.06,0,.11-.03.16-.05.02.25,0,.43-.16.59-.13.12-.39.17-.9.27-.18.03-.46.08-1.06.1-.59.02-.93,0-1.12,0-.91.01-1.41.54-2.1.87-1.53.74-3.71.44-4.79-.6-.02-.02-.07-.07-.11-.11.51.01,1.02.03,1.52-.05.23-.04.44-.23.41-.48-.03-.22-.24-.45-.48-.41-.68.11-1.37.03-2.06.05-.08-.19-.14-.39-.17-.62,0-.03,0-.05,0-.08.03,0,.05.01.08,0,.88-.13,1.76.05,2.64-.1.23-.04.44-.23.41-.48-.03-.22-.24-.45-.48-.41-.85.14-1.71-.02-2.55.09.06-.28.13-.53.21-.78.56,0,1.13.04,1.69-.05.23-.04.44-.23.41-.48-.03-.22-.24-.45-.48-.41-.45.08-.9.06-1.36.05.06-.23.09-.41.11-.56.31,0,.63,0,.94-.06.23-.04.44-.23.41-.48-.03-.22-.24-.45-.48-.41-.23.04-.45.05-.68.06.59-1.08,2.18-.39,3.75-1.47.76-.53,1.39-1.77,2.65-4.27.18-.35.46-.92.71-1.49.91-2.08,1.28-4.08,1.45-5.34.12,0,.23,0,.35,0,.58,0,.58-.9,0-.9-.08,0-.16,0-.25,0,0-.07.01-.15.02-.2.01-.15.03-.29.05-.44.14,0,.28,0,.42,0,.58,0,.58-.9,0-.9-.11,0-.22,0-.33,0,.02-.21.04-.43.07-.64.2,0,.4,0,.6-.01.58,0,.58-.9,0-.9-.17,0-.34,0-.51,0,.02-.21.04-.42.07-.63.41,0,.83-.02,1.24-.02.58,0,.58-.9,0-.9-.38,0-.75.01-1.13.02.03-.24.06-.47.09-.71.35,0,.7-.02,1.04-.02.58,0,.58-.9,0-.9-.31,0-.62.01-.94.02.03-.24.06-.47.09-.71.62-.01,1.24-.03,1.86-.03.58,0,.58-.9,0-.9-.58,0-1.17.02-1.75.03.03-.23.05-.46.08-.69,1.12-.03,2.25-.06,3.38-.07.58,0,.58-.9,0-.9-1.09,0-2.18.04-3.27.07.03-.25.06-.5.09-.74.83-.02,1.66-.04,2.49-.04.58,0,.58-.9,0-.9-.8,0-1.59.03-2.39.04.02-.23.04-.45.06-.68,1.45-.04,2.9-.07,4.34-.09.58,0,.58-.9,0-.9-1.42.01-2.84.04-4.27.08.02-.25.05-.5.07-.75,1-.02,2-.05,3-.06.58,0,.58-.9,0-.9-.97,0-1.95.03-2.92.05,0-.03,0-.06,0-.09.01-.2.03-.4.05-.61,1.29-.03,2.59-.07,3.88-.08.58,0,.58-.9,0-.9-1.27.01-2.54.05-3.81.08.02-.2.04-.4.06-.59.91-.02,1.82-.04,2.73-.05.58,0,.58-.9,0-.9-.88,0-1.75.03-2.63.05.03-.24.06-.48.1-.73,1.26-.03,2.52-.07,3.78-.08.58,0,.58-.9,0-.9-1.22.01-2.44.04-3.65.07.04-.27.08-.53.13-.79.68-.01,1.36-.03,2.04-.04.58,0,.58-.9,0-.9-.63,0-1.25.02-1.88.03.05-.24.09-.49.14-.73,1-.02,1.99-.05,2.99-.05.58,0,.58-.9,0-.9-.93,0-1.86.03-2.8.05.05-.22.1-.43.14-.65,1.39-.04,2.78-.07,4.18-.08.58,0,.58-.9,0-.9-1.32.01-2.64.04-3.96.07.06-.24.12-.48.18-.72,1.99-.07,3.98-.12,5.98-.14.58,0,.58-.9,0-.9-1.91.02-3.82.07-5.74.13.07-.25.14-.49.21-.74,2.28-.08,4.55-.15,6.83-.17.58,0,.58-.9,0-.9-2.19.02-4.37.08-6.55.16.08-.25.15-.5.23-.74,2-.07,3.99-.12,5.99-.14.58,0,.58-.9,0-.9-1.9.02-3.79.06-5.69.13.08-.25.17-.49.26-.73,1.81-.06,3.62-.1,5.43-.12.58,0,.58-.9,0-.9-1.7.01-3.4.06-5.1.11.08-.23.17-.45.25-.68,2.18-.08,4.36-.14,6.54-.16.58,0,.58-.9,0-.9-2.06.02-4.12.07-6.18.14.09-.23.19-.46.29-.69,2.14-.08,4.28-.13,6.42-.15.58,0,.58-.9,0-.9-2.01.02-4.02.07-6.03.14.12-.29.25-.57.38-.85,1.75-.04,3.51-.09,5.26-.18.58-.03.58-.93,0-.9-1.61.08-3.22.12-4.84.16.13-.28.26-.55.4-.82,2.22-.04,4.43-.11,6.65-.21.58-.03.58-.93,0-.9-2.06.1-4.13.16-6.19.2.15-.29.3-.58.45-.85,1.61-.04,3.23-.09,4.84-.17.58-.03.58-.93,0-.9-1.45.07-2.89.11-4.34.15.15-.26.29-.51.44-.76,1.93-.04,3.87-.1,5.8-.19.58-.03.58-.93,0-.9-1.75.08-3.5.13-5.25.18.16-.27.33-.52.48-.77,2.13-.04,4.25-.11,6.38-.21.58-.03.58-.93,0-.9-1.92.09-3.85.15-5.77.19.21-.3.41-.58.6-.84,2.36-.09,4.73-.16,7.09-.18.58,0,.58-.9,0-.9-2.13.02-4.25.08-6.38.15.21-.25.4-.47.57-.64.03-.03.05-.05.07-.07,2.14-.04,4.28-.11,6.41-.21.58-.03.58-.93,0-.9-1.84.09-3.69.14-5.53.18.28-.29.54-.57.78-.82,1.5-.04,2.99-.09,4.49-.16.58-.03.58-.93,0-.9-1.21.06-2.42.1-3.62.14.27-.29.51-.54.72-.76,1.61-.04,3.21-.09,4.82-.17.58-.03.58-.93,0-.9-1.29.06-2.58.1-3.86.14.02-.02.06-.05.08-.06.15-.09.57-.32,1.01-.67,1.67-.04,3.35-.1,5.02-.18.58-.03.58-.93,0-.9-1.38.06-2.76.11-4.15.15.1-.15.18-.31.24-.47.02-.05.04-.13.08-.22,1.25-.04,2.5-.08,3.74-.14.58-.03.58-.93,0-.9-.96.05-1.92.07-2.88.11.21-.13.45-.25.75-.4,1.43-.71,1.21-.65,1.46-.74.56-.19,1.15-.22,2.31-.28,1.76-.08,2.09.04,2.16.22.07.19-.23.32-.2.63.04.44.68.71.82.77.4.17.65.14,2.21.08.88-.04,1.01-.04,1.33-.08.69-.08,1.19-.21,1.34-.25,1.06-.26,3.24-.81,4.67.03.06.03.1.07.15.11-1.11.06-2.22.1-3.34.11-.58,0-.58.9,0,.9,1.37,0,2.74-.07,4.11-.16.14.22.28.48.44.75-2.65.04-5.3.11-7.95.24-.58.03-.58.93,0,.9,2.85-.13,5.71-.21,8.56-.25.15.19.32.39.52.6-1.04.09-2.09.08-3.14.09l-3.86.02c-.58,0-.58.9,0,.9l3.86-.02c1.27,0,2.54,0,3.8-.15.03,0,.07-.02.1-.03.02.02.03.04.05.06.15.21.26.45.34.7-.61.01-1.22.01-1.83.02l-3.86.02c-.58,0-.58.9,0,.9l3.86-.02c.67,0,1.34,0,2.01-.02.02.2.03.38.03.55-1.25.08-2.5.13-3.75.14-.58,0-.58.9,0,.9,1.23,0,2.46-.06,3.68-.13-.03.21-.05.41-.08.6-.02,0-.03-.01-.05,0-.88.07-1.77.1-2.65.1-.23,0-.46.21-.45.45.01.24.2.45.45.45.86,0,1.72-.03,2.57-.09-.03.21-.06.4-.1.6-.61.03-1.22.05-1.83.05-.23,0-.46.21-.45.45.01.24.2.45.45.45.56,0,1.12-.02,1.68-.04-.04.24-.08.48-.12.71-.37.01-.73.04-1.1.04-.23,0-.46.21-.45.45.01.24.2.45.45.45.32,0,.64-.02.95-.03-.03.19-.06.39-.08.58-.08.02-.13.02-.61.02-.23,0-.46.21-.45.45.01.24.2.45.45.45.31,0,.44,0,.51,0-.02.19-.03.38-.05.58h-.22c-.23,0-.46.21-.45.45.01.24.2.45.45.45h.16c-.01.2-.02.4-.03.6-.28.04-.09.05-.78.05-.23,0-.46.21-.45.45.01.24.2.45.45.45.66,0,.51-.01.74-.04,0,.23-.01.46-.02.68-.44.02-.88.02-1.32.02-.23,0-.46.21-.45.45.01.24.2.45.45.45.44,0,.87,0,1.31-.02,0,.21,0,.41,0,.58,0,.05,0,.1,0,.16-.56.03-1.12.04-1.68.04-.23,0-.46.21-.45.45.01.24.2.45.45.45.55,0,1.09-.01,1.64-.04-.01.17-.02.36-.04.57-.41.01-.82.02-1.23.02-.23,0-.46.21-.45.45.01.24.2.45.45.45.39,0,.77,0,1.16-.02-.03.22-.07.41-.14.63h0c-.18.02-.37.04-.55.05-.23,0-.46.2-.45.45.01.24.2.46.45.45.02,0,.04,0,.06,0-.04.06-.09.12-.13.17-.12.16-.56.72-1.34,1.23ZM124.67,112.27c-1.07-.22-2.28-.47-3.54-.94.16,0,.32-.01.48-.03.23-.02.46-.19.45-.45-.01-.23-.2-.47-.45-.45-.76.06-1.52.08-2.28.09-.11-.06-.22-.12-.33-.19.38-.02.75-.03,1.13-.06.23-.02.46-.19.45-.45-.01-.23-.2-.47-.45-.45-.79.06-1.58.09-2.38.09-.2-.16-.41-.31-.61-.49-.05-.05-.1-.1-.15-.15.55-.01,1.1-.04,1.64-.08.23-.02.46-.19.45-.45-.01-.23-.2-.47-.45-.45-.83.06-1.67.09-2.5.09-.18-.21-.36-.42-.52-.63.82,0,1.63-.03,2.44-.09.23-.02.46-.19.45-.45-.01-.23-.2-.47-.45-.45-.88.07-1.77.1-2.66.1-.12,0-.24.06-.32.14-.18-.27-.34-.54-.49-.81.75,0,1.5-.03,2.26-.09.23-.02.46-.19.45-.45-.01-.23-.2-.47-.45-.45-.88.07-1.77.1-2.66.1-.02,0-.03,0-.05.01-.13-.28-.25-.55-.35-.82.34-.02.68-.03,1.02-.06.23-.02.46-.19.45-.45-.01-.23-.2-.47-.45-.45-.44.03-.89.06-1.33.07-.09-.27-.16-.53-.23-.79.81,0,1.62-.03,2.42-.09.23-.02.46-.19.45-.45-.01-.23-.2-.47-.45-.45-.88.07-1.76.1-2.63.09-.05-.25-.1-.5-.14-.74,1.09-.03,2.18-.08,3.27-.16.24-.02.45-.19.45-.45,0-.23-.21-.47-.45-.45-1.13.09-2.27.14-3.4.17-.03-.23-.05-.45-.07-.65h1.71c1.27-.02,2.54,0,3.8-.16.24-.03.45-.18.45-.45,0-.22-.21-.48-.45-.45-1.26.16-2.53.15-3.8.15h-1.77c-.01-.19-.02-.38-.03-.58.65-.01,1.3-.04,1.95-.08.23-.02.46-.19.45-.45-.01-.23-.2-.47-.45-.45-.65.05-1.3.07-1.95.08,0-.2,0-.4.01-.59,1.1-.03,2.19-.08,3.29-.17.24-.02.45-.19.45-.45,0-.23-.21-.47-.45-.45-1.07.08-2.14.13-3.21.16.03-.33.08-.64.12-.93h2.18c1.27-.02,2.54,0,3.8-.17.24-.03.45-.18.45-.45,0-.22-.21-.48-.45-.45-1.26.16-2.53.15-3.8.15h-2.02c.05-.23.1-.45.16-.66.69-.01,1.38-.03,2.06-.09.23-.02.46-.19.45-.45-.01-.23-.2-.47-.45-.45-.6.04-1.2.07-1.81.08.06-.2.12-.38.18-.54.04.01.08.03.12.03.89,0,1.77-.03,2.66-.1.23-.02.46-.19.45-.45-.01-.23-.2-.47-.45-.45-.81.06-1.63.09-2.44.09.09-.21.19-.43.29-.67.02,0,.03.01.05.01.89,0,1.77-.03,2.66-.1.23-.02.46-.19.45-.45-.01-.23-.2-.47-.45-.45-.75.06-1.51.08-2.26.09.12-.22.24-.44.38-.67.53-.01,1.06-.04,1.59-.08.23-.02.46-.19.45-.45-.01-.23-.2-.47-.45-.45-.34.03-.68.04-1.01.06.14-.21.29-.42.45-.64.43-.02.86-.04,1.29-.07.23-.02.46-.19.45-.45-.01-.23-.2-.47-.45-.45-.18.01-.36.02-.54.03.14-.17.29-.33.45-.5,0,0,0,0,0,0,.89,0,1.77-.03,2.66-.1.23-.02.46-.19.45-.45-.01-.23-.2-.47-.45-.45-.58.04-1.16.07-1.74.08.33-.31.69-.61,1.07-.9.51-.01,1.03-.04,1.54-.08.23-.02.46-.19.45-.45-.01-.23-.2-.47-.45-.45-.04,0-.08,0-.12,0,.97-.58,2.99-1.64,5.75-2.18,1.47-.29,7.02-1.28,12.07,1.87,1.89,1.18,3.05,2.52,3.82,3.41,1.12,1.29,2.93,3.45,3.84,6.84.2.73.94,3.71.14,7.45-.33,1.52-.82,2.78-1.29,3.73h-.29c-.51,0-.57.71-.17.87-.08.14-.16.27-.23.39h-.62c-.58,0-.58.91,0,.9h.03c-.08.1-.16.22-.27.35h-1.29c-.58.01-.58.91,0,.91h.54c-.12.13-.24.27-.38.4h-2c-.58.02-.58.91,0,.91h1.07c-.15.13-.31.27-.48.41h-1.49c-.58.01-.58.91,0,.91h.3c-.21.14-.43.28-.64.41h-.64c-.35,0-.49.34-.41.6-5.82,3.04-12.1,1.88-13.34,1.63Z"/>
  <path class="cls-1" d="M142.46,99.59c0-.13-.05-.29-.31-.54-2.14-2-6.89,1.16-10.31-.8.01,0,.03,0,.04,0,.1-.01.22-.12.27-.21.06-.1.08-.24.05-.35-.04-.11-.1-.21-.21-.27-.04-.01-.07-.03-.11-.05-.08-.02-.16-.02-.24,0,.01,0,.02,0,.04,0-.3.04-.6.05-.9.05-.08-.08-.14-.15-.17-.19-.16-.19-.29-.39-.41-.6.23.03.46.07.7.08.23,0,.46-.21.45-.45-.01-.25-.2-.44-.45-.45-.21,0-.41-.03-.62-.05-.1-.01-.2-.03-.3-.05-.06-.01-.11-.01-.17,0-.06-.18-.11-.36-.15-.55.37.02.73.03,1.1,0,.23-.02.43-.27.39-.5-.04-.25-.25-.41-.5-.39-.21.02-.41.02-.62.02-.1,0-.2,0-.31-.01-.07,0-.14,0-.2.02-.03-.26-.05-.52-.06-.79.47.06.93.07,1.4.05.1,0,.23-.1.28-.18.06-.09.1-.23.07-.34-.03-.11-.08-.22-.18-.28-.03-.02-.07-.04-.1-.05-.08-.03-.15-.03-.23-.02.01,0,.02,0,.04,0-.43.02-.86,0-1.29-.06,0-.24,0-.48.02-.73,0,0,.02,0,.03.01.39.04.78.04,1.17.02.23-.01.44-.26.4-.49-.04-.25-.24-.42-.49-.4-.21.01-.42.01-.62,0-.1,0-.2-.01-.31-.02-.05,0-.1,0-.15,0,0-.21.02-.42.02-.63.31.03.62.06.93.05.23,0,.45-.24.42-.48-.03-.25-.22-.43-.48-.42-.21,0-.42,0-.62-.01-.07,0-.15-.01-.22-.02,0-.23,0-.46,0-.69.3,0,.61,0,.91-.03.1,0,.22-.11.28-.19.06-.09.09-.23.06-.34-.03-.11-.09-.22-.19-.28-.04-.02-.07-.03-.1-.05-.08-.03-.16-.03-.24-.01.01,0,.02,0,.04,0-.26.02-.52.02-.78.01,0-.26-.02-.52-.04-.78.25.01.5.04.74.03.23,0,.44-.25.41-.48-.03-.25-.23-.42-.48-.41-.21,0-.42,0-.62,0-.05,0-.09,0-.14-.01-.03-.21-.05-.41-.09-.62.23.03.46.07.69.08.23,0,.46-.21.45-.45-.01-.25-.2-.44-.45-.45-.21,0-.41-.03-.62-.05-.09-.01-.17-.03-.26-.04-.08-.33-.19-.73-.35-.74-.43-.01-.7,2.8-1.41,7.84-.88,6.28-1.46,9-.13,9.8.27.17.53.19.81.21,4.78.32,7.62-.16,7.62-.16,3.73-.64,6.75-1.16,6.79-2.08Z"/>
  <path class="cls-1" d="M100.28,138.98c-.01-.24-.2-.46-.45-.45-.79.02-1.59.04-2.38.04-.23,0-.46.21-.45.45.01.24.2.45.45.45.79,0,1.59-.02,2.38-.04.23,0,.46-.2.45-.45Z"/>
  <path class="cls-1" d="M102.12,128.9c.79,0,1.59-.02,2.38-.04.23,0,.46-.2.45-.45-.01-.24-.2-.46-.45-.45-.79.02-1.59.04-2.38.04-.23,0-.46.21-.45.45.01.24.2.45.45.45Z"/>
  <path class="cls-1" d="M65.13,159.66c.82.04,1.65.04,2.47,0,.23-.01.46-.2.45-.45-.01-.23-.2-.46-.45-.45-.82.04-1.65.04-2.47,0-.23,0-.46.21-.45.45.01.25.2.44.45.45Z"/>
  <path class="cls-1" d="M58.49,155.12c-.82.04-1.65.04-2.47,0-.23-.01-.46.21-.45.45.01.25.2.44.45.45.82.04,1.65.03,2.47,0,.23-.01.46-.2.45-.45-.01-.23-.2-.46-.45-.45Z"/>
  <path class="cls-1" d="M64.36,160.75c.01.25.2.44.45.45.82.04,2.32.05,3.14.01.23-.01.46-.2.45-.45-.01-.23-.2-.46-.45-.45-.82.04-2.32.03-3.14-.01-.23-.01-.46.21-.45.45Z"/>
  <path class="cls-1" d="M59.34,153.65c-.54.03-1.09.03-1.63.01-.23,0-.46.21-.45.45.01.25.2.44.45.45.54.02,1.09.01,1.63-.01.23-.01.46-.2.45-.45-.01-.23-.2-.46-.45-.45Z"/>
  <path class="cls-1" d="M60.5,152.24c-.07-.03-.15-.05-.23-.04-.31,0-.61,0-.92,0-.11,0-.24.08-.3.16-.07.08-.12.22-.1.33.02.12.06.23.16.3.03.02.06.04.1.06.07.03.15.05.23.04.31,0,.61,0,.92,0,.11,0,.24-.08.3-.16.07-.09.12-.22.1-.33-.02-.12-.06-.23-.16-.3-.03-.02-.06-.04-.1-.06Z"/>
  <path class="cls-1" d="M54.06,145.72c-.07-.03-.15-.05-.23-.04-.31,0-.61,0-.92,0-.11,0-.24.08-.3.16-.07.08-.12.22-.1.33.02.12.06.23.16.3.03.02.06.04.1.06.07.03.15.05.23.04.31,0,.61,0,.92,0,.11,0,.24-.08.31-.16.07-.08.12-.22.1-.33-.02-.11-.06-.23-.16-.3-.03-.02-.06-.04-.1-.06Z"/>
  <path class="cls-1" d="M63.26,132.84c-.31,0-.61,0-.92,0-.11,0-.24.08-.31.16-.07.08-.12.22-.1.33.02.12.06.23.16.3.03.02.06.04.1.06.07.03.15.05.23.04.31,0,.61,0,.92,0,.11,0,.24-.08.3-.16.07-.08.12-.22.1-.33-.02-.12-.06-.23-.16-.31-.03-.02-.06-.04-.1-.06-.07-.03-.15-.05-.23-.04Z"/>
  <path class="cls-1" d="M96.95,130.48c.07-.08.12-.22.1-.33-.02-.12-.06-.23-.16-.3-.03-.02-.06-.04-.1-.06-.07-.03-.15-.05-.23-.04-.31,0-.61,0-.92,0-.11,0-.24.08-.3.16-.07.08-.12.22-.1.33.02.11.06.23.16.3.03.02.06.04.1.06.07.03.15.05.23.04.31,0,.61,0,.92,0,.11,0,.24-.08.3-.16Z"/>
  <path class="cls-1" d="M97.67,137.96c.07-.08.12-.22.1-.33-.02-.12-.06-.23-.16-.3-.03-.02-.06-.04-.1-.06-.07-.03-.15-.05-.23-.04-.31,0-.61,0-.92,0-.11,0-.24.08-.3.16-.07.08-.12.22-.1.33.02.12.06.23.16.3.03.02.06.04.1.06.07.03.15.05.23.04.31,0,.61,0,.92,0,.11,0,.24-.08.3-.16Z"/>
  <path class="cls-1" d="M108.07,131.28c-.07.08-.12.22-.1.33.02.12.06.23.16.3.03.02.06.04.1.06.07.03.15.05.23.04.31,0,.61,0,.92,0,.11,0,.24-.08.3-.16.07-.08.12-.22.1-.33-.02-.12-.06-.23-.16-.3-.03-.02-.06-.04-.1-.06-.07-.03-.15-.05-.23-.04-.31,0-.61,0-.92,0-.11,0-.24.08-.3.16Z"/>
  <path class="cls-1" d="M104.49,127.18c.07.03.15.05.23.04.31,0,.61,0,.92,0,.11,0,.24-.08.3-.16.07-.08.12-.22.1-.33-.02-.12-.06-.23-.16-.3-.03-.02-.06-.04-.1-.06-.07-.03-.15-.05-.23-.04-.31,0-.61,0-.92,0-.11,0-.24.08-.3.16-.07.08-.12.22-.1.33.02.12.06.23.16.3.03.02.06.04.1.06Z"/>
  <path class="cls-1" d="M114.2,129.14c-.07.08-.12.22-.1.33.02.12.06.23.16.3.03.02.06.04.1.06.07.03.15.05.23.04.31,0,.61,0,.92,0,.11,0,.24-.08.3-.16.07-.08.12-.22.1-.33-.02-.12-.06-.23-.16-.3-.03-.02-.06-.04-.1-.06-.07-.03-.15-.05-.23-.04-.31,0-.61,0-.92,0-.11,0-.24.08-.31.16Z"/>
  <path class="cls-1" d="M108.7,132.55c-.07-.03-.15-.05-.23-.04-.31,0-.61,0-.92,0-.11,0-.24.08-.3.16-.07.08-.12.22-.1.33.02.12.06.23.16.3.03.02.06.04.1.06.07.03.15.05.23.04.31,0,.61,0,.92,0,.11,0,.24-.08.3-.16.07-.08.12-.22.1-.33-.02-.12-.06-.23-.16-.3-.03-.02-.06-.04-.1-.06Z"/>
  <path class="cls-1" d="M121.34,133.63c.07.03.15.05.23.04.31,0,.61,0,.92,0,.11,0,.24-.08.3-.16.07-.08.12-.22.1-.33-.02-.12-.06-.23-.16-.3-.03-.02-.06-.04-.1-.06-.07-.03-.15-.05-.23-.04-.31,0-.61,0-.92,0-.11,0-.24.08-.3.16-.07.08-.12.22-.1.33.02.12.06.23.16.3.03.02.06.04.1.06Z"/>
  <path class="cls-1" d="M106.81,137.93c.07.03.15.05.23.04.31,0,.61,0,.92,0,.11,0,.24-.08.3-.16.07-.08.12-.22.1-.33-.02-.12-.06-.23-.16-.3-.03-.02-.06-.04-.1-.06-.07-.03-.15-.05-.23-.04-.31,0-.61,0-.92,0-.11,0-.24.08-.3.16-.07.08-.12.22-.1.33.02.12.06.23.16.3.03.02.06.04.1.06Z"/>
  <path class="cls-1" d="M106.49,139.41c.07.03.15.05.23.04.31,0,.61,0,.92,0,.11,0,.24-.08.3-.16.07-.08.12-.22.1-.33-.02-.12-.06-.23-.16-.3-.03-.02-.06-.04-.1-.06-.07-.03-.15-.05-.23-.04-.31,0-.61,0-.92,0-.11,0-.24.08-.3.16-.07.08-.12.22-.1.33.02.12.06.23.16.3.03.02.06.04.1.06Z"/>
  <path class="cls-1" d="M104.82,140.97c.07.03.15.05.23.04.31,0,.61,0,.92,0,.11,0,.24-.08.3-.16.07-.08.12-.22.1-.33-.02-.12-.06-.23-.16-.3-.03-.02-.06-.04-.1-.06-.07-.03-.15-.05-.23-.04-.31,0-.61,0-.92,0-.11,0-.24.08-.3.16-.07.08-.12.22-.1.33.02.12.06.23.16.3.03.02.06.04.1.06Z"/>
  <path class="cls-1" d="M100.57,140.16c-.07-.03-.15-.05-.23-.04-.31,0-.61,0-.92,0-.11,0-.24.08-.3.16-.07.08-.12.22-.1.33.02.12.06.23.16.3.03.02.06.04.1.06.07.03.15.05.23.04.31,0,.61,0,.92,0,.11,0,.24-.08.3-.16.07-.08.12-.22.1-.33-.02-.12-.06-.23-.16-.3-.03-.02-.06-.04-.1-.06Z"/>
  <path class="cls-1" d="M76.73,141.95c.07.03.15.05.23.04.31,0,.61,0,.92,0,.11,0,.24-.08.3-.16.07-.08.12-.22.1-.33-.02-.12-.06-.23-.16-.3-.03-.02-.06-.04-.1-.06-.07-.03-.15-.05-.23-.04-.31,0-.61,0-.92,0-.11,0-.24.08-.3.16-.07.08-.12.22-.1.33.02.12.06.23.16.3.03.02.06.04.1.06Z"/>
  <path class="cls-1" d="M74.8,108.09c-.07-.03-.15-.05-.23-.04-.31,0-.61,0-.92,0-.11,0-.24.08-.31.16-.07.08-.12.22-.1.33.02.12.06.23.16.3.03.02.06.04.1.06.07.03.15.05.23.04.31,0,.61,0,.92,0,.11,0,.24-.08.3-.16.07-.08.12-.22.1-.33-.02-.12-.06-.23-.16-.3-.03-.02-.06-.04-.1-.06Z"/>
  <path class="cls-1" d="M72.89,99.37c-.31,0-.61,0-.92,0-.11,0-.24.08-.3.16-.07.08-.12.22-.1.33.02.12.06.23.16.3.03.02.06.04.1.06.07.03.15.05.23.04.31,0,.61,0,.92,0,.11,0,.24-.08.3-.16.07-.08.12-.22.1-.33-.02-.11-.06-.23-.16-.3-.03-.02-.06-.04-.1-.06-.07-.03-.15-.05-.23-.04Z"/>
  <path class="cls-1" d="M66.63,76.46c-.31,0-.61,0-.92,0-.11,0-.24.08-.3.16-.07.08-.12.22-.1.33.02.12.06.23.16.3.03.02.06.04.1.06.07.03.15.05.23.04.31,0,.61,0,.92,0,.11,0,.24-.08.3-.16.07-.08.12-.22.1-.33-.02-.12-.06-.23-.16-.31-.03-.02-.06-.04-.1-.06-.07-.03-.15-.05-.23-.04Z"/>
  <path class="cls-1" d="M53.7,177.03c-.07-.03-.15-.05-.23-.04-.31,0-.61,0-.92,0-.11,0-.24.08-.3.16-.07.08-.12.22-.1.33.02.12.06.23.16.3.03.02.06.04.1.06.07.03.15.05.23.04.31,0,.61,0,.92,0,.11,0,.24-.08.3-.16.07-.08.12-.22.1-.33-.02-.12-.06-.23-.16-.3-.03-.02-.06-.04-.1-.06Z"/>
  <path class="cls-1" d="M62.61,207.66c.07.03.15.05.23.04.31,0,.61,0,.92,0,.11,0,.24-.08.3-.16.07-.08.12-.22.1-.33-.02-.11-.06-.23-.16-.3-.03-.02-.06-.04-.1-.06-.07-.03-.15-.05-.23-.04-.31,0-.61,0-.92,0-.11,0-.24.08-.3.16-.07.08-.12.22-.1.33.02.12.06.23.16.3.03.02.06.04.1.06Z"/>
  <path class="cls-1" d="M52.4,147.93c-.02-.11-.06-.23-.16-.3-.03-.02-.06-.04-.1-.06-.07-.03-.15-.05-.23-.04-.31,0-.61,0-.92,0-.11,0-.24.08-.3.16-.07.08-.12.22-.1.33.02.12.06.23.16.3.03.02.06.04.1.06.07.03.15.05.23.04.31,0,.61,0,.92,0,.11,0,.24-.08.3-.16.07-.08.12-.22.1-.33Z"/>
  <path class="cls-1" d="M66.3,150.93c.07.03.15.05.23.04.31,0,.61,0,.92,0,.11,0,.24-.08.3-.16.07-.08.12-.22.1-.33-.02-.12-.06-.23-.16-.3-.03-.02-.06-.04-.1-.06-.07-.03-.15-.05-.23-.04-.31,0-.61,0-.92,0-.11,0-.24.08-.3.16-.07.08-.12.22-.1.33.02.12.06.23.16.3.03.02.06.04.1.06Z"/>
  <path class="cls-1" d="M65.49,152.29c.89.02,1.77.01,2.66-.03.23-.01.46-.18.46-.44,0-.23-.19-.47-.44-.46-.88.05-1.77.06-2.66.03-.23,0-.46.2-.46.44,0,.24.19.45.44.46Z"/>
  <path class="cls-1" d="M64.03,155.11c1.64.03,3.27,0,4.91-.09.24-.01.45-.18.46-.44,0-.23-.2-.47-.44-.46-1.63.09-3.27.12-4.91.09-.58,0-.6.89-.02.9Z"/>
  <path class="cls-1" d="M69.34,157.6c0-.23-.2-.47-.44-.46-1.63.09-3.27.12-4.91.09-.58,0-.6.89-.02.9,1.64.03,3.27,0,4.91-.09.24-.01.45-.18.46-.44Z"/>
  <path class="cls-1" d="M64.51,161.96c-.58,0-.59.89-.01.9,1.64.01,3.27-.03,4.91-.13.24-.01.45-.19.46-.44,0-.23-.2-.47-.44-.46-1.63.1-3.27.14-4.91.13Z"/>
  <path class="cls-1" d="M64.21,153.65c1.64.03,3.27,0,4.91-.09.24-.01.45-.18.46-.44,0-.23-.2-.47-.44-.46-1.63.09-3.27.12-4.91.09-.58,0-.6.89-.02.9Z"/>
  <path class="cls-1" d="M69.22,155.6c-1.85.09-3.71.12-5.57.11-.58,0-.58.9,0,.9,1.86.01,3.71-.03,5.57-.11.57-.03.58-.93,0-.9Z"/>
</svg>