<svg width="94" height="24" viewBox="0 0 94 24" fill="none" xmlns="http://www.w3.org/2000/svg">
<path d="M13.608 5.488C13.704 6.08 13.6 6.424 13.296 6.52C12.928 6.616 12.576 6.368 12.24 5.776C11.792 4.992 11.288 4.416 10.728 4.048C10.184 3.68 9.512 3.496 8.712 3.496H7.608C6.6 3.496 5.936 3.584 5.616 3.76C5.312 3.92 5.16 4.208 5.16 4.624V8.608C5.16 9.104 5.296 9.424 5.568 9.568C5.856 9.712 6.344 9.784 7.032 9.784H8.328C8.68 9.784 8.96 9.688 9.168 9.496C9.392 9.304 9.536 9.096 9.6 8.872C9.68 8.632 9.784 8.416 9.912 8.224C10.056 8.032 10.224 7.936 10.416 7.936C10.624 7.936 10.768 8.032 10.848 8.224C10.944 8.416 10.992 8.76 10.992 9.256V11.776C10.992 12.56 10.8 12.952 10.416 12.952C10.224 12.952 10.056 12.856 9.912 12.664C9.784 12.456 9.68 12.24 9.6 12.016C9.536 11.776 9.392 11.56 9.168 11.368C8.96 11.16 8.68 11.056 8.328 11.056H7.032C6.344 11.056 5.856 11.128 5.568 11.272C5.296 11.4 5.16 11.72 5.16 12.232V15.256C5.16 15.896 5.232 16.408 5.376 16.792C5.536 17.176 5.704 17.416 5.88 17.512C6.072 17.608 6.24 17.728 6.384 17.872C6.544 18.016 6.624 18.2 6.624 18.424C6.624 18.632 6.528 18.784 6.336 18.88C6.144 18.96 5.816 19 5.352 19H2.136C1.288 19 0.864 18.808 0.864 18.424C0.864 18.2 0.944 18.016 1.104 17.872C1.264 17.728 1.432 17.608 1.608 17.512C1.8 17.416 1.976 17.176 2.136 16.792C2.296 16.408 2.376 15.896 2.376 15.256V5.872C2.376 5.344 2.32 4.912 2.208 4.576C2.112 4.224 1.992 3.984 1.848 3.856C1.704 3.712 1.552 3.6 1.392 3.52C1.248 3.44 1.12 3.344 1.008 3.232C0.912 3.12 0.864 2.968 0.864 2.776C0.864 2.552 0.96 2.4 1.152 2.32C1.344 2.24 1.672 2.2 2.136 2.2L11.064 2.176C11.72 2.176 12.168 2.232 12.408 2.344C12.664 2.456 12.84 2.664 12.936 2.968C13.272 3.768 13.496 4.608 13.608 5.488ZM15.9313 5.68C15.5313 5.664 15.2113 5.536 14.9713 5.296C14.7313 5.04 14.6273 4.728 14.6593 4.36C14.6753 3.848 14.9233 3.376 15.4033 2.944C15.8993 2.496 16.4193 2.296 16.9633 2.344C17.3313 2.36 17.6433 2.504 17.8993 2.776C18.1553 3.032 18.2753 3.344 18.2593 3.712C18.2433 4.208 17.9873 4.672 17.4913 5.104C16.9953 5.52 16.4753 5.712 15.9313 5.68ZM15.4273 15.76L15.4033 11.176C15.4033 10.76 15.3393 10.416 15.2113 10.144C15.0993 9.856 14.9713 9.672 14.8273 9.592C14.6833 9.496 14.5473 9.392 14.4193 9.28C14.3073 9.152 14.2513 9.008 14.2513 8.848C14.2513 8.72 14.2993 8.608 14.3953 8.512C14.4913 8.416 14.6833 8.304 14.9713 8.176C15.4513 7.936 15.9633 7.728 16.5073 7.552C17.0673 7.36 17.4433 7.256 17.6353 7.24C17.9873 7.24 18.1633 7.448 18.1633 7.864L18.1393 11.176V15.76C18.1393 16.272 18.1953 16.688 18.3073 17.008C18.4353 17.312 18.5633 17.512 18.6913 17.608C18.8353 17.704 18.9633 17.824 19.0753 17.968C19.2033 18.112 19.2673 18.28 19.2673 18.472C19.2673 18.824 18.9393 19 18.2833 19H15.2833C14.5953 19 14.2513 18.816 14.2513 18.448C14.2513 18.256 14.3073 18.096 14.4193 17.968C14.5473 17.824 14.6833 17.704 14.8273 17.608C14.9873 17.512 15.1233 17.312 15.2353 17.008C15.3633 16.688 15.4273 16.272 15.4273 15.76ZM33.2586 12.232L34.0506 16.384C34.1306 16.8 34.2746 17.128 34.4826 17.368C34.6906 17.608 34.8746 17.8 35.0346 17.944C35.2106 18.088 35.2986 18.264 35.2986 18.472C35.2986 18.824 34.9706 19 34.3146 19H31.3626C30.6746 19 30.3306 18.816 30.3306 18.448C30.3306 18.288 30.3946 18.144 30.5226 18.016C30.6506 17.872 30.7866 17.752 30.9306 17.656C31.0746 17.56 31.1866 17.392 31.2666 17.152C31.3626 16.912 31.3786 16.616 31.3146 16.264L30.5946 12.376C30.4986 11.864 30.4026 11.44 30.3066 11.104C30.2106 10.768 30.0666 10.424 29.8746 10.072C29.6826 9.704 29.4266 9.44 29.1066 9.28C28.7866 9.104 28.4026 9.016 27.9546 9.016C27.1866 9.032 26.5226 9.376 25.9626 10.048C25.4186 10.704 25.1466 11.624 25.1466 12.808V15.76C25.1466 16.272 25.2026 16.688 25.3146 17.008C25.4426 17.312 25.5706 17.512 25.6986 17.608C25.8426 17.704 25.9706 17.824 26.0826 17.968C26.2106 18.112 26.2746 18.28 26.2746 18.472C26.2746 18.824 25.9466 19 25.2906 19H22.2666C21.5946 19 21.2586 18.816 21.2586 18.448C21.2586 18.256 21.3146 18.096 21.4266 17.968C21.5546 17.824 21.6906 17.704 21.8346 17.608C21.9946 17.512 22.1306 17.312 22.2426 17.008C22.3706 16.688 22.4346 16.272 22.4346 15.76V11.056C22.4346 10.288 22.1866 9.744 21.6906 9.424C21.4026 9.216 21.2586 9.008 21.2586 8.8C21.2586 8.64 21.3066 8.512 21.4026 8.416C21.4986 8.304 21.6906 8.184 21.9786 8.056C23.0506 7.576 23.8426 7.32 24.3546 7.288C24.6906 7.288 24.8586 7.496 24.8586 7.912L24.8346 9.664C25.2826 8.88 25.8666 8.28 26.5866 7.864C27.3066 7.448 28.0906 7.24 28.9386 7.24C30.1866 7.24 31.1386 7.632 31.7946 8.416C32.4506 9.2 32.9386 10.472 33.2586 12.232ZM46.506 15.616C46.73 15.392 46.93 15.344 47.106 15.472C47.298 15.6 47.338 15.824 47.226 16.144C46.938 16.896 46.298 17.6 45.306 18.256C44.33 18.912 43.138 19.24 41.73 19.24C40.05 19.24 38.682 18.712 37.626 17.656C36.586 16.6 36.066 15.256 36.066 13.624C36.066 11.816 36.658 10.304 37.842 9.088C39.026 7.856 40.482 7.24 42.21 7.24C43.538 7.24 44.626 7.584 45.474 8.272C46.322 8.96 46.85 9.84 47.058 10.912C47.138 11.376 46.954 11.696 46.506 11.872C44.746 12.608 42.274 13.536 39.09 14.656C39.362 15.376 39.818 15.992 40.458 16.504C41.114 17.016 41.914 17.272 42.858 17.272C44.218 17.272 45.434 16.72 46.506 15.616ZM41.322 8.584C40.474 8.632 39.81 8.992 39.33 9.664C38.866 10.32 38.634 11.088 38.634 11.968C38.634 12.608 38.69 13.104 38.802 13.456C40.882 12.768 42.49 12.192 43.626 11.728C44.058 11.568 44.226 11.272 44.13 10.84C43.986 10.136 43.642 9.568 43.098 9.136C42.554 8.704 41.962 8.52 41.322 8.584ZM54.1206 7.864C54.7286 7.448 55.3526 7.24 55.9926 7.24C56.6326 7.24 57.1206 7.416 57.4566 7.768C57.8086 8.12 57.9846 8.568 57.9846 9.112C57.9846 9.496 57.8806 9.824 57.6726 10.096C57.4806 10.368 57.2326 10.504 56.9286 10.504C56.5606 10.504 56.2006 10.32 55.8486 9.952C55.4966 9.568 55.1286 9.376 54.7446 9.376C54.2486 9.376 53.8166 9.672 53.4486 10.264C53.0806 10.856 52.8966 11.616 52.8966 12.544V15.76C52.8966 16.272 52.9526 16.688 53.0646 17.008C53.1926 17.312 53.3206 17.512 53.4486 17.608C53.5926 17.704 53.7206 17.824 53.8326 17.968C53.9606 18.112 54.0246 18.28 54.0246 18.472C54.0246 18.824 53.6966 19 53.0406 19H50.0166C49.3446 19 49.0086 18.816 49.0086 18.448C49.0086 18.256 49.0646 18.096 49.1766 17.968C49.3046 17.824 49.4406 17.704 49.5846 17.608C49.7446 17.512 49.8806 17.312 49.9926 17.008C50.1206 16.688 50.1846 16.272 50.1846 15.76V11.056C50.1846 10.288 49.9366 9.744 49.4406 9.424C49.1526 9.216 49.0086 9.008 49.0086 8.8C49.0086 8.64 49.0566 8.512 49.1526 8.416C49.2486 8.304 49.4406 8.184 49.7286 8.056C50.8006 7.576 51.5926 7.32 52.1046 7.288C52.4406 7.288 52.6086 7.496 52.6086 7.912L52.5846 9.568C53.0006 8.848 53.5126 8.28 54.1206 7.864ZM60.8715 15.76L60.8475 5.896C60.8475 5.464 60.7835 5.112 60.6555 4.84C60.5435 4.568 60.4155 4.392 60.2715 4.312C60.1275 4.216 59.9915 4.112 59.8635 4C59.7515 3.872 59.6955 3.728 59.6955 3.568C59.6955 3.424 59.7435 3.304 59.8395 3.208C59.9355 3.112 60.1275 3 60.4155 2.872C61.6475 2.296 62.5355 1.992 63.0795 1.96C63.2555 1.944 63.3835 1.992 63.4635 2.104C63.5595 2.2 63.6075 2.36 63.6075 2.584L63.5835 5.896V15.76C63.5835 16.272 63.6395 16.688 63.7515 17.008C63.8795 17.312 64.0075 17.512 64.1355 17.608C64.2795 17.704 64.4075 17.824 64.5195 17.968C64.6475 18.112 64.7115 18.28 64.7115 18.472C64.7115 18.824 64.3835 19 63.7275 19H60.7035C60.0315 19 59.6955 18.816 59.6955 18.448C59.6955 18.256 59.7515 18.096 59.8635 17.968C59.9915 17.824 60.1275 17.704 60.2715 17.608C60.4315 17.512 60.5675 17.312 60.6795 17.008C60.8075 16.688 60.8715 16.272 60.8715 15.76ZM78.5359 7.864L78.5119 11.176V15.64C78.5119 16.04 78.5839 16.368 78.7279 16.624C78.8719 16.864 79.0319 17.016 79.2079 17.08C79.3999 17.128 79.5679 17.2 79.7119 17.296C79.8559 17.392 79.9279 17.512 79.9279 17.656C79.9279 17.912 79.6959 18.176 79.2319 18.448C78.2399 18.976 77.4239 19.24 76.7839 19.24C76.2239 19.24 75.9199 18.792 75.8719 17.896L75.8479 17.104C75.3679 17.776 74.7599 18.304 74.0239 18.688C73.3039 19.056 72.5999 19.24 71.9119 19.24C70.6479 19.24 69.6559 18.832 68.9359 18.016C68.2319 17.2 67.8799 16.008 67.8799 14.44L67.8559 11.176C67.8559 10.744 67.7919 10.392 67.6639 10.12C67.5519 9.848 67.4239 9.672 67.2799 9.592C67.1359 9.496 66.9999 9.392 66.8719 9.28C66.7599 9.152 66.7039 9.008 66.7039 8.848C66.7039 8.704 66.7519 8.584 66.8479 8.488C66.9439 8.392 67.1359 8.28 67.4239 8.152C68.6559 7.576 69.5439 7.272 70.0879 7.24C70.2639 7.224 70.3919 7.272 70.4719 7.384C70.5679 7.48 70.6159 7.64 70.6159 7.864L70.5919 11.176V14.224C70.5919 15.28 70.7679 16.096 71.1199 16.672C71.4719 17.232 72.0399 17.504 72.8239 17.488C73.5759 17.472 74.2559 17.128 74.8639 16.456C75.4879 15.784 75.7999 14.928 75.7999 13.888V11.176C75.7999 10.744 75.7359 10.392 75.6079 10.12C75.4959 9.848 75.3599 9.672 75.1999 9.592C75.0559 9.496 74.9199 9.392 74.7919 9.28C74.6799 9.152 74.6239 9.008 74.6239 8.848C74.6239 8.704 74.6719 8.584 74.7679 8.488C74.8639 8.392 75.0559 8.28 75.3439 8.152C76.5759 7.576 77.4639 7.272 78.0079 7.24C78.1839 7.224 78.3119 7.272 78.3919 7.384C78.4879 7.48 78.5359 7.64 78.5359 7.864ZM90.1191 10.264L88.1511 12.808L90.5991 16.168C90.9351 16.632 91.2951 17.008 91.6791 17.296C92.0631 17.584 92.3431 17.8 92.5191 17.944C92.7111 18.088 92.8071 18.264 92.8071 18.472C92.8071 18.824 92.4711 19 91.7991 19H88.0791C87.3911 19 87.0471 18.816 87.0471 18.448C87.0471 18.304 87.1111 18.16 87.2391 18.016C87.3671 17.872 87.4871 17.752 87.5991 17.656C87.7111 17.56 87.7511 17.384 87.7191 17.128C87.6871 16.872 87.5271 16.552 87.2391 16.168L85.9191 14.368L84.4791 16.216C84.1911 16.584 84.0231 16.896 83.9751 17.152C83.9271 17.392 83.9511 17.568 84.0471 17.68C84.1591 17.776 84.2791 17.896 84.4071 18.04C84.5351 18.168 84.5991 18.312 84.5991 18.472C84.5991 18.824 84.2631 19 83.5911 19H81.7431C81.0551 19 80.7111 18.816 80.7111 18.448C80.7111 18.24 80.7991 18.072 80.9751 17.944C81.1511 17.816 81.4311 17.608 81.8151 17.32C82.2151 17.032 82.5911 16.664 82.9431 16.216L85.1991 13.384L82.9671 10.312C82.6311 9.848 82.2711 9.472 81.8871 9.184C81.5031 8.896 81.2151 8.68 81.0231 8.536C80.8471 8.392 80.7591 8.216 80.7591 8.008C80.7591 7.656 81.0951 7.48 81.7671 7.48H85.5111C86.1831 7.48 86.5191 7.656 86.5191 8.008C86.5191 8.136 86.4711 8.256 86.3751 8.368C86.2791 8.48 86.1831 8.584 86.0871 8.68C86.0071 8.76 85.9351 8.864 85.8711 8.992C85.8071 9.12 85.8071 9.296 85.8711 9.52C85.9511 9.728 86.1031 9.992 86.3271 10.312L87.4071 11.776L88.5831 10.264C88.8871 9.88 89.0631 9.568 89.1111 9.328C89.1591 9.088 89.1271 8.92 89.0151 8.824C88.9191 8.712 88.8071 8.592 88.6791 8.464C88.5511 8.32 88.4871 8.168 88.4871 8.008C88.4871 7.656 88.8151 7.48 89.4711 7.48H91.3431C92.0151 7.48 92.3511 7.656 92.3511 8.008C92.3511 8.232 92.2631 8.408 92.0871 8.536C91.9111 8.664 91.6231 8.872 91.2231 9.16C90.8391 9.448 90.4711 9.816 90.1191 10.264Z" fill="black"/>
</svg>
