<svg width="360" height="793" viewBox="0 0 360 793" fill="none" xmlns="http://www.w3.org/2000/svg">
<path opacity="0.1" d="M199.175 31.5384C188.093 41.7213 177.135 55.7942 171.399 67.2761C169.838 70.4368 166.709 78.808 164.438 85.7718C159.874 100.169 155.935 106.959 146.474 116.439C139.072 123.882 132.503 127.546 114.162 134.157C106.925 136.821 98.0936 140.51 94.4928 142.397C68.0493 156.154 51.744 187.229 49.575 228.449C47.9998 258.901 51.9741 279.254 65.3857 309.923C69.8851 320.125 73.5531 329.216 73.4258 330.216C73.2502 331.365 70.6569 329.35 65.8085 324.285C53.6533 311.931 46.1424 309.334 33.9063 313.292C25.0293 316.104 19.4759 316.657 12.0767 315.345C7.04479 314.503 3.81296 314.649 0.990372 315.982C-10.7119 321.151 -26.0984 345.545 -31.4969 367.586C-37.0021 390.157 -35.736 412.102 -28.1676 422.047C-25.5211 425.728 -24.2091 426.383 -17.9694 427.386C-6.53495 429.342 -5.6655 430.541 -3.97148 446.496C-1.94984 465.515 2.99737 473.124 15.8071 477.168C25.3979 480.099 29.003 483.892 34.5421 496.194C38.3933 504.926 39.2294 507.854 39.8643 514.448C40.946 526.18 38.6306 538.973 32.7627 553.505C21.7213 581.05 20.8384 584.977 24.1939 592.586C26.2148 597.168 29.1921 599.022 38.7067 601.78C45.5769 603.697 57.1096 612.063 62.7866 619.265C69.8975 628.172 77.015 645.599 81.2819 664.038C83.1117 672.054 85.4753 681.279 86.6369 684.429C88.4162 689.752 88.6551 690.036 90.3844 688.802C92.5459 687.259 93.7342 680.159 94.046 667.205C94.4341 654.424 93.2251 643.692 89.5226 625.76C87.609 616.781 85.9549 607.618 85.7975 605.457C85.3001 597.627 87.2843 590.527 92.1851 582.824C98.5788 572.577 98.7775 569.934 93.6911 556.854C88.2819 542.527 88.4296 541.058 97.6512 527.429C98.5465 526.108 99.5893 523.317 100.055 521.28C100.793 517.798 100.165 515.859 91.4003 493.923C78.3957 461.6 77.0612 458.573 72.7773 454.015C63.856 444.354 49.3433 435.159 35.931 430.522C24.2909 426.553 19.8314 423.143 15.3089 414.435C8.72481 402.083 7.09731 382.669 11.5588 370.619C15.3055 360.556 17.6652 360.236 33.0172 367.467C42.2595 371.67 49.0814 373.735 64.195 376.817C81.2639 380.209 84.6482 380.408 92.035 379.114C99.7193 377.722 100.871 377.241 107.788 372.305C114.446 367.554 115.628 366.369 119.893 359.801C128.644 346.394 133.425 326.045 131.703 309.768C130.224 295.591 126.07 289.007 111.106 276.725C99.1737 266.939 96.8118 264.419 91.7706 256.081C85.2118 245.075 79.9841 223.684 80.7384 210.187C81.0621 203.704 83.6263 194.826 86.64 190.061C90.3277 184.246 98.0506 179.075 106.063 176.881C121.147 172.936 137.074 176.574 150.308 187.25C154.355 190.499 158.912 193.613 160.234 194.034C164.027 195.419 167.679 192.358 169.007 186.863C172.253 173.861 175.257 165.465 179.08 159.44C181.333 155.786 183.703 151.366 184.408 149.613C185.934 145.341 183.865 140.907 178.304 136.804C174.208 133.703 173.931 133.332 174.351 130.418C174.702 128.121 175.819 126.529 178.654 123.937C198.558 106.435 201.748 100.521 201.346 81.8246C201.03 66.9315 205.02 58.9682 218.155 48.7986C235.757 35.0992 262.602 29.4679 272.016 37.4126C275.489 40.3903 276.059 42.7122 275.506 52.5417C275.251 58.4074 275.657 60.618 277.869 65.6327C280.07 70.882 281.428 72.414 286.902 76.5781C295.017 82.6081 295.635 84.7818 291.936 94.6963C281.18 123.403 277.483 140.023 278.516 155.768C278.93 162.635 279.662 165.068 283.436 173.627C290.185 188.931 297.027 194.392 315.014 198.834C331.429 202.805 334.549 205.239 340.861 219.036C347.602 233.549 355.38 240.616 370.201 245.612C383.987 250.323 385.86 252.51 383.383 261.326C380.567 271.179 368.138 286.301 352.034 299.273C339.138 309.726 332.222 310.798 320.32 304.173C303.593 294.854 285.646 297.205 268.168 310.929C260.145 317.223 258.316 319.779 252.8 332.014C247.687 343.62 244.092 347.323 227.29 358.973C211.392 370.092 209.805 371.907 208.072 381.896C207.235 386.7 207.499 388.33 209.947 394.654C211.709 399.421 214.896 405.103 218.928 410.637C222.282 415.406 228.653 424.954 232.959 431.884C244.829 450.808 245.04 450.771 270.221 442.916C287.035 437.737 295.736 436.074 301.343 437.188C315.795 440.06 319.695 466.945 308.235 485.809C301.147 497.575 290.166 505.411 274.775 509.689C263.413 512.796 256.385 512.583 246.04 508.713C235.531 504.732 231.236 504.273 222.372 505.825C213.297 507.414 205.597 511.09 193.925 519.421C172.137 534.971 158.262 553.513 150.73 577.417C146.66 590.097 145.684 600.001 147.007 614.857C148.721 634.209 147.851 640.741 141.848 655.483C135.662 670.583 135.641 678.783 141.894 696.828C145.424 707.153 145.945 709.623 145.67 715.958C145.093 731.147 136.68 747.382 118.647 768.096C105.596 783.094 103.017 786.526 102.857 789.255C102.528 793.922 107.784 793.468 119.496 788.064C132.966 781.748 146.482 768.578 154.883 753.602C159.43 745.355 161.139 740.725 162.773 732.057C164.554 721.919 165.859 717.918 169.791 710.338C174.311 701.77 180.188 694.733 190.337 685.785C199.314 677.787 203.23 672.491 204.838 666.342C206.059 661.378 205.927 660.563 203.134 650.621C199.789 638.912 200.558 630.861 207.042 611.797C213.574 592.585 213.678 589.214 208.035 576.418C204.222 567.772 204.497 565.302 209.771 561.538C214.786 557.959 217.931 557.874 222.937 561.235C225.503 562.928 229.785 564.647 232.449 565.018C240.904 566.146 245.232 564.876 258.129 557.263C269.173 550.858 270.45 550.402 279.736 548.776C288.773 547.101 290.049 546.645 295.756 542.572C300.598 539.117 303.664 536.018 309.514 528.661C318.73 517.082 327.852 508.639 337.927 502.358C350.067 494.831 351.255 491.596 347.745 473.071C345.06 458.732 344.924 448.371 347.206 437.308C349.129 427.75 348.197 421.255 343.621 410.879C337.663 397.626 328.744 390.805 318.329 391.418C315.432 391.553 310.263 391.945 306.945 392.154C300.097 392.608 292.884 389.912 291.282 386.281C289.605 382.477 293.298 374.612 298.572 370.848C303.068 367.639 304.497 367.529 308.603 370.396C315.811 375.141 321.547 374.23 332.49 366.307C345.334 357.026 354.876 345.669 363.597 329.101C370.121 316.829 375.825 309.916 385.404 302.511C389.084 299.771 393.13 296.315 394.572 294.945C403.032 286.292 411.207 265.908 411.771 251.978C412.011 244.532 411.774 243.223 408.61 236.047L405.178 228.265L396.437 223.137C380.831 214.041 374.055 205.122 371.237 189.968C368.003 172.838 361.919 167.291 342.548 163.837C324.549 160.655 320.397 156.911 320.076 144.068C319.757 130.2 321.9 117.531 327.516 100.109C330.475 90.8363 333.031 81.1682 333.095 78.7355C333.515 71.956 330.462 66.0642 323.107 58.9231C314.987 51.0778 310.294 41.4682 308.706 28.8467C306.524 12.5574 299.909 4.77451 285.342 1.64356C259.984 -3.7892 224.003 8.70404 199.175 31.5384Z" fill="#017EFE"/>
</svg>
