<svg width="1042" height="598" viewBox="0 0 1042 598" fill="none" xmlns="http://www.w3.org/2000/svg">
<path opacity="0.1" d="M909.835 0.732084C887.243 -0.223575 860.651 3.08517 842.36 9.19028C837.343 10.889 825.126 16.4586 815.314 21.4435C795.172 31.8903 783.773 34.9187 763.652 34.9395C747.88 34.9823 737.009 31.8975 710.5 19.4351C699.982 14.5771 686.681 9.11335 680.85 7.29353C638.142 -6.1841 587.807 9.50678 541.712 50.9933C507.687 81.671 490.287 107.516 471.954 154.345C465.895 169.964 460.134 183.518 458.937 184.445C457.53 185.479 456.915 180.584 457.145 170.052C457.357 144.014 452.136 133.276 434.932 124.482C422.514 118.038 416.027 112.726 409.56 103.471C405.109 97.2308 401.52 93.9533 397.106 92.3702C379.182 85.4293 336.92 94.9993 307.77 112.679C277.942 130.81 255.974 155.468 253.449 174.074C252.35 180.796 253.048 182.886 258.611 190.58C268.68 204.806 268.331 207.003 253.18 225.753C235.123 248.105 232.295 261.445 241.608 279.35C248.683 292.653 248.483 300.512 241.298 319.466C236.113 332.834 233.891 336.832 227.56 344.513C216.245 358.126 200.195 369.256 178.523 378.461C137.529 395.994 132.42 399.228 127.901 410.876C125.18 417.891 126.374 423.023 133.552 436.061C138.814 445.397 142.178 466.536 140.558 480.218C138.65 497.235 127.697 523.311 112.641 547.433C106.07 557.892 98.7794 570.204 96.6675 574.785C92.9025 582.33 92.8546 582.886 96.0027 583.412C99.9379 584.069 108.743 577.789 122.836 564.358C136.827 551.192 146.944 538.507 162.061 515.522C169.567 503.951 177.545 492.458 179.673 489.995C187.463 481.149 197.113 475.714 210.504 472.737C228.182 468.643 231.201 466.047 239.693 446.748C249.167 425.78 250.885 424.376 275.161 419.694C277.515 419.241 281.588 417.385 284.247 415.715C288.73 412.8 290.123 410.073 304.115 377.458C324.639 329.303 326.436 324.67 326.728 315.276C327.514 295.535 321.864 270.349 312.541 251.174C304.392 234.591 303.277 226.231 307.724 212.175C313.852 192.058 332.747 169.705 350.289 161.642C364.959 154.932 367.806 157.099 376.434 181.091C381.787 195.374 386.841 204.816 399.623 224.146C414.153 245.883 417.537 249.69 426.759 256.163C436.401 262.848 438.136 263.561 450.728 265.664C462.849 267.689 465.364 267.687 476.872 265.24C500.412 260.294 527.109 243.754 542.571 224.633C556.063 208.001 558.644 196.594 555.794 167.648C553.514 144.576 553.682 139.389 557.184 125.176C561.909 106.515 579.08 78.2365 594.22 64.699C601.452 58.1555 613.607 51.4481 621.871 49.5872C631.967 47.3275 645.664 50.0389 656.508 56.2197C676.723 68.0535 689.779 88.8388 692.497 114.239C693.344 121.991 694.877 130.14 695.834 131.991C698.393 137.493 705.525 138.12 712.773 133.694C730.034 123.329 742.145 117.601 752.607 115.262C758.883 113.773 766.096 111.596 768.708 110.482C774.867 107.565 777.38 100.656 775.831 90.3903C774.774 82.744 774.874 82.0559 778.416 79.4061C781.229 77.3392 784.107 76.8334 789.873 77.0921C829.612 79.6442 839.282 76.7498 858.718 56.4602C874.204 40.3026 886.903 36.082 911.661 39.2317C944.915 43.3783 979.416 65.9142 980.978 84.3563C981.504 91.2093 979.642 94.2808 968.612 104.136C962.11 110.097 960.193 112.877 957.215 120.554C953.977 128.469 953.792 131.539 955.183 141.778C957.399 156.806 955.746 159.771 941.284 166.375C899.359 185.445 877.776 199.174 862.145 216.999C855.29 224.733 853.483 228.095 848.4 241.199C839.312 264.627 840.779 277.697 855.169 301.524C868.389 323.183 869.117 329.083 861.165 350.446C852.909 373.026 853.663 388.796 864.101 409.849C873.742 429.5 873.41 433.813 861.411 440.547C847.952 448.023 818.684 450.885 787.794 447.556C762.989 444.962 754.503 438.752 748.897 419.071C741.026 391.4 719.463 374.831 686.315 370.843C671.104 369.007 666.447 369.779 647.588 376.917C629.827 383.815 622.073 383.929 591.847 378.456C563.144 373.379 559.531 373.621 547.077 382.392C541.085 386.606 539.634 388.619 535.516 397.937C532.323 404.874 529.673 414.297 528.077 424.46C526.574 433.088 523.198 450 520.411 461.937C512.917 494.651 513.18 494.836 548.277 513.244C571.641 525.603 582.652 533.081 587.424 540.22C599.728 558.625 575.308 591.33 543.093 599.196C523.064 604.165 503.073 600.825 482.177 589.019C466.806 580.249 459.566 572.556 452.686 557.454C445.752 542.061 441.677 537.011 430.611 529.242C419.282 521.289 407.196 517.015 385.946 513.465C346.28 506.837 311.841 511.795 278.444 529.188C260.648 538.336 249.091 547.821 234.714 565.01C215.976 587.389 208.112 593.404 186.073 602.688C163.46 612.158 154.726 620.847 142.199 646.66C134.98 661.38 132.909 664.558 125.887 670.995C109.138 686.519 82.9523 694.828 41.7892 697.676C11.9906 699.744 5.60513 700.651 2.53531 703.379C-2.77267 707.989 3.29389 713.09 21.4774 719.792C42.4976 727.392 70.8485 727.759 95.6824 720.774C109.275 716.844 116.01 713.741 126.954 706.267C139.616 697.389 145.252 694.526 157.483 690.65C171.387 686.348 185.106 685.117 205.394 686.393C223.428 687.432 233.215 685.967 241.455 681.142C248.026 677.166 248.752 676.16 256.347 662.63C265.232 646.638 274.602 638.902 301.743 625.537C329.093 612.066 332.785 608.596 340.384 589.007C345.519 575.771 348.435 573.439 358.037 575.043C367.166 576.568 370.598 579.82 372.346 588.709C373.272 593.233 375.996 599.607 378.432 602.833C386.215 613.013 392.162 616.261 413.953 621.875C432.489 626.804 434.33 627.676 445.922 635.814C457.303 643.635 459.144 644.506 469.533 646.242C478.348 647.714 484.897 647.681 498.927 646.079C521.02 643.569 539.68 644.29 557.056 648.321C577.95 653.221 582.648 651.046 598.601 627.638C610.98 609.552 621.843 598.4 636.021 589.071C648.218 580.961 654.128 573.069 660.29 557.186C668.039 536.776 665.81 520.055 654.095 509.641C650.875 506.707 644.966 501.633 641.219 498.329C633.462 491.536 628.662 481.01 630.819 475.45C633.078 469.627 645.357 465.195 654.958 466.799C663.144 468.166 664.779 469.567 666.096 476.975C668.712 489.674 675.774 494.8 695.816 498.008C719.321 501.794 741.523 499.866 768.39 491.529C788.358 485.422 801.762 484.138 819.805 486.448C826.625 487.446 834.595 488.073 837.582 488.15C855.763 487.946 886.104 474.974 901.501 460.775C909.666 453.119 910.806 451.477 915.068 440.491L919.689 428.579L915.851 413.844C908.935 387.601 911.212 370.928 924.317 351.836C939.079 330.201 938.508 317.844 921.6 293.596C905.858 271.094 905.425 262.706 918.727 248.721C933.122 233.649 948.857 222.466 973.332 209.924C986.326 203.216 999.314 195.661 1001.97 193.145C1009.61 186.389 1012.63 176.886 1012.4 161.486C1012.11 144.524 1017.33 129.33 1029.06 114.235C1044.04 94.6111 1045.28 79.315 1033.13 60.5134C1011.97 27.8024 960.469 2.8495 909.835 0.732084Z" fill="#017EFE"/>
</svg>
