<svg width="31" height="40" viewBox="0 0 31 40" fill="none" xmlns="http://www.w3.org/2000/svg">
<path d="M17.6039 25.243C17.6085 25.3257 17.5856 25.3816 17.5765 25.4017C17.5239 25.4978 17.4074 25.5693 17.3001 25.5895C17.243 25.6006 17.1859 25.6029 17.1288 25.5984C17.1288 25.5984 17.1265 25.5984 17.1242 25.5962C17.115 25.5984 17.1036 25.6006 17.0945 25.5984C16.9574 25.5828 16.8204 25.5738 16.6833 25.5738C16.6079 25.5738 16.3864 25.5805 16.311 25.585C16.1968 25.5939 16.1008 25.5269 16.0803 25.4151C16.0597 25.3123 16.1465 25.1961 16.2539 25.1871C16.279 25.1849 16.3087 25.1849 16.3338 25.1827C16.2973 25.129 16.2607 25.062 16.2265 24.9815C16.1808 24.9815 16.1351 24.9725 16.0894 24.9725C16.014 24.9725 15.9386 24.977 15.8633 24.9815C15.7468 24.9904 15.6531 24.9234 15.6303 24.8116C15.612 24.7088 15.6988 24.5926 15.8061 24.5836C15.9044 24.5769 16.0026 24.5747 16.1008 24.5747C16.0825 24.4897 16.0666 24.3981 16.0551 24.2975C16.0323 24.2953 16.0094 24.2931 15.9866 24.2931C15.9112 24.2931 15.8336 24.2953 15.7582 24.302C15.644 24.3109 15.548 24.2439 15.5275 24.1299C15.5092 24.0271 15.596 23.9131 15.7034 23.9041C15.8107 23.8952 15.9204 23.893 16.03 23.893C16.0277 23.7901 16.0277 23.6896 16.0323 23.5934C15.9067 23.5957 15.7787 23.5979 15.6531 23.5979C15.5366 23.6002 15.4475 23.5197 15.4361 23.4079C15.427 23.3029 15.5229 23.1978 15.6303 23.1978C15.7764 23.1978 15.9226 23.1933 16.0688 23.1933C16.0803 23.1062 16.094 23.0212 16.1077 22.9408C15.9569 22.9408 15.8518 22.9385 15.612 22.9296C15.4978 22.9251 15.427 22.8044 15.4361 22.7038C15.4475 22.5876 15.5594 22.5273 15.6668 22.5317C15.9249 22.5407 16.0254 22.5429 16.1945 22.5429C16.2265 22.4245 16.2584 22.3105 16.2904 22.1987C16.0551 22.1965 15.966 22.1987 15.6645 22.1875C15.5503 22.1831 15.4795 22.0601 15.4909 21.9595C15.5 21.8455 15.6143 21.7852 15.7216 21.7874C16.046 21.8008 16.1237 21.7986 16.4069 21.8008C16.4343 21.7025 16.4617 21.6019 16.4869 21.4991C16.2059 21.4969 16.1305 21.4991 15.8039 21.4857C15.6896 21.4812 15.6211 21.3605 15.6303 21.2599C15.6394 21.1459 15.7536 21.0833 15.861 21.0878C16.199 21.1012 16.2676 21.099 16.5805 21.1012C16.6034 21.0051 16.6239 20.9045 16.6445 20.7995C16.3247 20.7995 16.2562 20.7995 15.9158 20.7861C15.7993 20.7816 15.7308 20.6609 15.7399 20.5603C15.749 20.4441 15.8633 20.3837 15.9706 20.3882C16.3201 20.4016 16.3818 20.3972 16.7244 20.4016C16.7427 20.3033 16.7633 20.2027 16.7815 20.0976C16.6491 20.0954 16.5417 20.0954 16.3201 20.0865C16.2059 20.082 16.1351 19.9591 16.1442 19.8607C16.1556 19.7445 16.2699 19.6841 16.3749 19.6886C16.6079 19.6975 16.713 19.6998 16.8569 19.6998C16.8752 19.6037 16.8935 19.5008 16.9117 19.398H16.9049C16.5485 19.398 16.4937 19.4003 16.1374 19.3869C16.0232 19.3824 15.9523 19.2594 15.9615 19.1589C15.9729 19.0449 16.0848 18.9845 16.1922 18.989C16.5485 19.0024 16.6034 18.9979 16.9597 19.0002C16.9689 19.0002 16.9757 19.0046 16.9826 19.0069C16.9963 18.9219 17.0145 18.8169 17.0328 18.6962C16.9506 18.6939 16.8592 18.6917 16.7244 18.685C16.6102 18.6805 16.5394 18.5598 16.5508 18.4593C16.56 18.3453 16.6742 18.2827 16.7815 18.2871C16.9186 18.2939 17.01 18.2961 17.0922 18.2961C17.1059 18.2044 17.1196 18.1039 17.1356 17.9966C16.9963 17.9966 16.8912 17.9966 16.665 17.9854C16.5508 17.9809 16.48 17.8602 16.4892 17.7596C16.5006 17.6434 16.6125 17.5831 16.7199 17.5875C16.9483 17.5965 17.0534 17.5987 17.1927 17.5987C17.2064 17.5004 17.2201 17.3975 17.2361 17.2903C17.195 17.288 17.1516 17.288 17.1013 17.2858C16.9871 17.2813 16.9163 17.1584 16.9277 17.06C16.9369 16.9438 17.0511 16.8835 17.1584 16.8879C17.2087 16.8902 17.2521 16.8902 17.2909 16.8924C17.364 16.3805 17.4486 15.7815 17.5468 15.0752C17.5582 14.988 17.5673 14.9187 17.5765 14.8539C17.5262 14.8517 17.4805 14.8316 17.444 14.798C17.4029 14.7623 17.3846 14.7086 17.3823 14.6572C17.38 14.6058 17.4074 14.5499 17.444 14.5142C17.4805 14.4784 17.5354 14.4561 17.5879 14.4561H17.629C17.6313 14.4337 17.6336 14.4114 17.6382 14.389C17.645 14.3175 17.6541 14.2325 17.661 14.1409H17.5879C17.5331 14.1409 17.4828 14.1185 17.444 14.0828C17.4029 14.047 17.3846 13.9934 17.3823 13.9397C17.38 13.8906 17.4074 13.8324 17.444 13.7989C17.4805 13.7632 17.5354 13.7386 17.5879 13.7386H17.6884C17.693 13.6425 17.6975 13.5374 17.7021 13.4256H17.4874C17.4326 13.4256 17.3823 13.4033 17.3435 13.3675C17.3024 13.3295 17.2864 13.2759 17.2818 13.2245C17.2795 13.1753 17.3069 13.1172 17.3435 13.0837C17.38 13.0457 17.4348 13.0233 17.4874 13.0233H17.7067C17.709 12.9227 17.7067 12.8154 17.7044 12.7059C17.6975 12.7059 17.6907 12.7059 17.6838 12.7037C17.6747 12.7037 17.6633 12.7014 17.6541 12.6992C17.5536 12.688 17.4508 12.6858 17.3503 12.697C17.2978 12.7015 17.243 12.6702 17.2041 12.6366C17.1653 12.6009 17.147 12.5472 17.1447 12.4958C17.1447 12.4444 17.1699 12.3885 17.2041 12.3528C17.2247 12.3326 17.2453 12.3192 17.2704 12.3125C17.2955 12.2991 17.3206 12.2924 17.3503 12.2946C17.4645 12.2812 17.5788 12.2902 17.693 12.3036C17.6884 12.1918 17.6838 12.0801 17.677 11.9616H17.211C17.0968 11.9616 17.0123 11.87 17.0054 11.7604C17.0008 11.6532 17.1036 11.5593 17.211 11.5593H17.645C17.645 11.5123 17.6404 11.4699 17.6359 11.4229C17.6359 11.4229 17.629 11.3671 17.6199 11.2732C17.46 11.2553 17.3024 11.2553 17.1425 11.2732C17.1196 11.2776 17.0968 11.2799 17.0739 11.2844C17.0168 11.2955 16.9666 11.2911 16.9163 11.2642C16.8683 11.2396 16.8386 11.1927 16.8227 11.1435C16.8044 11.0966 16.8158 11.0318 16.8432 10.9893C16.8661 10.9491 16.9163 10.9066 16.9643 10.8977C17.163 10.8619 17.364 10.853 17.5651 10.8686C17.5491 10.7747 17.5331 10.6674 17.5148 10.549L16.713 10.5333C16.5988 10.5311 16.5143 10.4439 16.5074 10.3322C16.5029 10.2249 16.6056 10.1288 16.713 10.131L17.444 10.1466C17.4257 10.0483 17.4052 9.94101 17.3846 9.83372C17.0785 9.81361 16.7701 9.80914 16.464 9.82255C16.3498 9.82702 16.2653 9.72644 16.2584 9.62138C16.2539 9.50962 16.3567 9.42469 16.464 9.42022C16.7427 9.40904 17.0214 9.41351 17.3001 9.42692C17.2818 9.33975 17.2612 9.24811 17.2407 9.15423H17.2384C16.9803 9.15423 16.7221 9.152 16.464 9.14976C16.3498 9.14976 16.2653 9.05812 16.2584 8.9486C16.2539 8.84131 16.3567 8.74743 16.464 8.74743C16.6925 8.74967 16.9209 8.7519 17.1493 8.7519C17.1265 8.66026 17.1036 8.56638 17.0808 8.47027C16.8843 8.49709 16.6879 8.49486 16.496 8.44792C16.3841 8.42109 16.327 8.30487 16.3521 8.19981C16.3635 8.15287 16.4046 8.10594 16.4457 8.08135C16.4937 8.05229 16.5508 8.04782 16.6034 8.06123C16.6353 8.06794 16.6696 8.07241 16.7016 8.07911C16.7952 8.08805 16.8866 8.08582 16.9803 8.07911C16.9506 7.96288 16.9209 7.84889 16.8866 7.72819C16.7861 7.71925 16.6856 7.71702 16.5851 7.72819C16.5805 7.72819 16.5782 7.73043 16.576 7.73043C16.5394 7.73937 16.5029 7.73937 16.4663 7.73043C16.4503 7.72372 16.4343 7.71702 16.4183 7.71031C16.3704 7.68572 16.3384 7.63879 16.3224 7.58961C16.3064 7.54044 16.3178 7.47785 16.343 7.43538C16.3658 7.39515 16.4183 7.35045 16.4663 7.34151C16.5577 7.3281 16.6491 7.31692 16.7404 7.31468C16.7518 7.31468 16.7633 7.31692 16.7724 7.31916C16.745 7.21857 16.7153 7.11799 16.6856 7.01517C16.5828 7.02635 16.4823 7.03082 16.3818 7.02635C16.2653 7.02411 16.1808 6.93694 16.1762 6.82518C16.1716 6.72013 16.2744 6.62178 16.3818 6.62625C16.4435 6.62849 16.5029 6.61955 16.5645 6.61731C16.5348 6.5212 16.5006 6.41838 16.4709 6.32003C16.4412 6.32003 16.4115 6.3245 16.3818 6.3245C16.2653 6.32003 16.1808 6.2351 16.1762 6.12334C16.1716 6.02946 16.2516 5.94676 16.3452 5.92888C16.2744 5.71654 16.2013 5.49972 16.1237 5.27844C15.998 4.92305 15.8267 4.6146 15.8267 4.6146C15.8244 4.61236 15.8244 4.61013 15.8244 4.61013C15.6919 4.0938 15.3059 3.725 15.1643 3.31373C15.0112 2.87116 15.0912 2.28778 14.8833 1.83181C14.7896 1.63064 14.4995 1.54794 14.3762 1.22607C14.3556 1.17467 14.3099 1.04503 14.3122 0.872918C14.3122 0.852801 14.3122 0.819274 14.3168 0.776805V0.76563C14.3168 0.752219 14.3191 0.738807 14.3191 0.723161C14.3373 0.582345 14.3876 0.387885 14.5429 0.309654C14.6297 0.264951 14.7554 0.25154 14.833 0.309654C14.9198 0.374474 14.9176 0.501879 14.9198 0.557759C14.9358 0.948914 15.2899 1.11879 15.5572 1.65076C15.7125 1.95698 15.6988 2.20955 15.7856 2.38389C18.7803 8.41215 19.0636 14.1364 17.5856 20.6788C17.5582 20.8017 17.1562 21.5281 17.0282 22.5407C16.9117 23.475 17.0168 24.5456 17.3503 24.8295C17.3846 24.8586 17.5879 25.0217 17.6039 25.243Z" fill="#2C2C2C"/>
<path d="M12.181 21.4007C12.1398 21.1839 12.1033 20.833 12.0599 20.3167C12.0599 20.2943 12.0599 20.272 12.053 20.2496C11.9936 19.5098 11.9251 18.4459 11.8292 16.9572C11.8292 16.9572 11.7858 16.309 11.0342 14.7489C11.0091 14.6952 10.9543 14.5924 10.8652 14.5812C10.7807 14.5678 10.6573 14.6326 10.6391 14.7243C10.6368 14.7489 10.6322 14.7735 10.6276 14.7981C10.5979 14.9612 10.5363 15.1758 10.5111 15.263C10.4563 15.4552 10.5294 15.6787 10.6985 16.1257C10.7715 16.318 10.8241 16.4498 10.8652 16.5527C10.0703 16.5661 9.27305 16.5594 8.47583 16.5325C8.46213 16.4498 8.44614 16.3627 8.42786 16.2621C9.09031 16.318 9.76417 16.2867 10.4243 16.2822C10.6893 16.2822 10.6893 15.8799 10.4243 15.8821C10.0314 15.8821 9.63625 15.8843 9.24335 15.8866C8.94868 15.8866 8.65401 15.8799 8.35933 15.8508C8.34791 15.786 8.33877 15.7256 8.32964 15.6698C8.87558 15.6698 9.41924 15.672 9.96519 15.672C10.2302 15.672 10.2302 15.2697 9.96519 15.2697C9.39869 15.2697 8.8299 15.2697 8.26339 15.2674C8.24283 15.1356 8.22684 15.0551 8.21085 14.9769C8.38446 14.9635 8.55578 14.9478 8.72939 14.9456C8.77279 14.9433 8.81848 14.9433 8.86188 14.9456C8.88929 14.9456 8.91442 14.9456 8.93954 14.9478H8.98751C9.08345 14.9545 9.17711 14.9657 9.27077 14.9836C9.37584 15.0015 9.49463 14.9344 9.51062 14.8249C9.52889 14.7198 9.46265 14.6081 9.35072 14.5902C8.94411 14.5164 8.53065 14.5455 8.12405 14.579C8.1172 14.5812 8.11034 14.5835 8.10349 14.5857C8.06237 14.4561 8.02126 14.351 7.98014 14.2594C8.73853 14.2393 9.4992 14.246 10.2553 14.2907C10.2804 14.2907 10.301 14.2862 10.3215 14.2817C10.3238 14.2817 10.3261 14.2862 10.3284 14.2862C10.333 14.2862 10.3375 14.2795 10.3398 14.2795C10.3604 14.2728 10.3741 14.2616 10.3901 14.2504C10.3946 14.246 10.4038 14.246 10.4083 14.237C10.4152 14.2326 10.4175 14.2258 10.4221 14.2191C10.4426 14.1923 10.4655 14.1633 10.4906 14.123C10.5226 14.0761 10.6276 13.9085 10.6459 13.6805C10.6733 13.3117 10.4586 12.9876 10.3946 12.8914C9.70021 11.8297 9.49234 10.8709 8.86416 10.3165C8.66086 10.1377 8.57634 10.1601 8.30451 9.9142C8.22913 9.84491 8.10121 9.71974 7.95958 9.73985C7.94131 9.74209 7.8842 9.75103 7.8408 9.79573C7.82938 9.80914 7.79054 9.85161 7.79283 9.99914C7.79511 10.1087 7.81795 10.1422 7.82709 10.2294C7.84308 10.3881 7.7814 10.4171 7.79054 10.5155C7.8111 10.7256 8.11948 10.7524 8.41187 11.0899C8.437 11.119 8.46669 11.1614 8.5101 11.2262C8.19943 11.1838 7.88648 11.1838 7.57353 11.186C7.55526 11.186 7.53699 11.1927 7.51871 11.1994C7.52328 10.9893 7.53013 10.7703 7.53698 10.5266C7.53698 10.5266 7.57125 9.31517 7.1418 8.83461C7.10068 8.78991 6.99332 8.6625 6.89053 8.69379C6.82428 8.71615 6.77631 8.76085 6.75347 8.81673C6.73063 8.87484 6.74433 8.93296 6.74662 8.9419C6.7923 9.15871 6.52733 11.1011 7.15094 14.2437C7.57353 16.3649 8.16517 17.8401 8.75908 19.3265C9.18625 20.3927 9.8624 21.9372 11.3289 23.0324C12.0827 23.5957 12.3226 23.4973 12.3934 23.4526C12.6904 23.2649 12.3934 22.525 12.181 21.4007ZM7.50957 11.5749C7.53013 11.5816 7.55069 11.5883 7.57353 11.5883C7.7677 11.5861 7.95958 11.5839 8.15375 11.5928C8.19715 11.5973 8.24055 11.5995 8.28623 11.6018C8.31136 11.604 8.33649 11.6062 8.3639 11.6107C8.36847 11.6107 8.40045 11.6152 8.40959 11.6152C8.50553 11.6286 8.5969 11.6465 8.69055 11.6688C8.72253 11.6777 8.7568 11.6755 8.79106 11.6666C8.83675 11.7448 8.88472 11.8275 8.93269 11.9191C8.45756 11.9169 7.98014 11.9169 7.505 11.9169C7.50729 11.8074 7.50729 11.6979 7.50957 11.5749ZM7.505 12.3192H9.12914C9.13371 12.3304 9.13828 12.3394 9.14285 12.3483C9.1634 12.4019 9.19082 12.4623 9.22508 12.5316C8.98751 12.5316 8.75223 12.5338 8.51695 12.5338C8.18116 12.5361 7.84308 12.5294 7.50957 12.4891C7.50729 12.4332 7.50729 12.3774 7.505 12.3192ZM7.53242 12.8914C8.1743 12.963 8.82761 12.9429 9.47407 12.9339C9.48778 12.9518 9.50376 12.9741 9.5129 12.9853C9.57229 13.0591 9.62483 13.1328 9.6728 13.2044C8.97152 13.2088 8.26796 13.2021 7.56668 13.1776C7.55298 13.0904 7.54155 12.9943 7.53242 12.8914ZM7.79283 13.8705C7.75399 13.7878 7.71288 13.6916 7.67404 13.5821C8.42101 13.6067 9.16797 13.6134 9.91494 13.6045C9.92636 13.6268 9.94006 13.6514 9.95149 13.6715C9.99489 13.7498 10.0269 13.8168 10.0588 13.8816C9.32102 13.8459 8.58319 13.8347 7.84308 13.8593C7.82481 13.8593 7.80882 13.8682 7.79283 13.8705ZM8.60604 17.2299C8.59233 17.1673 8.57406 17.0735 8.54893 16.9371C9.33929 16.9617 10.1297 16.9706 10.92 16.955C10.9611 16.9528 10.9931 16.9416 11.0205 16.9259C11.0297 16.9505 11.0388 16.9773 11.0502 17.0086C11.0776 17.0913 11.0936 17.1673 11.1119 17.2433C11.1096 17.2433 11.1051 17.2411 11.1028 17.2411C10.2987 17.1942 9.49463 17.1852 8.69055 17.212C8.65857 17.212 8.63116 17.221 8.60604 17.2299ZM8.82533 17.896C8.78649 17.7999 8.75223 17.706 8.71797 17.6121C9.5129 17.5875 10.3078 17.5965 11.1028 17.6412C11.1302 17.6434 11.153 17.639 11.1759 17.6322C11.1827 17.7261 11.1873 17.8178 11.1873 17.9049C10.4312 17.9116 9.67509 17.9049 8.92127 17.8759C8.88244 17.8736 8.85274 17.8826 8.82533 17.896ZM9.11772 18.5844C9.06746 18.4727 9.02635 18.3743 8.98523 18.2804C9.7162 18.3073 10.4472 18.314 11.1759 18.3073C11.1713 18.419 11.1713 18.5308 11.1736 18.647C10.4951 18.6113 9.81443 18.6045 9.13371 18.6224C9.12914 18.6113 9.12229 18.5956 9.11772 18.5844ZM9.36899 19.1075C9.35072 19.0762 9.34158 19.0516 9.32559 19.0225C9.95606 19.0091 10.5865 19.0158 11.217 19.0493C11.2238 19.0851 11.2261 19.1186 11.2353 19.1544C11.2444 19.1924 11.2627 19.2684 11.2787 19.3712C11.032 19.3712 10.7853 19.3734 10.5386 19.3734C10.1868 19.3734 9.8327 19.3712 9.48549 19.322C9.44666 19.2572 9.41239 19.1902 9.36899 19.1075ZM9.78473 19.7557C10.2941 19.7937 10.8104 19.7847 11.3221 19.7758C11.3289 19.9322 11.3129 19.9747 11.3152 20.0664C10.8858 20.0507 10.4563 20.0462 10.0246 20.0507C9.94463 19.9524 9.8624 19.854 9.78473 19.7557ZM11.3563 21.4164C11.2764 21.517 11.2421 21.5282 11.2261 21.5304C11.0982 21.5572 10.9543 21.3717 10.8012 21.1504C10.904 21.1504 11.0091 21.1482 11.1142 21.1549C11.1576 21.1571 11.201 21.1594 11.2467 21.1638L11.3221 21.1705C11.3221 21.1705 11.3609 21.175 11.3723 21.175C11.4134 21.1817 11.4546 21.1929 11.498 21.1996C11.45 21.2935 11.3929 21.3695 11.3563 21.4164ZM10.5545 20.7458C10.5089 20.6631 10.4609 20.5804 10.3649 20.462C10.3627 20.4575 10.3581 20.453 10.3558 20.4486C10.7099 20.4486 11.0639 20.4575 11.418 20.4732C11.4797 20.5983 11.5459 20.6877 11.5711 20.8062C11.2353 20.7481 10.8949 20.7436 10.5545 20.7458Z" fill="#2C2C2C"/>
<path d="M21.7476 30.5918C21.5603 29.2909 19.7397 28.2314 18.4833 28.7276C17.8186 28.9891 17.5262 29.6038 17.4691 29.7245C17.1082 30.48 17.2361 31.4188 17.7981 32.0804C18.4148 32.8068 19.3925 33.0192 20.176 32.8113C20.4319 32.742 20.9641 32.552 21.3524 32.0312C21.4004 31.9686 21.8573 31.3383 21.7476 30.5918ZM20.6146 31.6825C20.1646 32.2257 19.3491 32.324 18.9174 32.0603C18.9471 32.0513 18.9745 32.0379 18.995 32.0156C19.0316 31.9798 19.059 31.9239 19.0567 31.8748C19.0521 31.8211 19.0361 31.7675 18.995 31.7317C18.9562 31.6959 18.9037 31.6691 18.8511 31.6736C18.7712 31.6781 18.6935 31.6758 18.6136 31.6758C18.577 31.6155 18.5336 31.5439 18.4879 31.4679C18.641 31.4769 18.794 31.4903 18.9471 31.4903C19.0544 31.4881 19.1572 31.3964 19.1504 31.2891C19.1458 31.1796 19.0613 31.0857 18.9471 31.088C18.7072 31.0902 18.4788 31.0746 18.2503 31.0477C18.1932 30.9427 18.1567 30.8645 18.1339 30.8041C18.3075 30.7996 18.4811 30.7974 18.6547 30.8063C18.7438 30.8108 18.8351 30.8175 18.9242 30.8265C18.9699 30.8309 19.0133 30.8354 19.059 30.8399C19.1001 30.8458 19.1412 30.8518 19.1823 30.8577C19.2874 30.8734 19.4085 30.8309 19.4359 30.7169C19.4565 30.6208 19.4062 30.4867 19.292 30.4688C18.9059 30.4129 18.5176 30.3906 18.1293 30.404C18.1567 30.3146 18.1955 30.2341 18.2412 30.1648C18.2641 30.1648 18.2869 30.1626 18.3097 30.1626C18.4468 30.1626 18.5839 30.1693 18.7209 30.1872C18.826 30.2006 18.9402 30.1224 18.9516 30.0151C18.9608 29.9056 18.8877 29.805 18.7735 29.7893C18.7186 29.7826 18.6638 29.7826 18.609 29.7782C18.7826 29.6418 19.075 29.4697 19.4724 29.4585C19.541 29.4585 20.24 29.4474 20.658 30.0039C21.0212 30.4845 21.0212 31.193 20.6146 31.6825Z" fill="#2C2C2C"/>
<path d="M27.472 31.5775C27.4835 32.4492 27.5246 32.6191 27.3967 32.9655C27.2413 33.3813 27.0494 33.502 26.821 34.1099C26.6086 34.6754 26.7319 34.6866 26.5812 34.8878C26.3162 35.2387 25.7405 35.3415 24.5984 35.5315C24.3745 35.5695 24.1895 35.5963 24.0661 35.612C23.9634 36.0232 23.0679 38.7546 22.5197 38.7457C22.4671 38.7434 22.4077 38.7256 22.3552 38.6943C22.3301 38.6809 22.3095 38.663 22.289 38.6429C22.1451 38.4931 22.4534 37.7935 22.7024 37.076C22.6682 37.0738 22.6316 37.076 22.5951 37.0693C22.4831 37.0447 22.4283 36.9218 22.4511 36.8212C22.4626 36.7743 22.5037 36.7251 22.5471 36.7005C22.5905 36.6759 22.6407 36.6714 22.6887 36.6804C22.7367 36.6871 22.7847 36.6804 22.8326 36.6781C22.8646 36.5686 22.892 36.4613 22.9149 36.3585C22.7572 36.3809 22.6019 36.4054 22.4443 36.4233C22.3324 36.4367 22.2456 36.3228 22.241 36.2244C22.2387 36.173 22.2661 36.1171 22.3004 36.0814C22.3415 36.0411 22.3895 36.0299 22.4443 36.0232C22.5197 36.0143 22.5928 36.0054 22.6682 35.9964C22.6841 35.9942 22.7001 35.9919 22.7184 35.9897C22.7253 35.9897 22.7298 35.9897 22.7321 35.9897C22.7664 35.9852 22.8006 35.9808 22.8349 35.9763C22.8829 35.9674 22.9331 35.9607 22.9811 35.9539C22.9902 35.878 23.0017 35.7908 23.0154 35.6991C22.8258 35.7193 22.6362 35.7416 22.4443 35.7595C22.3301 35.7707 22.2456 35.6589 22.241 35.5606C22.2341 35.4443 22.3392 35.3683 22.4443 35.3594C22.6613 35.3393 22.8737 35.3125 23.0885 35.2879C23.0976 35.2499 23.1022 35.2163 23.1113 35.1739C23.1227 35.1247 23.1319 35.0867 23.1387 35.0532C23.0885 35.0554 23.0405 35.0643 22.9925 35.0643C22.7367 35.0666 22.4763 35.0465 22.225 35.1046C22.1176 35.1292 22.0034 35.0711 21.9737 34.9638C21.944 34.8632 22.008 34.7402 22.1154 34.7157C22.394 34.6531 22.6773 34.6643 22.9605 34.662C23.0862 34.662 23.2095 34.6575 23.3352 34.6397C23.4631 34.6218 23.5933 34.6039 23.7235 34.6017C24.322 34.4519 25.222 34.4832 25.7154 34.2329C25.8342 34.1725 26.0352 34.0585 26.1997 33.8372C26.2476 33.7747 26.2659 33.7367 26.4464 33.4103C26.668 33.0125 26.6611 33.0303 26.6702 33.0102C26.8461 32.628 26.805 31.9753 26.4875 31.7809C26.1746 31.5909 25.7497 31.9351 25.4801 31.6937C25.4207 31.6423 25.3773 31.5663 25.3568 31.4545C25.2768 31.0254 26.4418 30.9114 26.604 30.3303C26.7068 29.957 26.3801 29.5703 26.2888 29.463C25.6309 28.6874 24.6715 29.1456 23.2735 28.56C22.2593 28.1353 22.5425 27.8045 21.4415 27.3217C21.0143 27.134 19.774 26.5908 18.4308 26.9283C17.6655 27.1205 17.5308 27.4312 16.7495 27.4759C16.6193 27.4849 16.2995 27.5005 15.9386 27.4312C15.6188 27.3843 15.2785 27.3329 15.2031 27.3217C15.1574 27.315 15.1094 27.3061 15.0615 27.2994C15.0569 27.2994 15.018 27.2949 15.0112 27.2927C14.9929 27.2904 14.9746 27.2882 14.9541 27.2859C14.9107 27.2815 14.8673 27.2792 14.8239 27.2792C14.7988 27.2792 14.7736 27.2792 14.7485 27.2815C14.7439 27.2815 14.7051 27.2859 14.6982 27.2859C14.7005 27.2859 14.7028 27.2837 14.7051 27.2837C14.5932 27.3016 14.4904 27.2569 14.4538 27.1451C14.4218 27.049 14.4904 26.9127 14.5977 26.897C14.6982 26.8814 14.7965 26.8791 14.8947 26.8836C14.8216 26.8032 14.7576 26.7115 14.7028 26.6176C14.4515 26.6087 14.2003 26.5975 13.949 26.5863C13.8348 26.5819 13.748 26.4969 13.7434 26.3852C13.7388 26.2801 13.8416 26.1795 13.949 26.184C14.1386 26.1929 14.3259 26.1997 14.5155 26.2086C14.4835 26.1125 14.4538 26.0141 14.431 25.9136C14.3465 25.9136 14.2642 25.9158 14.1797 25.9068C14.1432 25.9068 14.1066 25.8979 14.0769 25.8778C14.0632 25.8689 14.0495 25.8577 14.0335 25.8465C13.9947 25.8107 13.9764 25.7571 13.9741 25.7057C13.9718 25.6543 13.9993 25.5984 14.0335 25.5626C14.0678 25.5313 14.1317 25.4978 14.1797 25.5045C14.2391 25.5112 14.2985 25.5068 14.3579 25.509C14.3442 25.4106 14.3328 25.3123 14.3213 25.2117C13.9718 25.1961 13.563 25.1782 13.3962 25.1625C13.282 25.1536 13.1997 25.0664 13.1997 24.9547C13.1997 24.8496 13.3071 24.7535 13.4145 24.7624C13.5721 24.7759 13.9467 24.7915 14.2848 24.8094C14.2734 24.7021 14.2642 24.5926 14.2574 24.4897C13.9833 24.4808 13.5881 24.4853 13.3345 24.4741C13.2203 24.4696 13.1358 24.3847 13.1312 24.2729C13.1244 24.1679 13.2272 24.0673 13.3345 24.0718C13.5812 24.0829 13.9559 24.0785 14.23 24.0874C14.2231 23.9935 14.2185 23.9019 14.214 23.8125C13.997 23.8013 13.7822 23.7924 13.5652 23.7834C13.451 23.779 13.3665 23.6963 13.3619 23.5845C13.3574 23.4772 13.4579 23.3789 13.5652 23.3833C13.7754 23.3923 13.9855 23.399 14.1957 23.4079C14.1911 23.3073 14.1866 23.2068 14.1843 23.1084C14.0358 23.1017 13.8896 23.095 13.7411 23.0883C13.6269 23.0838 13.5424 23.0011 13.5355 22.8871C13.531 22.7843 13.6338 22.6837 13.7411 22.6882C13.885 22.6927 14.0289 22.6994 14.1751 22.7061C14.1751 22.601 14.1706 22.4982 14.1706 22.3976C14.0084 22.3976 13.8462 22.4021 13.684 22.3999C13.5675 22.3976 13.499 22.2725 13.5081 22.1741C13.5127 22.1227 13.547 22.0713 13.5858 22.04C13.6338 22.0065 13.6817 21.9998 13.7388 22.002C13.8119 22.002 13.8873 22.0042 13.9627 22.0042H14.1295C14.1432 22.0042 14.1546 22.002 14.1683 22.002V21.707C13.9467 21.7047 13.8553 21.707 13.563 21.6935C13.4487 21.6891 13.3779 21.5684 13.3871 21.4678C13.3985 21.3538 13.5104 21.2912 13.6178 21.2957C13.8873 21.3069 13.9855 21.3069 14.1706 21.3069C14.1729 21.2108 14.1729 21.1146 14.1729 21.0208C14.0861 21.0208 13.9901 21.0163 13.8416 21.0118C13.7274 21.0073 13.6566 20.8844 13.6657 20.7838C13.6772 20.6698 13.7914 20.6095 13.8965 20.614C14.0175 20.6184 14.102 20.6207 14.1774 20.6229V20.3614C14.1089 20.3614 14.0404 20.3636 13.9718 20.3703C13.8576 20.3793 13.7617 20.31 13.7411 20.1982C13.7206 20.0954 13.8074 19.9814 13.9147 19.9725C14.0015 19.9658 14.0906 19.9658 14.1774 19.9635C14.1774 19.8853 14.1751 19.8048 14.1751 19.7266C14.1386 19.7266 14.102 19.7221 14.0609 19.7221C13.9467 19.7177 13.8759 19.5947 13.885 19.4964C13.8965 19.3801 14.0084 19.3198 14.1158 19.3243H14.1637C14.1569 19.018 14.1409 18.7051 14.1158 18.381C14.0221 17.1696 13.8302 16.2375 13.7388 15.8307C12.8525 11.8946 10.7807 9.41575 9.70021 8.15511C9.60883 8.05006 8.43928 7.1761 6.09787 5.43043C6.05219 5.39691 5.94026 5.31644 5.80548 5.33209C5.31664 5.38349 5.08364 6.61731 5.00141 7.06211C4.08084 11.9616 4.89862 15.5714 5.74381 17.7395H5.78264C5.89685 17.7462 5.98366 17.8289 5.98823 17.9407C5.99051 18.0077 5.94939 18.0703 5.89228 18.1061C5.94482 18.2335 5.99736 18.3542 6.0499 18.4682C6.15269 18.4682 6.24178 18.4704 6.30117 18.4727C6.41539 18.4771 6.50219 18.5598 6.50676 18.6738C6.51133 18.7789 6.40854 18.8795 6.30117 18.875C6.28518 18.8728 6.26234 18.8728 6.24178 18.8728C6.30117 18.989 6.356 19.0963 6.41082 19.1969C6.73291 19.1969 7.07555 19.1991 7.22631 19.2036C7.34281 19.208 7.42733 19.293 7.4319 19.4047C7.43647 19.5098 7.33368 19.6104 7.22631 19.6059C7.1121 19.6014 6.88367 19.5992 6.63697 19.5992C6.7192 19.7355 6.79001 19.8451 6.84484 19.9278C7.20804 19.9278 7.65348 19.9278 7.83165 19.9367C7.94587 19.9412 8.03039 20.0239 8.03724 20.1379C8.04181 20.2429 7.93901 20.3435 7.83165 20.3368C7.70145 20.3323 7.42733 20.3301 7.14865 20.3301C7.23545 20.4396 7.32454 20.5491 7.42048 20.6609C7.5918 20.6631 7.74485 20.6631 7.83165 20.6676C7.94587 20.6721 8.03039 20.757 8.03724 20.8688C8.04181 20.9738 7.93901 21.0744 7.83165 21.0699C7.81338 21.0699 7.79053 21.0677 7.76769 21.0677C9.60427 23.1598 12.3591 25.7638 12.5213 27.4581C12.5304 27.5519 12.5442 27.7531 12.5853 28.0325H12.9645C13.001 28.028 13.0353 28.0347 13.0695 28.0504C13.0833 28.0593 13.0992 28.0683 13.1129 28.0772C13.1563 28.1107 13.1792 28.1621 13.186 28.2135C13.1929 28.265 13.1701 28.3231 13.1381 28.3611C13.1084 28.3968 13.049 28.4326 12.9987 28.4326H12.6584C12.6675 28.4751 12.6766 28.5153 12.6881 28.56C12.7063 28.6405 12.7269 28.712 12.7452 28.7835C13.0467 28.7768 13.3459 28.7701 13.6475 28.7634C13.7617 28.7589 13.8485 28.8573 13.8531 28.9646C13.8576 29.0741 13.7548 29.1613 13.6475 29.1635C13.3871 29.1702 13.1289 29.1769 12.8685 29.1836C12.8959 29.2663 12.9211 29.3311 12.9302 29.358C12.9462 29.396 12.9553 29.4407 12.9668 29.4809C12.9736 29.4809 12.9805 29.4787 12.9873 29.4764C13.3596 29.4675 14.3784 29.4809 14.7531 29.4697C14.8673 29.4675 14.9518 29.5658 14.9564 29.6709C14.9632 29.7826 14.8604 29.8698 14.7531 29.872C14.399 29.881 13.483 29.872 13.065 29.8787C13.0832 29.986 13.1015 30.0978 13.1152 30.214C13.4236 30.2073 13.7343 30.1984 14.0427 30.1917C14.1569 30.1894 14.2437 30.2855 14.2482 30.3928C14.2528 30.5024 14.15 30.5918 14.0427 30.594C13.748 30.6007 13.4556 30.6074 13.1609 30.6141C13.1701 30.7304 13.1838 30.8466 13.1929 30.9695C13.3597 30.965 13.5264 30.9606 13.6909 30.9583C13.8051 30.9539 13.8919 31.0522 13.8965 31.1573C13.901 31.269 13.7982 31.3562 13.6909 31.3584C13.5378 31.3629 13.3871 31.3674 13.234 31.3696C13.2454 31.4702 13.2569 31.5752 13.2706 31.6803H13.4053C13.4419 31.6758 13.4761 31.6825 13.5104 31.6982C13.5264 31.7071 13.5401 31.7161 13.5561 31.725C13.5972 31.7585 13.6201 31.8099 13.6269 31.8613C13.6338 31.9105 13.6132 31.9709 13.5812 32.0089C13.5492 32.0446 13.4921 32.0804 13.4419 32.0804H13.33C13.3734 32.333 13.4213 32.5922 13.4921 32.8672C13.5036 32.9119 13.515 32.9476 13.5287 32.9923H13.7023C13.7571 32.9923 13.8074 33.0147 13.8462 33.0505C13.8873 33.0862 13.9033 33.1399 13.9056 33.1935C13.9079 33.2427 13.8828 33.3008 13.8462 33.3343C13.8097 33.3723 13.7548 33.3947 13.7023 33.3947H13.6452C13.6749 33.4796 13.7023 33.5601 13.732 33.6383C13.9033 33.6562 14.0769 33.6741 14.2505 33.6785C14.3647 33.683 14.4493 33.7679 14.4538 33.8797C14.4584 33.9848 14.3579 34.0853 14.2505 34.0809C14.1295 34.0764 14.0084 34.063 13.8896 34.0518C13.933 34.1636 13.9764 34.2664 14.0152 34.3647C14.214 34.3849 14.4127 34.3849 14.6114 34.3603C14.6571 34.3558 14.6982 34.3603 14.7416 34.3826C14.7896 34.4072 14.8193 34.4541 14.8353 34.5033C14.8513 34.5525 14.8399 34.6151 14.8147 34.6575C14.7919 34.6955 14.7394 34.7447 14.6914 34.7514C14.5132 34.776 14.335 34.7805 14.1546 34.7715C14.1843 34.8788 14.2048 34.9861 14.2117 35.0934C14.3419 35.1001 14.4721 35.0979 14.6023 35.0822H14.6069C14.664 35.0733 14.712 35.0755 14.7645 35.1023C14.8125 35.1269 14.8422 35.1739 14.8581 35.223C14.8741 35.27 14.8627 35.3326 14.8376 35.3773C14.8147 35.4153 14.7622 35.4622 14.7165 35.4689C14.5886 35.489 14.4584 35.5024 14.3305 35.5024C14.2802 35.5024 14.23 35.4935 14.182 35.489C14.1637 35.5829 14.1523 35.6745 14.1432 35.7684C14.1477 35.7684 14.1523 35.7684 14.1592 35.7684C14.5315 35.7595 14.9061 35.7505 15.2807 35.7416C15.395 35.7394 15.4795 35.8355 15.484 35.9428C15.4909 36.0523 15.3881 36.1417 15.2807 36.1439C14.9061 36.1529 14.5315 36.1618 14.1592 36.1708C14.1432 36.1708 14.1295 36.1641 14.1158 36.1618C14.1089 36.249 14.102 36.3384 14.0929 36.4256C14.3191 36.4055 14.5429 36.4032 14.7691 36.4166C14.8216 36.4211 14.8696 36.4591 14.8993 36.4993C14.9335 36.5418 14.9404 36.5999 14.9335 36.6513C14.9267 36.7005 14.8901 36.7497 14.849 36.7787C14.801 36.8123 14.7508 36.8145 14.6937 36.8123C14.6868 36.8123 14.6777 36.8123 14.6708 36.81C14.463 36.8011 14.2528 36.8078 14.0449 36.8301C14.0449 36.895 14.0609 36.9911 14.0975 37.0916H14.4538C14.4904 37.0894 14.5269 37.0961 14.5589 37.1118C14.5749 37.1207 14.5886 37.1296 14.6046 37.1386C14.648 37.1721 14.6708 37.2235 14.6754 37.2749C14.6823 37.3241 14.6617 37.3845 14.6297 37.4225C14.5977 37.4582 14.5406 37.4917 14.4904 37.4917H14.4173C14.7051 37.6929 15.1117 37.7846 15.4909 37.8963C17.0556 38.3612 16.9597 38.9044 17.9534 38.9446C18.28 38.958 18.7118 38.8731 19.5752 38.7032C20.2879 38.5624 20.562 38.4618 21.0075 38.5579C21.1834 38.5959 21.791 38.7501 22.0011 39.224C22.0034 39.2307 22.0126 39.2486 22.024 39.2754V39.2799C22.0582 39.3715 22.1085 39.5526 22.0308 39.6196C21.8961 39.7359 21.4872 39.4431 21.2473 39.3179C20.0618 38.6943 18.995 40.0242 17.348 39.6733C16.5097 39.4922 16.7678 39.1435 15.4612 38.6943C14.4378 38.3433 13.7594 38.3791 13.3939 37.8181C13.2112 37.5364 13.1906 37.2369 13.1655 36.8838C13.1221 36.2199 13.3391 35.983 13.2866 35.2856C13.2683 35.0375 13.218 34.8475 13.1152 34.4698C12.9051 33.6875 12.7132 33.426 12.5236 32.8448C12.4596 32.6459 12.4048 32.4403 12.2449 31.2802C12.0804 30.0866 11.9891 29.1926 11.9754 29.1009C11.3929 25.3905 8.05551 23.5376 6.22579 20.69C6.15269 20.576 5.91741 20.1066 5.63187 19.5187C5.61132 19.4941 5.59761 19.4628 5.59076 19.4293C5.34862 18.9353 5.08136 18.3698 4.84379 17.8602C4.81638 17.8178 4.78897 17.7731 4.75699 17.7328H4.7844C4.47145 17.0645 4.22932 16.5236 4.20876 16.4409C4.12652 16.0766 2.79249 11.8968 4.0283 6.91012C4.7113 4.15638 5.45598 4.02675 5.63873 4.0178C5.95625 3.99992 6.1367 4.26591 7.24459 5.05716C7.90703 5.52878 8.11034 5.62489 8.58775 5.94899C9.25248 6.40273 10.2896 7.19175 11.667 8.57085C11.6419 7.63878 11.7172 6.50332 12.0302 5.25385C12.1353 4.84035 12.2563 4.4559 12.3843 4.09827C12.3843 4.09827 13.1769 1.86757 13.6041 1.53006C13.6338 1.50771 13.716 1.44065 13.8051 1.45853C13.8873 1.47194 13.9353 1.54794 13.949 1.57029C14.0107 1.66417 14.0815 1.88992 13.6452 2.89575C13.5561 3.10138 13.5607 3.07233 13.531 3.15279C13.3734 3.57971 13.4168 3.85017 13.3665 4.23015C13.3437 4.39778 13.3277 4.41343 13.1449 5.02587C12.8594 5.98029 12.7155 6.45861 12.6881 6.70001C12.6218 7.2521 12.7315 7.26998 12.6789 7.99194C12.6812 7.99194 12.6812 7.9897 12.6835 7.9897C12.9485 7.9897 12.9485 8.39204 12.6835 8.39204C12.6698 8.39204 12.6584 8.38757 12.6447 8.38533C12.6401 8.45015 12.6355 8.51944 12.631 8.58873C12.7315 8.59544 12.8297 8.59991 12.9302 8.60661C13.0444 8.61332 13.1289 8.69378 13.1335 8.80778C13.1358 8.85695 13.1107 8.91507 13.0741 8.94859C13.0398 8.98436 12.9805 9.01118 12.9302 9.00671C12.8297 9.00224 12.7315 8.99553 12.6332 8.99106C12.6378 9.07153 12.6424 9.14976 12.6515 9.22352C12.8411 9.19893 13.0307 9.18552 13.2203 9.19446C13.3345 9.20117 13.419 9.28163 13.4236 9.39563C13.4305 9.50068 13.3277 9.60126 13.2203 9.59679C13.0513 9.58785 12.8822 9.5968 12.7132 9.61468C12.7246 9.67503 12.7383 9.72867 12.7497 9.77561C12.7657 9.81361 12.7817 9.85384 12.7977 9.89184C12.8822 9.89631 12.9622 9.89631 13.0444 9.88513C13.0627 9.8829 13.081 9.88066 13.097 9.87843C13.1541 9.86502 13.2043 9.87172 13.2569 9.89631C13.3025 9.92089 13.3345 9.96783 13.3505 10.017C13.3665 10.0662 13.3551 10.1288 13.33 10.1712C13.3048 10.2137 13.2546 10.2539 13.2066 10.2651C13.1267 10.2808 13.0467 10.2897 12.9645 10.2942C13.0079 10.4015 13.0513 10.5132 13.097 10.6272C13.1152 10.6227 13.1312 10.616 13.1518 10.616C13.3825 10.616 13.4122 10.9223 13.2409 11.0005C13.4213 11.4833 13.6109 12.0287 13.7982 12.6299C14.4287 14.6505 15.0546 16.6577 15.0797 19.1365C15.0843 19.702 15.0934 23.7276 15.4247 25.6811C15.4566 25.8666 15.5389 26.3204 15.8701 26.4813C16.3155 26.6959 16.8295 26.1773 17.5559 25.9136C17.6221 25.889 17.6907 25.8666 17.7569 25.8465C17.7569 25.8465 17.7638 25.8465 17.7683 25.842C17.7775 25.8398 17.7866 25.8376 17.7958 25.8353C19.0727 25.4553 20.2514 25.7794 20.5049 25.8487C22.2273 26.3204 22.193 27.5139 23.8743 27.8134C24.7423 27.9699 24.9981 27.6928 25.7908 28.0079C25.9621 28.0772 27.2505 28.5756 27.4652 29.5614C27.4835 29.6463 27.488 29.881 27.4926 30.3526C27.5017 31.2333 27.4652 31.1304 27.472 31.582V31.5775Z" fill="#2C2C2C"/>
<path d="M16.6011 35.9338C16.6079 35.983 16.5874 36.0411 16.5554 36.0791C16.5234 36.1171 16.4663 36.1506 16.416 36.1506H15.9957C15.9592 36.1551 15.9226 36.1484 15.8906 36.1328C15.8747 36.1238 15.8609 36.1149 15.845 36.1059C15.8016 36.0724 15.781 36.021 15.7741 35.9696C15.7673 35.9204 15.7879 35.8601 15.8198 35.8221C15.8518 35.7863 15.9089 35.7505 15.9592 35.7505H16.3795C16.416 35.7483 16.4526 35.755 16.4846 35.7684C16.5006 35.7796 16.5143 35.7885 16.5302 35.7975C16.5737 35.8288 16.5942 35.8824 16.6011 35.9338Z" fill="#2C2C2C"/>
<path d="M13.7434 25.6945C13.748 25.7437 13.7274 25.8018 13.6955 25.8398C13.6635 25.8756 13.6064 25.9113 13.5561 25.9113H13.1358C13.0992 25.9136 13.0627 25.9091 13.0307 25.8934C13.0147 25.8845 13.001 25.8756 12.985 25.8644C12.9416 25.8331 12.9211 25.7817 12.9142 25.7303C12.9074 25.6789 12.9279 25.6207 12.9599 25.5827C12.9919 25.547 13.049 25.5112 13.0992 25.5112H13.5196C13.5561 25.509 13.5927 25.5135 13.6246 25.5291C13.6406 25.538 13.6543 25.547 13.6703 25.5582C13.7137 25.5894 13.7343 25.6409 13.7434 25.6945Z" fill="#2C2C2C"/>
</svg>
