<svg width="148" height="178" viewBox="0 0 148 178" fill="none" xmlns="http://www.w3.org/2000/svg">
<g clip-path="url(#clip0_245_1416)">
<path d="M109.079 24.7719C108.634 24.6439 107.85 24.6211 107.438 24.8639C106.464 25.2432 99.7466 29.2014 97.3046 31.4525C96.3 32.266 95.3596 33.3974 94.417 33.4061C92.3514 33.2642 90.2535 32.8999 88.1668 32.8003C73.3365 31.7535 57.9432 35.1117 47.4813 46.8471C35.5298 60.4543 31.7315 78.1768 34.7581 97.8409C34.759 98.3069 34.2817 97.9352 33.4765 97.8277C32.756 97.678 31.7705 97.4747 30.6579 97.2289C25.8474 96.2447 20.4006 94.8992 18.4513 94.6834C17.9642 94.7248 17.1917 95.0515 16.9281 95.6759C16.5271 96.3953 16.8256 97.3492 17.3456 97.8692C18.916 99.2705 47.2038 124.324 48.7741 125.704C49.8032 126.543 51.6029 126.144 51.8752 124.598C52.9966 118.701 58.9481 86.8322 60.258 79.8762C60.5402 78.0445 58.3456 76.9703 57.0562 78.3446C54.8165 81.1786 51.2036 85.7892 48.8477 88.803C47.5482 90.3997 46.6188 91.7324 46.4178 91.8273C46.3113 91.5517 46.2575 91.1385 46.2461 90.7042C45.27 79.4329 47.2517 69.4914 52.2445 61.1024C59.9478 46.9677 76.7133 41.3033 93.3921 45.0865C93.7842 45.225 93.7321 45.6168 93.9561 46.4328C94.6074 48.9866 95.4839 52.9497 96.1022 54.8997C96.3151 55.4298 97.0471 56.035 97.6299 56.1738C101.594 57.4952 109.098 60.1159 114.738 62.754C117.176 63.9452 118.338 62.0834 117.74 59.7521C117.417 57.0824 116.856 52.0397 116.522 49.211C116.499 48.2366 116.083 46.933 116.315 46.531C117.204 46.1726 129.385 41.4417 131.11 40.7567C132.402 40.3569 132.928 38.4938 131.771 37.5488L131.686 37.4639C125.78 34.0733 114.275 27.6421 109.09 24.7825L109.079 24.7719ZM49.1447 94.2371C49.5778 93.6766 50.0109 93.1161 50.4441 92.5557C51.3103 91.4347 52.2083 90.3244 53.064 89.214C53.5077 88.6642 53.9409 88.1037 54.3846 87.5538C54.617 87.2789 54.8283 87.004 55.0396 86.7078C55.1135 86.6127 55.1662 86.4963 55.2614 86.4011C55.3776 86.2848 55.4096 86.3802 55.3887 86.5073C55.2311 87.1319 55.1158 87.7565 55.0006 88.4024C54.9484 88.7518 54.8749 89.1012 54.8121 89.4612C54.7492 89.7788 54.7287 90.1177 54.6234 90.4352C54.5394 90.774 54.2856 90.9641 54.0212 91.186C53.7568 91.3655 53.5136 91.5663 53.2599 91.7988C52.911 92.1052 52.4457 92.4856 52.3726 92.9832C52.2678 93.5338 52.9457 93.5563 53.3161 93.3982C53.4537 93.3455 53.5806 93.261 53.6863 93.1765C53.7603 93.1025 53.8872 92.9757 54.0143 92.9759C54.1626 92.9974 54.1419 93.2516 54.1103 93.3468C54.0267 93.8763 53.7629 94.3735 53.3929 94.7435C52.9913 95.1451 52.547 95.4408 52.1241 95.8212C51.9022 96.0432 51.6802 96.2652 51.4901 96.5402C51.3528 96.72 51.1098 97.0478 51.2374 97.3023C51.3331 97.4825 51.5556 97.5147 51.7356 97.5045C52.0428 97.4945 52.3285 97.3786 52.5718 97.1991C52.8362 97.0195 53.0369 96.7763 53.2589 96.5332C53.3117 96.4803 53.3751 96.3957 53.428 96.3852C53.5445 96.3749 53.5024 96.5019 53.492 96.576C53.4289 96.8301 53.3871 97.0842 53.3347 97.3489C53.2824 97.6771 53.2512 97.9842 53.1353 98.2911C52.9142 98.9368 52.3431 99.3381 51.8143 99.7395C51.3596 100.088 50.8838 100.479 50.5776 100.976C50.4932 101.145 50.4089 101.336 50.4622 101.516C50.5262 101.728 50.7488 101.845 50.9607 101.845C51.5008 101.836 51.9977 101.382 52.3253 101.012C52.4098 100.927 52.452 100.842 52.5154 100.737C52.621 100.61 52.6425 100.737 52.6109 100.832C52.5161 101.118 52.4638 101.404 52.4114 101.711C52.3908 102.007 52.3703 102.346 52.265 102.642C52.1491 102.928 51.9483 103.15 51.7263 103.351C51.4937 103.562 51.2505 103.742 51.0284 103.943C50.7642 104.186 50.5316 104.418 50.2885 104.683C49.9926 104.979 49.3477 105.581 49.6876 106.069C49.847 106.313 50.1436 106.335 50.387 106.219C50.6409 106.092 50.8311 105.859 51.0319 105.659L51.3913 105.299C51.4653 105.225 51.5392 105.109 51.645 105.046C51.7932 105.003 51.7194 105.162 51.6984 105.247C51.6562 105.374 51.6353 105.48 51.6567 105.607C51.6891 105.893 51.7744 106.168 51.722 106.476C51.6803 106.772 51.4689 107.005 51.2574 107.174C51.0036 107.385 50.7075 107.575 50.4643 107.776C50.2105 107.987 49.9674 108.23 49.7454 108.452C49.4917 108.706 49.2486 108.928 49.0161 109.203C48.8365 109.404 48.6781 109.647 48.668 109.89C48.6685 110.145 48.8384 110.378 49.0715 110.421C49.347 110.464 49.5797 110.316 49.77 110.126C49.992 109.925 50.2033 109.692 50.4147 109.481C50.4993 109.396 50.5945 109.322 50.679 109.217C50.7424 109.153 50.8587 109.016 50.9646 109.037C50.9859 109.101 50.9331 109.154 50.9014 109.206C50.8592 109.27 50.8593 109.355 50.8489 109.429C50.8175 109.63 50.892 109.81 50.9242 110.011C50.9673 110.351 50.8725 110.636 50.64 110.869C50.344 111.165 49.9738 111.429 49.6567 111.704C49.3501 111.989 49.0329 112.285 48.7475 112.57C48.4939 112.845 48.1874 113.152 48.0822 113.533C47.9875 113.819 48.1258 114.147 48.4437 114.19C48.751 114.265 49.0047 114.032 49.2161 113.842C49.5016 113.578 49.7764 113.282 50.0406 112.997C50.1146 112.923 50.4316 112.584 50.4216 112.87C50.4113 112.987 50.3797 113.082 50.3587 113.188C50.2955 113.378 50.2536 113.59 50.2328 113.781C50.1594 114.151 50.1285 114.564 50.0128 114.956C49.9077 115.358 49.6009 115.559 49.2942 115.802C48.9558 116.034 48.6492 116.298 48.3638 116.584C48.1206 116.806 47.8246 117.08 47.677 117.398C47.561 117.662 47.6041 118.023 47.8798 118.171C48.2191 118.363 48.5574 118.067 48.79 117.834C48.9379 117.686 49.0965 117.549 49.2445 117.401C49.3185 117.327 49.3819 117.242 49.4559 117.168C49.477 117.147 49.5193 117.084 49.5722 117.094C49.6888 117.127 49.5201 117.486 49.5096 117.56C49.4571 117.762 49.4258 117.984 49.405 118.196C49.3424 118.662 49.2586 119.127 49.1642 119.583C49.1117 119.805 49.0592 120.027 49.0279 120.25C48.9336 120.768 48.9662 121.203 48.4357 120.736C48.2022 120.502 47.937 120.279 47.6717 120.056C47.1518 119.579 46.6213 119.112 46.0695 118.623C45.8679 118.422 45.6557 118.23 45.433 118.092C45.3481 118.029 44.9982 117.827 45.1886 117.721C45.2733 117.679 45.3898 117.69 45.4851 117.701C45.6122 117.701 45.7287 117.69 45.8345 117.648C46.078 117.596 46.3637 117.459 46.5009 117.215C46.6169 116.951 46.4893 116.675 46.256 116.569C46.0015 116.42 45.6838 116.419 45.4084 116.44C45.1225 116.45 44.8472 116.492 44.5613 116.544C44.3284 116.586 44.0214 116.66 43.7776 116.585C43.6504 116.542 43.5337 116.426 43.4488 116.341C43.3321 116.224 43.2365 116.128 43.1305 116.043C43.0562 115.99 42.876 115.895 42.8546 115.789C42.8331 115.662 43.0026 115.683 43.0768 115.694C43.3416 115.684 43.585 115.589 43.6904 115.335C43.7747 115.123 43.7107 114.89 43.5409 114.742C43.1272 114.434 42.4921 114.623 42.0261 114.664C41.5179 114.727 41.2312 114.377 40.8704 114.037C40.7537 113.92 40.0325 113.453 40.0639 113.273C40.0847 113.103 41.1545 113.137 41.3447 112.884C41.6193 112.503 41.2055 112.131 40.8769 112.035C40.5167 111.95 40.1461 112.023 39.7755 112.054C39.5531 112.086 39.3096 112.138 39.0766 112.159C38.5789 112.19 38.2814 111.744 37.9631 111.447C37.8676 111.351 37.7615 111.266 37.6554 111.181C37.3584 110.969 37.5383 110.916 37.8242 110.885C38.0678 110.875 38.29 110.759 38.4167 110.548C38.5327 110.283 38.405 110.029 38.1718 109.901C37.737 109.635 37.123 109.804 36.6359 109.866C36.4877 109.887 36.35 109.897 36.2228 109.855C36.085 109.801 35.9789 109.695 35.8728 109.61C35.6499 109.387 35.4165 109.175 35.1725 108.995C35.0664 108.91 34.865 108.793 34.8435 108.644C34.8221 108.538 34.8856 108.517 34.9702 108.475C35.076 108.412 35.203 108.37 35.2875 108.243C35.393 108.01 35.2548 107.766 35.085 107.618C34.8622 107.416 34.5654 107.288 34.2581 107.213C33.9508 107.139 33.6436 107.127 33.3364 107.095C33.0079 107.041 32.7746 106.914 32.5412 106.68C32.2971 106.457 32.0424 106.203 31.7772 106.001C31.6499 105.895 31.5226 105.789 31.3847 105.693C31.321 105.65 31.1832 105.576 31.2148 105.481C31.2886 105.301 32.0835 105.61 32.2107 105.631C32.7087 105.749 33.387 105.962 33.8842 105.677C34.1276 105.54 34.1906 105.286 34.0419 105.052C33.8931 104.798 33.6174 104.649 33.3418 104.542C32.7694 104.308 32.1445 104.318 31.5301 104.295C30.9158 104.273 30.2698 104.303 29.7184 104.027C29.4322 103.888 29.1988 103.697 28.9654 103.506C28.7638 103.326 28.5516 103.177 28.35 102.997C28.3076 102.954 28.2333 102.88 28.2226 102.827C28.2012 102.721 28.3177 102.732 28.4025 102.732C28.5296 102.753 28.6356 102.796 28.7522 102.828C28.9323 102.881 29.1019 102.924 29.282 102.956C29.7483 103.084 30.3312 103.265 30.8181 103.097C31.0086 103.034 31.1884 102.896 31.1879 102.685C31.1876 102.515 31.0813 102.345 30.9646 102.229C30.5825 101.825 30.0315 101.718 29.4913 101.686C28.8451 101.631 28.2097 101.694 27.5635 101.618C27.2774 101.586 26.9913 101.511 26.7369 101.405C26.44 101.256 26.1642 101.022 25.9307 100.789C25.6866 100.566 25.4425 100.322 25.1773 100.12C25.1137 100.077 24.9016 99.9498 24.9015 99.8651C24.9012 99.7592 25.0496 99.823 25.092 99.8231C25.7596 99.9833 26.3954 100.112 27.0523 100.261C28.4616 100.55 29.8497 100.86 31.259 101.149C32.6577 101.448 34.0457 101.737 35.4021 102.079C36.7268 102.41 38.0724 102.677 39.418 102.881C40.0431 102.978 40.6787 103.043 41.3143 103.086C41.5685 103.108 41.8333 103.098 42.0662 103.035C42.3732 102.961 42.6058 102.75 42.8065 102.528C43.0285 102.306 43.2292 102.02 43.4193 101.767C43.6305 101.471 43.8313 101.206 44.0425 100.91C44.4439 100.36 44.8452 99.7889 45.2465 99.239C46.0598 98.1073 46.8942 96.9757 47.8878 95.9821C48.3635 95.4853 48.7966 94.946 49.2192 94.3961L49.1447 94.2371ZM113.297 51.9054C113.406 53.3248 113.985 56.9271 113.956 58.4205L113.85 58.4203C113.235 58.0589 111.328 57.7161 111.21 56.9427C111.198 56.1483 111.736 55.1432 111.692 54.3594C111.7 53.3532 110.694 53.277 110.208 54.0386C109.374 55.2549 109.898 57.4908 107.765 55.8236C107.425 55.018 108.713 53.1988 108.023 52.3183C107.599 51.915 107.08 52.1576 106.753 52.6335C106.14 53.2466 106.408 54.7829 105.561 55.0778C103.58 54.9996 104.435 53.4867 104.729 52.174C104.907 51.4224 105.171 50.7556 105.064 50.1411C104.861 49.3463 104.035 49.387 103.612 50.064C102.894 51.0793 102.993 52.6365 102.359 53.652C101.841 54.0217 100.611 53.5743 100.547 53.0658C100.491 51.6994 101.853 49.5732 101.194 48.3857C100.557 47.7701 99.786 48.6476 99.565 49.3568C99.2907 49.907 99.2511 51.2626 98.8071 51.6854C98.6784 50.8802 97.5163 47.0966 97.5245 45.9634C103.977 47.1944 110.815 50.1633 112.945 51.0044C113.306 51.1957 113.19 51.3756 113.286 51.8947L113.297 51.9054ZM113.63 43.6552L113.545 43.6974C112.519 44.1719 112.341 45.199 112.555 46.3221C112.587 46.6929 112.683 47.0214 112.588 47.0318C110.436 46.2543 108.295 45.3814 105.942 44.6141C104.511 44.1134 102.932 43.6759 101.311 43.2172L101.268 43.1748L92.2187 40.9746C91.8585 40.9527 91.3605 40.8352 90.9156 40.7919C90.2587 40.7059 89.6548 40.6305 89.0722 40.5764L88.7968 40.5546C56.7279 36.4544 38.0708 65.215 42.9077 94.9341C43.1325 96.1314 42.932 96.5017 41.9705 97.6542C41.2943 98.4578 40.777 99.2935 40.4173 99.4834C39.6975 99.6938 38.5741 99.3526 38.3713 98.579C37.6114 94.6904 37.2747 90.5272 37.2137 86.5764C37.064 75.3915 39.7417 63.9686 45.9406 54.9042C46.6699 54.1325 47.565 56.8246 48.612 56.0535C49.2446 54.6143 46.2453 53.6656 47.8415 52.1119C48.877 50.9277 49.6777 54.0327 50.8735 53.5161C51.6663 52.7445 50.0963 51.5339 49.7029 50.7811C49.3735 50.2614 49.8588 49.3092 50.4314 49.6493C50.9407 50.074 52.0129 51.3153 52.3606 50.4158C52.645 49.622 51.521 48.9842 51.4665 48.2109C51.4865 47.6602 52.1952 47.1638 52.5771 47.5035C53.0544 47.8328 53.9046 49.2538 54.613 48.6515C55.1621 47.8265 53.635 46.8702 53.6547 46.15C53.6855 45.6523 54.3837 45.23 54.7869 45.5909C55.3597 46.0158 56.0085 47.341 56.8658 47.0568C57.3207 46.7929 57.0012 45.9238 56.5978 45.4781C56.2051 45.043 55.6106 44.3852 56.1077 44.0155C57.3355 43.6155 57.7957 45.9783 59.013 45.6101C59.3938 45.399 59.2123 44.6678 58.883 44.2117C58.4476 43.6071 57.5248 42.9592 58.3604 42.3783C58.9209 41.9664 59.5663 41.6394 59.8213 42.0635C60.1082 42.4772 60.2051 43.2506 60.6615 43.7493C61.1075 44.3221 61.7742 44.0375 61.794 43.3385C61.9615 42.3644 60.6668 41.1332 61.7988 40.5106C62.423 40.1411 62.9948 40.0576 63.2606 40.5559C63.5795 41.1285 64.1116 42.4006 64.9262 41.9468C65.3175 41.6404 65.1253 40.8563 64.8806 40.3156C64.636 39.8173 64.5187 39.4463 64.9419 39.2142C66.4441 38.3275 66.4619 41.8757 67.9328 41.2326C68.9371 40.3132 66.423 38.3487 68.3713 38.0772C69.748 38.0165 69.6255 40.2828 70.7914 40.6665C71.8298 40.9016 71.5727 39.4606 71.1582 38.7502C70.5102 37.8062 70.8686 36.9596 71.9713 37.5549C72.8838 38.3406 73.0252 40.1944 74.1809 40.7792C76.0347 40.9419 73.8253 37.8023 73.8983 37.2411C74.0137 36.68 74.7868 36.6286 75.2321 36.8413C76.2182 37.4047 76.2329 39.4277 77.4726 39.6526C78.2987 39.6331 78.0208 38.4039 77.755 37.8844C77.627 37.4605 77.16 36.9935 77.4028 36.5809C77.8995 36.0418 79.0232 36.5101 79.2154 37.2942C80.1943 39.5204 81.6647 38.6231 80.6758 36.6829C80.5693 36.3861 80.6855 36.2274 81.0349 36.1964C82.9732 36.2109 82.599 39.7053 84.4421 39.7938C84.9396 39.6359 84.885 38.8415 84.6615 38.2797C84.4695 37.6226 83.6311 36.8053 84.096 36.2343C85.6731 35.7397 85.754 39.0551 87.141 38.8354C88.0616 38.3819 87.0422 37.1088 87.1468 36.4735C87.8562 36.3585 88.3489 39.0709 89.355 39.02C89.9906 39.0636 90.0205 38.121 89.7438 37.485C89.1167 36.3928 89.8899 36.4049 90.7163 36.5337C90.7269 36.5231 90.7375 36.5338 90.7587 36.5338C92.8454 36.6545 98.4722 37.9475 99.5106 38.1826C99.6166 38.204 99.6695 38.2147 99.6695 38.2147C104.915 39.401 110.108 40.979 114.963 43.086C115.027 43.1708 113.651 43.6129 113.598 43.6657L113.63 43.6552ZM119.715 41.3056L119.577 41.2736C113.958 38.5719 107.408 36.2285 100.118 34.6674C99.8317 34.6139 99.6302 34.497 99.6194 34.3593C100.665 32.9103 103.173 31.6127 104.653 30.5565C106.283 29.7125 107.371 28.5178 108.473 28.6048C108.993 29.1036 108.921 30.3639 109.039 31.1161C109.189 31.9426 109.034 33.4992 109.913 33.8293C110.295 33.9148 110.654 33.5343 110.759 33.0261C110.98 32.0839 110.596 30.9392 110.668 30.0391C110.784 29.6051 111.707 30.2107 111.814 30.804C112.293 32.3196 111.948 34.3207 112.703 35.7097C114.293 36.6238 113.927 33.6998 113.809 32.7992C113.766 32.3331 113.68 31.7822 113.807 31.6554C113.954 31.4226 115.015 32.0815 115.397 32.4C115.981 33.2167 115.676 34.5189 115.975 35.5151C116.125 36.4898 117.037 36.7246 117.384 35.8251C117.627 35.243 117.487 34.4272 117.444 33.9187C117.444 33.6645 117.528 33.5799 117.814 33.697C119.807 34.273 118.71 36.8551 119.645 38.1704C120.048 38.5737 120.525 38.3946 120.735 37.8231C121.031 37.1458 120.774 36.2132 120.805 35.5248C120.847 35.2919 121.154 35.5785 121.706 35.855C122.66 36.4077 126.424 38.4383 126.541 38.5974C126.403 38.6501 120.721 41.064 119.715 41.3056Z" fill="#017EFE"/>
<path d="M129.121 52.1703C128.103 51.3421 126.314 51.7304 126.041 53.2762C124.92 59.1734 118.968 91.0419 117.658 97.9979C117.376 99.8297 119.56 100.914 120.85 99.5401C123.089 96.7061 126.681 92.0743 129.069 89.0711C130.358 87.485 131.298 86.1418 131.488 86.0574C131.605 86.3225 131.648 86.7462 131.67 87.1699C132.646 98.4413 130.654 108.393 125.672 116.772C117.948 130.928 101.203 136.571 84.5244 132.788C84.1322 132.649 84.1844 132.257 83.9392 131.463C83.2985 128.898 82.4114 124.946 81.8037 122.985C81.5908 122.455 80.8588 121.85 80.2654 121.721C76.312 120.39 68.8079 117.769 63.1573 115.141C60.7188 113.95 59.5787 115.791 60.1659 118.133C60.4785 120.813 61.0501 125.845 61.3841 128.674C61.4073 129.648 61.8124 130.962 61.5802 131.364C60.6912 131.723 48.5099 136.454 46.7955 137.128C45.5041 137.528 44.9571 139.391 46.1241 140.346L46.1984 140.421C52.126 143.833 63.6202 150.253 68.8158 153.102C69.2398 153.23 70.0342 153.242 70.4468 153.021C71.4204 152.641 78.138 148.683 80.5907 146.422C81.5847 145.597 82.5356 144.477 83.457 144.447C85.5333 144.599 87.6312 144.985 89.7284 145.053C104.538 146.121 119.941 142.752 130.403 131.016C142.365 117.399 146.164 99.6761 143.127 80.0226C143.126 79.5566 143.603 79.9282 144.419 80.0252C145.139 80.175 146.125 80.3782 147.237 80.6241C152.037 81.6188 157.484 82.9643 159.433 83.1589C159.92 83.1387 160.693 82.7908 160.967 82.177C161.368 81.4576 161.07 80.5038 160.518 79.9942C158.969 78.593 130.67 53.5291 129.089 52.1596L129.121 52.1703ZM64.5879 125.979C64.4791 124.56 63.8893 120.947 63.9392 119.454L64.0346 119.464C64.6602 119.815 66.5567 120.147 66.6748 120.942C66.7082 121.715 66.17 122.72 66.1929 123.525C66.1843 124.51 67.1907 124.608 67.6763 123.846C68.5106 122.63 67.9871 120.394 70.1194 122.061C70.4599 122.867 69.1714 124.686 69.8722 125.556C70.2755 125.959 70.7941 125.738 71.1426 125.241C71.7556 124.628 71.4666 123.091 72.3345 122.796C74.2941 122.896 73.4604 124.387 73.1665 125.7C72.9774 126.462 72.7245 127.118 72.8317 127.733C73.0345 128.528 73.8606 128.487 74.2723 127.821C74.9905 126.805 74.9026 125.238 75.5254 124.233C76.0648 123.842 77.2732 124.31 77.3378 124.819C77.4041 126.175 76.0421 128.301 76.6906 129.499C77.3379 130.104 78.0987 129.216 78.3197 128.528C78.594 127.978 78.6442 126.611 79.0882 126.189C79.2169 126.994 80.379 130.777 80.3707 131.911C73.918 130.68 67.0804 127.711 64.9498 126.87C64.5787 126.689 64.6949 126.509 64.5985 125.99L64.5879 125.979ZM78.2653 143.504C77.2091 144.964 74.6909 146.251 73.2102 147.328C71.5809 148.172 70.5029 149.356 69.3906 149.28C68.8812 148.77 68.9634 147.5 68.8242 146.768C68.6848 145.931 68.8194 144.375 67.9396 144.045C67.5793 143.959 67.2094 144.35 67.1151 144.848C66.8946 145.79 67.2676 146.945 67.1953 147.846C67.0902 148.269 66.1569 147.653 66.0604 147.049C65.5913 145.544 65.9368 143.543 65.1714 142.143C63.5808 141.229 63.9574 144.164 64.0758 145.064C64.1191 145.53 64.2049 146.081 64.0675 146.219C63.9408 146.43 62.8803 145.771 62.4878 145.464C61.893 144.636 62.1975 143.334 61.8778 142.338C61.7275 141.363 60.8162 141.128 60.4791 142.017C60.2261 142.61 60.3654 143.426 60.4194 143.945C60.4305 144.188 60.3354 144.283 60.0491 144.166C58.0568 143.59 59.1636 140.998 58.2183 139.672C57.8151 139.29 57.3388 139.469 57.1387 140.03C56.8435 140.707 57.0996 141.64 57.0586 142.317C57.0379 142.572 56.709 142.285 56.1683 141.998C55.2139 141.445 51.418 139.425 51.3224 139.266C51.4811 139.192 57.1321 136.789 58.1696 136.537L58.2968 136.579C63.9158 139.281 70.4661 141.624 77.7456 143.175C78.0529 143.25 78.2438 143.356 78.2758 143.472L78.2653 143.504ZM139.524 79.2951C140.284 83.1837 140.621 87.3469 140.703 91.2765C140.842 102.472 138.164 113.895 131.976 122.949C131.225 123.72 130.351 121.028 129.294 121.81C128.672 123.239 131.671 124.187 130.086 125.731C129.039 126.925 128.228 123.831 127.053 124.326C126.25 125.087 127.82 126.319 128.214 127.072C128.543 127.592 128.079 128.523 127.474 128.193C126.986 127.79 125.903 126.538 125.556 127.416C125.282 128.22 126.406 128.858 126.439 129.653C126.43 130.193 125.711 130.7 125.339 130.349C124.862 130.02 124.001 128.61 123.303 129.201C122.744 130.037 124.281 130.983 124.251 131.714C124.22 132.211 123.522 132.634 123.129 132.262C122.546 131.848 121.897 130.523 121.029 130.817C120.585 131.071 120.905 131.94 121.297 132.396C121.701 132.82 122.285 133.489 121.798 133.848C120.56 134.259 120.1 131.896 118.893 132.253C118.512 132.465 118.694 133.196 119.023 133.652C119.458 134.256 120.37 134.915 119.524 135.506C118.964 135.897 118.329 136.235 118.053 135.811C117.766 135.397 117.669 134.623 117.234 134.125C116.777 133.563 116.121 133.837 116.101 134.536C115.934 135.51 117.218 136.751 116.075 137.385C115.441 137.743 114.89 137.827 114.624 137.329C114.305 136.756 113.762 135.473 112.958 135.938C112.557 136.255 112.749 137.039 112.983 137.59C113.228 138.067 113.345 138.459 112.932 138.681C111.398 139.557 111.402 136.009 109.931 136.673C108.926 137.571 111.451 139.547 109.492 139.807C108.126 139.879 108.249 137.634 107.083 137.229C106.034 137.004 106.301 138.435 106.695 139.166C107.343 140.11 106.984 140.957 105.882 140.361C104.969 139.576 104.828 137.722 103.683 137.127C101.797 136.953 104.038 140.104 103.965 140.665C103.85 141.226 103.066 141.288 102.6 141.075C101.624 140.522 101.599 138.489 100.38 138.264C99.5437 138.294 99.8216 139.523 100.087 140.043C100.226 140.456 100.693 140.923 100.45 141.335C99.9323 141.896 98.8192 141.417 98.6376 140.622C97.6586 138.396 96.1882 139.293 97.156 141.233C97.2731 141.52 97.1569 141.7 96.818 141.72C94.8798 141.705 95.2434 138.222 93.3897 138.123C92.9028 138.291 92.9574 139.085 93.1915 139.637C93.3624 140.315 94.2219 141.111 93.7252 141.671C92.1693 142.187 92.099 138.84 90.7014 139.07C89.7808 139.524 90.8002 140.797 90.6955 141.432C89.9861 141.547 89.4723 138.835 88.4767 138.875C87.8518 138.842 87.8219 139.785 88.0986 140.421C88.7045 141.534 87.9419 141.511 87.1155 141.383C87.1049 141.393 87.0943 141.383 87.0731 141.383C84.9969 141.251 79.3702 139.958 78.3318 139.723C78.2152 139.712 78.1622 139.702 78.1622 139.702C72.917 138.515 67.7134 136.927 62.8899 134.809C62.805 134.724 64.2022 134.282 64.2445 134.24L64.3397 134.187C65.3556 133.723 65.5441 132.686 65.3194 131.552C65.2975 131.192 65.1909 130.853 65.2862 130.842C67.4485 131.63 69.6003 132.514 71.9426 133.271C73.3523 133.792 74.9419 134.219 76.5739 134.667L76.6164 134.71L85.666 136.91C86.0262 136.932 86.5242 137.049 86.9586 137.103C87.6154 137.189 88.2299 137.254 88.8125 137.308L89.0774 137.341C121.167 141.42 139.814 112.691 134.998 82.9718C134.773 81.7745 134.974 81.4042 135.935 80.2517C136.59 79.4692 137.129 78.6124 137.478 78.4119C138.187 78.2332 139.321 78.5427 139.524 79.3375L139.524 79.2951ZM153.047 78.1892C153.047 78.1892 152.91 78.2207 152.846 78.2205C152.21 78.0498 151.564 77.932 150.896 77.7929C149.498 77.4935 148.099 77.1941 146.679 76.8735C145.291 76.5847 143.903 76.296 142.546 75.9543C141.211 75.6126 139.876 75.3558 138.531 75.1518C137.895 75.0658 137.27 74.9904 136.634 74.9467C136.369 74.9356 136.105 74.9245 135.861 74.9981C135.575 75.0929 135.343 75.283 135.131 75.4944C134.909 75.7376 134.719 76.0126 134.529 76.2664C134.318 76.5625 134.107 76.8375 133.906 77.1231C133.494 77.6836 133.103 78.2441 132.691 78.8047C131.878 79.9363 131.033 81.0573 130.061 82.0509C129.564 82.5477 129.152 83.0871 128.719 83.6475C128.286 84.208 127.853 84.7685 127.419 85.329C126.564 86.4394 125.676 87.5391 124.789 88.66C124.356 89.2205 123.933 89.7704 123.479 90.3096C123.268 90.6058 123.046 90.8701 122.845 91.1768C122.771 91.272 122.718 91.3884 122.623 91.4836C122.507 91.5998 122.454 91.5044 122.485 91.3879C122.654 90.7528 122.769 90.1281 122.874 89.4929C122.936 89.1329 123.01 88.7835 123.073 88.4235C123.125 88.0953 123.156 87.767 123.251 87.46C123.335 87.1213 123.599 86.9206 123.853 86.7092C124.128 86.5192 124.382 86.3078 124.614 86.0965C124.974 85.7795 125.418 85.3991 125.502 84.912C125.596 84.3509 124.928 84.3389 124.558 84.497C124.431 84.5392 124.304 84.6236 124.198 84.7082C124.114 84.7715 123.987 84.9196 123.87 84.9087C123.712 84.8978 123.743 84.6331 123.774 84.5378C123.847 84.019 124.122 83.5111 124.492 83.1412C124.862 82.7712 125.338 82.4439 125.739 82.0634C125.972 81.852 126.194 81.63 126.395 81.3657C126.543 81.1753 126.775 80.858 126.637 80.593C126.562 80.4128 126.319 80.3805 126.16 80.3908C125.853 80.4007 125.556 80.5272 125.313 80.7068C125.049 80.8863 124.848 81.1295 124.626 81.3727C124.584 81.415 124.51 81.5101 124.457 81.5206C124.351 81.5204 124.382 81.404 124.393 81.3298C124.456 81.0758 124.519 80.8005 124.561 80.5464C124.592 80.2393 124.644 79.9111 124.749 79.6147C124.981 78.9585 125.531 78.5572 126.06 78.1557C126.525 77.8178 127.012 77.4374 127.297 76.919C127.402 76.771 127.476 76.5699 127.433 76.3791C127.359 76.1566 127.136 76.0608 126.924 76.0604C126.384 76.0699 125.887 76.5031 125.549 76.8837C125.485 76.9683 125.443 77.0742 125.38 77.1588C125.264 77.275 125.242 77.1691 125.284 77.0632C125.379 76.7775 125.432 76.4916 125.452 76.1951C125.494 75.8986 125.504 75.5703 125.62 75.2846C125.736 74.9988 125.947 74.7662 126.169 74.5654C126.391 74.3646 126.634 74.1851 126.856 73.9631C127.099 73.7412 127.353 73.4875 127.586 73.2549C127.892 72.9484 128.516 72.346 128.197 71.8581C128.038 71.6142 127.72 71.6135 127.498 71.7084C127.233 71.8456 127.043 72.0782 126.842 72.279L126.483 72.6384C126.409 72.7124 126.335 72.8288 126.25 72.8709C126.102 72.913 126.165 72.7649 126.186 72.6802C126.229 72.5532 126.239 72.4367 126.228 72.299C126.206 72.0235 126.11 71.7374 126.173 71.4621C126.215 71.1656 126.426 70.9331 126.659 70.7429C126.913 70.5316 127.198 70.3521 127.452 70.1408C127.695 69.94 127.939 69.6969 128.171 69.4644C128.404 69.2318 128.657 68.9781 128.879 68.735C129.059 68.5341 129.228 68.2802 129.227 68.0049C129.237 67.7613 129.078 67.5385 128.834 67.5063C128.559 67.4633 128.326 67.6112 128.136 67.7802C127.914 68.0022 127.713 68.2242 127.491 68.4462C127.407 68.5096 127.322 68.5941 127.238 68.6999C127.174 68.7633 127.058 68.9008 126.952 68.8794C126.931 68.8158 126.983 68.7629 127.015 68.71C127.047 68.6359 127.057 68.5618 127.068 68.4877C127.078 68.3077 127.003 68.1063 126.992 67.905C126.939 67.5766 127.033 67.2908 127.255 67.0476C127.562 66.7411 127.932 66.4982 128.26 66.2129C128.556 65.9382 128.862 65.6528 129.169 65.3463C129.423 65.0714 129.708 64.7648 129.813 64.4049C129.908 64.1191 129.77 63.7905 129.462 63.7369C129.144 63.6728 128.901 63.8947 128.69 64.0849C128.394 64.3597 128.13 64.6451 127.855 64.9411C127.781 65.0151 127.453 65.3428 127.484 65.0357C127.484 64.9298 127.537 64.8346 127.558 64.7287C127.621 64.5382 127.642 64.3476 127.673 64.1464C127.747 63.7547 127.799 63.3417 127.893 62.9712C128.009 62.5583 128.316 62.3577 128.622 62.1147C128.95 61.893 129.257 61.6288 129.542 61.3434C129.806 61.1003 130.081 60.8467 130.24 60.5187C130.345 60.2435 130.312 59.8939 130.037 59.7451C129.687 59.5643 129.349 59.8602 129.127 60.0822C128.979 60.2302 128.809 60.3781 128.651 60.5367C128.577 60.6106 128.524 60.6847 128.45 60.7587C128.408 60.801 128.366 60.8432 128.334 60.8326C128.217 60.8006 128.375 60.4514 128.386 60.3772C128.438 60.1549 128.48 59.9432 128.501 59.7102C128.574 59.2549 128.647 58.8208 128.731 58.355C128.784 58.1326 128.836 57.9103 128.878 57.6774C128.962 57.1692 128.929 56.7349 129.438 57.2019C129.704 57.4461 129.948 57.669 130.224 57.9025C130.744 58.3802 131.285 58.8367 131.805 59.3144C132.017 59.5055 132.229 59.7178 132.473 59.8559C132.558 59.9197 132.897 60.111 132.696 60.2271C132.622 60.2799 132.506 60.2691 132.421 60.2477C132.294 60.2475 132.167 60.2684 132.071 60.3C131.817 60.363 131.51 60.4789 131.405 60.7329C131.289 60.9974 131.417 61.2731 131.639 61.39C131.894 61.5388 132.212 61.5395 132.487 61.5188C132.773 61.5088 133.048 61.467 133.334 61.4146C133.578 61.3622 133.885 61.2887 134.118 61.3739C134.256 61.4059 134.362 61.512 134.457 61.6076C134.563 61.7349 134.669 61.8198 134.776 61.9048C134.839 61.9684 135.03 62.0536 135.051 62.1595C135.062 62.2972 134.903 62.2651 134.819 62.265C134.564 62.2644 134.31 62.3698 134.205 62.6238C134.11 62.8249 134.185 63.0686 134.365 63.2067C134.768 63.5253 135.414 63.3253 135.869 63.2733C136.388 63.2214 136.675 63.5715 137.036 63.9111C137.152 64.0279 137.863 64.5059 137.842 64.6754C137.8 64.8659 136.751 64.8108 136.551 65.0752C136.276 65.456 136.69 65.8275 137.04 65.9024C137.389 65.9984 137.77 65.9144 138.141 65.8834C138.363 65.8521 138.596 65.8102 138.829 65.7895C139.327 65.7587 139.625 66.2042 139.943 66.5014C140.028 66.5863 140.145 66.6818 140.24 66.7562C140.558 66.9686 140.368 67.0318 140.092 67.0524C139.849 67.0625 139.627 67.1786 139.5 67.3901C139.373 67.6441 139.501 67.9197 139.724 68.0367C140.18 68.3024 140.794 68.1342 141.281 68.0716C141.408 68.0507 141.556 68.051 141.694 68.083C141.832 68.1363 141.938 68.2424 142.033 68.3379C142.256 68.5608 142.5 68.7625 142.744 68.9431C142.84 69.0386 143.052 69.1449 143.073 69.2933C143.094 69.3992 143.02 69.4308 142.946 69.4625C142.809 69.5152 142.714 69.5679 142.629 69.6948C142.513 69.917 142.662 70.1715 142.832 70.3202C143.054 70.5218 143.351 70.6495 143.637 70.7243C143.966 70.7991 144.262 70.8209 144.58 70.8639C144.887 70.8963 145.142 71.0451 145.386 71.268C145.62 71.5015 145.864 71.7456 146.129 71.9685C146.256 72.0747 146.394 72.1491 146.532 72.2659C146.574 72.3083 146.712 72.4039 146.702 72.4781C146.617 72.6685 145.812 72.3704 145.695 72.3383C145.176 72.1996 144.519 72.0076 144.022 72.2926C143.778 72.4298 143.726 72.6733 143.864 72.9172C144.024 73.1611 144.299 73.3099 144.564 73.427C145.137 73.6612 145.762 73.6518 146.376 73.6743C146.98 73.6649 147.636 73.6662 148.198 73.9321C148.474 74.0598 148.707 74.2509 148.951 74.4526C149.153 74.6331 149.365 74.7818 149.556 74.9729C149.598 75.0153 149.683 75.079 149.694 75.132C149.705 75.2485 149.578 75.2483 149.504 75.2164C149.376 75.2161 149.281 75.163 149.164 75.1309C148.984 75.0776 148.804 75.0455 148.635 75.0028C148.137 74.8852 147.575 74.6829 147.088 74.8725C146.897 74.9357 146.707 75.0624 146.707 75.2742C146.718 75.4543 146.846 75.6029 146.963 75.7196C147.345 76.1229 147.896 76.2299 148.415 76.2839C149.05 76.3276 149.707 76.2653 150.364 76.3302C150.65 76.3626 150.936 76.4373 151.18 76.5543C151.487 76.6926 151.752 76.9367 152.007 77.1491C152.241 77.3826 152.485 77.6267 152.75 77.8073C152.813 77.8709 153.036 77.9879 153.026 78.0832L153.047 78.1892Z" fill="#017EFE"/>
</g>
<defs>
<clipPath id="clip0_245_1416">
<rect width="133.281" height="118.271" fill="white" transform="translate(0 94.2435) rotate(-45)"/>
</clipPath>
</defs>
</svg>
