<svg width="289" height="257" viewBox="0 0 289 257" fill="none" xmlns="http://www.w3.org/2000/svg">
<path d="M184.562 0.187831C183.673 -0.0672154 182.106 -0.112583 181.281 0.371154C179.335 1.12699 165.908 9.01402 161.027 13.4994C159.019 15.1204 157.14 17.3748 155.255 17.3921C151.127 17.1094 146.933 16.3834 142.762 16.185C113.12 14.0993 82.3518 20.7906 61.4407 44.1742C37.5521 71.2873 29.9601 106.601 36.0096 145.783C36.0115 146.711 35.0574 145.971 33.448 145.756C32.0078 145.458 30.0381 145.053 27.8143 144.563C18.199 142.602 7.31201 139.921 3.41581 139.491C2.44214 139.573 0.898029 140.225 0.371296 141.469C-0.430266 142.902 0.166359 144.803 1.20581 145.839C4.34468 148.631 60.886 198.551 64.0247 201.301C66.0816 202.973 69.679 202.178 70.2232 199.098C72.4646 187.347 84.3604 123.847 86.9786 109.987C87.5428 106.337 83.1562 104.197 80.5789 106.935C76.1023 112.582 68.8807 121.769 64.1719 127.774C61.5744 130.956 59.7168 133.611 59.315 133.8C59.1022 133.251 58.9946 132.428 58.9717 131.562C57.0208 109.103 60.9818 89.2944 70.9614 72.5788C86.3586 44.4144 119.869 33.1279 153.207 40.666C153.991 40.942 153.886 41.7226 154.334 43.3486C155.636 48.4373 157.388 56.3339 158.624 60.2196C159.049 61.2756 160.512 62.4815 161.677 62.7582C169.6 65.3912 184.6 70.6131 195.873 75.8697C200.747 78.2432 203.068 74.5335 201.873 69.8882C201.227 64.5686 200.106 54.5206 199.438 48.8844C199.392 46.9427 198.561 44.3452 199.025 43.5442C200.802 42.8302 225.15 33.4035 228.598 32.0387C231.179 31.2419 232.23 27.5296 229.919 25.6467L229.749 25.4775C217.943 18.7214 194.948 5.90694 184.584 0.208978L184.562 0.187831ZM64.7655 138.602C65.6312 137.485 66.4969 136.368 67.3626 135.251C69.0941 133.018 70.8891 130.805 72.5994 128.593C73.4863 127.497 74.352 126.381 75.2389 125.285C75.7036 124.737 76.1259 124.189 76.5481 123.599C76.6959 123.41 76.8013 123.178 76.9914 122.988C77.2238 122.756 77.2877 122.946 77.2459 123.2C76.9309 124.444 76.7005 125.689 76.4702 126.976C76.3658 127.672 76.219 128.368 76.0935 129.085C75.9677 129.718 75.9268 130.394 75.7163 131.026C75.5483 131.701 75.041 132.08 74.5127 132.522C73.9841 132.88 73.498 133.28 72.9909 133.743C72.2935 134.354 71.3635 135.112 71.2174 136.103C71.0079 137.2 72.3629 137.245 73.1032 136.93C73.3782 136.825 73.6319 136.657 73.8433 136.489C73.9912 136.341 74.2447 136.088 74.4987 136.089C74.7952 136.132 74.7539 136.638 74.6908 136.828C74.5235 137.883 73.9963 138.874 73.2568 139.611C72.454 140.411 71.566 141 70.7207 141.758C70.2771 142.201 69.8334 142.643 69.4534 143.191C69.179 143.549 68.6934 144.202 68.9484 144.709C69.1397 145.068 69.5844 145.133 69.9443 145.112C70.5582 145.092 71.1293 144.861 71.6155 144.504C72.144 144.146 72.5453 143.661 72.9889 143.177C73.0945 143.072 73.2212 142.903 73.327 142.882C73.5598 142.861 73.4756 143.115 73.4548 143.262C73.3288 143.768 73.2451 144.275 73.1403 144.802C73.0358 145.456 72.9735 146.068 72.7419 146.68C72.2999 147.966 71.1584 148.766 70.1015 149.566C69.1926 150.26 68.2415 151.039 67.6296 152.03C67.4609 152.367 67.2923 152.747 67.3989 153.106C67.5268 153.528 67.9718 153.761 68.3952 153.762C69.4749 153.743 70.468 152.838 71.1228 152.1C71.2918 151.932 71.3762 151.763 71.5028 151.552C71.7139 151.299 71.7568 151.553 71.6937 151.743C71.5043 152.312 71.3996 152.882 71.295 153.493C71.2539 154.084 71.2129 154.76 71.0024 155.35C70.7707 155.919 70.3693 156.362 69.9256 156.762C69.4607 157.183 68.9745 157.541 68.5307 157.941C68.0024 158.425 67.5376 158.889 67.0518 159.415C66.4602 160.005 65.1713 161.205 65.8507 162.177C66.1692 162.664 66.7621 162.707 67.2485 162.476C67.7561 162.224 68.1362 161.76 68.5377 161.36L69.256 160.644C69.4039 160.496 69.5516 160.264 69.763 160.138C70.0593 160.054 69.9117 160.371 69.8697 160.539C69.7856 160.793 69.7436 161.003 69.7865 161.257C69.8512 161.827 70.0216 162.376 69.917 162.988C69.8335 163.578 69.4111 164.042 68.9883 164.379C68.4811 164.8 67.8891 165.178 67.403 165.578C66.8958 165.999 66.4099 166.484 65.9662 166.926C65.4591 167.432 64.9731 167.874 64.5085 168.422C64.1494 168.822 63.8328 169.307 63.8126 169.792C63.8136 170.299 64.1533 170.764 64.6192 170.849C65.1698 170.934 65.635 170.64 66.0153 170.261C66.459 169.861 66.8815 169.397 67.3041 168.976C67.4731 168.808 67.6633 168.66 67.8322 168.449C67.959 168.323 68.1913 168.049 68.4031 168.092C68.4457 168.219 68.3401 168.324 68.2768 168.429C68.1924 168.556 68.1927 168.725 68.1718 168.872C68.1091 169.273 68.258 169.632 68.3224 170.033C68.4084 170.709 68.2191 171.278 67.7542 171.742C67.1627 172.331 66.4228 172.857 65.7888 173.405C65.176 173.973 64.5421 174.563 63.9716 175.132C63.4647 175.679 62.852 176.29 62.6418 177.05C62.4524 177.619 62.729 178.274 63.3643 178.359C63.9785 178.508 64.4856 178.045 64.9083 177.666C65.4788 177.14 66.028 176.55 66.5561 175.981C66.704 175.834 67.3378 175.16 67.3178 175.729C67.2971 175.962 67.2339 176.151 67.192 176.362C67.0658 176.742 66.9819 177.164 66.9404 177.544C66.7937 178.282 66.7318 179.105 66.5006 179.885C66.2905 180.687 65.6774 181.087 65.0644 181.571C64.3879 182.034 63.775 182.56 63.2046 183.129C62.7186 183.571 62.1269 184.118 61.8318 184.751C61.6 185.278 61.6861 185.996 62.2372 186.292C62.9154 186.674 63.5916 186.084 64.0564 185.621C64.3522 185.326 64.6692 185.052 64.965 184.757C65.1129 184.61 65.2396 184.441 65.3875 184.294C65.4297 184.252 65.5142 184.125 65.62 184.147C65.8531 184.21 65.5158 184.927 65.4949 185.075C65.3899 185.476 65.3273 185.919 65.2858 186.341C65.1606 187.269 64.9932 188.197 64.8045 189.104C64.6995 189.547 64.5946 189.99 64.532 190.434C64.3435 191.467 64.4088 192.333 63.3484 191.402C62.8817 190.937 62.3515 190.492 61.8214 190.048C60.7821 189.096 59.7217 188.166 58.6189 187.193C58.2158 186.791 57.7916 186.41 57.3465 186.135C57.1769 186.008 56.4774 185.605 56.8581 185.395C57.0273 185.311 57.2602 185.333 57.4508 185.354C57.7048 185.355 57.9376 185.334 58.1492 185.25C58.6359 185.146 59.2069 184.872 59.4812 184.387C59.713 183.86 59.4578 183.311 58.9916 183.099C58.4829 182.803 57.8478 182.801 57.2975 182.842C56.7259 182.862 56.1757 182.946 55.6043 183.05C55.1387 183.134 54.5251 183.28 54.0378 183.131C53.7836 183.046 53.5503 182.814 53.3806 182.645C53.1472 182.412 52.9563 182.222 52.7443 182.052C52.5959 181.947 52.2356 181.756 52.1928 181.545C52.15 181.291 52.4888 181.334 52.637 181.356C53.1662 181.336 53.6527 181.147 53.8634 180.641C54.0319 180.219 53.904 179.754 53.5646 179.458C52.7378 178.845 51.4683 179.222 50.537 179.304C49.5211 179.429 48.948 178.731 48.2269 178.055C47.9935 177.822 46.5521 176.89 46.6148 176.532C46.6565 176.194 48.7948 176.262 49.1749 175.756C49.7238 174.997 48.8966 174.257 48.24 174.066C47.5198 173.896 46.7792 174.042 46.0383 174.104C45.5939 174.166 45.1072 174.271 44.6415 174.312C43.6466 174.373 43.0521 173.486 42.4157 172.893C42.2248 172.703 42.0128 172.534 41.8007 172.365C41.2071 171.941 41.5668 171.837 42.1383 171.774C42.6251 171.754 43.0692 171.523 43.3224 171.101C43.5542 170.574 43.2992 170.067 42.8329 169.813C41.9638 169.284 40.7367 169.619 39.7631 169.744C39.4668 169.785 39.1916 169.806 38.9374 169.721C38.6619 169.615 38.4498 169.403 38.2378 169.234C37.7923 168.79 37.3257 168.367 36.838 168.007C36.626 167.838 36.2233 167.605 36.1804 167.309C36.1376 167.098 36.2645 167.056 36.4337 166.972C36.6452 166.846 36.899 166.762 37.0679 166.509C37.2786 166.045 37.0024 165.559 36.6631 165.263C36.2177 164.861 35.6244 164.607 35.0102 164.458C34.396 164.309 33.782 164.287 33.1679 164.222C32.5114 164.115 32.0451 163.861 31.5785 163.396C31.0906 162.952 30.5815 162.444 30.0514 162.042C29.797 161.83 29.5425 161.619 29.2669 161.428C29.1397 161.344 28.8642 161.195 28.9273 161.006C29.0748 160.647 30.6638 161.262 30.9179 161.305C31.9134 161.539 33.2692 161.964 34.263 161.396C34.7494 161.123 34.8754 160.617 34.5781 160.152C34.2806 159.645 33.7296 159.348 33.1788 159.136C32.0346 158.669 30.7856 158.688 29.5576 158.643C28.3297 158.598 27.0384 158.659 25.9364 158.108C25.3643 157.833 24.8978 157.452 24.4312 157.071C24.0283 156.712 23.6043 156.415 23.2013 156.056C23.1164 155.971 22.968 155.823 22.9466 155.717C22.9038 155.506 23.1367 155.528 23.3061 155.528C23.5602 155.571 23.7721 155.656 24.0051 155.72C24.3652 155.826 24.7041 155.911 25.0641 155.975C25.9961 156.23 27.1612 156.591 28.1344 156.256C28.5152 156.13 28.8745 155.856 28.8737 155.434C28.873 155.096 28.6606 154.758 28.4273 154.526C27.6635 153.722 26.5622 153.509 25.4824 153.443C24.1908 153.335 22.9208 153.459 21.6291 153.309C21.0574 153.244 20.4855 153.096 19.977 152.883C19.3836 152.587 18.8322 152.121 18.3655 151.656C17.8777 151.212 17.3898 150.726 16.8598 150.324C16.7326 150.239 16.3086 149.985 16.3083 149.816C16.3079 149.605 16.6045 149.732 16.6892 149.732C18.0236 150.052 19.2943 150.307 20.6075 150.605C23.4243 151.181 26.1988 151.799 29.0157 152.374C31.8113 152.971 34.5858 153.546 37.297 154.227C39.9446 154.886 42.6343 155.419 45.3238 155.826C46.5732 156.018 47.8437 156.148 49.1141 156.235C49.6223 156.278 50.1515 156.258 50.617 156.132C51.2306 155.986 51.6955 155.564 52.0968 155.122C52.5405 154.68 52.9416 154.111 53.3216 153.605C53.7439 153.015 54.145 152.488 54.5672 151.898C55.3695 150.802 56.1716 149.664 56.9739 148.568C58.5994 146.313 60.2673 144.059 62.2533 142.079C63.2039 141.089 64.0697 140.014 64.9143 138.919L64.7655 138.602ZM192.992 54.253C193.21 57.0814 194.367 64.2593 194.31 67.2349L194.098 67.2344C192.869 66.5144 189.057 65.8314 188.821 64.2903C188.796 62.7074 189.872 60.7047 189.784 59.1428C189.801 57.1379 187.79 56.9861 186.819 58.5037C185.152 60.9273 186.198 65.3824 181.936 62.0604C181.255 60.4551 183.831 56.8304 182.451 55.076C181.603 54.2723 180.566 54.7556 179.912 55.704C178.686 56.9255 179.222 59.9868 177.529 60.5743C173.57 60.4185 175.279 57.4041 175.866 54.7883C176.223 53.2906 176.75 51.9621 176.536 50.7376C176.13 49.154 174.479 49.2351 173.635 50.584C172.2 52.6072 172.396 55.7099 171.13 57.7334C170.094 58.4699 167.637 57.5786 167.508 56.5653C167.396 53.8426 170.119 49.6062 168.801 47.2398C167.529 46.0132 165.987 47.7617 165.545 49.1749C164.997 50.2712 164.918 52.9724 164.03 53.8147C163.773 52.2103 161.45 44.6714 161.467 42.4132C174.364 44.8662 188.031 50.7819 192.29 52.4578C193.01 52.8391 192.778 53.1974 192.971 54.2319L192.992 54.253ZM193.657 37.8141L193.488 37.8982C191.437 38.8437 191.081 40.8901 191.509 43.1281C191.574 43.8668 191.766 44.5215 191.575 44.5422C187.274 42.9929 182.995 41.2537 178.292 39.7247C175.432 38.727 172.275 37.8554 169.035 36.9414L168.95 36.8568L150.861 32.4728C150.142 32.4292 149.146 32.195 148.257 32.1088C146.944 31.9373 145.737 31.7872 144.572 31.6793L144.022 31.636C79.9227 23.4659 42.6311 80.7734 52.299 139.991C52.7484 142.376 52.3477 143.114 50.4259 145.411C49.0742 147.012 48.0402 148.677 47.3212 149.055C45.8825 149.475 43.6371 148.795 43.2317 147.253C41.7129 139.505 41.0398 131.21 40.9179 123.337C40.6187 101.051 45.9709 78.2899 58.3612 60.2284C59.8189 58.6908 61.608 64.0549 63.7008 62.5185C64.9652 59.6508 58.9702 57.7604 62.1606 54.6645C64.2305 52.305 65.8308 58.4918 68.221 57.4625C69.8056 55.9251 66.6675 53.5129 65.8812 52.0129C65.2228 50.9775 66.1928 49.08 67.3373 49.7577C68.3552 50.6039 70.4985 53.0774 71.1934 51.285C71.7618 49.7033 69.5152 48.4325 69.4062 46.8917C69.4463 45.7943 70.8627 44.8053 71.6262 45.4821C72.5802 46.1383 74.2796 48.9697 75.6956 47.7696C76.7931 46.1257 73.7407 44.2201 73.7801 42.7851C73.8416 41.7934 75.2372 40.952 76.0431 41.6712C77.188 42.5176 78.4848 45.1583 80.1984 44.5919C81.1077 44.0662 80.469 42.3343 79.6628 41.4463C78.8777 40.5795 77.6895 39.2686 78.683 38.5319C81.1372 37.7349 82.057 42.443 84.4901 41.7093C85.2514 41.2887 84.8885 39.8318 84.2304 38.923C83.36 37.7183 81.5156 36.4272 83.1857 35.2698C84.306 34.449 85.5961 33.7974 86.1059 34.6426C86.6792 35.4668 86.8728 37.0078 87.7852 38.0016C88.6766 39.143 90.0092 38.5759 90.0487 37.1831C90.3835 35.2422 87.7958 32.7888 90.0585 31.5482C91.306 30.8121 92.4489 30.6456 92.9801 31.6385C93.6176 32.7795 94.6812 35.3141 96.3095 34.4099C97.0916 33.7995 96.7073 32.237 96.2182 31.1597C95.7293 30.1668 95.4949 29.4277 96.3408 28.9651C99.3434 27.1984 99.3789 34.2684 102.319 32.987C104.326 31.1549 99.3011 27.2405 103.195 26.6996C105.947 26.5786 105.702 31.0944 108.033 31.8588C110.108 32.3273 109.594 29.4561 108.766 28.0404C107.471 26.1595 108.187 24.4726 110.391 25.6589C112.215 27.2243 112.498 30.9182 114.808 32.0836C118.513 32.4076 114.097 26.1518 114.243 25.0336C114.473 23.9155 116.019 23.8131 116.909 24.237C118.88 25.3595 118.909 29.3905 121.387 29.8386C123.038 29.7998 122.483 27.3506 121.951 26.3154C121.696 25.4707 120.762 24.5402 121.248 23.7181C122.24 22.6438 124.486 23.5769 124.871 25.1394C126.827 29.5753 129.766 27.7873 127.79 23.9212C127.577 23.3299 127.809 23.0138 128.507 22.9519C132.382 22.9808 131.634 29.9437 135.318 30.12C136.312 29.8054 136.203 28.2224 135.756 27.103C135.372 25.7937 133.697 24.1653 134.626 23.0275C137.778 22.042 137.94 28.648 140.712 28.2104C142.552 27.3066 140.515 24.77 140.724 23.5041C142.142 23.2748 143.127 28.6795 145.138 28.5781C146.408 28.6651 146.468 26.7869 145.915 25.5195C144.661 23.3432 146.207 23.3675 147.858 23.624C147.88 23.603 147.901 23.6241 147.943 23.6242C152.114 23.8648 163.361 26.4411 165.436 26.9096C165.648 26.9522 165.754 26.9735 165.754 26.9735C176.238 29.3372 186.618 32.4816 196.323 36.6798C196.45 36.8489 193.7 37.7298 193.594 37.8351L193.657 37.8141ZM205.821 33.1324L205.545 33.0685C194.314 27.6853 181.222 23.016 166.65 19.9054C166.078 19.7987 165.676 19.5657 165.654 19.2913C167.744 16.4043 172.756 13.8185 175.716 11.7141C178.972 10.0323 181.148 7.65188 183.35 7.82515C184.389 8.81915 184.246 11.3303 184.482 12.8292C184.782 14.4759 184.471 17.5776 186.229 18.2354C186.992 18.4058 187.71 17.6475 187.92 16.6349C188.36 14.7575 187.594 12.4767 187.738 10.6831C187.969 9.81827 189.814 11.0249 190.028 12.2072C190.986 15.2271 190.296 19.2144 191.805 21.9821C194.984 23.8035 194.252 17.9772 194.016 16.1829C193.929 15.2541 193.758 14.1563 194.011 13.9036C194.307 13.4399 196.426 14.7526 197.19 15.3873C198.357 17.0147 197.749 19.6093 198.345 21.5943C198.646 23.5365 200.467 24.0045 201.162 22.212C201.647 21.0523 201.368 19.4267 201.282 18.4135C201.281 17.907 201.45 17.7385 202.022 17.9718C206.004 19.1194 203.813 24.2645 205.681 26.8852C206.487 27.6888 207.439 27.3319 207.86 26.1931C208.45 24.8436 207.938 22.9854 207.999 21.6138C208.083 21.1497 208.698 21.7207 209.8 22.2716C211.708 23.3729 219.231 27.419 219.465 27.7361C219.19 27.841 207.831 32.651 205.821 33.1324Z" fill="#017EFE"/>
<path d="M224.622 54.7811C222.586 53.1309 219.01 53.9045 218.466 56.9847C216.224 68.7353 204.328 132.235 201.71 146.096C201.146 149.746 205.511 151.907 208.089 149.169C212.565 143.522 219.744 134.292 224.517 128.308C227.093 125.148 228.972 122.472 229.353 122.303C229.587 122.832 229.673 123.676 229.717 124.52C231.668 146.979 227.686 166.809 217.727 183.504C202.288 211.71 168.819 222.955 135.482 215.416C134.698 215.14 134.802 214.36 134.312 212.776C133.032 207.666 131.259 199.791 130.044 195.884C129.618 194.828 128.155 193.622 126.969 193.366C119.067 190.712 104.068 185.49 92.7736 180.255C87.8997 177.881 85.6207 181.549 86.7945 186.215C87.4193 191.556 88.5617 201.583 89.2294 207.219C89.2757 209.161 90.0855 211.779 89.6214 212.58C87.8445 213.294 63.4966 222.721 60.0698 224.065C57.4886 224.862 56.3953 228.574 58.7279 230.478L58.8764 230.626C70.7244 237.424 93.6989 250.218 104.084 255.895C104.931 256.149 106.519 256.174 107.344 255.732C109.29 254.976 122.717 247.089 127.619 242.583C129.606 240.941 131.507 238.708 133.349 238.648C137.499 238.952 141.692 239.72 145.884 239.855C175.484 241.983 206.273 235.271 227.184 211.887C251.094 184.753 258.686 149.439 252.616 110.279C252.614 109.35 253.568 110.091 255.198 110.284C256.638 110.582 258.608 110.987 260.832 111.477C270.426 113.459 281.313 116.14 285.209 116.528C286.183 116.488 287.727 115.794 288.275 114.571C289.077 113.138 288.48 111.237 287.377 110.222C284.28 107.43 227.718 57.4887 224.558 54.7599L224.622 54.7811ZM95.6331 201.85C95.4157 199.022 94.2367 191.823 94.3365 188.847L94.5271 188.869C95.7775 189.568 99.5684 190.23 99.8045 191.813C99.8711 193.354 98.7955 195.357 98.8411 196.961C98.8239 198.923 100.835 199.117 101.806 197.6C103.474 195.176 102.427 190.721 106.689 194.043C107.37 195.648 104.795 199.273 106.195 201.006C107.001 201.81 108.038 201.369 108.735 200.378C109.96 199.157 109.382 196.096 111.117 195.508C115.034 195.706 113.367 198.678 112.78 201.294C112.402 202.813 111.896 204.12 112.111 205.345C112.516 206.928 114.167 206.847 114.99 205.519C116.426 203.496 116.25 200.372 117.495 198.37C118.573 197.591 120.988 198.525 121.117 199.538C121.25 202.24 118.528 206.476 119.824 208.864C121.118 210.069 122.638 208.299 123.08 206.929C123.628 205.832 123.729 203.11 124.616 202.268C124.873 203.872 127.196 211.411 127.18 213.669C114.282 211.216 100.615 205.3 96.3565 203.625C95.6148 203.264 95.847 202.906 95.6543 201.872L95.6331 201.85ZM122.971 236.77C120.86 239.678 115.827 242.243 112.867 244.389C109.611 246.071 107.456 248.43 105.233 248.278C104.215 247.263 104.379 244.731 104.101 243.274C103.822 241.606 104.091 238.505 102.332 237.847C101.612 237.676 100.873 238.456 100.684 239.447C100.244 241.325 100.989 243.627 100.845 245.42C100.635 246.264 98.7693 245.036 98.5763 243.833C97.6387 240.834 98.3292 236.847 96.7993 234.058C93.6201 232.237 94.3729 238.084 94.6094 239.878C94.696 240.807 94.8676 241.905 94.5929 242.179C94.3397 242.6 92.22 241.288 91.4355 240.674C90.2466 239.025 90.8553 236.431 90.2161 234.446C89.9158 232.503 88.0942 232.035 87.4204 233.807C86.9147 234.988 87.1932 236.613 87.3011 237.648C87.3233 238.133 87.1332 238.323 86.5611 238.089C82.5787 236.942 84.7911 231.776 82.9016 229.134C82.0956 228.372 81.1437 228.729 80.7437 229.847C80.1537 231.196 80.6655 233.055 80.5836 234.405C80.5423 234.912 79.8848 234.34 78.804 233.768C76.8964 232.667 69.3093 228.642 69.1181 228.325C69.4354 228.178 80.7306 223.389 82.8043 222.887L83.0585 222.972C94.2896 228.355 107.382 233.024 121.933 236.114C122.547 236.263 122.928 236.474 122.992 236.707L122.971 236.77ZM245.415 108.829C246.933 116.577 247.607 124.873 247.771 132.703C248.049 155.011 242.697 177.771 230.327 195.812C228.827 197.349 227.081 191.985 224.967 193.543C223.723 196.389 229.718 198.28 226.549 201.355C224.458 203.735 222.837 197.569 220.489 198.557C218.883 200.073 222.021 202.527 222.807 204.027C223.466 205.063 222.538 206.918 221.33 206.261C220.355 205.458 218.19 202.963 217.495 204.713C216.948 206.316 219.195 207.587 219.261 209.17C219.242 210.246 217.805 211.256 217.062 210.558C216.108 209.902 214.388 207.092 212.993 208.271C211.874 209.936 214.948 211.82 214.887 213.276C214.826 214.268 213.43 215.109 212.646 214.369C211.479 213.544 210.183 210.903 208.448 211.49C207.56 211.995 208.198 213.727 208.984 214.636C209.79 215.482 210.957 216.814 209.984 217.529C207.509 218.347 206.589 213.639 204.177 214.352C203.416 214.773 203.779 216.229 204.437 217.138C205.308 218.343 207.131 219.655 205.44 220.834C204.319 221.612 203.05 222.285 202.498 221.44C201.925 220.615 201.731 219.074 200.861 218.081C199.949 216.96 198.637 217.506 198.598 218.899C198.263 220.84 200.83 223.315 198.546 224.576C197.277 225.291 196.176 225.458 195.645 224.465C195.008 223.324 193.923 220.768 192.316 221.693C191.513 222.325 191.897 223.888 192.365 224.986C192.854 225.937 193.088 226.718 192.263 227.159C189.197 228.905 189.204 221.835 186.264 223.159C184.256 224.948 189.303 228.884 185.388 229.404C182.657 229.546 182.902 225.072 180.571 224.266C178.475 223.818 179.01 226.668 179.796 228.126C181.091 230.007 180.375 231.694 178.171 230.508C176.347 228.942 176.064 225.248 173.775 224.062C170.006 223.717 174.486 229.994 174.34 231.112C174.11 232.23 172.543 232.354 171.611 231.93C169.661 230.828 169.61 226.776 167.175 226.328C165.503 226.388 166.058 228.837 166.589 229.872C166.866 230.696 167.8 231.626 167.314 232.449C166.279 233.565 164.054 232.611 163.691 231.027C161.735 226.591 158.796 228.379 160.73 232.245C160.964 232.816 160.732 233.174 160.054 233.215C156.18 233.186 156.907 226.244 153.202 226.047C152.229 226.382 152.338 227.965 152.806 229.064C153.147 230.415 154.865 232.001 153.873 233.118C150.763 234.146 150.622 227.476 147.828 227.935C145.988 228.839 148.026 231.375 147.817 232.641C146.399 232.871 145.372 227.466 143.382 227.546C142.133 227.48 142.073 229.359 142.626 230.626C143.837 232.844 142.313 232.799 140.661 232.542C140.64 232.564 140.619 232.542 140.576 232.542C136.426 232.281 125.18 229.704 123.104 229.236C122.871 229.214 122.765 229.193 122.765 229.193C112.281 226.829 101.88 223.664 92.2392 219.445C92.0695 219.275 94.8622 218.395 94.9467 218.31L95.137 218.205C97.1675 217.281 97.5444 215.213 97.0952 212.954C97.0514 212.237 96.8383 211.561 97.0288 211.54C101.351 213.111 105.652 214.871 110.334 216.379C113.151 217.418 116.329 218.269 119.591 219.162L119.676 219.247L137.764 223.631C138.484 223.674 139.479 223.908 140.347 224.016C141.66 224.187 142.888 224.316 144.053 224.424L144.582 224.489C208.724 232.616 245.994 175.372 236.369 116.155C235.919 113.769 236.32 113.032 238.242 110.735C239.551 109.176 240.627 107.469 241.325 107.069C242.743 106.713 245.009 107.33 245.415 108.913L245.415 108.829ZM272.445 106.625C272.445 106.625 272.17 106.688 272.043 106.688C270.772 106.348 269.48 106.113 268.146 105.836C265.35 105.239 262.554 104.643 259.716 104.004C256.942 103.428 254.167 102.853 251.456 102.172C248.787 101.492 246.119 100.98 243.429 100.573C242.159 100.402 240.909 100.252 239.639 100.165C239.109 100.142 238.58 100.12 238.094 100.267C237.522 100.456 237.057 100.835 236.635 101.256C236.191 101.741 235.811 102.288 235.431 102.794C235.009 103.384 234.587 103.932 234.186 104.501C233.362 105.618 232.581 106.735 231.758 107.852C230.132 110.107 228.443 112.34 226.5 114.32C225.507 115.31 224.683 116.385 223.817 117.502C222.952 118.618 222.086 119.735 221.22 120.852C219.51 123.064 217.736 125.256 215.962 127.489C215.097 128.606 214.252 129.702 213.344 130.776C212.922 131.366 212.478 131.893 212.077 132.504C211.929 132.694 211.824 132.926 211.634 133.115C211.401 133.347 211.295 133.157 211.358 132.925C211.694 131.659 211.925 130.415 212.134 129.149C212.259 128.431 212.406 127.735 212.532 127.018C212.636 126.364 212.698 125.71 212.888 125.098C213.056 124.423 213.584 124.023 214.091 123.602C214.641 123.223 215.148 122.802 215.613 122.381C216.332 121.75 217.219 120.992 217.387 120.021C217.575 118.903 216.241 118.879 215.501 119.194C215.247 119.278 214.993 119.447 214.782 119.615C214.613 119.741 214.359 120.036 214.127 120.015C213.809 119.993 213.871 119.465 213.934 119.276C214.081 118.242 214.629 117.23 215.368 116.493C216.108 115.755 217.059 115.103 217.862 114.345C218.327 113.924 218.771 113.482 219.172 112.955C219.467 112.576 219.932 111.943 219.656 111.415C219.507 111.056 219.02 110.992 218.702 111.012C218.088 111.032 217.496 111.284 217.01 111.642C216.481 112 216.08 112.484 215.636 112.969C215.552 113.053 215.404 113.243 215.298 113.264C215.087 113.263 215.15 113.031 215.171 112.883C215.297 112.377 215.422 111.829 215.506 111.322C215.568 110.71 215.673 110.056 215.883 109.466C216.347 108.158 217.446 107.359 218.503 106.559C219.433 105.885 220.405 105.128 220.975 104.095C221.186 103.8 221.333 103.399 221.248 103.019C221.098 102.575 220.654 102.385 220.23 102.384C219.15 102.403 218.157 103.266 217.481 104.024C217.355 104.193 217.27 104.404 217.144 104.572C216.911 104.804 216.869 104.593 216.953 104.382C217.142 103.813 217.247 103.243 217.288 102.652C217.371 102.061 217.391 101.407 217.623 100.838C217.855 100.268 218.277 99.805 218.721 99.4049C219.165 99.0048 219.651 98.647 220.095 98.2047C220.581 97.7625 221.088 97.257 221.553 96.7937C222.165 96.1829 223.412 94.9824 222.775 94.0104C222.456 93.5243 221.821 93.523 221.377 93.7121C220.848 93.9854 220.468 94.4489 220.067 94.8491L219.348 95.5652C219.2 95.7126 219.053 95.9445 218.883 96.0285C218.587 96.1124 218.714 95.8171 218.756 95.6484C218.84 95.3953 218.861 95.1632 218.839 94.8888C218.795 94.34 218.604 93.7698 218.73 93.2214C218.813 92.6306 219.236 92.1672 219.701 91.7882C220.208 91.3671 220.779 91.0095 221.286 90.5885C221.772 90.1885 222.258 89.704 222.723 89.2407C223.188 88.7773 223.695 88.2719 224.138 87.7873C224.497 87.3871 224.835 86.8813 224.834 86.3325C224.854 85.8472 224.536 85.4034 224.049 85.3391C223.498 85.2535 223.033 85.548 222.652 85.885C222.209 86.3272 221.807 86.7696 221.364 87.2119C221.195 87.3382 221.026 87.5067 220.857 87.7174C220.73 87.8438 220.498 88.1177 220.286 88.075C220.243 87.9483 220.349 87.843 220.412 87.7376C220.475 87.59 220.496 87.4423 220.517 87.2946C220.537 86.9359 220.388 86.5346 220.367 86.1336C220.259 85.4791 220.449 84.9097 220.892 84.4252C221.505 83.8144 222.245 83.3305 222.9 82.762C223.492 82.2145 224.105 81.6459 224.717 81.0351C225.224 80.4874 225.795 79.8766 226.005 79.1594C226.194 78.59 225.918 77.9352 225.303 77.8284C224.668 77.7005 224.182 78.1427 223.759 78.5218C223.168 79.0693 222.64 79.6381 222.09 80.2279C221.943 80.3753 221.288 81.0282 221.35 80.4163C221.349 80.2053 221.455 80.0155 221.497 79.8046C221.623 79.4249 221.665 79.0452 221.727 78.6443C221.874 77.8637 221.978 77.0409 222.167 76.3026C222.398 75.48 223.012 75.0802 223.624 74.5961C224.28 74.1542 224.893 73.6279 225.463 73.0592C225.991 72.5749 226.541 72.0695 226.857 71.4159C227.068 70.8676 227.003 70.171 226.452 69.8744C225.752 69.5142 225.076 70.1038 224.632 70.5461C224.337 70.841 223.999 71.1357 223.682 71.4517C223.534 71.5991 223.428 71.7466 223.28 71.894C223.196 71.9783 223.111 72.0625 223.048 72.0413C222.815 71.9775 223.131 71.2817 223.152 71.134C223.257 70.691 223.34 70.2691 223.382 69.8049C223.528 68.8977 223.675 68.0327 223.842 67.1045C223.947 66.6615 224.052 66.2185 224.136 65.7544C224.303 64.7417 224.238 63.8763 225.256 64.807C225.786 65.2934 226.274 65.7376 226.825 66.203C227.865 67.1548 228.946 68.0645 229.985 69.0163C230.41 69.397 230.834 69.8199 231.321 70.0953C231.491 70.2223 232.169 70.6035 231.767 70.8348C231.619 70.9401 231.387 70.9185 231.217 70.8759C230.963 70.8754 230.709 70.9171 230.519 70.98C230.011 71.1057 229.397 71.3365 229.187 71.8426C228.955 72.3698 229.21 72.919 229.655 73.1521C230.164 73.4485 230.799 73.4498 231.349 73.4087C231.921 73.3888 232.471 73.3055 233.042 73.2011C233.529 73.0965 234.143 72.9501 234.609 73.1198C234.884 73.1837 235.096 73.3952 235.287 73.5855C235.499 73.8392 235.712 74.0084 235.924 74.1777C236.051 74.3046 236.432 74.4742 236.475 74.6853C236.497 74.9597 236.179 74.8958 236.01 74.8954C235.502 74.8944 234.994 75.1044 234.783 75.6105C234.594 76.0111 234.743 76.4968 235.103 76.7719C235.909 77.4066 237.2 77.0083 238.11 76.9046C239.147 76.8011 239.72 77.4987 240.441 78.1755C240.674 78.4081 242.095 79.3607 242.053 79.6983C241.969 80.078 239.873 79.9683 239.472 80.495C238.923 81.2537 239.75 81.994 240.449 82.1432C241.148 82.3345 241.91 82.1672 242.651 82.1054C243.095 82.043 243.561 81.9595 244.026 81.9182C245.021 81.8569 245.616 82.7445 246.252 83.3367C246.422 83.5059 246.655 83.6963 246.846 83.8444C247.482 84.2678 247.101 84.3936 246.551 84.4347C246.064 84.4549 245.62 84.6861 245.367 85.1077C245.114 85.6137 245.369 86.1629 245.814 86.396C246.725 86.9254 247.952 86.5902 248.926 86.4655C249.18 86.4239 249.476 86.4244 249.752 86.4883C250.027 86.5944 250.239 86.8058 250.43 86.9962C250.876 87.4403 251.363 87.8423 251.851 88.202C252.042 88.3923 252.466 88.6042 252.509 88.8998C252.551 89.1109 252.403 89.1739 252.255 89.2369C251.98 89.3419 251.79 89.447 251.621 89.6999C251.389 90.1427 251.687 90.6498 252.026 90.9459C252.471 91.3478 253.065 91.6022 253.636 91.7511C254.293 91.9002 254.886 91.9436 255.521 92.0293C256.135 92.0938 256.644 92.3903 257.132 92.8345C257.598 93.2997 258.086 93.7861 258.616 94.2304C258.871 94.4419 259.146 94.5902 259.422 94.8229C259.507 94.9075 259.783 95.098 259.762 95.2457C259.593 95.6252 257.983 95.0311 257.75 94.9673C256.712 94.6908 255.399 94.3083 254.405 94.8761C253.919 95.1495 253.814 95.6347 254.09 96.1206C254.408 96.6067 254.959 96.9032 255.489 97.1365C256.633 97.6031 257.882 97.5845 259.11 97.6292C260.317 97.6105 261.63 97.6132 262.753 98.143C263.304 98.3974 263.77 98.7782 264.258 99.1802C264.661 99.5398 265.085 99.8361 265.467 100.217C265.551 100.301 265.721 100.428 265.742 100.534C265.764 100.766 265.51 100.766 265.362 100.702C265.108 100.701 264.917 100.595 264.684 100.532C264.324 100.425 263.964 100.361 263.625 100.276C262.629 100.042 261.507 99.6389 260.534 100.017C260.153 100.143 259.772 100.395 259.773 100.817C259.795 101.176 260.05 101.472 260.283 101.705C261.047 102.508 262.148 102.721 263.186 102.829C264.456 102.916 265.768 102.792 267.081 102.921C267.653 102.986 268.225 103.135 268.712 103.368C269.327 103.643 269.857 104.13 270.366 104.553C270.832 105.018 271.32 105.505 271.85 105.864C271.978 105.991 272.423 106.224 272.402 106.414L272.445 106.625Z" fill="#017EFE"/>
</svg>
