<svg width="104" height="24" viewBox="0 0 104 24" fill="none" xmlns="http://www.w3.org/2000/svg">
<path d="M13.608 5.488C13.704 6.08 13.6 6.424 13.296 6.52C12.928 6.616 12.576 6.368 12.24 5.776C11.792 4.992 11.288 4.416 10.728 4.048C10.184 3.68 9.512 3.496 8.712 3.496H7.608C6.6 3.496 5.936 3.584 5.616 3.76C5.312 3.92 5.16 4.208 5.16 4.624V8.608C5.16 9.104 5.296 9.424 5.568 9.568C5.856 9.712 6.344 9.784 7.032 9.784H8.328C8.68 9.784 8.96 9.688 9.168 9.496C9.392 9.304 9.536 9.096 9.6 8.872C9.68 8.632 9.784 8.416 9.912 8.224C10.056 8.032 10.224 7.936 10.416 7.936C10.624 7.936 10.768 8.032 10.848 8.224C10.944 8.416 10.992 8.76 10.992 9.256V11.776C10.992 12.56 10.8 12.952 10.416 12.952C10.224 12.952 10.056 12.856 9.912 12.664C9.784 12.456 9.68 12.24 9.6 12.016C9.536 11.776 9.392 11.56 9.168 11.368C8.96 11.16 8.68 11.056 8.328 11.056H7.032C6.344 11.056 5.856 11.128 5.568 11.272C5.296 11.4 5.16 11.72 5.16 12.232V15.256C5.16 15.896 5.232 16.408 5.376 16.792C5.536 17.176 5.704 17.416 5.88 17.512C6.072 17.608 6.24 17.728 6.384 17.872C6.544 18.016 6.624 18.2 6.624 18.424C6.624 18.632 6.528 18.784 6.336 18.88C6.144 18.96 5.816 19 5.352 19H2.136C1.288 19 0.864 18.808 0.864 18.424C0.864 18.2 0.944 18.016 1.104 17.872C1.264 17.728 1.432 17.608 1.608 17.512C1.8 17.416 1.976 17.176 2.136 16.792C2.296 16.408 2.376 15.896 2.376 15.256V5.872C2.376 5.344 2.32 4.912 2.208 4.576C2.112 4.224 1.992 3.984 1.848 3.856C1.704 3.712 1.552 3.6 1.392 3.52C1.248 3.44 1.12 3.344 1.008 3.232C0.912 3.12 0.864 2.968 0.864 2.776C0.864 2.552 0.96 2.4 1.152 2.32C1.344 2.24 1.672 2.2 2.136 2.2L11.064 2.176C11.72 2.176 12.168 2.232 12.408 2.344C12.664 2.456 12.84 2.664 12.936 2.968C13.272 3.768 13.496 4.608 13.608 5.488ZM15.9313 5.68C15.5313 5.664 15.2113 5.536 14.9713 5.296C14.7313 5.04 14.6273 4.728 14.6593 4.36C14.6753 3.848 14.9233 3.376 15.4033 2.944C15.8993 2.496 16.4193 2.296 16.9633 2.344C17.3313 2.36 17.6433 2.504 17.8993 2.776C18.1553 3.032 18.2753 3.344 18.2593 3.712C18.2433 4.208 17.9873 4.672 17.4913 5.104C16.9953 5.52 16.4753 5.712 15.9313 5.68ZM15.4273 15.76L15.4033 11.176C15.4033 10.76 15.3393 10.416 15.2113 10.144C15.0993 9.856 14.9713 9.672 14.8273 9.592C14.6833 9.496 14.5473 9.392 14.4193 9.28C14.3073 9.152 14.2513 9.008 14.2513 8.848C14.2513 8.72 14.2993 8.608 14.3953 8.512C14.4913 8.416 14.6833 8.304 14.9713 8.176C15.4513 7.936 15.9633 7.728 16.5073 7.552C17.0673 7.36 17.4433 7.256 17.6353 7.24C17.9873 7.24 18.1633 7.448 18.1633 7.864L18.1393 11.176V15.76C18.1393 16.272 18.1953 16.688 18.3073 17.008C18.4353 17.312 18.5633 17.512 18.6913 17.608C18.8353 17.704 18.9633 17.824 19.0753 17.968C19.2033 18.112 19.2673 18.28 19.2673 18.472C19.2673 18.824 18.9393 19 18.2833 19H15.2833C14.5953 19 14.2513 18.816 14.2513 18.448C14.2513 18.256 14.3073 18.096 14.4193 17.968C14.5473 17.824 14.6833 17.704 14.8273 17.608C14.9873 17.512 15.1233 17.312 15.2353 17.008C15.3633 16.688 15.4273 16.272 15.4273 15.76ZM33.2586 12.232L34.0506 16.384C34.1306 16.8 34.2746 17.128 34.4826 17.368C34.6906 17.608 34.8746 17.8 35.0346 17.944C35.2106 18.088 35.2986 18.264 35.2986 18.472C35.2986 18.824 34.9706 19 34.3146 19H31.3626C30.6746 19 30.3306 18.816 30.3306 18.448C30.3306 18.288 30.3946 18.144 30.5226 18.016C30.6506 17.872 30.7866 17.752 30.9306 17.656C31.0746 17.56 31.1866 17.392 31.2666 17.152C31.3626 16.912 31.3786 16.616 31.3146 16.264L30.5946 12.376C30.4986 11.864 30.4026 11.44 30.3066 11.104C30.2106 10.768 30.0666 10.424 29.8746 10.072C29.6826 9.704 29.4266 9.44 29.1066 9.28C28.7866 9.104 28.4026 9.016 27.9546 9.016C27.1866 9.032 26.5226 9.376 25.9626 10.048C25.4186 10.704 25.1466 11.624 25.1466 12.808V15.76C25.1466 16.272 25.2026 16.688 25.3146 17.008C25.4426 17.312 25.5706 17.512 25.6986 17.608C25.8426 17.704 25.9706 17.824 26.0826 17.968C26.2106 18.112 26.2746 18.28 26.2746 18.472C26.2746 18.824 25.9466 19 25.2906 19H22.2666C21.5946 19 21.2586 18.816 21.2586 18.448C21.2586 18.256 21.3146 18.096 21.4266 17.968C21.5546 17.824 21.6906 17.704 21.8346 17.608C21.9946 17.512 22.1306 17.312 22.2426 17.008C22.3706 16.688 22.4346 16.272 22.4346 15.76V11.056C22.4346 10.288 22.1866 9.744 21.6906 9.424C21.4026 9.216 21.2586 9.008 21.2586 8.8C21.2586 8.64 21.3066 8.512 21.4026 8.416C21.4986 8.304 21.6906 8.184 21.9786 8.056C23.0506 7.576 23.8426 7.32 24.3546 7.288C24.6906 7.288 24.8586 7.496 24.8586 7.912L24.8346 9.664C25.2826 8.88 25.8666 8.28 26.5866 7.864C27.3066 7.448 28.0906 7.24 28.9386 7.24C30.1866 7.24 31.1386 7.632 31.7946 8.416C32.4506 9.2 32.9386 10.472 33.2586 12.232ZM46.506 15.616C46.73 15.392 46.93 15.344 47.106 15.472C47.298 15.6 47.338 15.824 47.226 16.144C46.938 16.896 46.298 17.6 45.306 18.256C44.33 18.912 43.138 19.24 41.73 19.24C40.05 19.24 38.682 18.712 37.626 17.656C36.586 16.6 36.066 15.256 36.066 13.624C36.066 11.816 36.658 10.304 37.842 9.088C39.026 7.856 40.482 7.24 42.21 7.24C43.538 7.24 44.626 7.584 45.474 8.272C46.322 8.96 46.85 9.84 47.058 10.912C47.138 11.376 46.954 11.696 46.506 11.872C44.746 12.608 42.274 13.536 39.09 14.656C39.362 15.376 39.818 15.992 40.458 16.504C41.114 17.016 41.914 17.272 42.858 17.272C44.218 17.272 45.434 16.72 46.506 15.616ZM41.322 8.584C40.474 8.632 39.81 8.992 39.33 9.664C38.866 10.32 38.634 11.088 38.634 11.968C38.634 12.608 38.69 13.104 38.802 13.456C40.882 12.768 42.49 12.192 43.626 11.728C44.058 11.568 44.226 11.272 44.13 10.84C43.986 10.136 43.642 9.568 43.098 9.136C42.554 8.704 41.962 8.52 41.322 8.584ZM54.1206 7.864C54.7286 7.448 55.3526 7.24 55.9926 7.24C56.6326 7.24 57.1206 7.416 57.4566 7.768C57.8086 8.12 57.9846 8.568 57.9846 9.112C57.9846 9.496 57.8806 9.824 57.6726 10.096C57.4806 10.368 57.2326 10.504 56.9286 10.504C56.5606 10.504 56.2006 10.32 55.8486 9.952C55.4966 9.568 55.1286 9.376 54.7446 9.376C54.2486 9.376 53.8166 9.672 53.4486 10.264C53.0806 10.856 52.8966 11.616 52.8966 12.544V15.76C52.8966 16.272 52.9526 16.688 53.0646 17.008C53.1926 17.312 53.3206 17.512 53.4486 17.608C53.5926 17.704 53.7206 17.824 53.8326 17.968C53.9606 18.112 54.0246 18.28 54.0246 18.472C54.0246 18.824 53.6966 19 53.0406 19H50.0166C49.3446 19 49.0086 18.816 49.0086 18.448C49.0086 18.256 49.0646 18.096 49.1766 17.968C49.3046 17.824 49.4406 17.704 49.5846 17.608C49.7446 17.512 49.8806 17.312 49.9926 17.008C50.1206 16.688 50.1846 16.272 50.1846 15.76V11.056C50.1846 10.288 49.9366 9.744 49.4406 9.424C49.1526 9.216 49.0086 9.008 49.0086 8.8C49.0086 8.64 49.0566 8.512 49.1526 8.416C49.2486 8.304 49.4406 8.184 49.7286 8.056C50.8006 7.576 51.5926 7.32 52.1046 7.288C52.4406 7.288 52.6086 7.496 52.6086 7.912L52.5846 9.568C53.0006 8.848 53.5126 8.28 54.1206 7.864ZM76.1843 14.368C76.5043 14.448 76.6483 14.768 76.6163 15.328C76.5523 16.48 76.4243 17.4 76.2323 18.088C76.1363 18.424 75.9603 18.664 75.7043 18.808C75.4643 18.936 74.9843 19 74.2643 19H65.7923C65.3283 19 65.0003 18.96 64.8083 18.88C64.6163 18.8 64.5203 18.648 64.5203 18.424C64.5203 18.232 64.5683 18.08 64.6643 17.968C64.7763 17.856 64.9043 17.76 65.0483 17.68C65.2083 17.6 65.3603 17.496 65.5043 17.368C65.6483 17.224 65.7683 16.984 65.8643 16.648C65.9763 16.296 66.0323 15.856 66.0323 15.328V5.944C66.0323 5.304 65.9523 4.792 65.7923 4.408C65.6483 4.024 65.4803 3.784 65.2883 3.688C65.1123 3.592 64.9443 3.472 64.7843 3.328C64.6403 3.184 64.5683 3 64.5683 2.776C64.5683 2.568 64.6643 2.424 64.8563 2.344C65.0483 2.248 65.3763 2.2 65.8403 2.2H69.0563C69.9043 2.2 70.3283 2.392 70.3283 2.776C70.3283 3 70.2483 3.184 70.0883 3.328C69.9283 3.472 69.7523 3.592 69.5603 3.688C69.3843 3.784 69.2163 4.024 69.0563 4.408C68.8963 4.792 68.8163 5.304 68.8163 5.944V16.552C68.8163 16.984 68.9443 17.288 69.2003 17.464C69.4723 17.624 70.0083 17.704 70.8083 17.704L72.1043 17.68C72.7123 17.68 73.2003 17.584 73.5683 17.392C73.9523 17.184 74.2403 16.936 74.4323 16.648C74.6403 16.36 74.8803 15.912 75.1523 15.304C75.4723 14.6 75.8163 14.288 76.1843 14.368ZM89.0828 7.864L89.0588 11.176V15.64C89.0588 16.04 89.1308 16.368 89.2748 16.624C89.4188 16.864 89.5788 17.016 89.7548 17.08C89.9468 17.128 90.1148 17.2 90.2588 17.296C90.4028 17.392 90.4748 17.512 90.4748 17.656C90.4748 17.912 90.2428 18.176 89.7787 18.448C88.7868 18.976 87.9708 19.24 87.3308 19.24C86.7708 19.24 86.4668 18.792 86.4188 17.896L86.3948 17.104C85.9148 17.776 85.3068 18.304 84.5708 18.688C83.8508 19.056 83.1468 19.24 82.4588 19.24C81.1948 19.24 80.2028 18.832 79.4828 18.016C78.7788 17.2 78.4268 16.008 78.4268 14.44L78.4028 11.176C78.4028 10.744 78.3388 10.392 78.2108 10.12C78.0988 9.848 77.9708 9.672 77.8268 9.592C77.6828 9.496 77.5468 9.392 77.4188 9.28C77.3068 9.152 77.2508 9.008 77.2508 8.848C77.2508 8.704 77.2988 8.584 77.3948 8.488C77.4908 8.392 77.6828 8.28 77.9708 8.152C79.2028 7.576 80.0908 7.272 80.6348 7.24C80.8108 7.224 80.9388 7.272 81.0188 7.384C81.1148 7.48 81.1628 7.64 81.1628 7.864L81.1388 11.176V14.224C81.1388 15.28 81.3148 16.096 81.6668 16.672C82.0188 17.232 82.5868 17.504 83.3708 17.488C84.1228 17.472 84.8028 17.128 85.4108 16.456C86.0348 15.784 86.3468 14.928 86.3468 13.888V11.176C86.3468 10.744 86.2828 10.392 86.1548 10.12C86.0428 9.848 85.9068 9.672 85.7468 9.592C85.6028 9.496 85.4668 9.392 85.3388 9.28C85.2268 9.152 85.1708 9.008 85.1708 8.848C85.1708 8.704 85.2188 8.584 85.3148 8.488C85.4108 8.392 85.6028 8.28 85.8908 8.152C87.1228 7.576 88.0108 7.272 88.5547 7.24C88.7308 7.224 88.8588 7.272 88.9388 7.384C89.0348 7.48 89.0828 7.64 89.0828 7.864ZM100.666 10.264L98.6979 12.808L101.146 16.168C101.482 16.632 101.842 17.008 102.226 17.296C102.61 17.584 102.89 17.8 103.066 17.944C103.258 18.088 103.354 18.264 103.354 18.472C103.354 18.824 103.018 19 102.346 19H98.6259C97.9379 19 97.5939 18.816 97.5939 18.448C97.5939 18.304 97.6579 18.16 97.7859 18.016C97.9139 17.872 98.0339 17.752 98.1459 17.656C98.2579 17.56 98.2979 17.384 98.2659 17.128C98.2339 16.872 98.0739 16.552 97.7859 16.168L96.4659 14.368L95.0259 16.216C94.7379 16.584 94.5699 16.896 94.5219 17.152C94.4739 17.392 94.4979 17.568 94.5939 17.68C94.7059 17.776 94.8259 17.896 94.9539 18.04C95.0819 18.168 95.1459 18.312 95.1459 18.472C95.1459 18.824 94.8099 19 94.1379 19H92.2899C91.6019 19 91.2579 18.816 91.2579 18.448C91.2579 18.24 91.3459 18.072 91.5219 17.944C91.6979 17.816 91.9779 17.608 92.3619 17.32C92.7619 17.032 93.1379 16.664 93.4899 16.216L95.7459 13.384L93.5139 10.312C93.1779 9.848 92.8179 9.472 92.4339 9.184C92.0499 8.896 91.7619 8.68 91.5699 8.536C91.3939 8.392 91.3059 8.216 91.3059 8.008C91.3059 7.656 91.6419 7.48 92.3139 7.48H96.0579C96.7299 7.48 97.0659 7.656 97.0659 8.008C97.0659 8.136 97.0179 8.256 96.9219 8.368C96.8259 8.48 96.7299 8.584 96.6339 8.68C96.5539 8.76 96.4819 8.864 96.4179 8.992C96.3539 9.12 96.3539 9.296 96.4179 9.52C96.4979 9.728 96.6499 9.992 96.8739 10.312L97.9539 11.776L99.1299 10.264C99.4339 9.88 99.6099 9.568 99.6579 9.328C99.7059 9.088 99.6739 8.92 99.5619 8.824C99.4659 8.712 99.3539 8.592 99.2259 8.464C99.0979 8.32 99.0339 8.168 99.0339 8.008C99.0339 7.656 99.3619 7.48 100.018 7.48H101.89C102.562 7.48 102.898 7.656 102.898 8.008C102.898 8.232 102.81 8.408 102.634 8.536C102.458 8.664 102.17 8.872 101.77 9.16C101.386 9.448 101.018 9.816 100.666 10.264Z" fill="black"/>
</svg>
