<svg width="274" height="272" viewBox="0 0 274 272" fill="none" xmlns="http://www.w3.org/2000/svg">
<g clip-path="url(#clip0_310_964)">
<path d="M124.455 127.563C129.802 119.714 123.13 110.69 115.783 110.015C107.761 109.34 101.464 118.514 104.863 125.488C107.711 132.263 118.682 135.362 124.48 127.538L124.455 127.563ZM123.955 123.664C120.831 133.638 108.061 130.163 106.437 122.914C104.563 107.215 126.404 110.965 123.955 123.664Z" fill="#017EFE"/>
<path d="M115.533 132.538C115.058 132.538 114.584 132.513 114.084 132.438C109.786 131.913 106.037 129.263 104.513 125.638C102.888 122.289 103.313 118.214 105.662 114.764C108.061 111.29 111.96 109.315 115.808 109.64C119.857 109.99 123.83 112.865 125.679 116.789C127.403 120.464 127.079 124.363 124.78 127.763C122.505 130.838 119.207 132.538 115.558 132.538H115.533ZM114.934 110.365C111.56 110.365 108.361 112.14 106.262 115.214C104.063 118.439 103.638 122.239 105.163 125.363C106.587 128.763 110.111 131.263 114.159 131.738C118.082 132.213 121.731 130.613 124.155 127.363C126.329 124.188 126.629 120.539 125.004 117.139C123.255 113.465 119.532 110.74 115.758 110.415C115.483 110.415 115.233 110.39 114.959 110.39L114.934 110.365ZM116.008 130.213C115.883 130.213 115.733 130.213 115.608 130.213C111.06 130.038 106.987 126.938 106.112 123.014C105.587 118.539 106.887 115.139 109.786 113.415C112.834 111.59 117.258 111.915 120.556 114.214C123.705 116.414 125.104 119.889 124.355 123.739V123.789C123.08 127.838 119.981 130.238 116.033 130.238L116.008 130.213ZM114.284 112.965C112.784 112.965 111.36 113.315 110.136 114.04C107.487 115.614 106.312 118.764 106.812 122.889C107.612 126.388 111.485 129.313 115.633 129.488C119.507 129.613 122.381 127.488 123.605 123.589C124.28 120.039 123.005 116.839 120.106 114.814C118.357 113.59 116.283 112.965 114.284 112.965Z" fill="#017EFE"/>
<path d="M128.628 104.215C128.628 104.215 128.728 104.015 128.778 103.915L128.553 104.14C125.079 101.291 120.906 99.3908 116.558 99.0159C100.889 97.716 88.6443 115.564 95.2416 129.188C100.789 142.362 122.181 148.461 133.476 133.187C140.723 122.564 136.625 110.79 128.653 104.19L128.628 104.215ZM132.776 121.539C132.726 122.189 132.501 122.838 132.301 123.463C132.077 124.113 131.802 124.738 131.577 125.388C131.477 125.663 131.377 125.938 131.352 126.213C131.302 126.388 131.302 126.663 131.527 126.613C131.752 126.563 131.977 126.263 132.077 126.063C132.177 125.938 132.251 125.788 132.351 125.663C132.376 125.613 132.401 125.538 132.401 125.463C132.426 125.413 132.451 125.263 132.526 125.263C132.626 125.238 132.526 125.563 132.501 125.613C132.476 125.763 132.451 125.938 132.376 126.113C132.251 126.438 132.102 126.788 132.002 127.113C131.702 127.813 131.402 128.538 131.052 129.213C130.352 130.563 129.453 131.838 128.403 132.962C127.403 134.012 126.229 134.937 125.004 135.637C122.755 136.912 120.331 137.562 117.932 137.687C115.333 137.837 112.834 137.387 110.535 136.637C108.036 135.787 105.712 134.487 103.738 132.787C102.764 131.963 101.889 131.038 101.114 130.013C100.34 129.013 99.6648 127.913 99.165 126.713C98.1904 124.438 98.0155 121.789 98.1654 119.139C98.2654 117.789 98.4653 116.389 98.8151 115.014C99.19 113.639 99.7398 112.265 100.489 111.015C101.239 109.765 102.264 108.565 103.363 107.59C103.963 107.115 104.538 106.715 105.163 106.315C105.462 106.14 105.762 105.965 106.037 105.79C106.137 105.69 106.262 105.615 106.362 105.74C106.462 105.84 106.462 106.015 106.462 106.115V106.59C106.462 106.74 106.462 106.915 106.512 107.04C106.562 107.165 106.662 107.24 106.787 107.215C106.937 107.215 107.062 107.09 107.112 106.94C107.162 106.79 107.212 106.615 107.262 106.465C107.287 106.29 107.312 106.115 107.387 105.965C107.412 105.79 107.437 105.64 107.487 105.49C107.512 105.315 107.537 105.165 107.687 105.09C107.811 104.99 107.961 104.94 108.086 104.915C108.261 104.89 108.411 104.865 108.561 104.815C108.736 104.79 108.886 104.715 109.036 104.69C109.186 104.64 109.336 104.565 109.436 104.54C109.761 104.54 109.636 105.015 109.661 105.24C109.661 105.415 109.761 105.79 109.986 105.74C110.136 105.69 110.185 105.565 110.26 105.44C110.36 105.29 110.41 105.115 110.435 104.94C110.485 104.64 110.535 104.29 110.835 104.165C110.985 104.115 111.135 104.115 111.285 104.115C111.46 104.115 111.635 104.09 111.81 104.09C112.035 104.065 112.41 104.04 112.485 104.265C112.609 104.54 112.535 104.865 112.535 105.115C112.56 105.34 112.56 105.615 112.709 105.74C112.809 105.84 112.884 105.84 112.984 105.79C113.134 105.74 113.209 105.59 113.259 105.465C113.309 105.34 113.309 105.19 113.359 105.09C113.384 104.94 113.459 104.79 113.484 104.615C113.484 104.465 113.484 104.315 113.584 104.215C113.709 104.065 113.859 104.015 113.984 104.015C114.334 103.99 114.634 104.065 114.959 104.115C115.183 104.14 115.608 104.065 115.733 104.29C115.858 104.49 115.733 104.79 115.733 105.065C115.708 105.29 115.733 105.59 116.008 105.665C116.308 105.715 116.408 105.265 116.458 105.04C116.508 104.865 116.508 104.69 116.583 104.54C116.608 104.39 116.708 104.34 116.808 104.365C116.958 104.365 117.083 104.415 117.183 104.465C117.358 104.515 117.508 104.515 117.682 104.565C117.857 104.59 118.007 104.665 118.182 104.69C118.332 104.69 118.482 104.715 118.632 104.79C118.857 104.915 118.782 105.29 118.757 105.565C118.707 105.89 118.657 106.24 118.657 106.565C118.657 106.79 118.682 107.215 119.007 107.19C119.307 107.14 119.382 106.64 119.457 106.415C119.507 106.24 119.557 106.09 119.582 105.94C119.582 105.765 119.582 105.565 119.632 105.39C119.657 105.265 119.757 105.165 119.907 105.165C120.031 105.165 120.181 105.265 120.281 105.315C120.606 105.415 120.906 105.515 121.206 105.64C121.506 105.79 121.806 105.865 122.131 105.99C122.231 106.015 122.356 106.09 122.43 106.165C122.53 106.29 122.43 106.465 122.406 106.615C122.306 106.965 122.181 107.34 122.056 107.715C121.956 108.015 121.856 108.315 121.756 108.59C121.731 108.765 121.631 109.19 121.906 109.14C122.106 109.115 122.281 108.865 122.406 108.74C122.63 108.44 122.78 108.09 122.955 107.765C123.055 107.59 123.13 107.44 123.18 107.265C123.23 107.115 123.28 106.94 123.38 106.815C123.53 106.615 123.755 106.815 123.88 106.915C124.155 107.115 124.38 107.29 124.68 107.465C124.954 107.64 125.204 107.79 125.504 107.94C125.604 107.99 125.704 108.065 125.729 108.215C125.754 108.34 125.704 108.49 125.629 108.59C125.504 108.94 125.429 109.265 125.304 109.59C125.254 109.765 125.154 109.94 125.129 110.115C125.079 110.24 125.029 110.39 125.029 110.515C125.029 110.615 125.054 110.69 125.154 110.715C125.254 110.74 125.329 110.69 125.379 110.665C125.579 110.515 125.729 110.315 125.854 110.115C126.054 109.79 126.204 109.465 126.379 109.14C126.404 109.015 126.504 108.915 126.579 108.915C126.754 108.915 126.879 109.09 126.954 109.19C127.229 109.39 127.453 109.59 127.678 109.815C127.878 109.99 128.178 110.19 128.153 110.49C128.153 110.64 128.103 110.765 128.053 110.89C128.003 111.09 127.928 111.265 127.853 111.49C127.753 111.84 127.653 112.19 127.528 112.589C127.403 112.939 127.328 113.264 127.179 113.614C127.129 113.839 127.004 114.114 126.954 114.339C126.954 114.439 126.954 114.539 127.004 114.614C127.054 114.714 127.204 114.664 127.328 114.589C127.628 114.414 127.803 114.064 127.953 113.764C128.153 113.439 128.328 113.089 128.503 112.739C128.653 112.415 128.828 112.09 128.953 111.74C129.003 111.64 129.078 111.465 129.178 111.515C129.278 111.54 129.328 111.665 129.378 111.715C129.553 111.99 129.728 112.265 129.902 112.565C130.002 112.689 130.102 112.789 130.202 112.939C130.252 113.039 130.327 113.139 130.327 113.289C130.302 113.464 130.227 113.614 130.177 113.764C130.077 113.939 130.027 114.114 129.977 114.289C129.703 114.989 129.478 115.739 129.253 116.439C129.103 116.789 128.978 117.139 128.878 117.489C128.828 117.614 128.778 117.764 128.728 117.889C128.703 118.014 128.678 118.114 128.678 118.214C128.678 118.314 128.678 118.389 128.778 118.439C128.878 118.489 128.978 118.439 129.078 118.339C129.353 118.164 129.528 117.839 129.678 117.564C129.877 117.239 130.027 116.889 130.202 116.539C130.377 116.214 130.552 115.864 130.702 115.539C130.852 115.264 130.902 115.014 131.052 114.764C131.102 114.714 131.177 114.614 131.227 114.639C131.277 114.689 131.327 114.764 131.327 114.814C131.377 114.914 131.427 115.014 131.477 115.114C131.602 115.414 131.702 115.714 131.827 115.989C131.927 116.264 132.052 116.514 132.127 116.814C132.202 117.114 132.102 117.414 131.977 117.739C131.852 118.064 131.702 118.389 131.627 118.739C131.352 119.439 131.127 120.189 130.852 120.889C130.802 121.064 130.702 121.214 130.677 121.389C130.652 121.514 130.627 121.689 130.677 121.764C130.777 121.964 131.027 121.814 131.152 121.714C131.327 121.514 131.477 121.264 131.602 121.064C131.777 120.739 131.952 120.389 132.127 120.039C132.226 119.889 132.276 119.714 132.351 119.539C132.376 119.489 132.401 119.389 132.476 119.339C132.501 119.289 132.526 119.164 132.601 119.139C132.701 119.039 132.701 119.189 132.701 119.264C132.726 119.389 132.726 119.489 132.726 119.614C132.776 120.289 132.901 120.964 132.826 121.639L132.776 121.539Z" fill="#017EFE" stroke="#017EFE" stroke-width="0.25" stroke-miterlimit="10"/>
<path d="M184.555 75.5931C182.131 73.5683 179.057 70.9685 175.584 68.0438C173.635 66.394 171.56 64.6192 169.411 62.8193C160.115 55.3951 146.196 42.3214 138.724 37.7469L138.574 37.6969C137.149 37.4969 136.3 38.8467 135.3 39.9716C124.43 53.7453 96.3661 87.6419 75.9744 113.414C62.1051 129.538 45.9617 149.036 39.6143 157.485C38.9396 160.935 41.8884 161.884 45.0871 164.984C48.8605 168.159 54.3583 172.808 60.2309 177.733C69.5271 185.157 83.4714 198.231 90.9184 202.805H91.0683C92.5177 203.08 93.3923 201.705 94.3669 200.631C105.238 186.807 151.669 131.088 172.11 105.29C175.359 101.515 177.733 98.7407 179.507 96.641C185.38 89.6917 185.18 89.5667 190.053 83.1173C190.753 79.6927 187.779 78.7178 184.605 75.6181L184.555 75.5931ZM155.842 114.564C154.867 115.714 153.818 117.139 153.093 118.514C137.1 138.062 116.083 163.934 100.14 183.357C99.6648 183.082 99.19 182.807 98.6902 182.557C92.7176 179.858 85.4956 180.308 79.8229 184.407C79.6729 184.457 79.523 184.582 79.3481 184.707C79.1482 184.882 78.9732 185.082 78.7233 185.257C73.2756 180.658 66.0535 174.583 59.956 169.459C60.1809 169.009 60.4558 168.609 60.6307 168.184C63.3046 162.134 62.7549 154.96 58.6315 149.261C58.5316 149.136 58.4316 148.961 58.3067 148.811C57.7069 148.036 57.0322 147.311 56.3325 146.661C66.7532 134.237 84.396 113.339 92.1429 104.09C93.0675 102.94 94.117 101.515 94.8417 100.166C110.135 81.4425 117.682 71.6435 128.853 57.8698C129.303 58.0698 129.728 58.3448 130.202 58.4948C136.375 60.7446 143.547 59.6697 148.895 55.1701C149.02 55.0701 149.17 54.9451 149.295 54.8201C149.444 54.6952 149.569 54.5202 149.694 54.4202C156.017 59.7447 165.213 67.4689 172.185 73.2933C169.611 79.3677 170.336 86.542 174.609 92.1164C168.437 99.4907 163.514 105.29 155.767 114.539L155.842 114.564Z" fill="#017EFE" stroke="#017EFE" stroke-width="0.25" stroke-miterlimit="10"/>
<path d="M257.175 159.885C255.976 157.71 254.826 155.535 253.677 153.335C251.403 149.011 249.154 144.686 246.905 140.412C244.056 134.937 241.257 129.463 238.433 123.963C239.083 123.338 239.633 122.639 239.883 121.814C240.482 119.939 238.933 118.164 237.858 116.739C236.334 114.864 234.86 112.914 233.41 110.965C230.486 107.165 227.613 103.365 224.764 99.5158C220.116 93.3664 215.518 87.1421 210.894 80.9927C211.519 80.2678 212.119 79.5428 212.719 78.7929C213.743 77.493 215.218 75.9932 215.318 74.2684C215.468 72.2436 213.543 70.8187 212.169 69.6938C210.22 68.169 208.345 66.5691 206.446 64.9693C202.698 61.8446 198.999 58.6949 195.276 55.5452C180.157 42.7215 165.213 29.6728 149.694 17.2991C147.845 15.8242 145.996 14.3494 144.097 12.8745C143.572 12.4995 142.597 11.2747 141.848 11.2747C141.098 11.2747 140.548 12.2746 140.148 12.7495C136.9 16.3991 133.526 19.9488 130.352 23.6484C123.905 31.1227 117.657 38.7719 111.41 46.4211C98.8901 61.7446 104.813 55.1953 92.3678 70.5437C83.4464 81.5676 74.55 92.6165 65.6287 103.665C62.6799 106.99 60.1559 110.415 59.7061 110.965C56.5574 114.739 53.3837 118.514 50.185 122.239C43.8876 129.738 37.6151 137.262 31.2427 144.736C28.044 148.486 24.8203 152.236 21.6466 156.06C20.0973 157.935 18.4979 159.835 16.9735 161.735C15.924 163.009 14.4746 164.534 14.3496 166.259C14.2247 168.284 16.1239 169.684 17.5233 170.784C19.4725 172.334 21.3218 173.933 23.246 175.533L23.8457 176.033C27.3693 179.008 30.9179 181.983 34.4164 184.957C39.2145 189.032 44.0125 193.156 48.8105 197.231C56.3075 207.28 63.8794 217.279 71.5763 227.178C71.4763 227.178 71.3763 227.203 71.2514 227.203C71.0265 227.153 70.7766 227.028 70.5267 226.753C70.2268 226.428 70.0519 225.978 70.0019 225.578L47.9859 197.206C48.3607 197.906 48.7606 198.656 49.1104 199.356C58.2567 216.954 67.203 234.652 76.8741 252.001C78.0236 254.05 79.1981 256.125 80.3977 258.175C80.7225 258.725 81.1723 260.2 81.8471 260.5C82.5468 260.8 83.4464 260.05 83.9962 259.775C88.3444 257.625 92.8426 255.65 97.1908 253.4C105.987 248.901 114.684 244.201 123.33 239.477C140.648 230.028 158.016 220.554 175.334 211.055C187.779 204.23 200.199 197.331 212.619 190.482C215.967 188.832 219.091 187.007 220.366 186.257C220.266 186.282 220.191 186.307 220.091 186.382C224.914 183.807 229.787 181.233 234.635 178.733C239.058 176.483 243.431 174.233 247.804 171.909C249.978 170.734 252.153 169.609 254.302 168.434C255.751 167.609 257.65 166.784 258.425 165.184C259.3 163.359 258.075 161.36 257.225 159.785L257.175 159.885ZM207.596 84.9673L202.248 91.4166C202.423 91.7666 202.798 92.0166 203.297 91.8916C204.497 91.5416 205.222 89.8668 205.597 88.8169C205.971 87.867 206.621 86.5421 207.746 87.467C208.42 88.017 209.02 89.1419 209.17 90.0418C209.37 91.3666 208.245 92.4665 207.571 93.4914C207.071 94.2164 206.121 95.5412 206.771 96.4661C207.496 97.516 208.72 96.4661 209.22 95.7662C209.67 95.0663 209.945 94.2913 210.27 93.5164C210.47 93.1165 210.719 92.5165 211.244 92.4665C212.069 92.3665 212.769 93.9414 213.019 94.5913C213.493 95.8662 212.869 96.8411 212.219 97.891C211.819 98.6159 209.97 101.416 211.744 101.716C213.293 101.941 213.768 99.8408 214.343 98.8659C215.143 97.391 216.192 98.3159 216.792 99.3908C218.066 101.591 215.867 103.165 215.018 105.015C214.693 105.715 214.293 106.84 215.168 107.34C216.217 107.965 217.092 106.515 217.492 105.715C217.942 104.84 218.316 103.09 219.516 103.04C221.165 102.94 221.315 105.315 221.065 106.44C220.765 107.74 220.066 108.865 219.516 110.04C219.216 110.715 218.591 112.64 219.991 112.565C220.64 112.54 221.465 111.74 221.815 111.215C222.315 110.59 222.465 109.165 223.239 108.79C224.164 108.415 225.114 110.24 225.388 110.915C225.988 112.415 224.914 113.614 224.114 114.864C223.664 115.514 222.49 117.564 223.889 117.939C225.214 118.289 226.063 116.139 226.463 115.314C226.813 114.489 227.738 113.364 228.387 114.689C228.887 115.714 228.012 116.989 227.438 117.814C226.788 118.789 226.013 119.689 225.488 120.764C225.164 121.414 224.439 123.438 225.763 123.538C226.563 123.563 227.388 122.589 227.762 121.989C228.412 120.989 228.712 119.114 229.687 118.314C230.911 117.339 231.311 119.639 231.111 120.364C230.786 121.964 229.287 123.213 228.137 124.188C225.264 126.538 195.676 148.236 192.177 151.286C177.358 164.109 161.615 175.533 146.171 187.582C130.802 199.606 115.483 211.58 100.115 223.578C98.2654 225.003 96.4411 226.428 94.5669 227.853C93.7172 228.528 92.8676 229.203 92.0429 229.853C91.2432 230.453 90.4186 231.503 89.4689 231.828C89.344 231.428 90.0937 230.778 90.1937 230.403C90.3436 230.028 90.3686 229.603 90.0687 229.253C89.5939 228.703 88.8692 229.153 88.3944 229.528C87.6947 230.028 87.0949 230.728 86.5451 231.403C86.0953 231.878 85.6955 232.603 85.1707 232.952C84.2961 233.577 83.2965 232.827 82.8466 232.078C82.047 230.803 82.4968 229.303 83.2215 228.128C83.4964 227.678 83.9212 227.203 84.346 226.703C84.7459 227.028 85.1707 227.378 85.5705 227.678C86.0953 228.078 87.0699 229.303 87.8196 229.303C88.5693 229.303 89.0941 228.303 89.5189 227.803C92.7676 224.153 96.1412 220.654 99.3149 216.929C101.414 214.479 103.438 212.03 105.487 209.605C126.604 193.056 170.386 159.41 191.702 142.212C195.626 139.337 198.474 137.162 200.649 135.562C203.897 133.112 205.622 131.763 207.121 130.488C208.92 129.013 210.395 127.688 213.693 124.863C213.793 124.663 213.818 124.488 213.868 124.263C214.318 122.813 213.868 121.664 213.019 120.439C212.219 119.314 211.169 118.114 210.095 116.464C209.445 115.589 208.67 114.589 207.896 113.514C206.446 111.665 204.872 109.565 203.148 107.29C201.623 105.265 199.999 103.115 198.325 100.916C197.7 100.116 197.05 99.2909 196.4 98.4159L192.427 103.215C194.676 106.165 196.85 109.015 198.799 111.615C195.051 116.889 194.176 123.938 197.025 130.213C193.252 133.062 186.929 137.937 181.381 142.212C175.834 146.486 171.111 150.186 170.636 150.786C156.567 161.785 139.324 175.283 123.53 187.632C129.827 179.908 136.125 172.159 142.447 164.384C144.571 163.534 146.671 162.335 148.595 160.61C152.293 157.11 154.342 153.11 154.992 148.986C155.217 148.711 155.442 148.436 155.667 148.161C164.588 137.137 173.485 126.088 182.406 115.039C185.28 111.79 187.729 108.465 188.304 107.79C191.652 103.815 195.026 99.8158 198.399 95.8412C201.473 92.2416 204.547 88.6169 207.596 84.9923V84.9673ZM70.7516 216.004C70.7016 215.854 70.6266 215.729 70.6017 215.629C71.1264 216.079 71.6512 216.504 72.226 216.954C71.7012 217.054 71.1764 216.729 70.7516 216.004ZM71.2514 205.105C70.8515 206.555 69.702 206.805 68.6524 205.705C67.6279 204.605 67.8778 203.555 68.5525 202.381C69.1023 201.431 70.0519 200.181 69.5771 199.031C69.3522 198.431 68.8774 198.206 68.2526 198.481C67.378 198.831 67.1281 199.931 66.8032 200.731C66.4284 201.681 65.7036 202.905 64.5291 202.331C63.4796 201.806 63.1047 200.631 63.3296 199.531C63.5295 198.481 64.1043 197.531 64.5541 196.581C65.0289 195.706 65.9036 194.406 65.5287 193.331C65.1539 192.232 64.1793 192.632 63.5545 193.206C62.5799 194.206 62.6049 195.456 62.1801 196.681C61.0056 199.856 57.7569 196.656 57.557 194.581C57.382 193.081 58.1817 191.832 58.6565 190.457C58.8315 189.857 58.9814 189.257 58.8065 188.657C58.6315 187.982 58.0318 187.482 57.3321 187.857C56.2325 188.457 55.9076 190.282 55.7327 191.382C55.5828 192.382 55.2579 193.856 53.9085 193.181C53.1088 192.806 52.2591 191.807 51.9343 190.982C51.4345 189.682 52.2841 188.357 52.7339 187.207C53.0838 186.332 53.7085 184.857 52.8589 184.057C51.8843 183.182 50.9347 184.507 50.6098 185.332C50.2849 186.132 50.21 186.982 50.0101 187.807C49.9101 188.257 49.8351 188.932 49.3103 189.082C48.4857 189.357 47.4611 187.957 47.1112 187.382C46.3366 186.232 46.7364 185.107 47.1112 183.907C47.3861 183.107 48.5606 179.908 46.7614 180.008C45.162 180.133 45.137 182.333 44.8122 183.432C44.3374 185.057 43.1379 184.407 42.2382 183.457C40.4889 181.533 42.2882 179.508 42.763 177.458C42.9379 176.683 43.0629 175.508 42.0883 175.208C40.8888 174.833 40.389 176.433 40.1391 177.333C39.8642 178.308 39.9142 180.133 38.7147 180.458C37.0903 180.908 36.4156 178.608 36.3906 177.433C36.3906 176.083 36.8404 174.833 37.1153 173.508C37.2653 172.809 37.4402 170.734 36.1157 171.084C35.441 171.284 34.8163 172.259 34.5664 172.858C34.2415 173.583 34.4164 175.058 33.7167 175.558C33.042 176.058 32.0424 175.083 31.4426 174.383C31.3427 174.258 31.2677 174.158 31.1677 174.033C31.1428 174.033 31.1428 174.008 31.1178 173.983C30.1931 172.609 30.9928 171.184 31.4926 169.759C31.7675 168.984 32.4672 166.734 31.0428 166.659C29.6184 166.584 29.2435 168.934 29.0686 169.834C29.0186 170.159 28.8687 170.534 28.6938 170.834C28.6438 170.734 28.5688 170.684 28.5188 170.609L27.8191 171.284C27.6692 171.184 27.4942 171.109 27.3193 170.884C26.5946 169.959 27.1694 168.534 27.5192 167.584C27.9691 166.459 28.5188 165.384 28.8187 164.184C28.9936 163.484 29.2685 161.26 27.9441 161.535C27.1444 161.685 26.5696 162.834 26.3197 163.509C25.9199 164.659 25.9949 166.609 25.2202 167.609C24.2206 168.834 23.3459 166.659 23.3459 165.859C23.3459 164.234 24.5205 162.66 25.4701 161.41C27.7941 158.41 30.3681 155.61 32.8671 152.71C34.0916 152.086 35.1161 150.736 35.9658 149.836C46.8114 138.512 55.7577 125.588 65.8036 113.564C68.1776 110.715 70.7766 108.015 73.1006 105.115C75.3997 102.191 77.5488 99.1409 79.8979 96.2162C102.689 68.119 107.237 62.0196 130.177 34.0224C131.677 32.1726 133.176 30.3477 134.676 28.5229C135.35 27.673 136.05 26.8231 136.775 25.9482C137.399 25.1733 137.999 23.9484 138.874 23.4234C139.049 23.7984 138.474 24.5983 138.424 25.0233C138.374 25.3982 138.449 25.8482 138.799 26.0732C139.424 26.5481 139.998 25.9482 140.398 25.4732C140.998 24.7983 141.423 23.9734 141.848 23.1735C142.172 22.6235 142.397 21.7986 142.872 21.2987C143.597 20.4987 144.746 20.9987 145.371 21.6736C146.396 22.7235 146.321 24.3234 145.871 25.6482C145.421 26.9231 144.122 28.4979 144.447 29.8978C144.571 30.3977 144.846 30.7477 145.396 30.6977C146.371 30.5977 147.02 29.3978 147.345 28.6479C147.645 27.873 147.945 25.1983 148.995 25.1483C149.969 25.1233 151.044 26.8231 151.094 27.673C151.194 28.7229 150.494 29.7978 149.994 30.6977C149.519 31.5226 148.695 32.8475 149.395 33.7974C150.094 34.7223 151.044 33.7974 151.519 33.1225C151.993 32.4475 152.293 31.6476 152.543 30.8727C152.693 30.4727 152.818 29.6478 153.318 29.4978C153.968 29.2729 154.817 30.1978 155.267 30.5477C155.767 30.9227 156.317 31.2727 156.592 31.8726C157.291 33.3225 156.117 34.7973 155.567 36.0222C155.217 36.7221 154.392 38.8969 155.917 38.8719C157.516 38.8719 158.016 36.5471 158.366 35.4222C158.766 33.9974 159.89 33.7474 160.965 34.8723C161.964 35.9722 161.689 37.0221 161.015 38.197C160.49 39.1469 159.54 40.3717 160.015 41.5466C160.215 42.1466 160.715 42.3715 161.315 42.0966C162.239 41.7466 162.464 40.6467 162.789 39.8468C163.139 38.8969 163.839 37.672 165.038 38.247C166.138 38.7719 166.488 39.9218 166.263 41.0467C166.063 42.0966 165.488 43.0465 164.988 43.9964C164.513 44.8713 163.664 46.1712 164.039 47.2461C164.388 48.346 165.388 47.946 166.013 47.3461C166.987 46.3711 166.937 45.1463 167.387 43.8964C168.537 40.6967 171.785 43.8964 172.01 45.9462C172.16 47.471 171.361 48.7209 170.911 50.0958C170.736 50.6457 170.561 51.2707 170.736 51.8706C170.936 52.5705 171.535 53.0705 172.21 52.6955C173.335 52.0956 173.66 50.2708 173.835 49.1709C173.984 48.171 174.309 46.6961 175.634 47.3461C176.458 47.746 177.283 48.7209 177.608 49.5958C178.108 50.8707 177.258 52.1956 176.808 53.3704C176.483 54.2454 175.859 55.7202 176.683 56.4951C177.683 57.42 178.608 56.0952 178.957 55.2703C179.282 54.4703 179.357 53.6204 179.557 52.7955C179.657 52.3455 179.732 51.6706 180.232 51.5206C181.082 51.2457 182.106 52.6455 182.481 53.1955C183.206 54.3703 182.856 55.4702 182.456 56.6951C182.181 57.495 181.007 60.6697 182.831 60.5947C184.43 60.4697 184.43 58.27 184.755 57.1451C185.255 55.5452 186.454 56.1952 187.329 57.1451C189.078 59.0699 187.279 61.0947 186.829 63.1445C186.654 63.9194 186.529 65.0943 187.504 65.3942C188.703 65.7692 189.203 64.1694 189.453 63.2695C189.728 62.2946 189.678 60.4697 190.878 60.1448C192.502 59.6948 193.177 61.9946 193.177 63.1445C193.177 64.4943 192.727 65.7692 192.477 67.0941C192.327 67.794 192.152 69.8688 193.476 69.4688C194.126 69.2938 194.776 68.319 195.026 67.719C195.326 66.9441 195.176 65.5192 195.851 65.0193C196.675 64.3943 198.025 65.9942 198.449 66.6191C199.399 67.969 198.599 69.4188 198.1 70.7937C197.825 71.5686 197.1 73.8684 198.549 73.9184C199.974 73.9684 200.324 71.6436 200.524 70.7437C200.699 69.8188 201.348 68.5439 202.298 69.7188C203.023 70.6437 202.423 72.0686 202.073 73.0185C201.673 74.1434 201.073 75.2183 200.774 76.3681C200.599 77.0931 200.374 79.2928 201.648 79.0429C202.473 78.8929 203.073 77.743 203.297 77.0681C203.697 75.9182 203.597 73.9684 204.397 72.9685C205.372 71.7436 206.271 73.9184 206.271 74.7183C206.271 76.3431 205.072 77.918 204.122 79.1679C201.798 82.1676 149.669 145.061 137.1 160.51C124.555 175.858 112.01 191.232 99.4649 206.555C97.9655 208.405 96.4661 210.23 94.9667 212.055C94.267 212.904 93.5923 213.754 92.8676 214.629C92.2178 215.404 91.6431 216.629 90.7684 217.129C90.5685 216.779 91.1433 215.979 91.2182 215.579C91.2432 215.204 91.1932 214.754 90.8434 214.479C90.2186 214.029 89.6439 214.629 89.2191 215.104C88.6693 215.779 88.2195 216.604 87.7946 217.404C87.4698 217.954 87.1949 218.779 86.7701 219.254C85.9954 220.079 84.8458 219.579 84.2461 218.904C83.2215 217.804 83.3215 216.254 83.7713 214.929C84.1711 213.654 85.5206 212.08 85.1957 210.68C85.0707 210.18 84.7459 209.83 84.2211 209.88C83.2715 209.93 82.5968 211.18 82.2969 211.93C81.972 212.704 81.6971 215.379 80.6476 215.404C79.648 215.454 78.5984 213.754 78.5234 212.904C78.4734 211.805 79.1482 210.78 79.623 209.88C80.0978 209.03 80.9474 207.73 80.2227 206.78C79.523 205.855 78.5734 206.78 78.1236 207.455C77.6238 208.13 77.3239 208.93 77.074 209.705C76.9491 210.105 76.7991 210.905 76.2993 211.08C75.6746 211.28 74.7999 210.38 74.3501 210.03C73.8753 209.655 73.3255 209.255 73.0506 208.705C72.3509 207.255 73.5005 205.78 74.0752 204.555C74.4001 203.855 75.2498 201.681 73.7004 201.706C72.151 201.706 71.6012 204.03 71.2764 205.13L71.2514 205.105ZM82.3219 225.103C81.8471 225.928 81.0474 228.103 80.0728 227.903C79.1232 227.728 78.4734 225.878 78.5984 225.053C78.7233 224.328 79.2231 223.678 79.7229 223.078C79.7729 223.128 79.8729 223.203 79.9228 223.253C80.7225 223.878 81.5222 224.478 82.2969 225.103H82.3219ZM77.9237 221.604C77.9237 221.604 77.9237 221.654 77.8987 221.654C77.6738 222.029 77.3739 222.754 76.8741 222.803C76.2244 222.903 75.5996 221.779 75.2248 221.379C74.8499 220.879 74.4251 220.404 74.2752 219.779C74.1752 219.404 74.2502 219.004 74.3251 218.654C75.5246 219.629 76.7491 220.629 77.9237 221.579V221.604ZM75.2248 232.428C74.3751 233.102 73.4505 232.827 72.9507 231.578C72.6508 230.803 72.7508 230.203 73.0506 229.653C73.1006 229.553 73.1756 229.503 73.2256 229.428C73.9503 230.353 74.675 231.278 75.3997 232.228C75.3497 232.278 75.2747 232.378 75.2248 232.428ZM77.9736 239.427C77.2989 239.377 76.8491 238.202 76.5992 237.727C76.2743 237.202 75.9245 236.627 75.8745 235.977C75.8245 235.277 76.0994 234.677 76.5742 234.177C76.6242 234.127 76.7242 234.052 76.7741 234.002C77.099 234.402 77.4239 234.852 77.7737 235.277C78.4235 236.127 79.1232 236.952 79.7979 237.802C79.6979 237.852 79.648 237.952 79.573 238.027C79.448 238.152 79.2981 238.302 79.1981 238.402C78.9233 238.752 78.4984 239.427 77.9986 239.402L77.9736 239.427ZM80.3477 245.076C79.423 244.751 79.1232 242.751 79.3731 241.952C79.648 241.127 80.3727 240.502 81.0474 239.952L81.3473 239.727C81.6471 240.052 81.897 240.402 82.1719 240.727C82.4718 241.077 82.8966 241.852 83.3714 242.327L83.1965 242.502C83.1965 242.502 83.1465 242.527 83.0965 242.602C82.4968 243.326 81.2973 245.451 80.3227 245.101L80.3477 245.076ZM249.804 162.31C249.179 163.809 247.479 164.834 246.155 165.609C242.881 167.534 209.62 184.332 205.572 186.782C188.603 197.206 170.861 206.055 153.368 215.554C135.975 225.078 118.557 234.527 101.164 243.976C99.065 245.101 96.9409 246.251 94.8917 247.326C93.9171 247.876 92.9675 248.426 91.9679 248.926C91.1183 249.426 90.0937 250.351 89.0941 250.476C89.0691 250.076 89.9188 249.526 90.0937 249.176C90.2936 248.826 90.3936 248.376 90.1437 248.051C89.7688 247.376 88.9692 247.701 88.4444 248.001C87.6447 248.376 86.945 249.001 86.2703 249.551C85.7455 249.951 85.2207 250.601 84.5959 250.901C83.6213 251.376 82.7467 250.451 82.4218 249.601C81.8221 248.226 82.5718 246.801 83.4464 245.701C84.3211 244.726 86.1453 243.751 86.3702 242.352C86.3952 242.227 86.3952 242.077 86.3952 241.977C86.3702 241.777 86.2703 241.627 86.1703 241.477C89.1191 239.377 92.1179 237.352 95.0667 235.252L93.9171 236.127C94.142 236.527 94.4169 236.902 94.6418 237.252L94.7918 237.352C96.0663 238.077 97.3657 237.177 98.6902 236.527C113.984 227.878 178.058 193.806 206.696 177.633C211.094 175.358 214.343 173.683 216.792 172.384C218.416 171.559 219.666 170.884 220.74 170.284C221.465 169.909 222.115 169.559 222.715 169.234C224.689 168.109 226.013 167.284 228.162 165.959C229.137 165.409 230.261 164.734 231.661 163.859C233.61 160.935 231.261 158.935 229.487 154.835C229.112 154.135 228.712 153.36 228.312 152.586C228.312 152.586 228.312 152.561 228.287 152.561C227.063 150.211 225.613 147.436 224.014 144.461C222.889 142.312 221.715 140.062 220.515 137.737L215.542 141.637C216.717 143.886 217.892 146.061 218.966 148.061C215.468 151.586 213.418 156.435 213.418 161.46C213.418 163.109 213.618 164.784 214.068 166.434C209.795 168.684 205.996 170.684 201.923 172.809C197.825 174.933 193.477 177.233 188.154 180.058C186.854 180.758 185.33 181.683 184.155 182.708C163.064 194.131 135.675 209.13 114.059 220.854C116.333 219.079 118.557 217.354 120.831 215.579C130.852 207.78 140.823 199.906 150.844 192.082C153.993 191.782 157.216 190.782 160.39 188.882C164.813 185.957 167.512 182.108 168.837 177.958C179.082 169.884 189.303 161.785 199.524 153.71C203.098 151.136 206.246 148.436 206.821 147.986L207.296 147.611L207.346 147.586C211.244 144.636 215.118 141.662 219.041 138.787C222.889 135.862 226.813 132.962 230.661 130.013C231.386 129.463 232.111 128.888 232.835 128.338C232.71 129.638 231.511 130.513 230.711 131.413C230.062 132.113 228.912 133.237 229.412 134.262C229.962 135.437 231.361 134.587 231.986 133.937C232.586 133.312 232.985 132.588 233.46 131.888C233.735 131.513 234.06 130.938 234.585 130.963C235.434 131.063 235.884 132.738 236.009 133.387C236.284 134.737 235.509 135.637 234.685 136.587C234.16 137.237 231.836 139.737 233.56 140.337C235.06 140.837 235.909 138.787 236.659 137.887C237.683 136.587 238.583 137.662 239.008 138.862C239.883 141.287 237.459 142.512 236.234 144.186C235.834 144.861 235.259 145.936 236.034 146.536C237.009 147.361 238.083 146.036 238.658 145.311C239.258 144.536 239.933 142.811 241.132 142.961C242.781 143.161 242.556 145.561 242.132 146.636C241.632 147.911 240.757 148.911 239.983 149.986C239.583 150.611 238.633 152.436 239.983 152.611C240.682 152.661 241.632 151.986 242.107 151.586C242.656 150.961 243.081 149.586 243.931 149.386C244.906 149.111 245.58 151.136 245.705 151.836C246.055 153.46 244.781 154.485 243.781 155.61C243.231 156.21 241.732 158.06 243.006 158.635C244.306 159.185 245.505 157.21 246.03 156.435C246.505 155.66 247.629 154.685 248.054 156.135C248.379 157.26 247.28 158.41 246.58 159.135C245.78 159.985 244.831 160.785 244.106 161.735C243.706 162.36 242.606 164.309 243.931 164.559C244.731 164.709 245.705 163.884 246.205 163.359C247.005 162.41 247.629 160.585 248.779 159.96C250.128 159.16 250.153 161.51 249.829 162.285L249.804 162.31Z" fill="#017EFE" stroke="#017EFE" stroke-width="0.25" stroke-miterlimit="10"/>
</g>
<defs>
<clipPath id="clip0_310_964">
<rect width="245" height="250" fill="white" transform="translate(13.9998 10.9998)"/>
</clipPath>
</defs>
</svg>
