<svg width="247" height="307" viewBox="0 0 247 307" fill="none" xmlns="http://www.w3.org/2000/svg">
<g clip-path="url(#clip0_241_2733)">
<path d="M48.5953 86.3381C32.8751 143.845 86.4577 197.518 143.693 182.03C296.498 118.541 113.598 -66.3207 48.5953 86.3381ZM189.146 132.803C185.338 142.275 179.368 150.809 171.827 157.667C164.44 164.422 155.655 169.577 146.197 172.785C136.768 175.986 126.625 177.311 116.686 176.453C114.045 176.22 111.015 176.121 108.562 175.23C109.685 174.776 111.011 174.633 112.2 174.314C112.936 174.116 114.589 173.49 114.088 172.409C113.632 171.498 112.216 171.422 111.357 171.5C110.058 171.636 108.771 172.043 107.511 172.32C105.288 172.856 102.531 173.779 100.276 173.29C98.1216 172.835 95.5774 171.603 93.6468 170.51C93.3597 170.344 92.6418 169.929 92.5999 169.545C92.8865 169.255 93.4395 169.168 93.7509 169.084C94.1831 168.998 94.6436 168.905 95.055 168.856C95.9912 168.726 96.9046 168.511 97.7615 168.311C98.59 168.119 101.289 167.547 100.604 166.12C100.339 165.583 99.6382 165.345 99.0963 165.248C98.2693 165.105 97.4615 165.261 96.6613 165.445C93.7719 166.1 90.4873 167.772 87.4244 166.983C85.4398 166.482 83.7746 164.68 82.1968 163.432C81.9663 163.251 81.3203 162.877 81.3218 162.542C81.2591 162.194 82.1877 162.036 82.4273 161.911C83.6859 161.512 84.9259 161.27 86.2094 161.078C87.4286 160.872 88.7404 160.672 89.9273 160.232C90.316 160.097 90.7669 159.854 90.9741 159.495C91.285 158.955 91.0843 158.432 90.6025 158.105C89.6314 157.423 88.312 157.595 87.2778 157.812C85.7906 158.151 84.3545 158.566 82.8805 158.841C81.3216 159.138 79.2005 159.829 77.6183 159.585C76.2853 159.365 75.3995 157.414 74.4471 156.576C74.0144 156.206 73.5741 155.807 73.1545 155.373C72.3492 154.403 73.9647 154.091 74.5723 153.867C75.6895 153.506 76.8804 153.308 78.0506 153.146C79.0434 153.001 80.0928 152.841 81.025 152.469C81.723 152.13 82.5414 151.332 81.8817 150.567C81.2937 149.844 80.1063 149.828 79.2475 149.907C78.0621 150.012 76.9166 150.38 75.7768 150.656C74.6161 150.968 73.4535 151.158 72.2494 151.421C71.5266 151.554 70.5661 151.933 69.8973 151.475C69.0774 150.904 68.6118 149.844 67.9955 149.128C67.6042 148.686 66.9996 148.24 66.8404 147.645C66.6432 146.907 67.9701 146.764 68.4513 146.635C69.6043 146.295 70.7801 146.04 71.9918 145.806C73.1827 145.607 74.4303 145.394 75.6192 145.075C76.3269 144.885 77.2252 144.613 77.6907 143.972C78.2447 143.093 77.4869 142.415 76.673 142.208C75.5589 141.899 74.3265 142.169 73.2791 142.451C71.9694 142.772 70.688 143.086 69.3914 143.342C67.889 143.624 65.8929 144.555 64.3723 143.748C63.4826 143.257 63.1529 142.251 62.6347 141.448C62.2697 140.877 61.8971 140.278 61.5888 139.692C60.9002 138.479 60.7768 137.904 62.1619 137.411C63.0808 137.103 64.0605 137.022 65.0022 136.8C66.68 136.38 68.3446 136.024 69.9733 135.648C70.8584 135.44 71.8795 135.288 72.5811 134.735C73.3676 134.159 73.2381 133.221 72.4278 132.8C71.4456 132.304 70.2678 132.438 69.2411 132.683C67.8955 132.983 66.5367 133.348 65.1552 133.628C64.4116 133.797 63.6246 133.917 62.881 134.087C62.1657 134.248 61.4297 134.446 60.72 134.515C60.1953 134.595 59.6893 134.518 59.2359 134.184C58.5084 133.619 58.3279 132.604 57.9229 131.77C57.6732 131.29 57.4007 130.725 57.3339 130.135C57.3197 129.288 58.2503 129.25 58.8807 129.112C61.1246 128.54 63.3988 128.081 65.6502 127.537C66.3372 127.383 67.1298 127.17 67.6257 126.642C68.1423 126.078 68.03 125.318 67.3764 124.916C66.5716 124.402 65.4994 124.477 64.5708 124.635C63.344 124.813 62.1212 125.232 60.9096 125.466C59.6564 125.772 58.3937 125.929 57.1689 126.227C56.7443 126.341 56.3763 126.44 56.1549 125.953C55.7479 124.998 55.6143 123.818 55.3413 122.797C54.7573 120.613 58.1078 120.322 59.693 119.896C61.8803 119.339 64.064 118.996 66.2361 118.382C67.057 118.162 69.2498 117.512 68.4177 116.216C67.3682 114.674 64.8094 115.543 63.394 115.923C61.9787 116.303 60.5764 116.619 59.1176 116.95C58.3816 117.148 57.6248 117.381 56.8378 117.501C55.4618 117.688 54.4008 117.578 54.1763 116.058C53.9613 114.687 53.2763 113.26 53.5861 111.808C53.7776 110.936 54.3665 110.869 55.1308 110.664C57.3464 110.1 59.6206 109.641 61.8362 109.077C62.7779 108.854 63.9198 108.7 64.6912 108.067C65.3438 107.557 65.3164 106.774 64.6476 106.316C63.9202 105.751 62.9046 105.811 62.0741 105.882C60.9322 106.037 59.8641 106.354 58.8091 106.607C57.7051 106.903 56.586 107.143 55.4516 107.326C55.0477 107.404 54.6438 107.482 54.2475 107.588C54.0984 107.598 53.9079 107.679 53.8209 107.581C53.6698 107.47 53.8977 107.074 53.9164 106.917C54.1772 105.51 53.6054 104.052 53.8171 102.688C54.0172 101.054 55.9123 100.879 57.222 100.558C58.3336 100.29 59.4452 100.022 60.5719 99.8106C61.5495 99.6089 62.7349 99.5035 63.5705 98.884C63.893 98.615 64.1927 98.2609 64.1715 97.8411C64.1992 97.3777 63.7817 97.0642 63.4152 96.8282C62.7049 96.4414 61.8516 96.4273 61.0722 96.5758C59.583 96.7932 58.1979 97.2867 56.7674 97.61C55.3161 97.9692 54.2162 98.5077 54.3915 96.6672C54.5597 95.2542 54.2897 93.5636 55.1717 92.3237C55.3734 92.0568 55.6261 91.8673 55.9582 91.7478C56.4885 91.575 57.0188 91.4023 57.5414 91.2011C58.6586 90.8404 59.7909 90.5364 60.9591 90.2532C62.099 89.9775 63.254 89.7586 64.4298 89.5037C65.3432 89.2888 66.3643 89.1363 67.2171 88.6946C67.7246 88.4367 68.3999 88.0122 68.2896 87.3731C68.1491 86.6205 67.2766 86.3076 66.6139 86.212C65.5811 86.0941 64.4978 86.3545 63.5354 86.6129C62.2974 86.9757 61.1181 87.4443 59.865 87.7503C59.2989 87.9023 58.6968 88.0336 58.1003 88.0721C57.7738 88.099 57.3057 88.1639 56.9695 88.0414C56.6976 87.932 56.7142 87.654 56.7592 87.3683C56.9618 86.3108 57.0644 85.2194 57.3596 84.1674C57.6077 83.2801 58.1147 82.5664 58.975 82.153C59.5391 81.88 60.1488 81.7771 60.7998 81.6023C61.6 81.4179 62.4134 81.1691 63.2419 80.9771C64.7139 80.5818 66.2238 80.3284 67.7109 79.99C68.632 79.8035 70.6928 79.3413 70.3723 78.0291C70.0952 76.7661 68.2188 76.7835 67.2826 76.9133C65.6236 77.1763 64.099 77.8288 62.4986 78.1977C61.755 78.3669 60.3756 78.7677 60.0383 77.7335C59.7901 76.9187 60.2136 75.893 60.5639 75.1607C60.8389 74.6005 61.1987 74.0175 61.5814 73.5196C62.4164 72.4443 63.479 72.2198 64.7321 71.9138C66.0135 71.6001 67.2873 71.2581 68.6198 71.0219C69.7956 70.7671 71.0942 70.6312 72.179 70.036C72.5449 69.8161 72.9033 69.5679 72.9877 69.0893C73.0777 68.518 72.5787 68.0136 72.0914 67.7797C71.1451 67.3042 70.0259 67.5439 69.0483 67.7456C67.9008 67.9929 66.7685 68.2969 65.6797 68.65C65.4532 68.7108 64.9872 68.8967 64.8623 68.6567C64.6353 68.2617 66.2265 66.497 66.4413 66.1657C67.1555 65.0925 67.7358 64.0856 69 63.5942C70.4831 63.0136 72.2706 62.7769 73.8785 62.4363C74.5938 62.2747 75.3035 62.2057 76.0112 62.0157C76.6057 61.8561 77.3265 61.6018 77.6712 60.9621C78.3738 59.6184 76.3042 59.1405 75.3943 59.1416C74.3712 59.1731 73.3886 59.9233 72.3503 59.8981C70.7928 59.8603 72.0717 58.9698 72.6995 58.2541C73.4536 57.4437 74.049 56.4935 75.0054 55.872C76.1448 55.1405 77.5359 55.0102 78.7607 54.7117C80.2686 54.3373 81.7709 54.0555 83.2505 53.6887C83.8733 53.5215 84.496 53.3543 84.9601 53.0473C85.4524 52.7327 85.7784 52.25 85.6288 51.8039C85.4695 51.2083 84.6384 50.8235 83.8549 50.7299C83.079 50.6646 81.7905 51.4057 81.0802 51.0189C81.0534 50.6917 81.5154 50.2637 81.704 50.0611C82.773 48.9533 84.1919 48.3596 85.4218 47.5127C87.4609 46.1749 89.5379 44.9789 91.666 43.8604C96.0506 41.6497 100.613 39.8775 105.363 38.6934C146.066 26.7317 190.432 57.285 193.612 99.8081C194.454 111.011 193.304 122.142 189.137 132.653L189.146 132.803Z" fill="#017EFE"/>
<path d="M217.783 82.5274C212.609 58.4134 198.027 36.2174 172.052 22.2476C84.7134 -30.3572 -15.084 80.4547 44.2381 162.285C51.5832 191.227 40.411 189.272 50.9505 195.895C42.0263 211.423 12.2013 262.929 3.49395 278.246C2.99253 278.867 2.50072 279.638 2.08273 280.571C-2.76152 288.437 0.723362 296.59 7.10812 301.746C11.2898 305.243 16.7706 307.359 21.9049 307.044C22.7789 307.022 23.6944 306.928 24.5871 306.75C28.4223 306.115 34.5835 300.904 36.122 295.993C49.0665 273.489 74.206 229.989 83.2131 214.317C83.3643 214.429 83.5003 214.483 83.6797 214.587C96.1432 221.485 103.872 199.104 117.475 203.568C166.145 208.01 201.377 176.27 214.419 137.112C214.483 137.125 214.568 137.103 214.624 137.087L214.526 136.719C220.209 119.508 221.595 100.867 217.937 83.2157L218.121 82.3152C218.121 82.3152 217.91 82.4327 217.783 82.5274ZM25.0258 297.725C22.598 299.198 19.5549 299.164 16.9318 298.318C15.8743 297.994 14.8713 297.534 13.9382 296.994C12.2796 296.01 10.7433 294.69 9.6427 293.071C9.0679 292.283 8.64778 291.392 8.31258 290.479C7.6973 288.973 8.76999 289.353 9.64656 289.908C10.1566 290.227 10.6536 290.611 11.1844 290.894C12.0306 291.335 12.8278 291.82 13.7155 292.19C14.3236 292.422 15.4059 292.952 15.9943 292.429C16.5053 291.958 16.1287 291.117 15.8506 290.644C15.3835 289.918 14.5731 289.498 13.8629 289.111C12.8448 288.594 11.8267 288.077 10.8293 287.524C10.3703 287.282 9.90369 287.012 9.4371 286.743C8.50391 286.203 8.0166 285.969 8.7667 284.916C8.8779 284.765 9.07756 284.377 9.28329 284.352C9.60984 284.325 10.7078 285.368 10.9743 285.57C11.7356 286.034 12.5535 286.483 13.3279 286.883C14.9051 287.676 16.5521 288.389 18.1162 289.246C21.0365 290.863 24.0909 292.414 26.6721 294.578C28.1497 295.792 26.0747 297.109 25.0466 297.689L25.0258 297.725ZM73.0102 216.327C70.9662 219.916 68.9222 223.504 66.8781 227.093C61.4072 236.586 55.9362 246.08 50.4576 255.545C47.2586 261.055 44.1749 266.655 41.0042 272.157C39.3954 274.991 37.7789 277.796 36.1757 280.536C35.3391 281.946 34.5309 283.349 33.6792 284.702C32.9878 285.861 32.5668 287.463 31.4502 288.28C31.2424 288.184 31.2404 288.062 31.11 287.915C31.0078 287.76 30.8208 287.628 30.6489 287.553C27.5749 285.247 24.1823 283.452 20.852 281.55C18.6985 280.304 16.3074 279.305 14.3895 277.692C13.8849 277.28 13.2728 276.806 13.7155 276.08C14.5106 274.741 14.7421 274.132 16.155 274.877C16.9937 275.291 17.7474 275.727 18.5501 276.119C19.1734 276.408 19.912 276.787 20.6328 276.533C21.6084 276.21 20.9972 274.945 20.5397 274.369C20.0615 273.829 19.4078 273.427 18.7769 273.11C17.9949 272.681 16.9995 272.249 16.9398 271.232C16.8862 270.578 17.5165 268.736 18.3056 268.737C18.8606 268.771 19.3934 269.175 19.8317 269.452C20.8594 270.119 22.4392 271.488 23.7504 270.832C24.5051 270.477 24.3853 269.689 24.0127 269.09C23.5531 268.392 22.7635 267.936 22.0381 267.492C21.6074 267.243 21.1484 267.001 20.7045 266.817C20.425 266.679 20.0757 266.621 19.8169 266.447C19.558 266.273 19.5899 266.052 19.7916 265.785C20.7261 264.288 21.283 261.038 23.6149 261.476C24.4136 261.626 25.0465 262.064 25.7285 262.458C26.4028 262.825 27.2207 263.274 28.0058 263.033C28.7984 262.82 28.8069 262.057 28.5117 261.407C28.1598 260.772 27.6118 260.311 26.9809 259.994C26.3066 259.628 25.6418 259.412 24.9826 259.102C24.6955 258.936 24.2724 258.715 24.2021 258.339C24.103 257.515 25.0057 256.239 25.2918 255.493C25.448 255.056 25.6325 254.611 25.8245 254.195C26.8905 252.055 28.444 253.553 29.8721 254.355C30.5899 254.77 31.4361 255.211 32.297 255.254C33.0578 255.262 33.5612 254.762 33.3848 253.989C33.178 253.102 32.3353 252.447 31.5891 252.039C30.8147 251.639 28.7264 251.318 28.8684 250.034C28.9397 249.62 29.2111 249.273 29.39 248.921C29.5538 248.513 29.7458 248.096 29.8965 247.752C30.2371 246.87 30.7562 245.18 31.8829 244.969C33.272 244.718 37.1373 248.848 38.0784 246.467C38.4115 245.557 37.495 244.739 36.8469 244.244C36.0193 243.646 33.1966 243.188 33.2309 241.841C33.2607 241.499 33.4962 241.132 33.6413 240.88C33.8824 240.42 34.1235 239.96 34.4081 239.549C34.8584 238.851 35.4255 237.908 36.3354 237.907C36.798 237.935 37.2135 238.127 37.6083 238.356C38.1543 238.695 38.7361 239.056 39.3028 239.36C39.9261 239.648 40.7875 240.147 41.5159 239.921C42.4632 239.606 42.2731 238.441 41.7721 237.815C41.169 237.035 40.2586 236.58 39.3916 236.175C38.8967 235.912 38.332 235.73 37.8296 235.439C36.8964 234.899 37.8598 233.85 38.2045 233.21C38.5078 232.643 38.8525 232.003 39.1917 231.456C39.4818 230.952 39.7926 230.413 40.4422 230.573C41.4846 230.84 45.4868 234.234 46.0088 231.875C46.1271 231.296 45.6903 230.684 45.3066 230.27C44.7773 229.652 44.0671 229.265 43.372 228.935C42.9413 228.686 42.4974 228.501 42.046 228.288C41.8024 228.171 41.3095 228.03 41.3034 227.667C41.2614 227.283 41.6233 226.821 41.8174 226.526C42.2885 225.791 42.7803 225.021 43.2438 224.258C43.4096 223.97 43.6168 223.611 43.8772 223.45C44.5788 222.897 45.4311 223.701 46.0696 224.047C46.9593 224.537 47.8849 225.049 48.8367 225.431C49.5091 225.677 50.555 225.73 50.6595 224.76C50.7475 224.067 50.1747 223.4 49.6909 222.953C48.8537 222.205 47.7431 221.682 46.7478 221.25C46.4399 221.12 45.8621 221.002 45.7069 220.648C45.3151 219.75 47.8792 215.384 48.9989 215.6C49.4483 215.692 49.8866 215.97 50.3097 216.19L51.7095 217C52.4557 217.408 53.3813 217.919 54.2836 217.89C55.0368 217.87 55.4194 217.372 55.2146 216.606C55.0099 215.84 54.4826 215.344 53.829 214.942C53.1035 214.498 52.3028 214.227 51.5587 213.94C51.1866 213.797 50.7428 213.612 50.5178 213.338C49.6276 212.392 51.6601 210.235 52.1312 209.5C52.4082 209.061 52.6417 208.573 52.9111 208.105C53.0824 207.725 53.367 207.314 53.871 207.27C54.3618 207.29 54.9457 207.772 55.3557 208.057C56.0811 208.501 59.4534 210.787 59.7889 208.751C60.0062 207.295 58.3006 206.476 57.2749 205.931C56.7876 205.697 56.2644 205.442 55.9939 204.998C55.5268 204.272 55.9807 203.36 56.3744 202.677C56.6722 202.202 57.5683 200.107 58.2649 200.102C58.4782 200.106 58.7294 200.251 58.9013 200.327C59.5757 200.693 60.2369 201.123 60.8622 201.533C61.6463 202.082 62.4551 202.838 63.311 203.429C64.2027 204.04 65.9148 203.976 66.0372 205.341C66.1596 206.707 64.2525 207.857 63.5873 208.887C62.9711 209.873 62.5986 210.976 62.0184 211.983C60.9408 213.853 59.5684 215.528 58.5495 217.504C57.8621 218.905 57.1282 220.926 58.9415 221.807C59.1568 221.931 59.3777 221.963 59.6138 222.052C59.9707 222.138 60.0991 222.165 60.4084 221.96C61.0044 221.466 61.4927 220.909 61.981 220.352C63.0197 219.131 63.8865 217.834 64.7023 216.46C65.6839 214.798 66.5937 213.095 67.4959 211.363C67.9291 210.487 68.383 209.575 68.8521 208.72C69.9201 206.7 72.0619 207.675 73.5845 208.604C74.2816 209.055 75.275 209.366 75.7421 210.092C76.6915 211.6 73.7507 215.125 73.033 216.412L73.0102 216.327ZM89.3359 208.509C87.8623 207.537 85.9676 206.465 83.8369 205.304C80.4129 200.782 71.5245 198.518 66.4814 194.522C63.37 192.531 60.2267 190.76 57.5212 190.514C54.8005 188.509 53.0863 186.75 53.0695 185.326C53.2823 184.874 53.3227 183.89 53.3949 182.685C54.691 183.675 56.0024 184.721 57.34 185.638C57.8293 185.993 58.3187 186.348 58.8115 186.49C59.3044 186.631 59.8443 186.607 60.1005 186.204C60.3983 185.729 60.1783 184.907 59.7698 184.287C59.3538 183.639 58.7209 183.201 58.1521 182.776C56.6255 181.605 55.0705 180.442 53.5853 179.199C53.8292 176.367 54.4534 174.163 56.5797 176.328C79.8422 201.939 113.88 195.232 89.3849 208.465L89.3359 208.509ZM210.832 83.4211C210.942 84.0603 210.939 84.7298 210.535 85.2637C210.062 85.877 209.29 86.0539 208.723 86.5407C208.24 87.0046 207.918 87.7294 208.396 88.2698C208.841 88.9104 209.649 88.7543 210.307 88.6078C210.853 88.4918 211.47 88.4173 211.861 88.8594C212.237 89.2448 212.383 89.9047 212.492 90.4228C212.693 91.4022 213.24 92.6536 212.773 93.6301C212.492 94.283 211.728 94.4882 211.069 94.6346C210.233 94.7983 209.369 94.9696 208.68 95.4584C208.118 95.8525 207.589 96.4811 207.65 97.1638C207.685 97.9752 208.521 98.2673 209.182 98.2419C209.963 98.2144 210.577 97.8978 211.262 97.6227C211.939 97.3193 212.775 97.1556 213.312 97.8018C213.647 98.2591 213.742 98.8415 213.757 99.354C213.83 100.307 213.846 101.276 213.847 102.187C213.831 102.921 213.759 103.67 213.386 104.317C212.99 104.88 212.377 105.196 211.705 105.407C210.616 105.76 209.268 105.94 208.547 106.984C208.249 107.46 208.216 108.016 208.55 108.473C208.9 108.987 209.491 109.041 210.057 108.889C210.786 108.663 212.981 106.888 213.339 108.342C213.408 108.598 213.37 108.912 213.354 109.19C213.318 109.625 213.319 110.08 213.291 110.544C213.269 111.37 213.191 112.212 212.805 112.924C212.185 114.124 210.775 114.411 209.69 115.006C208.881 115.497 208.148 116.271 208.74 117.237C209.396 118.216 210.6 117.498 211.4 117.313C211.86 117.22 212.343 117.212 212.676 117.548C213.16 117.996 213.131 118.794 212.999 119.437C212.776 120.987 212.121 122.622 210.96 123.724C209.868 124.746 208.538 125.104 207.202 125.554C206.537 125.793 205.917 126.081 205.398 126.524C204.887 126.996 204.331 127.753 204.783 128.422C205.163 129.049 205.996 129.099 206.662 128.981C207.441 128.833 208.107 128.259 208.909 128.196C210.491 127.984 209.544 130.457 209.322 131.216C208.773 132.792 208.262 134.51 206.82 135.474C205.745 136.219 204.398 136.398 203.116 136.712C202.154 136.97 200.923 137.361 200.377 138.268C200.1 138.707 200.018 139.307 200.231 139.766C200.612 140.394 201.367 140.495 201.99 140.328C202.988 140.09 205.276 138.321 205.921 139.941C206.346 141.073 205.696 142.615 205.108 143.594C204.353 144.739 203.238 145.677 202.055 146.359C200.527 147.225 198.857 147.674 197.187 148.122C195.566 148.527 193.644 148.83 192.318 149.885C191.841 150.256 191.41 150.798 191.391 151.411C191.347 152.152 191.952 152.598 192.599 152.637C193.183 152.662 193.777 152.503 194.307 152.33C195.234 152.051 196.145 151.715 197.028 151.387C197.876 151.038 198.674 150.732 199.544 150.468C200.074 150.295 201.165 150.063 200.968 151.028C200.865 151.664 200.327 152.264 199.981 152.783C199.502 153.489 199.095 154.236 198.588 154.95C198.115 155.563 197.562 156.107 197.015 156.558C196.18 157.177 195.242 157.642 194.202 157.951C192.576 158.449 190.83 158.614 189.277 159.274C188.275 159.725 186.509 160.837 187.2 162.172C187.773 163.295 189.209 162.879 190.113 162.514C190.875 162.188 191.579 161.756 192.377 161.451C192.815 161.272 193.896 160.891 193.748 161.812C193.645 162.448 193.036 163.006 192.589 163.491C190.774 165.438 188.821 166.874 186.276 167.679C184.664 168.233 182.926 168.426 181.432 169.192C180.656 169.583 179.221 170.454 179.709 171.6C179.989 172.194 180.669 172.467 181.288 172.514C181.666 172.564 182.041 172.494 182.417 172.423C182.813 172.317 183.321 172.059 183.734 172.13C183.661 172.424 183.233 172.751 182.98 172.941C182.771 173.179 182.482 173.348 182.209 173.573C181.522 174.183 180.838 174.914 180.116 175.503C178.777 176.623 177.249 177.489 175.58 178.058C173.756 178.609 171.774 178.685 170.025 179.52C169.128 179.912 167.847 180.682 167.824 181.843C167.816 182.605 168.345 182.767 169.005 182.742C169.247 182.738 170.098 182.631 170.034 183.073C169.999 183.509 169.163 183.672 168.831 183.792C168.053 184.061 167.288 184.601 166.584 185.033C163.332 186.94 159.911 188.558 156.422 189.92C142.918 195.126 128.197 196.92 113.808 195.19C100.694 193.574 87.9163 189.132 76.661 182.214C65.2338 175.221 55.3628 165.651 48.1497 154.335C40.3011 142.003 35.8443 127.606 34.8966 113.057C33.9859 99.4404 36.273 85.7555 41.3136 73.064C46.2057 60.838 53.4564 49.377 63.0073 40.2773C73.5443 30.2138 86.9377 23.4566 101.096 20.3544C104.85 19.5289 108.595 19.0099 112.428 18.7101C113.025 18.6716 113.642 18.5971 114.238 18.5585C114.388 18.5489 114.778 18.5351 114.873 18.6618C114.983 18.8451 114.771 18.9626 114.601 19.0082C114.403 19.0614 114.19 19.0579 113.992 19.1111C113.595 19.2175 113.209 19.4733 112.95 19.7554C112.455 20.2837 112.269 21.0632 112.811 21.6167C113.578 22.4442 114.958 22.0434 115.862 21.6791C117.134 21.2161 118.411 20.6604 119.734 20.2748C121.543 19.6673 123.435 19.2508 125.371 19.0044C127.159 18.7677 128.978 18.7655 130.798 18.7633C131.168 18.7855 133.25 18.7432 132.666 19.5081C132.395 19.8545 131.77 19.9007 131.402 19.9995C130.722 20.1819 129.988 20.5005 129.528 21.0496C129.089 21.5627 128.973 22.2626 129.43 22.8389C129.952 23.4284 130.77 23.4217 131.428 23.2752C133.214 22.9175 134.832 21.9358 136.529 21.3587C138.168 20.7969 139.95 20.6528 141.661 20.9231C143.492 21.1913 145.181 21.8323 146.931 22.3654C147.76 22.6292 148.623 22.7927 149.486 22.9562C149.843 23.0427 151.146 23.1489 150.858 23.7734C150.609 24.205 149.714 24.2628 149.282 24.3484C148.559 24.4817 147.8 24.5942 147.159 24.9184C146.567 25.1991 145.984 25.6291 145.724 26.246C145.459 26.9556 145.692 27.7138 146.407 28.0079C147.123 28.3021 147.993 28.0381 148.701 27.8481C149.627 27.569 150.516 27.148 151.42 26.7838C152.98 26.152 154.601 25.7472 156.253 25.9116C157.97 26.0892 159.462 26.9044 161.037 27.5758C161.681 27.8284 162.387 27.9732 162.99 28.2978C163.249 28.4715 163.559 28.7226 163.336 29.0255C163.142 29.3208 162.61 29.3725 162.298 29.4561C160.626 29.7835 158.862 30.1053 157.362 30.9639C156.517 31.434 155.51 32.4339 156.096 33.4923C156.499 34.2049 157.592 34.0938 158.251 33.9474C160.278 33.5855 162.151 32.5354 164.117 31.9467C165.489 31.5176 166.984 31.2074 168.445 31.4534C169.136 31.5415 172.014 32.3191 170.968 33.5119C170.5 34.0326 169.662 34.0752 169.011 34.25C168.275 34.4476 167.549 34.7947 167.14 35.4212C166.793 35.9398 166.692 36.6965 167.331 37.0418C167.984 37.4439 168.885 37.2934 169.592 37.1034C171.213 36.6985 172.696 35.6621 174.408 35.5976C175.133 35.5854 175.834 35.8228 176.5 36.1606C177.131 36.4775 177.928 36.9626 178.407 37.503C179.603 38.9144 177.042 39.2069 176.253 39.6618C175.733 39.9839 175.252 40.5689 175.313 41.2516C175.39 41.9911 176.164 42.3911 176.84 42.4224C178.092 42.4511 179.185 41.5495 180.338 41.2095C181.767 40.7652 183.049 41.3632 184.159 42.2205C184.778 42.7229 185.377 43.2612 185.997 43.7635C186.422 44.1053 187.008 44.7079 186.512 45.2362C186.094 45.7134 185.282 45.6273 184.765 45.7358C184.042 45.8691 183.378 46.1082 182.81 46.595C182.439 46.9075 182.048 47.377 182.108 47.9387C182.187 48.4644 182.564 48.8498 183.049 48.9626C184.119 49.2223 185.34 48.6818 186.293 48.274C187.444 47.813 188.799 47.2061 190.004 47.8552C190.707 48.2137 191.223 48.8959 191.765 49.4494C192.272 49.9821 193.161 50.4728 193.274 51.233C193.405 51.8361 192.941 52.1431 192.403 52.2875C191.788 52.4831 191.085 52.5804 190.421 52.8195C189.744 53.123 189.076 53.5758 188.832 54.2494C188.574 54.9874 188.969 55.6716 189.719 55.8655C191.262 56.3024 192.719 55.0598 194.178 54.729C195.637 54.3981 196.68 55.1212 197.523 56.2323C197.865 56.7179 198.208 57.2036 198.535 57.6325C199.028 58.2296 199.624 58.9816 199.096 59.7312C198.617 60.4373 196.717 61.1602 197.56 62.2713C197.982 62.8268 198.664 62.7655 199.266 62.6342C199.973 62.4442 200.632 62.2978 201.306 62.6639C202.016 63.0507 202.399 63.7992 202.758 64.4627C203.176 65.2319 203.77 65.8629 204.139 66.6757C204.669 67.7494 203.659 68.1724 202.804 68.4931C202.395 68.6638 201.965 68.8705 201.657 69.1962C201.218 69.7093 201.04 70.5171 201.575 71.0422C202.588 72.1077 204.206 70.6702 205.339 70.822C206.998 71.0148 207.439 73.1155 207.901 74.3897C208.139 75.0552 208.519 75.6827 208.467 76.3958C208.431 77.1656 207.833 77.5389 207.159 77.6286C205.87 77.9139 204.363 77.9536 203.372 79.0102C203.002 79.4438 202.786 80.1098 203.022 80.6542C203.287 81.191 203.888 81.3946 204.435 81.3996C205.111 81.4309 205.734 81.2637 206.291 80.9623C207.009 80.5869 207.79 80.1036 208.615 80.1253C210.193 80.1272 210.528 82.2867 210.677 83.5234L210.832 83.4211Z" fill="#017EFE"/>
</g>
<defs>
<clipPath id="clip0_241_2733">
<rect width="247" height="307" fill="white"/>
</clipPath>
</defs>
</svg>
