<svg width="164" height="182" viewBox="0 0 164 182" fill="none" xmlns="http://www.w3.org/2000/svg">
<path d="M36.1427 57.4784C24.4958 99.9997 64.1946 139.686 106.6 128.234C219.811 81.2893 84.3025 -55.3996 36.1427 57.4784ZM140.276 91.8348C137.454 98.8391 133.031 105.149 127.444 110.22C121.971 115.215 115.462 119.027 108.455 121.399C101.469 123.765 93.9538 124.745 86.5907 124.111C84.6339 123.938 82.389 123.865 80.5714 123.206C81.4032 122.871 82.3863 122.765 83.2672 122.529C83.8124 122.383 85.0371 121.92 84.6655 121.12C84.3277 120.447 83.2786 120.39 82.6423 120.449C81.6802 120.549 80.7267 120.85 79.7926 121.055C78.1455 121.451 76.1029 122.133 74.4326 121.772C72.8363 121.435 70.9513 120.524 69.521 119.716C69.3082 119.594 68.7764 119.287 68.7453 119.003C68.9576 118.789 69.3674 118.724 69.5981 118.662C69.9183 118.599 70.2595 118.53 70.5643 118.493C71.2579 118.397 71.9347 118.238 72.5695 118.09C73.1833 117.948 75.1829 117.525 74.6753 116.47C74.479 116.073 73.9599 115.897 73.5584 115.825C72.9457 115.72 72.3473 115.835 71.7544 115.971C69.6137 116.455 67.1801 117.692 64.9109 117.108C63.4405 116.738 62.2067 115.405 61.0378 114.483C60.867 114.348 60.3884 114.072 60.3895 113.825C60.343 113.567 61.031 113.45 61.2085 113.358C62.141 113.063 63.0597 112.884 64.0106 112.742C64.914 112.59 65.8858 112.442 66.7652 112.116C67.0532 112.017 67.3873 111.837 67.5408 111.571C67.7711 111.172 67.6224 110.785 67.2655 110.544C66.546 110.04 65.5685 110.167 64.8022 110.327C63.7004 110.577 62.6364 110.885 61.5443 111.088C60.3893 111.307 58.8179 111.818 57.6456 111.638C56.658 111.476 56.0017 110.033 55.2961 109.413C54.9755 109.139 54.6493 108.845 54.3384 108.523C53.7417 107.807 54.9387 107.576 55.3889 107.41C56.2165 107.144 57.0989 106.997 57.9659 106.877C58.7015 106.77 59.479 106.651 60.1696 106.377C60.6868 106.126 61.2931 105.536 60.8043 104.97C60.3687 104.435 59.4889 104.424 58.8526 104.482C57.9744 104.56 57.1257 104.832 56.2812 105.036C55.4213 105.266 54.5599 105.407 53.6678 105.601C53.1323 105.7 52.4207 105.98 51.9252 105.641C51.3177 105.22 50.9727 104.436 50.5162 103.906C50.2263 103.579 49.7783 103.25 49.6603 102.809C49.5142 102.264 50.4973 102.158 50.8539 102.062C51.7081 101.811 52.5793 101.623 53.477 101.449C54.3593 101.303 55.2836 101.145 56.1645 100.909C56.6888 100.769 57.3543 100.568 57.6992 100.093C58.1097 99.4439 57.5482 98.9426 56.9452 98.7895C56.1198 98.5611 55.2067 98.7608 54.4307 98.9688C53.4604 99.2063 52.511 99.4382 51.5503 99.6282C50.4373 99.8365 48.9583 100.525 47.8317 99.9278C47.1726 99.565 46.9283 98.8213 46.5444 98.2274C46.274 97.8054 45.9979 97.3624 45.7695 96.9292C45.2593 96.032 45.1679 95.6069 46.1941 95.2421C46.8749 95.0147 47.6007 94.9551 48.2985 94.7906C49.5415 94.48 50.7748 94.217 51.9815 93.9386C52.6372 93.7854 53.3937 93.6725 53.9136 93.2635C54.4963 92.8377 54.4004 92.1442 53.8 91.833C53.0723 91.4661 52.1997 91.5651 51.439 91.7464C50.4421 91.9686 49.4354 92.2383 48.4118 92.4452C47.8609 92.5703 47.2778 92.6591 46.7269 92.7843C46.1969 92.9038 45.6516 93.0499 45.1258 93.1009C44.7371 93.1601 44.3622 93.1032 44.0262 92.8561C43.4873 92.4386 43.3535 91.6878 43.0535 91.0714C42.8684 90.7164 42.6665 90.2985 42.6171 89.8623C42.6066 89.2358 43.2961 89.2084 43.7631 89.1057C45.4255 88.6827 47.1105 88.3436 48.7786 87.9416C49.2875 87.8277 49.8748 87.6703 50.2422 87.2797C50.6249 86.8625 50.5417 86.3004 50.0575 86.0031C49.4612 85.6235 48.6668 85.679 47.9789 85.7959C47.0699 85.9271 46.164 86.2372 45.2662 86.4104C44.3378 86.6367 43.4023 86.7525 42.4948 86.9731C42.1802 87.0574 41.9076 87.1305 41.7435 86.7699C41.442 86.064 41.3431 85.1915 41.1408 84.4365C40.7081 82.8218 43.1904 82.6062 44.3649 82.2915C45.9854 81.8798 47.6033 81.6261 49.2126 81.1724C49.8208 81.0094 51.4455 80.5291 50.829 79.5705C50.0514 78.4303 48.1556 79.0731 47.107 79.3541C46.0583 79.6351 45.0194 79.8685 43.9386 80.1132C43.3933 80.2593 42.8326 80.432 42.2495 80.5208C41.2301 80.6591 40.444 80.5776 40.2776 79.4534C40.1184 78.4397 39.6108 77.3844 39.8404 76.3115C39.9823 75.6666 40.4186 75.6171 40.9848 75.4654C42.6263 75.0481 44.3113 74.709 45.9528 74.2916C46.6505 74.1271 47.4965 74.0128 48.068 73.545C48.5515 73.1682 48.5313 72.5893 48.0357 72.25C47.4968 71.8326 46.7444 71.8768 46.129 71.9293C45.283 72.0436 44.4917 72.2782 43.71 72.4651C42.8921 72.6843 42.0629 72.8615 41.2225 72.9968C40.9233 73.0545 40.624 73.1122 40.3304 73.1909C40.2199 73.198 40.0787 73.2583 40.0143 73.1857C39.9023 73.1033 40.0712 72.8108 40.0851 72.6947C40.2783 71.654 39.8546 70.5763 40.0115 69.5678C40.1597 68.3593 41.5638 68.2303 42.5342 67.9928C43.3577 67.7946 44.1813 67.5964 45.0161 67.4401C45.7404 67.291 46.6186 67.213 47.2377 66.755C47.4766 66.5561 47.6987 66.2943 47.683 65.9838C47.7035 65.6412 47.3942 65.4094 47.1226 65.2349C46.5964 64.9489 45.9642 64.9385 45.3867 65.0483C44.2834 65.209 43.2572 65.5739 42.1973 65.813C41.1221 66.0786 40.3072 66.4768 40.4371 65.1159C40.5617 64.071 40.3617 62.821 41.0151 61.9042C41.1646 61.7068 41.3518 61.5668 41.5979 61.4784C41.9907 61.3506 42.3836 61.2229 42.7708 61.0742C43.5985 60.8074 44.4374 60.5826 45.3029 60.3732C46.1475 60.1694 47.0032 60.0075 47.8743 59.8191C48.5511 59.6602 49.3076 59.5474 49.9394 59.2208C50.3154 59.0301 50.8158 58.7162 50.7341 58.2437C50.6299 57.6872 49.9835 57.4558 49.4925 57.3851C48.7274 57.2979 47.9248 57.4905 47.2117 57.6816C46.2945 57.9498 45.4208 58.2963 44.4924 58.5226C44.0729 58.635 43.6269 58.732 43.1849 58.7606C42.943 58.7804 42.5962 58.8284 42.3471 58.7378C42.1456 58.6569 42.158 58.4513 42.1913 58.2401C42.3414 57.4582 42.4174 56.6512 42.6361 55.8733C42.8199 55.2172 43.1955 54.6895 43.833 54.3839C44.2509 54.182 44.7026 54.1059 45.185 53.9767C45.7778 53.8403 46.3804 53.6563 46.9942 53.5143C48.0848 53.2221 49.2035 53.0348 50.3053 52.7845C50.9877 52.6466 52.5146 52.3049 52.2771 51.3346C52.0718 50.4007 50.6816 50.4136 49.988 50.5095C48.7588 50.704 47.6293 51.1865 46.4436 51.4592C45.8927 51.5844 44.8706 51.8807 44.6208 51.116C44.4368 50.5135 44.7506 49.7551 45.0102 49.2136C45.2139 48.7994 45.4805 48.3684 45.764 48.0002C46.3827 47.2051 47.1699 47.0391 48.0983 46.8128C49.0477 46.5809 49.9915 46.328 50.9787 46.1534C51.8498 45.9649 52.812 45.8645 53.6157 45.4244C53.8868 45.2618 54.1523 45.0783 54.2148 44.7244C54.2815 44.302 53.9118 43.929 53.5508 43.756C52.8496 43.4045 52.0205 43.5817 51.2961 43.7308C50.446 43.9137 49.6071 44.1385 48.8004 44.3996C48.6326 44.4445 48.2873 44.582 48.1948 44.4045C48.0266 44.1124 49.2055 42.8076 49.3647 42.5627C49.8938 41.7691 50.3237 41.0245 51.2604 40.6612C52.3592 40.2319 53.6835 40.0569 54.8748 39.8051C55.4048 39.6856 55.9306 39.6346 56.4549 39.4941C56.8954 39.3761 57.4294 39.188 57.6848 38.715C58.2053 37.7214 56.672 37.3681 55.9979 37.3689C55.2399 37.3922 54.5118 37.9469 53.7426 37.9283C52.5887 37.9003 53.5362 37.2419 54.0013 36.7127C54.56 36.1135 55.0012 35.4109 55.7097 34.9513C56.5539 34.4104 57.5845 34.3141 58.492 34.0934C59.6092 33.8165 60.7222 33.6082 61.8184 33.3369C62.2798 33.2133 62.7412 33.0897 63.085 32.8627C63.4498 32.6301 63.6914 32.2732 63.5805 31.9433C63.4625 31.5029 62.8467 31.2184 62.2662 31.1492C61.6913 31.1009 60.7367 31.6489 60.2105 31.3629C60.1906 31.1209 60.5329 30.8045 60.6726 30.6546C61.4647 29.8356 62.5159 29.3965 63.4271 28.7703C64.9379 27.7811 66.4767 26.8968 68.0534 26.0698C71.3019 24.4351 74.6822 23.1248 78.2016 22.2492C108.358 13.4046 141.228 35.9961 143.584 67.4383C144.208 75.7222 143.356 83.952 140.268 91.7243L140.276 91.8348Z" fill="#017EFE"/>
<path d="M161.492 54.6607C157.659 36.8305 146.855 20.4184 127.61 10.089C62.9023 -28.8077 -11.0367 53.1281 32.9145 113.634C38.3564 135.035 30.079 133.589 37.8877 138.487C31.2758 149.968 9.17875 188.052 2.72755 199.378C2.35605 199.837 1.99168 200.407 1.68199 201.097C-1.90707 206.913 0.67485 212.942 5.40526 216.754C8.50344 219.34 12.5641 220.904 16.3681 220.671C17.0156 220.655 17.6939 220.586 18.3553 220.454C21.1967 219.984 25.7615 216.132 26.9013 212.5C36.4918 195.86 55.1175 163.696 61.7907 152.108C61.9027 152.19 62.0035 152.231 62.1364 152.308C71.3705 157.408 77.0967 140.859 87.1749 144.16C123.234 147.444 149.337 123.975 159 95.0214C159.047 95.0311 159.11 95.0143 159.152 95.0031L159.079 94.7304C163.289 82.0046 164.317 68.2212 161.606 55.1696L161.743 54.5038C161.743 54.5038 161.586 54.5907 161.492 54.6607ZM18.6803 213.781C16.8816 214.87 14.627 214.845 12.6835 214.219C11.9 213.98 11.157 213.639 10.4656 213.24C9.23673 212.513 8.0985 211.537 7.2831 210.339C6.85724 209.757 6.54598 209.098 6.29763 208.423C5.84178 207.309 6.63653 207.591 7.28597 208.001C7.66387 208.237 8.03204 208.52 8.4253 208.73C9.05226 209.056 9.6429 209.415 10.3006 209.688C10.7511 209.86 11.553 210.252 11.9889 209.865C12.3675 209.516 12.0885 208.894 11.8825 208.545C11.5364 208.008 10.936 207.697 10.4098 207.411C9.65549 207.029 8.90119 206.647 8.16224 206.238C7.82217 206.059 7.47647 205.86 7.13078 205.66C6.43939 205.261 6.07834 205.088 6.63409 204.31C6.71647 204.198 6.86439 203.911 7.01682 203.893C7.25876 203.873 8.07226 204.644 8.26964 204.793C8.83369 205.136 9.43968 205.469 10.0135 205.764C11.182 206.35 12.4022 206.877 13.561 207.511C15.7247 208.707 17.9876 209.854 19.9 211.454C20.9948 212.352 19.4574 213.326 18.6957 213.754L18.6803 213.781ZM54.2315 153.594C52.7171 156.247 51.2027 158.901 49.6883 161.554C45.6349 168.574 41.5815 175.594 37.5225 182.593C35.1524 186.667 32.8677 190.807 30.5186 194.876C29.3266 196.971 28.129 199.045 26.9411 201.071C26.3214 202.114 25.7226 203.151 25.0916 204.152C24.5793 205.008 24.2674 206.193 23.4401 206.797C23.2861 206.726 23.2846 206.636 23.188 206.527C23.1123 206.413 22.9738 206.315 22.8464 206.259C20.5689 204.554 18.0554 203.227 15.588 201.821C13.9925 200.9 12.2209 200.161 10.7999 198.968C10.4261 198.664 9.97258 198.313 10.3006 197.776C10.8897 196.786 11.0612 196.336 12.108 196.887C12.7294 197.192 13.2878 197.515 13.8825 197.805C14.3443 198.018 14.8915 198.299 15.4256 198.111C16.1484 197.872 15.6955 196.937 15.3566 196.511C15.0023 196.111 14.518 195.814 14.0506 195.58C13.4712 195.263 12.7337 194.944 12.6895 194.191C12.6498 193.708 13.1167 192.346 13.7013 192.347C14.1126 192.372 14.5073 192.67 14.832 192.876C15.5935 193.368 16.7639 194.381 17.7354 193.896C18.2945 193.633 18.2057 193.05 17.9297 192.607C17.5892 192.092 17.0042 191.754 16.4667 191.426C16.1476 191.242 15.8076 191.063 15.4787 190.927C15.2716 190.825 15.0128 190.782 14.821 190.653C14.6293 190.525 14.6529 190.361 14.8023 190.164C15.4947 189.057 15.9073 186.654 17.635 186.977C18.2267 187.089 18.6956 187.412 19.2009 187.704C19.7005 187.975 20.3065 188.307 20.8881 188.129C21.4754 187.971 21.4817 187.408 21.263 186.927C21.0023 186.457 20.5963 186.117 20.1288 185.882C19.6292 185.611 19.1367 185.451 18.6483 185.223C18.4356 185.1 18.1221 184.936 18.07 184.658C17.9966 184.049 18.6654 183.105 18.8774 182.554C18.9931 182.231 19.1298 181.902 19.2721 181.594C20.0618 180.011 21.2128 181.119 22.2709 181.712C22.8027 182.019 23.4297 182.346 24.0675 182.377C24.6311 182.383 25.0041 182.014 24.8734 181.442C24.7202 180.786 24.0958 180.302 23.543 180C22.9692 179.704 21.4221 179.467 21.5272 178.517C21.58 178.211 21.7811 177.955 21.9137 177.695C22.035 177.392 22.1773 177.085 22.2889 176.83C22.5413 176.178 22.9259 174.929 23.7607 174.772C24.7898 174.586 27.6536 177.64 28.3508 175.88C28.5976 175.207 27.9186 174.602 27.4384 174.236C26.8253 173.794 24.734 173.455 24.7594 172.459C24.7815 172.206 24.956 171.935 25.0634 171.749C25.2421 171.409 25.4207 171.068 25.6315 170.765C25.9652 170.248 26.3854 169.551 27.0595 169.551C27.4022 169.571 27.7101 169.713 28.0026 169.882C28.4071 170.133 28.8382 170.4 29.258 170.625C29.7198 170.838 30.358 171.206 30.8977 171.039C31.5995 170.806 31.4587 169.945 31.0875 169.483C30.6406 168.906 29.9661 168.569 29.3238 168.27C28.9571 168.076 28.5388 167.94 28.1665 167.726C27.4751 167.326 28.1889 166.551 28.4443 166.078C28.669 165.658 28.9244 165.185 29.1756 164.78C29.3906 164.408 29.6209 164.009 30.1022 164.128C30.8744 164.325 33.8397 166.835 34.2264 165.09C34.3141 164.662 33.9904 164.21 33.7062 163.904C33.314 163.447 32.7878 163.161 32.2728 162.917C31.9537 162.732 31.6249 162.596 31.2904 162.438C31.1099 162.352 30.7447 162.247 30.7402 161.979C30.7091 161.695 30.9773 161.353 31.1211 161.135C31.4701 160.592 31.8345 160.022 32.1779 159.458C32.3007 159.246 32.4542 158.98 32.6471 158.861C33.1669 158.452 33.7984 159.047 34.2714 159.302C34.9306 159.665 35.6164 160.043 36.3216 160.326C36.8197 160.507 37.5946 160.547 37.6721 159.829C37.7372 159.317 37.3129 158.824 36.9544 158.493C36.3342 157.94 35.5114 157.554 34.7739 157.234C34.5458 157.138 34.1177 157.051 34.0028 156.789C33.7125 156.125 35.6122 152.897 36.4418 153.056C36.7747 153.125 37.0995 153.33 37.4129 153.493L38.45 154.092C39.0028 154.393 39.6886 154.771 40.3571 154.749C40.9151 154.735 41.1986 154.367 41.0469 153.8C40.8952 153.234 40.5046 152.867 40.0203 152.57C39.4828 152.242 38.8896 152.041 38.3383 151.829C38.0626 151.723 37.7338 151.586 37.5671 151.384C36.9075 150.684 38.4134 149.089 38.7624 148.546C38.9676 148.222 39.1406 147.861 39.3402 147.515C39.4672 147.234 39.678 146.93 40.0514 146.897C40.4151 146.912 40.8477 147.268 41.1514 147.479C41.6889 147.807 44.1874 149.498 44.436 147.992C44.597 146.915 43.3333 146.31 42.5734 145.907C42.2123 145.734 41.8247 145.546 41.6243 145.217C41.2782 144.681 41.6145 144.006 41.9062 143.501C42.1268 143.15 42.7907 141.601 43.3068 141.597C43.4649 141.6 43.651 141.707 43.7783 141.763C44.278 142.034 44.7679 142.352 45.2312 142.655C45.8121 143.061 46.4113 143.62 47.0454 144.057C47.7061 144.509 48.9746 144.461 49.0653 145.471C49.156 146.481 47.743 147.331 47.2501 148.093C46.7936 148.822 46.5177 149.637 46.0878 150.382C45.2894 151.765 44.2726 153.003 43.5177 154.464C43.0084 155.5 42.4647 156.994 43.8081 157.646C43.9677 157.738 44.1313 157.761 44.3062 157.827C44.5706 157.891 44.6658 157.91 44.895 157.759C45.3365 157.393 45.6983 156.982 46.06 156.57C46.8296 155.667 47.4719 154.709 48.0763 153.692C48.8035 152.464 49.4776 151.204 50.146 149.924C50.467 149.276 50.8032 148.601 51.1508 147.969C51.942 146.476 53.5289 147.197 54.657 147.883C55.1735 148.217 55.9095 148.447 56.2555 148.984C56.959 150.099 54.7801 152.705 54.2484 153.657L54.2315 153.594ZM66.3271 147.813C65.2353 147.094 63.8315 146.302 62.2529 145.444C59.7161 142.1 53.1308 140.426 49.3944 137.471C47.0891 135.999 44.7603 134.69 42.7559 134.507C40.7401 133.025 39.47 131.724 39.4576 130.671C39.6153 130.337 39.6452 129.61 39.6987 128.719C40.659 129.45 41.6306 130.224 42.6216 130.902C42.9841 131.165 43.3467 131.427 43.7118 131.532C44.077 131.636 44.477 131.619 44.6669 131.321C44.8874 130.97 44.7245 130.361 44.4218 129.903C44.1136 129.424 43.6447 129.1 43.2233 128.786C42.0922 127.92 40.9401 127.06 39.8397 126.141C40.0205 124.047 40.4829 122.418 42.0583 124.018C59.2933 142.955 84.5117 137.996 66.3634 147.781L66.3271 147.813ZM156.342 55.3215C156.424 55.7941 156.422 56.2892 156.123 56.6839C155.772 57.1375 155.2 57.2682 154.78 57.6281C154.422 57.9712 154.184 58.5071 154.538 58.9067C154.867 59.3804 155.466 59.2649 155.954 59.1567C156.358 59.0709 156.815 59.0158 157.105 59.3427C157.383 59.6276 157.492 60.1155 157.572 60.4986C157.721 61.2229 158.126 62.1482 157.78 62.8702C157.572 63.3529 157.006 63.5047 156.518 63.613C155.899 63.734 155.258 63.8606 154.748 64.2221C154.332 64.5135 153.939 64.9782 153.985 65.483C154.011 66.083 154.63 66.299 155.12 66.2802C155.699 66.2599 156.153 66.0258 156.661 65.8224C157.163 65.598 157.782 65.477 158.18 65.9548C158.428 66.2929 158.498 66.7236 158.51 67.1025C158.564 67.8073 158.576 68.5233 158.577 69.1974C158.565 69.74 158.511 70.2939 158.234 70.7725C157.941 71.1882 157.487 71.4223 156.989 71.5782C156.182 71.8393 155.184 71.972 154.649 72.7446C154.429 73.0959 154.404 73.5071 154.652 73.8452C154.911 74.2253 155.349 74.2653 155.768 74.1529C156.308 73.9858 157.934 72.6734 158.2 73.7486C158.251 73.9373 158.223 74.1695 158.211 74.3751C158.184 74.6968 158.185 75.0338 158.164 75.3764C158.148 75.9876 158.09 76.61 157.804 77.1362C157.345 78.0234 156.3 78.2358 155.497 78.676C154.897 79.0389 154.354 79.6115 154.792 80.3256C155.278 81.0495 156.17 80.5183 156.763 80.382C157.104 80.313 157.462 80.307 157.709 80.5556C158.067 80.8866 158.045 81.4768 157.948 81.9524C157.783 83.098 157.298 84.3069 156.437 85.1218C155.628 85.878 154.642 86.1421 153.653 86.4748C153.16 86.6516 152.701 86.8647 152.316 87.1925C151.938 87.5411 151.526 88.1011 151.861 88.5957C152.142 89.0597 152.759 89.0967 153.253 89.0093C153.83 88.8996 154.323 88.4752 154.918 88.4283C156.09 88.2717 155.388 90.1004 155.224 90.6614C154.817 91.8268 154.438 93.0971 153.37 93.8102C152.574 94.3608 151.575 94.4935 150.626 94.7254C149.913 94.9165 149.001 95.2057 148.596 95.876C148.391 96.2007 148.33 96.6441 148.489 96.9838C148.77 97.4477 149.33 97.5226 149.791 97.3989C150.531 97.2232 152.226 95.915 152.704 97.1129C153.018 97.9502 152.537 99.0905 152.102 99.8141C151.542 100.661 150.716 101.354 149.84 101.859C148.708 102.499 147.47 102.831 146.233 103.162C145.032 103.462 143.608 103.686 142.626 104.466C142.272 104.74 141.953 105.141 141.939 105.594C141.906 106.142 142.354 106.472 142.834 106.5C143.266 106.519 143.706 106.401 144.099 106.274C144.786 106.067 145.461 105.819 146.115 105.576C146.743 105.318 147.334 105.092 147.979 104.897C148.372 104.769 149.18 104.598 149.034 105.311C148.958 105.781 148.56 106.225 148.303 106.608C147.948 107.13 147.647 107.683 147.271 108.211C146.92 108.664 146.511 109.066 146.106 109.4C145.487 109.858 144.792 110.201 144.022 110.43C142.817 110.798 141.523 110.92 140.372 111.408C139.63 111.742 138.322 112.564 138.834 113.551C139.258 114.381 140.322 114.074 140.992 113.804C141.557 113.563 142.078 113.243 142.669 113.018C142.994 112.886 143.795 112.604 143.685 113.285C143.609 113.755 143.158 114.168 142.826 114.526C141.481 115.966 140.035 117.028 138.149 117.623C136.955 118.033 135.667 118.175 134.56 118.742C133.985 119.031 132.922 119.675 133.284 120.522C133.491 120.961 133.995 121.163 134.454 121.198C134.733 121.235 135.012 121.183 135.29 121.131C135.584 121.052 135.96 120.862 136.266 120.914C136.212 121.131 135.895 121.374 135.707 121.514C135.552 121.69 135.338 121.815 135.136 121.981C134.627 122.432 134.12 122.973 133.585 123.408C132.593 124.236 131.461 124.877 130.225 125.298C128.873 125.705 127.404 125.761 126.109 126.378C125.445 126.668 124.496 127.237 124.478 128.096C124.472 128.66 124.864 128.779 125.353 128.761C125.532 128.758 126.163 128.679 126.116 129.006C126.09 129.328 125.47 129.449 125.224 129.537C124.648 129.736 124.081 130.136 123.559 130.455C121.15 131.865 118.616 133.061 116.031 134.068C106.025 137.918 95.1189 139.244 84.4585 137.965C74.7423 136.77 65.2753 133.486 56.9363 128.37C48.47 123.199 41.1567 116.123 35.8126 107.756C29.9976 98.6379 26.6956 87.9924 25.9935 77.2347C25.3188 67.1664 27.0133 57.0476 30.7478 47.6634C34.3723 38.6233 39.7443 30.1488 46.8204 23.4204C54.6272 15.9793 64.5502 10.9829 75.04 8.68912C77.8212 8.07877 80.5956 7.69498 83.436 7.47334C83.8779 7.44483 84.3352 7.38973 84.7771 7.36122C84.8876 7.35409 85.1771 7.34395 85.2471 7.43756C85.3284 7.57311 85.1719 7.66001 85.046 7.69373C84.8992 7.73307 84.7412 7.73046 84.5944 7.7698C84.3008 7.84847 84.0143 8.03762 83.8229 8.24623C83.4555 8.63686 83.3177 9.21321 83.7196 9.62247C84.2882 10.2343 85.3102 9.93798 85.9798 9.66865C86.9221 9.32627 87.8685 8.91535 88.8486 8.63026C90.1894 8.1811 91.5904 7.87312 93.0252 7.69095C94.3495 7.51592 95.6977 7.51427 97.046 7.51262C97.3202 7.52906 98.8628 7.4978 98.4299 8.06332C98.2288 8.3195 97.7659 8.35363 97.4933 8.42668C96.9899 8.56155 96.4461 8.79716 96.1053 9.20314C95.7799 9.58253 95.6938 10.1001 96.0327 10.5262C96.4193 10.9621 97.0249 10.9571 97.5129 10.8488C98.8357 10.5843 100.035 9.85842 101.292 9.43174C102.507 9.0163 103.827 8.90979 105.094 9.10962C106.451 9.30795 107.702 9.7819 108.999 10.1761C109.613 10.3711 110.253 10.492 110.892 10.6129C111.156 10.6769 112.121 10.7554 111.908 11.2172C111.724 11.5363 111.061 11.579 110.741 11.6424C110.205 11.7409 109.643 11.8241 109.168 12.0638C108.729 12.2714 108.297 12.5893 108.104 13.0455C107.908 13.5702 108.081 14.1307 108.611 14.3483C109.141 14.5658 109.786 14.3706 110.31 14.2301C110.997 14.0237 111.655 13.7124 112.325 13.4431C113.481 12.976 114.682 12.6766 115.906 12.7982C117.177 12.9295 118.283 13.5323 119.45 14.0287C119.927 14.2155 120.45 14.3226 120.897 14.5626C121.088 14.691 121.318 14.8767 121.153 15.1007C121.009 15.319 120.615 15.3573 120.384 15.4191C119.145 15.6611 117.838 15.8991 116.727 16.534C116.101 16.8815 115.355 17.6209 115.789 18.4035C116.088 18.9303 116.897 18.8482 117.385 18.74C118.887 18.4724 120.275 17.6959 121.732 17.2606C122.748 16.9433 123.856 16.714 124.939 16.8959C125.451 16.961 127.583 17.536 126.808 18.418C126.461 18.803 125.84 18.8345 125.358 18.9637C124.812 19.1099 124.274 19.3664 123.971 19.8297C123.714 20.2132 123.64 20.7727 124.113 21.028C124.597 21.3253 125.264 21.214 125.788 21.0735C126.989 20.7742 128.088 20.0079 129.356 19.9602C129.893 19.9511 130.412 20.1267 130.906 20.3764C131.374 20.6108 131.964 20.9695 132.319 21.369C133.205 22.4126 131.308 22.6289 130.723 22.9653C130.338 23.2035 129.982 23.636 130.027 24.1408C130.083 24.6876 130.657 24.9834 131.158 25.0065C132.085 25.0278 132.896 24.3611 133.75 24.1097C134.808 23.7812 135.759 24.2233 136.58 24.8572C137.039 25.2287 137.483 25.6267 137.942 25.9981C138.257 26.2509 138.692 26.6965 138.324 27.0871C138.014 27.4399 137.413 27.3763 137.029 27.4565C136.494 27.555 136.002 27.7318 135.581 28.0918C135.306 28.3229 135.017 28.67 135.061 29.0853C135.12 29.474 135.399 29.759 135.758 29.8425C136.551 30.0345 137.456 29.6348 138.162 29.3333C139.015 28.9924 140.018 28.5436 140.911 29.0236C141.432 29.2887 141.814 29.7931 142.216 30.2023C142.591 30.5963 143.25 30.9591 143.334 31.5212C143.431 31.9672 143.087 32.1941 142.688 32.3009C142.233 32.4455 141.712 32.5175 141.22 32.6943C140.718 32.9187 140.224 33.2535 140.042 33.7516C139.851 34.2972 140.144 34.8031 140.7 34.9465C141.843 35.2695 142.923 34.3508 144.004 34.1061C145.085 33.8615 145.857 34.3962 146.482 35.2177C146.736 35.5768 146.989 35.9359 147.232 36.2531C147.597 36.6945 148.038 37.2506 147.647 37.8049C147.293 38.327 145.885 38.8615 146.51 39.6831C146.822 40.0938 147.327 40.0485 147.773 39.9514C148.297 39.8109 148.785 39.7026 149.285 39.9733C149.811 40.2594 150.094 40.8128 150.361 41.3034C150.67 41.8722 151.11 42.3387 151.383 42.9398C151.776 43.7336 151.028 44.0464 150.395 44.2835C150.091 44.4098 149.773 44.5626 149.545 44.8034C149.22 45.1828 149.087 45.7801 149.484 46.1684C150.234 46.9562 151.433 45.8933 152.272 46.0056C153.502 46.1481 153.828 47.7014 154.171 48.6436C154.347 49.1356 154.629 49.5996 154.591 50.1269C154.563 50.6961 154.12 50.9721 153.621 51.0385C152.666 51.2494 151.55 51.2788 150.815 52.06C150.541 52.3806 150.381 52.8731 150.556 53.2756C150.753 53.6726 151.198 53.823 151.603 53.8267C152.104 53.8499 152.565 53.7263 152.978 53.5034C153.51 53.2259 154.089 52.8685 154.7 52.8846C155.869 52.8859 156.117 54.4827 156.227 55.3972L156.342 55.3215Z" fill="#017EFE"/>
</svg>
