<svg width="273" height="206" viewBox="0 0 273 206" fill="none" xmlns="http://www.w3.org/2000/svg">
<g clip-path="url(#clip0_201_717)">
<path d="M182.55 13.6227C181.809 13.4095 180.503 13.3716 179.816 13.7759C178.194 14.4078 167.005 21.0008 162.937 24.7503C161.264 26.1054 159.698 27.9899 158.128 28.0044C154.687 27.7681 151.193 27.1612 147.717 26.9954C123.015 25.2518 97.3748 30.8453 79.9489 50.3926C60.0418 73.0575 53.7151 102.577 58.7564 135.331C58.7579 136.107 57.9628 135.488 56.6217 135.309C55.4215 135.059 53.7801 134.721 51.9269 134.311C43.9142 132.672 34.8417 130.431 31.5948 130.071C30.7835 130.14 29.4967 130.685 29.0578 131.725C28.3898 132.923 28.887 134.512 29.7532 135.378C32.3689 137.712 79.4866 179.442 82.1023 181.741C83.8164 183.138 86.8142 182.474 87.2676 179.899C89.1355 170.076 99.0487 116.994 101.23 105.408C101.701 102.357 98.0451 100.567 95.8975 102.857C92.1669 107.577 86.1489 115.257 82.2249 120.277C80.0604 122.936 78.5124 125.156 78.1775 125.314C78.0001 124.855 77.9105 124.167 77.8914 123.444C76.2657 104.669 79.5665 88.1102 87.8829 74.137C100.714 50.5934 128.64 41.1585 156.421 47.4599C157.074 47.6906 156.987 48.3432 157.36 49.7024C158.445 53.9563 159.905 60.5573 160.935 63.8055C161.289 64.6883 162.509 65.6963 163.479 65.9277C170.082 68.1286 182.581 72.4938 191.976 76.888C196.037 78.8721 197.972 75.771 196.976 71.8878C196.438 67.441 195.503 59.0415 194.947 54.33C194.908 52.7069 194.216 50.5355 194.603 49.8659C196.083 49.2691 216.373 41.3889 219.247 40.248C221.397 39.582 222.273 36.4788 220.347 34.9047L220.206 34.7633C210.368 29.1156 191.205 18.4035 182.568 13.6404L182.55 13.6227ZM82.7196 129.328C83.441 128.395 84.1624 127.461 84.8839 126.527C86.3267 124.66 87.8226 122.811 89.2478 120.961C89.9869 120.045 90.7083 119.112 91.4474 118.196C91.8346 117.738 92.1866 117.28 92.5384 116.787C92.6616 116.628 92.7494 116.434 92.9078 116.276C93.1015 116.082 93.1548 116.241 93.1199 116.453C92.8574 117.493 92.6654 118.534 92.4735 119.609C92.3865 120.191 92.2642 120.773 92.1596 121.373C92.0548 121.902 92.0206 122.467 91.8453 122.995C91.7053 123.56 91.2825 123.876 90.8422 124.246C90.4018 124.545 89.9967 124.879 89.5741 125.267C88.9929 125.777 88.218 126.411 88.0961 127.24C87.9216 128.157 89.0507 128.194 89.6677 127.931C89.8968 127.843 90.1083 127.702 90.2844 127.562C90.4076 127.438 90.6189 127.227 90.8306 127.227C91.0777 127.263 91.0432 127.687 90.9906 127.845C90.8513 128.727 90.4119 129.555 89.7957 130.172C89.1267 130.841 88.3867 131.333 87.6823 131.967C87.3126 132.336 86.9428 132.706 86.6262 133.164C86.3975 133.464 85.9928 134.01 86.2054 134.434C86.3648 134.734 86.7353 134.788 87.0352 134.771C87.5468 134.754 88.0227 134.561 88.4279 134.262C88.8683 133.963 89.2027 133.558 89.5724 133.153C89.6604 133.065 89.766 132.924 89.8542 132.906C90.0482 132.889 89.978 133.1 89.9606 133.224C89.8557 133.647 89.7859 134.07 89.6986 134.511C89.6115 135.058 89.5596 135.57 89.3666 136.081C88.9983 137.156 88.047 137.825 87.1662 138.493C86.4088 139.074 85.6162 139.725 85.1063 140.553C84.9657 140.835 84.8253 141.152 84.9141 141.453C85.0206 141.806 85.3915 142 85.7443 142.001C86.6441 141.985 87.4717 141.228 88.0173 140.612C88.1582 140.471 88.2285 140.33 88.334 140.154C88.51 139.943 88.5457 140.154 88.4931 140.313C88.3353 140.789 88.248 141.265 88.1608 141.777C88.1265 142.271 88.0924 142.835 87.917 143.329C87.7239 143.805 87.3894 144.174 87.0196 144.509C86.6322 144.861 86.2271 145.16 85.8573 145.494C85.417 145.899 85.0297 146.287 84.6248 146.727C84.1319 147.22 83.0577 148.223 83.6239 149.036C83.8894 149.442 84.3834 149.479 84.7888 149.285C85.2118 149.074 85.5285 148.687 85.863 148.352L86.4617 147.754C86.5849 147.631 86.708 147.437 86.8842 147.331C87.1311 147.261 87.0081 147.526 86.9731 147.667C86.903 147.878 86.868 148.055 86.9037 148.266C86.9576 148.743 87.0997 149.202 87.0125 149.713C86.943 150.207 86.5909 150.594 86.2386 150.876C85.8159 151.228 85.3226 151.545 84.9175 151.879C84.4948 152.231 84.0899 152.636 83.7201 153.006C83.2976 153.428 82.8926 153.798 82.5054 154.256C82.2061 154.59 81.9423 154.995 81.9255 155.401C81.9264 155.825 82.2094 156.213 82.5977 156.285C83.0565 156.356 83.4442 156.11 83.7611 155.793C84.1309 155.459 84.4829 155.071 84.8351 154.719C84.9759 154.578 85.1344 154.455 85.2752 154.279C85.3808 154.173 85.5744 153.944 85.7509 153.98C85.7864 154.086 85.6984 154.174 85.6457 154.262C85.5753 154.368 85.5756 154.509 85.5582 154.632C85.5059 154.967 85.63 155.268 85.6836 155.603C85.7554 156.168 85.5975 156.644 85.2102 157.031C84.7172 157.524 84.1007 157.964 83.5723 158.421C83.0617 158.897 82.5334 159.39 82.058 159.865C81.6356 160.323 81.125 160.833 80.9498 161.468C80.792 161.944 81.0225 162.491 81.5519 162.563C82.0638 162.688 82.4864 162.3 82.8386 161.983C83.314 161.543 83.7717 161.05 84.2118 160.575C84.335 160.452 84.8631 159.888 84.8465 160.364C84.8292 160.559 84.7766 160.717 84.7417 160.894C84.6365 161.211 84.5666 161.564 84.532 161.881C84.4097 162.498 84.3582 163.186 84.1655 163.839C83.9904 164.509 83.4795 164.843 82.9687 165.248C82.4049 165.634 81.8942 166.075 81.4188 166.55C81.0138 166.92 80.5207 167.377 80.2748 167.906C80.0817 168.347 80.1534 168.947 80.6126 169.195C81.1778 169.513 81.7414 169.02 82.1287 168.633C82.3752 168.387 82.6394 168.158 82.8858 167.911C83.0091 167.788 83.1147 167.647 83.2379 167.524C83.2731 167.489 83.3435 167.383 83.4317 167.401C83.6259 167.454 83.3448 168.053 83.3274 168.177C83.2399 168.512 83.1877 168.882 83.1532 169.235C83.0489 170.011 82.9093 170.787 82.7521 171.545C82.6646 171.916 82.5771 172.286 82.525 172.656C82.3679 173.52 82.4223 174.244 81.5387 173.466C81.1497 173.077 80.7079 172.705 80.2661 172.334C79.4001 171.538 78.5164 170.76 77.5974 169.947C77.2615 169.611 76.908 169.293 76.5371 169.063C76.3957 168.957 75.8129 168.62 76.1301 168.444C76.2711 168.374 76.4652 168.392 76.624 168.41C76.8357 168.411 77.0297 168.393 77.206 168.323C77.6116 168.236 78.0874 168.007 78.316 167.602C78.5091 167.161 78.2965 166.702 77.908 166.525C77.4841 166.277 76.9549 166.276 76.4962 166.311C76.0199 166.327 75.5614 166.397 75.0852 166.484C74.6973 166.554 74.1859 166.676 73.7799 166.552C73.568 166.481 73.3736 166.287 73.2321 166.145C73.0377 165.951 72.8786 165.792 72.7019 165.65C72.5782 165.562 72.278 165.402 72.2423 165.226C72.2066 165.014 72.489 165.05 72.6125 165.068C73.0535 165.051 73.459 164.893 73.6345 164.47C73.7749 164.117 73.6683 163.729 73.3855 163.482C72.6965 162.969 71.6386 163.284 70.8625 163.353C70.0159 163.457 69.5384 162.874 68.9374 162.308C68.7429 162.114 67.5417 161.335 67.594 161.035C67.6288 160.753 69.4107 160.81 69.7274 160.387C70.1848 159.753 69.4955 159.134 68.9483 158.974C68.3482 158.832 67.731 158.954 67.1136 159.005C66.7432 159.058 66.3376 159.145 65.9496 159.18C65.1205 159.231 64.6251 158.489 64.0948 157.994C63.9357 157.835 63.759 157.693 63.5823 157.552C63.0876 157.198 63.3873 157.11 63.8636 157.058C64.2693 157.041 64.6394 156.848 64.8504 156.496C65.0435 156.055 64.831 155.631 64.4424 155.419C63.7182 154.976 62.6955 155.256 61.8842 155.361C61.6373 155.395 61.408 155.413 61.1962 155.342C60.9666 155.253 60.7899 155.076 60.6131 154.935C60.2419 154.563 59.8531 154.21 59.4467 153.909C59.27 153.768 58.9344 153.573 58.8986 153.326C58.863 153.149 58.9688 153.114 59.1098 153.044C59.286 152.938 59.4975 152.868 59.6382 152.657C59.8139 152.269 59.5837 151.863 59.3009 151.615C58.9298 151.279 58.4354 151.067 57.9235 150.942C57.4116 150.818 56.9 150.799 56.3883 150.745C55.8412 150.656 55.4526 150.443 55.0637 150.054C54.6572 149.683 54.2329 149.259 53.7912 148.923C53.5792 148.746 53.3671 148.569 53.1374 148.41C53.0314 148.339 52.8018 148.215 52.8544 148.056C52.9773 147.757 54.3015 148.271 54.5133 148.307C55.3429 148.502 56.4726 148.858 57.3009 148.383C57.7062 148.154 57.8112 147.731 57.5634 147.343C57.3155 146.919 56.8563 146.671 56.3973 146.493C55.4438 146.103 54.403 146.119 53.3797 146.081C52.3564 146.044 51.2803 146.095 50.362 145.634C49.8852 145.404 49.4965 145.086 49.1077 144.767C48.7719 144.467 48.4186 144.219 48.0828 143.918C48.012 143.848 47.8883 143.724 47.8705 143.636C47.8348 143.459 48.0289 143.477 48.1701 143.478C48.3818 143.513 48.5584 143.584 48.7526 143.638C49.0527 143.726 49.3351 143.797 49.6351 143.851C50.4118 144.064 51.3827 144.366 52.1937 144.086C52.511 143.98 52.8104 143.752 52.8097 143.399C52.8092 143.116 52.6322 142.834 52.4377 142.639C51.8012 141.968 50.8835 141.789 49.9837 141.735C48.9073 141.644 47.849 141.748 46.7726 141.622C46.2962 141.568 45.8196 141.444 45.3958 141.267C44.9013 141.019 44.4419 140.63 44.053 140.241C43.6464 139.869 43.2399 139.463 42.7981 139.127C42.6921 139.056 42.3389 138.844 42.3386 138.702C42.3382 138.526 42.5854 138.632 42.656 138.633C43.768 138.899 44.8269 139.113 45.9212 139.362C48.2686 139.844 50.5807 140.36 52.9281 140.841C55.2578 141.34 57.5699 141.821 59.8292 142.39C62.0355 142.941 64.2769 143.387 66.5182 143.726C67.5594 143.887 68.6181 143.995 69.6767 144.068C70.1002 144.104 70.5412 144.087 70.9292 143.982C71.4405 143.86 71.8279 143.508 72.1624 143.138C72.5321 142.768 72.8663 142.293 73.183 141.87C73.5349 141.377 73.8692 140.936 74.221 140.443C74.8896 139.527 75.558 138.576 76.2266 137.66C77.5812 135.775 78.9711 133.89 80.6261 132.235C81.4183 131.407 82.1398 130.509 82.8436 129.593L82.7196 129.328ZM189.575 58.8178C189.756 61.1822 190.721 67.1824 190.673 69.6698L190.497 69.6695C189.472 69.0676 186.296 68.4966 186.099 67.2083C186.079 65.8852 186.975 64.211 186.902 62.9054C186.916 61.2294 185.24 61.1025 184.431 62.3711C183.041 64.3971 183.913 68.1213 180.362 65.3443C179.794 64.0024 181.941 60.9723 180.791 59.5057C180.084 58.8339 179.22 59.2379 178.675 60.0307C177.654 61.0519 178.1 63.6109 176.69 64.102C173.39 63.9718 174.814 61.4519 175.304 59.2653C175.601 58.0133 176.04 56.9028 175.861 55.8792C175.524 54.5554 174.148 54.6231 173.444 55.7508C172.248 57.442 172.412 60.0357 171.357 61.7272C170.494 62.3429 168.446 61.5978 168.338 60.7508C168.245 58.4748 170.514 54.9333 169.416 52.9552C168.356 51.9299 167.071 53.3915 166.703 54.5728C166.246 55.4892 166.18 57.7473 165.44 58.4515C165.226 57.1102 163.29 50.8082 163.304 48.9205C174.052 50.9711 185.441 55.9162 188.99 57.3171C189.59 57.6359 189.397 57.9354 189.557 58.8001L189.575 58.8178ZM190.129 45.0759L189.989 45.1462C188.279 45.9366 187.982 47.6473 188.339 49.518C188.393 50.1356 188.553 50.6828 188.394 50.7002C184.81 49.4051 181.244 47.9512 177.325 46.6731C174.941 45.8391 172.311 45.1104 169.61 44.3464L169.54 44.2757L154.466 40.6109C153.866 40.5744 153.037 40.3787 152.296 40.3066C151.202 40.1633 150.196 40.0378 149.225 39.9476L148.766 39.9114C95.3506 33.0817 64.2742 80.9872 72.3309 130.489C72.7054 132.483 72.3714 133.1 70.7699 135.02C69.6435 136.358 68.7819 137.75 68.1827 138.067C66.9837 138.417 65.1126 137.849 64.7748 136.56C63.5091 130.083 62.9481 123.149 62.8466 116.568C62.5972 97.9377 67.0574 78.9111 77.3827 63.8129C78.5974 62.5275 80.0884 67.0115 81.8323 65.7272C82.886 63.33 77.8901 61.7498 80.5488 59.1618C82.2737 57.1894 83.6074 62.3612 85.5992 61.5008C86.9197 60.2156 84.3046 58.1991 83.6493 56.9452C83.1007 56.0797 83.909 54.4935 84.8628 55.06C85.711 55.7674 87.4971 57.8351 88.0762 56.3367C88.5499 55.0145 86.6777 53.9522 86.5868 52.6642C86.6203 51.7469 87.8006 50.9201 88.4369 51.4859C89.2319 52.0344 90.648 54.4013 91.828 53.3981C92.7426 52.0239 90.1989 50.431 90.2318 49.2314C90.283 48.4023 91.446 47.699 92.1176 48.3002C93.0717 49.0078 94.1523 51.2152 95.5803 50.7418C96.3381 50.3022 95.8059 48.8545 95.134 48.1122C94.4798 47.3876 93.4896 46.2918 94.3175 45.676C96.3626 45.0097 97.1292 48.9454 99.1568 48.3321C99.7912 47.9805 99.4888 46.7626 98.9404 46.0029C98.215 44.9958 96.678 43.9166 98.0697 42.9491C99.0034 42.2629 100.078 41.7182 100.503 42.4247C100.981 43.1137 101.142 44.4019 101.903 45.2326C102.646 46.1868 103.756 45.7127 103.789 44.5484C104.068 42.9259 101.911 40.8751 103.797 39.838C104.837 39.2227 105.789 39.0835 106.232 39.9135C106.763 40.8673 107.649 42.9861 109.006 42.2302C109.658 41.7199 109.338 40.4138 108.93 39.5132C108.523 38.6832 108.327 38.0654 109.032 37.6787C111.534 36.2018 111.564 42.1119 114.014 41.0407C115.687 39.5093 111.499 36.237 114.744 35.7849C117.038 35.6837 116.834 39.4586 118.776 40.0977C120.505 40.4893 120.077 38.0891 119.387 36.9057C118.307 35.3334 118.904 33.9233 120.741 34.9149C122.261 36.2235 122.496 39.3113 124.421 40.2855C127.509 40.5564 123.829 35.327 123.951 34.3922C124.143 33.4575 125.431 33.3719 126.172 33.7263C127.815 34.6646 127.839 38.0343 129.904 38.4089C131.28 38.3764 130.817 36.329 130.375 35.4637C130.161 34.7576 129.384 33.9798 129.788 33.2926C130.615 32.3945 132.487 33.1745 132.807 34.4807C134.438 38.1887 136.887 36.6942 135.24 33.4624C135.062 32.968 135.256 32.7038 135.838 32.652C139.066 32.6762 138.443 38.4968 141.513 38.6441C142.342 38.3812 142.251 37.0578 141.878 36.1221C141.559 35.0276 140.162 33.6664 140.937 32.7153C143.563 31.8914 143.698 37.4136 146.008 37.0478C147.542 36.2923 145.844 34.1718 146.018 33.1137C147.2 32.922 148.02 37.44 149.696 37.3552C150.755 37.4279 150.805 35.8578 150.344 34.7984C149.299 32.9792 150.587 32.9994 151.964 33.2139C151.981 33.1963 151.999 33.214 152.034 33.2141C155.51 33.4151 164.882 35.5688 166.612 35.9604C166.789 35.996 166.877 36.0138 166.877 36.0138C175.614 37.9898 184.263 40.6183 192.35 44.1277C192.457 44.2691 190.165 45.0054 190.077 45.0934L190.129 45.0759ZM200.266 41.1623L200.036 41.1089C190.677 36.6089 179.766 32.7056 167.623 30.1053C167.147 30.0162 166.811 29.8214 166.793 29.592C168.535 27.1786 172.712 25.0171 175.178 23.2579C177.892 21.852 179.705 19.8622 181.54 20.007C182.406 20.838 182.287 22.9371 182.484 24.1901C182.733 25.5666 182.474 28.1595 183.939 28.7093C184.575 28.8518 185.173 28.2179 185.348 27.3714C185.715 25.802 185.076 23.8954 185.197 22.3961C185.389 21.6732 186.926 22.6819 187.105 23.6702C187.904 26.1946 187.328 29.5277 188.586 31.8414C191.235 33.3639 190.625 28.4935 190.428 26.9936C190.356 26.2172 190.213 25.2995 190.424 25.0882C190.67 24.7006 192.437 25.798 193.073 26.3285C194.046 27.6889 193.539 29.8578 194.036 31.5172C194.286 33.1407 195.804 33.5319 196.384 32.0335C196.787 31.064 196.555 29.7052 196.483 28.8582C196.482 28.4348 196.623 28.294 197.1 28.489C200.418 29.4484 198.592 33.7493 200.149 35.94C200.821 36.6118 201.614 36.3135 201.965 35.3615C202.457 34.2334 202.03 32.6801 202.081 31.5335C202.151 31.1455 202.663 31.6228 203.582 32.0834C205.171 33.004 211.441 36.3863 211.636 36.6513C211.406 36.7391 201.941 40.7599 200.266 41.1623Z" fill="#017EFE"/>
<path d="M215.933 59.2593C214.237 57.8798 211.256 58.5265 210.803 61.1013C208.935 70.9241 199.022 124.006 196.84 135.592C196.37 138.644 200.008 140.45 202.156 138.161C205.886 133.441 211.869 125.726 215.846 120.724C217.993 118.082 219.558 115.844 219.875 115.704C220.07 116.145 220.142 116.851 220.179 117.557C221.805 136.331 218.486 152.908 210.188 166.863C197.322 190.442 169.431 199.842 141.65 193.54C140.997 193.31 141.084 192.657 140.675 191.333C139.608 187.062 138.13 180.478 137.118 177.212C136.764 176.33 135.544 175.322 134.556 175.108C127.971 172.889 115.472 168.524 106.06 164.147C101.998 162.163 100.099 165.229 101.077 169.13C101.598 173.595 102.55 181.976 103.106 186.688C103.145 188.311 103.82 190.5 103.433 191.17C101.952 191.766 81.6622 199.647 78.8064 200.77C76.6555 201.436 75.7444 204.539 77.6882 206.131L77.812 206.255C87.6853 211.938 106.831 222.632 115.485 227.378C116.191 227.591 117.514 227.611 118.201 227.242C119.823 226.61 131.013 220.017 135.098 216.25C136.753 214.877 138.337 213.01 139.872 212.96C143.33 213.214 146.825 213.857 150.318 213.97C174.985 215.748 200.643 210.137 218.069 190.59C237.993 167.907 244.32 138.388 239.261 105.652C239.26 104.876 240.055 105.495 241.414 105.656C242.614 105.906 244.255 106.244 246.108 106.654C254.103 108.31 263.176 110.552 266.423 110.876C267.234 110.842 268.521 110.263 268.977 109.24C269.645 108.042 269.148 106.453 268.229 105.605C265.649 103.271 218.513 61.5227 215.88 59.2415L215.933 59.2593ZM108.443 182.2C108.261 179.836 107.279 173.818 107.362 171.33L107.521 171.348C108.563 171.933 111.722 172.486 111.919 173.809C111.974 175.097 111.078 176.772 111.116 178.112C111.102 179.753 112.778 179.915 113.587 178.647C114.976 176.621 114.104 172.897 117.656 175.673C118.223 177.015 116.077 180.045 117.244 181.494C117.916 182.166 118.78 181.797 119.36 180.969C120.382 179.948 119.9 177.389 121.346 176.898C124.61 177.064 123.221 179.548 122.732 181.735C122.417 183.005 121.995 184.097 122.174 185.121C122.512 186.445 123.888 186.377 124.573 185.267C125.77 183.576 125.623 180.965 126.661 179.291C127.559 178.64 129.572 179.42 129.68 180.267C129.79 182.525 127.521 186.067 128.601 188.063C129.68 189.07 130.947 187.591 131.315 186.445C131.772 185.529 131.856 183.253 132.595 182.549C132.809 183.89 134.745 190.192 134.731 192.08C123.983 190.029 112.594 185.084 109.045 183.683C108.427 183.382 108.621 183.082 108.46 182.218L108.443 182.2ZM131.224 211.391C129.465 213.822 125.271 215.965 122.804 217.76C120.09 219.166 118.295 221.138 116.442 221.011C115.594 220.162 115.731 218.045 115.499 216.828C115.267 215.434 115.491 212.841 114.025 212.291C113.425 212.148 112.809 212.8 112.652 213.629C112.285 215.198 112.906 217.122 112.786 218.622C112.611 219.327 111.056 218.301 110.895 217.295C110.114 214.788 110.689 211.455 109.414 209.124C106.765 207.601 107.392 212.489 107.59 213.989C107.662 214.765 107.805 215.683 107.576 215.912C107.365 216.264 105.598 215.167 104.945 214.654C103.954 213.276 104.461 211.107 103.928 209.448C103.678 207.824 102.16 207.433 101.599 208.914C101.177 209.901 101.409 211.26 101.499 212.124C101.518 212.53 101.359 212.689 100.883 212.493C97.5639 211.534 99.4076 207.216 97.833 205.007C97.1613 204.371 96.368 204.669 96.0347 205.603C95.543 206.731 95.9696 208.285 95.9013 209.414C95.8669 209.837 95.319 209.36 94.4183 208.881C92.8287 207.961 86.5061 204.596 86.3467 204.331C86.6111 204.208 96.0238 200.205 97.7519 199.785L97.9637 199.856C107.323 204.356 118.234 208.259 130.359 210.842C130.871 210.966 131.189 211.143 131.242 211.338L131.224 211.391ZM233.261 104.44C234.526 110.917 235.087 117.852 235.224 124.397C235.456 143.045 230.995 162.072 220.688 177.152C219.438 178.437 217.982 173.953 216.221 175.255C215.185 177.635 220.18 179.215 217.539 181.786C215.797 183.776 214.446 178.621 212.489 179.447C211.151 180.714 213.766 182.766 214.421 184.02C214.97 184.885 214.197 186.436 213.19 185.887C212.377 185.215 210.573 183.13 209.994 184.593C209.538 185.933 211.41 186.995 211.466 188.318C211.45 189.218 210.252 190.063 209.634 189.479C208.839 188.931 207.405 186.581 206.243 187.567C205.31 188.959 207.872 190.534 207.821 191.751C207.77 192.58 206.607 193.284 205.953 192.665C204.981 191.975 203.901 189.767 202.455 190.258C201.715 190.68 202.247 192.128 202.901 192.888C203.573 193.595 204.546 194.708 203.735 195.307C201.673 195.991 200.906 192.055 198.896 192.651C198.262 193.002 198.564 194.22 199.113 194.98C199.838 195.987 201.357 197.084 199.948 198.069C199.014 198.72 197.957 199.282 197.497 198.575C197.019 197.886 196.858 196.598 196.133 195.768C195.372 194.831 194.279 195.288 194.246 196.452C193.967 198.074 196.106 200.143 194.203 201.197C193.146 201.795 192.229 201.934 191.786 201.104C191.255 200.151 190.351 198.014 189.011 198.788C188.342 199.316 188.662 200.622 189.052 201.54C189.46 202.335 189.655 202.988 188.968 203.357C186.413 204.816 186.418 198.906 183.968 200.012C182.295 201.509 186.501 204.798 183.238 205.233C180.962 205.352 181.166 201.612 179.225 200.938C177.477 200.564 177.923 202.946 178.578 204.165C179.658 205.737 179.061 207.147 177.224 206.156C175.704 204.847 175.468 201.759 173.561 200.768C170.42 200.479 174.153 205.726 174.032 206.661C173.84 207.595 172.534 207.699 171.757 207.344C170.132 206.424 170.09 203.036 168.061 202.662C166.667 202.712 167.13 204.759 167.573 205.625C167.803 206.313 168.581 207.091 168.177 207.778C167.314 208.711 165.46 207.914 165.158 206.59C163.527 202.882 161.078 204.377 162.69 207.608C162.885 208.085 162.691 208.384 162.127 208.419C158.898 208.394 159.504 202.591 156.417 202.426C155.606 202.707 155.696 204.03 156.086 204.949C156.371 206.078 157.803 207.404 156.975 208.338C154.384 209.197 154.267 203.622 151.939 204.005C150.405 204.761 152.103 206.881 151.929 207.939C150.747 208.131 149.891 203.613 148.233 203.68C147.192 203.625 147.143 205.195 147.603 206.255C148.613 208.109 147.342 208.071 145.966 207.857C145.948 207.874 145.931 207.857 145.895 207.857C142.437 207.638 133.065 205.484 131.335 205.093C131.141 205.075 131.053 205.057 131.053 205.057C122.316 203.081 113.649 200.435 105.614 196.908C105.473 196.766 107.8 196.03 107.871 195.96L108.029 195.872C109.721 195.099 110.035 193.371 109.661 191.482C109.624 190.882 109.447 190.317 109.606 190.3C113.207 191.613 116.792 193.084 120.693 194.345C123.041 195.214 125.689 195.925 128.407 196.671L128.478 196.742L143.552 200.407C144.151 200.443 144.981 200.639 145.704 200.729C146.799 200.872 147.822 200.98 148.793 201.07L149.234 201.124C202.685 207.918 233.744 160.066 225.722 110.564C225.348 108.57 225.682 107.953 227.283 106.033C228.374 104.73 229.271 103.303 229.853 102.969C231.034 102.671 232.923 103.187 233.261 104.511L233.261 104.44ZM255.786 102.598C255.786 102.598 255.556 102.65 255.45 102.65C254.391 102.366 253.315 102.169 252.203 101.938C249.873 101.439 247.543 100.94 245.178 100.406C242.866 99.9254 240.554 99.4444 238.295 98.8753C236.071 98.3063 233.847 97.8784 231.606 97.5386C230.547 97.3954 229.506 97.2698 228.447 97.197C228.006 97.1785 227.565 97.16 227.16 97.2827C226.684 97.4405 226.296 97.7572 225.944 98.1094C225.574 98.5144 225.258 98.9724 224.941 99.3952C224.589 99.8885 224.237 100.346 223.903 100.822C223.217 101.756 222.566 102.689 221.88 103.623C220.525 105.508 219.118 107.375 217.498 109.03C216.67 109.858 215.984 110.756 215.263 111.69C214.541 112.623 213.82 113.557 213.099 114.49C211.673 116.34 210.195 118.172 208.717 120.039C207.995 120.972 207.292 121.888 206.535 122.786C206.183 123.28 205.813 123.72 205.479 124.231C205.356 124.389 205.268 124.583 205.11 124.742C204.916 124.935 204.828 124.776 204.88 124.583C205.16 123.525 205.352 122.484 205.527 121.426C205.631 120.826 205.753 120.244 205.858 119.645C205.945 119.098 205.997 118.551 206.155 118.04C206.295 117.476 206.735 117.141 207.158 116.789C207.616 116.473 208.039 116.121 208.426 115.769C209.025 115.241 209.764 114.607 209.904 113.796C210.061 112.861 208.949 112.841 208.332 113.105C208.121 113.175 207.909 113.316 207.733 113.456C207.592 113.562 207.381 113.808 207.187 113.79C206.922 113.772 206.974 113.331 207.027 113.173C207.149 112.308 207.606 111.462 208.222 110.846C208.838 110.23 209.631 109.685 210.3 109.051C210.688 108.699 211.057 108.329 211.392 107.889C211.638 107.572 212.025 107.043 211.795 106.602C211.671 106.302 211.265 106.248 211 106.265C210.489 106.282 209.995 106.492 209.59 106.791C209.149 107.09 208.815 107.495 208.445 107.901C208.375 107.971 208.252 108.129 208.164 108.147C207.987 108.147 208.04 107.953 208.057 107.829C208.162 107.406 208.267 106.947 208.337 106.524C208.389 106.013 208.476 105.466 208.651 104.972C209.037 103.879 209.953 103.211 210.834 102.542C211.609 101.979 212.419 101.346 212.894 100.482C213.07 100.236 213.193 99.9007 213.121 99.583C212.997 99.2123 212.626 99.0527 212.273 99.052C211.374 99.0678 210.546 99.7895 209.983 100.423C209.877 100.564 209.807 100.741 209.701 100.882C209.508 101.075 209.472 100.899 209.542 100.722C209.7 100.246 209.787 99.7703 209.822 99.2764C209.891 98.7826 209.908 98.2357 210.101 97.7598C210.294 97.2838 210.646 96.8964 211.016 96.562C211.386 96.2275 211.791 95.9284 212.16 95.5587C212.566 95.189 212.988 94.7665 213.375 94.3791C213.886 93.8686 214.925 92.8651 214.394 92.0525C214.128 91.6462 213.599 91.6451 213.229 91.8031C212.788 92.0316 212.472 92.4191 212.137 92.7536L211.539 93.3522C211.415 93.4754 211.292 93.6693 211.151 93.7395C210.904 93.8096 211.01 93.5628 211.045 93.4218C211.115 93.2102 211.132 93.0162 211.114 92.7868C211.078 92.328 210.918 91.8514 211.023 91.3929C211.093 90.8991 211.445 90.5117 211.832 90.1949C212.255 89.8429 212.731 89.544 213.153 89.192C213.558 88.8576 213.963 88.4527 214.351 88.0653C214.738 87.678 215.16 87.2554 215.53 86.8504C215.829 86.5158 216.111 86.093 216.11 85.6343C216.127 85.2286 215.861 84.8575 215.455 84.8038C214.997 84.7323 214.609 84.9785 214.292 85.2601C213.922 85.6299 213.588 85.9997 213.218 86.3694C213.077 86.475 212.936 86.6158 212.796 86.792C212.69 86.8976 212.496 87.1265 212.32 87.0909C212.284 86.985 212.372 86.8969 212.425 86.8088C212.478 86.6855 212.495 86.562 212.513 86.4385C212.53 86.1387 212.405 85.8032 212.387 85.468C212.298 84.9209 212.456 84.4449 212.825 84.0399C213.336 83.5293 213.952 83.1248 214.498 82.6495C214.991 82.1919 215.502 81.7166 216.013 81.206C216.435 80.7481 216.91 80.2375 217.086 79.638C217.243 79.162 217.013 78.6146 216.501 78.5254C215.972 78.4185 215.567 78.7881 215.215 79.105C214.721 79.5627 214.281 80.0381 213.824 80.5312C213.7 80.6544 213.155 81.2002 213.207 80.6887C213.206 80.5123 213.294 80.3537 213.329 80.1773C213.434 79.86 213.469 79.5425 213.521 79.2074C213.643 78.5549 213.73 77.867 213.888 77.2499C214.08 76.5622 214.591 76.2281 215.102 75.8234C215.648 75.454 216.159 75.014 216.634 74.5386C217.075 74.1337 217.532 73.7112 217.796 73.1649C217.971 72.7065 217.917 72.1242 217.458 71.8763C216.875 71.5752 216.312 72.0681 215.942 72.4378C215.696 72.6843 215.414 72.9307 215.15 73.1948C215.026 73.318 214.938 73.4414 214.815 73.5646C214.745 73.635 214.674 73.7055 214.621 73.6877C214.427 73.6344 214.691 73.0527 214.708 72.9293C214.796 72.559 214.865 72.2063 214.9 71.8182C215.022 71.0599 215.144 70.3368 215.283 69.5608C215.371 69.1905 215.458 68.8202 215.528 68.4322C215.668 67.5857 215.613 66.8623 216.462 67.6403C216.903 68.0469 217.31 68.4182 217.769 68.8073C218.635 69.6029 219.537 70.3633 220.403 71.159C220.756 71.4772 221.11 71.8308 221.516 72.061C221.657 72.1671 222.223 72.4858 221.888 72.6792C221.765 72.7671 221.57 72.7491 221.429 72.7135C221.218 72.7131 221.006 72.748 220.847 72.8006C220.424 72.9056 219.913 73.0986 219.737 73.5216C219.544 73.9623 219.757 74.4214 220.128 74.6162C220.551 74.8641 221.081 74.8651 221.539 74.8308C222.016 74.8141 222.474 74.7445 222.95 74.6572C223.356 74.5698 223.867 74.4474 224.256 74.5893C224.485 74.6427 224.662 74.8195 224.821 74.9786C224.998 75.1906 225.175 75.3321 225.351 75.4736C225.457 75.5797 225.775 75.7214 225.811 75.8979C225.829 76.1273 225.564 76.0739 225.423 76.0736C225 76.0727 224.577 76.2483 224.401 76.6713C224.243 77.0062 224.367 77.4122 224.668 77.6422C225.339 78.1728 226.415 77.8398 227.173 77.7531C228.037 77.6666 228.515 78.2498 229.116 78.8155C229.31 79.01 230.494 79.8063 230.459 80.0885C230.389 80.4059 228.642 80.3141 228.308 80.7545C227.851 81.3887 228.54 82.0076 229.122 82.1322C229.705 82.2922 230.34 82.1523 230.957 82.1007C231.328 82.0485 231.716 81.9787 232.104 81.9442C232.933 81.893 233.428 82.6349 233.958 83.13C234.1 83.2714 234.294 83.4306 234.453 83.5544C234.983 83.9083 234.666 84.0135 234.207 84.0478C233.801 84.0647 233.431 84.258 233.22 84.6104C233.01 85.0334 233.222 85.4925 233.593 85.6873C234.353 86.1299 235.375 85.8497 236.187 85.7455C236.398 85.7106 236.645 85.7111 236.875 85.7645C237.104 85.8532 237.281 86.03 237.44 86.1891C237.811 86.5603 238.218 86.8963 238.624 87.1971C238.783 87.3562 239.136 87.5333 239.172 87.7803C239.208 87.9568 239.084 88.0095 238.961 88.0622C238.732 88.1499 238.573 88.2378 238.433 88.4492C238.239 88.8193 238.487 89.2432 238.77 89.4908C239.141 89.8267 239.635 90.0394 240.112 90.1639C240.659 90.2885 241.153 90.3248 241.683 90.3964C242.194 90.4504 242.618 90.6982 243.025 91.0695C243.414 91.4584 243.82 91.865 244.262 92.2364C244.474 92.4132 244.704 92.5372 244.933 92.7317C245.004 92.8024 245.234 92.9617 245.216 93.0851C245.076 93.4024 243.734 92.9057 243.54 92.8524C242.675 92.6213 241.581 92.3015 240.752 92.7762C240.347 93.0047 240.26 93.4103 240.49 93.8165C240.755 94.2228 241.215 94.4707 241.656 94.6657C242.609 95.0557 243.65 95.0402 244.674 95.0776C245.679 95.062 246.773 95.0642 247.709 95.5071C248.168 95.7198 248.557 96.0381 248.963 96.3741C249.299 96.6747 249.652 96.9224 249.971 97.2406C250.041 97.3113 250.183 97.4175 250.2 97.5057C250.218 97.6998 250.007 97.6994 249.883 97.6462C249.671 97.6458 249.512 97.5572 249.318 97.5039C249.018 97.4151 248.718 97.3615 248.436 97.2904C247.606 97.0947 246.67 96.7576 245.86 97.0735C245.542 97.1787 245.225 97.3898 245.226 97.7426C245.244 98.0426 245.456 98.29 245.651 98.4844C246.287 99.1561 247.205 99.3344 248.07 99.4244C249.128 99.4971 250.222 99.3934 251.316 99.5015C251.792 99.5554 252.269 99.6798 252.675 99.8747C253.187 100.105 253.629 100.512 254.053 100.865C254.442 101.254 254.849 101.661 255.29 101.962C255.396 102.068 255.767 102.263 255.75 102.421L255.786 102.598Z" fill="#017EFE"/>
</g>
<defs>
<clipPath id="clip0_201_717">
<rect width="222" height="197" fill="white" transform="translate(0.861145 129.339) rotate(-45)"/>
</clipPath>
</defs>
</svg>
