<svg width="216" height="174" viewBox="0 0 216 174" fill="none" xmlns="http://www.w3.org/2000/svg">
<g clip-path="url(#clip0_212_681)">
<path d="M97.0098 102.343C101.707 95.4515 95.8465 87.5283 89.3938 86.9357C82.3486 86.3431 76.8177 94.398 79.8026 100.521C82.3047 106.469 91.9398 109.191 97.0317 102.321L97.0098 102.343ZM96.5708 98.9192C93.8273 107.676 82.6119 104.626 81.1853 98.2608C79.5392 84.4775 98.7217 87.7697 96.5708 98.9192Z" fill="#017EFE"/>
<path d="M89.1744 106.711C88.7573 106.711 88.3403 106.689 87.9014 106.623C84.1263 106.162 80.8341 103.836 79.4953 100.653C78.0687 97.7121 78.4418 94.1345 80.5049 91.1057C82.6119 88.055 86.0358 86.3211 89.4158 86.6064C92.9713 86.9137 96.4611 89.4377 98.0852 92.8835C99.5996 96.1099 99.3143 99.5337 97.2951 102.519C95.2978 105.218 92.4007 106.711 89.1963 106.711H89.1744ZM88.6476 87.2429C85.6846 87.2429 82.8753 88.8012 81.0317 91.5008C79.1003 94.3321 78.7271 97.6682 80.066 100.412C81.317 103.397 84.4117 105.591 87.9672 106.008C91.413 106.425 94.6174 105.021 96.7464 102.167C98.6558 99.3801 98.9192 96.1757 97.4926 93.1908C95.9562 89.9644 92.686 87.5721 89.3719 87.2868C89.1305 87.2868 88.911 87.2649 88.6696 87.2649L88.6476 87.2429ZM89.5914 104.67C89.4816 104.67 89.3499 104.67 89.2402 104.67C85.2457 104.516 81.6682 101.794 80.9 98.3486C80.4391 94.4199 81.5804 91.435 84.1263 89.9206C86.804 88.3184 90.6888 88.6037 93.5859 90.6229C96.3513 92.5543 97.5804 95.6051 96.922 98.985V99.0289C95.8026 102.584 93.0811 104.691 89.6133 104.691L89.5914 104.67ZM88.077 89.5255C86.7601 89.5255 85.5091 89.8328 84.4336 90.4693C82.1071 91.852 81.0756 94.6174 81.5145 98.2388C82.2169 101.312 85.6188 103.879 89.2621 104.033C92.6641 104.143 95.1881 102.277 96.2635 98.8534C96.8561 95.7368 95.7368 92.9274 93.1908 91.1496C91.6545 90.0742 89.8328 89.5255 88.077 89.5255Z" fill="#017EFE"/>
<path d="M100.675 81.8437C100.675 81.8437 100.763 81.6681 100.807 81.5803L100.609 81.7779C97.5585 79.2758 93.8932 77.6078 90.0742 77.2785C76.3129 76.1372 65.5584 91.8081 71.3526 103.77C76.2251 115.336 95.0125 120.692 104.933 107.281C111.298 97.9535 107.698 87.616 100.697 81.8218L100.675 81.8437ZM104.318 97.0536C104.275 97.6243 104.077 98.1949 103.901 98.7436C103.704 99.3142 103.462 99.8629 103.265 100.434C103.177 100.675 103.089 100.916 103.067 101.158C103.023 101.312 103.023 101.553 103.221 101.509C103.419 101.465 103.616 101.202 103.704 101.026C103.792 100.916 103.858 100.785 103.945 100.675C103.967 100.631 103.989 100.565 103.989 100.499C104.011 100.456 104.033 100.324 104.099 100.324C104.187 100.302 104.099 100.587 104.077 100.631C104.055 100.763 104.033 100.916 103.967 101.07C103.857 101.355 103.726 101.663 103.638 101.948C103.375 102.563 103.111 103.199 102.804 103.792C102.189 104.977 101.399 106.096 100.478 107.084C99.5996 108.006 98.5681 108.818 97.4926 109.432C95.5173 110.552 93.3883 111.122 91.2813 111.232C88.9988 111.364 86.804 110.969 84.7848 110.31C82.59 109.564 80.5488 108.423 78.8149 106.93C77.959 106.206 77.1908 105.394 76.5104 104.494C75.83 103.616 75.2374 102.65 74.7985 101.597C73.9425 99.5996 73.7889 97.2731 73.9206 94.9466C74.0083 93.7614 74.1839 92.5323 74.4912 91.3252C74.8204 90.1181 75.3033 88.9109 75.9617 87.8135C76.6201 86.7161 77.52 85.6626 78.4857 84.8067C79.0125 84.3897 79.5173 84.0385 80.066 83.6873C80.3293 83.5337 80.5927 83.3801 80.8341 83.2264C80.9219 83.1386 81.0317 83.0728 81.1195 83.1825C81.2073 83.2703 81.2073 83.424 81.2073 83.5117V83.9288C81.2073 84.0604 81.2073 84.2141 81.2512 84.3238C81.2951 84.4336 81.3828 84.4994 81.4926 84.4775C81.6243 84.4775 81.734 84.3677 81.7779 84.236C81.8218 84.1043 81.8657 83.9507 81.9096 83.819C81.9315 83.6654 81.9535 83.5118 82.0193 83.3801C82.0413 83.2264 82.0632 83.0947 82.1071 82.963C82.1291 82.8094 82.151 82.6777 82.2827 82.6119C82.3925 82.5241 82.5241 82.4802 82.6339 82.4582C82.7875 82.4363 82.9192 82.4143 83.0509 82.3705C83.2045 82.3485 83.3362 82.2827 83.4679 82.2607C83.5996 82.2168 83.7313 82.151 83.8191 82.129C84.1044 82.129 83.9946 82.546 84.0166 82.7436C84.0166 82.8972 84.1044 83.2264 84.3019 83.1825C84.4336 83.1386 84.4775 83.0289 84.5433 82.9192C84.6311 82.7875 84.675 82.6338 84.697 82.4802C84.7409 82.2168 84.7848 81.9096 85.0481 81.7998C85.1798 81.7559 85.3115 81.7559 85.4432 81.7559C85.5968 81.7559 85.7505 81.734 85.9041 81.734C86.1016 81.712 86.4309 81.6901 86.4967 81.8876C86.6064 82.129 86.5406 82.4144 86.5406 82.6338C86.5625 82.8314 86.5625 83.0728 86.6942 83.1825C86.782 83.2703 86.8479 83.2703 86.9357 83.2264C87.0674 83.1825 87.1332 83.0508 87.1771 82.9411C87.221 82.8314 87.221 82.6997 87.2649 82.6119C87.2868 82.4802 87.3527 82.3485 87.3746 82.1949C87.3746 82.0632 87.3746 81.9315 87.4624 81.8437C87.5721 81.712 87.7038 81.6681 87.8136 81.6681C88.1208 81.6462 88.3842 81.712 88.6696 81.7559C88.8671 81.7779 89.2402 81.712 89.3499 81.9095C89.4597 82.0851 89.3499 82.3485 89.3499 82.5899C89.328 82.7875 89.3499 83.0508 89.5914 83.1167C89.8547 83.1606 89.9425 82.7655 89.9864 82.568C90.0303 82.4144 90.0303 82.2607 90.0962 82.129C90.1181 81.9973 90.2059 81.9534 90.2937 81.9754C90.4254 81.9754 90.5351 82.0193 90.6229 82.0632C90.7765 82.1071 90.9082 82.1071 91.0619 82.151C91.2155 82.1729 91.3472 82.2388 91.5008 82.2607C91.6325 82.2607 91.7642 82.2827 91.8959 82.3485C92.0934 82.4582 92.0276 82.7875 92.0056 83.0289C91.9617 83.3142 91.9178 83.6215 91.9178 83.9068C91.9178 84.1043 91.9398 84.4775 92.2251 84.4555C92.4885 84.4116 92.5543 83.9726 92.6202 83.7751C92.6641 83.6215 92.708 83.4898 92.7299 83.3581C92.7299 83.2045 92.7299 83.0289 92.7738 82.8753C92.7958 82.7655 92.8835 82.6777 93.0152 82.6777C93.125 82.6777 93.2567 82.7655 93.3444 82.8094C93.6298 82.8972 93.8932 82.985 94.1565 83.0947C94.4199 83.2264 94.6833 83.2923 94.9686 83.402C95.0564 83.424 95.1661 83.4898 95.232 83.5556C95.3198 83.6654 95.232 83.819 95.21 83.9507C95.1222 84.258 95.0125 84.5872 94.9028 84.9164C94.815 85.1798 94.7272 85.4432 94.6394 85.6846C94.6174 85.8382 94.5296 86.2113 94.7711 86.1674C94.9466 86.1455 95.1003 85.926 95.21 85.8163C95.4076 85.5529 95.5392 85.2456 95.6929 84.9603C95.7807 84.8067 95.8465 84.675 95.8904 84.5213C95.9343 84.3897 95.9782 84.236 96.066 84.1263C96.1977 83.9507 96.3952 84.1263 96.505 84.2141C96.7464 84.3897 96.9439 84.5433 97.2073 84.6969C97.4487 84.8506 97.6682 84.9823 97.9316 85.1139C98.0194 85.1578 98.1071 85.2237 98.1291 85.3554C98.151 85.4651 98.1071 85.5968 98.0413 85.6846C97.9316 85.9919 97.8657 86.2772 97.756 86.5625C97.7121 86.7161 97.6243 86.8698 97.6023 87.0234C97.5585 87.1332 97.5146 87.2648 97.5146 87.3746C97.5146 87.4624 97.5365 87.5282 97.6243 87.5502C97.7121 87.5721 97.7779 87.5282 97.8218 87.5063C97.9974 87.3746 98.1291 87.199 98.2388 87.0234C98.4144 86.7381 98.5461 86.4528 98.6997 86.1674C98.7217 86.0577 98.8095 85.9699 98.8753 85.9699C99.029 85.9699 99.1387 86.1235 99.2045 86.2113C99.446 86.3869 99.6435 86.5625 99.841 86.76C100.017 86.9137 100.28 87.0893 100.258 87.3526C100.258 87.4843 100.214 87.5941 100.17 87.7038C100.126 87.8794 100.061 88.033 99.9947 88.2305C99.9069 88.5378 99.8191 88.8451 99.7093 89.1963C99.5996 89.5035 99.5338 89.7888 99.4021 90.0961C99.3582 90.2936 99.2484 90.5351 99.2045 90.7326C99.2045 90.8204 99.2045 90.9082 99.2484 90.974C99.2923 91.0618 99.424 91.0179 99.5338 90.9521C99.7971 90.7984 99.9508 90.4912 100.082 90.2278C100.258 89.9425 100.412 89.6352 100.565 89.3279C100.697 89.0426 100.851 88.7573 100.96 88.45C101.004 88.3622 101.07 88.2086 101.158 88.2525C101.246 88.2744 101.29 88.3842 101.333 88.4281C101.487 88.6695 101.641 88.9109 101.794 89.1743C101.882 89.284 101.97 89.3718 102.058 89.5035C102.102 89.5913 102.168 89.6791 102.168 89.8108C102.146 89.9644 102.08 90.0961 102.036 90.2278C101.948 90.3814 101.904 90.5351 101.86 90.6887C101.619 91.3033 101.421 91.9617 101.224 92.5762C101.092 92.8835 100.982 93.1908 100.895 93.498C100.851 93.6078 100.807 93.7395 100.763 93.8492C100.741 93.9589 100.719 94.0467 100.719 94.1345C100.719 94.2223 100.719 94.2882 100.807 94.3321C100.895 94.376 100.982 94.3321 101.07 94.2443C101.312 94.0906 101.465 93.8053 101.597 93.5639C101.772 93.2786 101.904 92.9713 102.058 92.664C102.211 92.3787 102.365 92.0714 102.497 91.7861C102.628 91.5447 102.672 91.3252 102.804 91.1057C102.848 91.0618 102.914 90.974 102.958 90.996C103.002 91.0399 103.045 91.1057 103.045 91.1496C103.089 91.2374 103.133 91.3252 103.177 91.413C103.287 91.6764 103.375 91.9397 103.484 92.1812C103.572 92.4226 103.682 92.6421 103.748 92.9055C103.814 93.1688 103.726 93.4322 103.616 93.7175C103.506 94.0028 103.375 94.2882 103.309 94.5954C103.067 95.21 102.87 95.8684 102.628 96.483C102.585 96.6366 102.497 96.7683 102.475 96.9219C102.453 97.0317 102.431 97.1853 102.475 97.2511C102.563 97.4267 102.782 97.295 102.892 97.2072C103.045 97.0317 103.177 96.8122 103.287 96.6366C103.44 96.3513 103.594 96.044 103.748 95.7367C103.836 95.605 103.879 95.4514 103.945 95.2978C103.967 95.2539 103.989 95.1661 104.055 95.1222C104.077 95.0783 104.099 94.9686 104.165 94.9466C104.253 94.8588 104.253 94.9905 104.253 95.0563C104.275 95.1661 104.275 95.2539 104.275 95.3636C104.318 95.9562 104.428 96.5488 104.362 97.1414L104.318 97.0536Z" fill="#017EFE" stroke="#017EFE" stroke-width="0.25" stroke-miterlimit="10"/>
<path d="M149.794 56.7133C147.666 54.9355 144.966 52.6529 141.915 50.085C140.203 48.6365 138.382 47.0782 136.494 45.4979C128.329 38.9794 116.104 27.5006 109.542 23.4842L109.41 23.4403C108.159 23.2647 107.413 24.4499 106.535 25.4375C96.9878 37.5308 72.3403 67.2922 54.4308 89.9205C42.2497 104.077 28.0714 121.196 22.4966 128.615C21.904 131.643 24.4939 132.477 27.3032 135.199C30.6173 137.986 35.4459 142.069 40.6036 146.392C48.7682 152.911 61.0152 164.39 67.5557 168.406H67.6873C68.9603 168.648 69.7285 167.44 70.5845 166.497C80.1318 154.36 120.911 105.438 138.864 82.7874C141.718 79.4733 143.803 77.0371 145.361 75.1934C150.519 69.0919 150.343 68.9822 154.623 63.3196C155.238 60.3128 152.626 59.4568 149.838 56.7353L149.794 56.7133ZM124.576 90.9301C123.72 91.9397 122.799 93.1907 122.162 94.3979C108.115 111.561 89.6572 134.277 75.6544 151.331C75.2374 151.089 74.8204 150.848 74.3815 150.628C69.1359 148.258 62.793 148.653 57.8108 152.253C57.6791 152.296 57.5474 152.406 57.3938 152.516C57.2182 152.67 57.0646 152.845 56.8451 152.999C52.0604 148.96 45.7175 143.627 40.3622 139.128C40.5597 138.733 40.8012 138.381 40.9548 138.008C43.3032 132.697 42.8204 126.398 39.199 121.394C39.1112 121.284 39.0234 121.13 38.9136 120.999C38.3869 120.318 37.7943 119.682 37.1798 119.111C46.332 108.203 61.8273 89.8547 68.6311 81.7339C69.4432 80.7243 70.365 79.4733 71.0015 78.2881C84.4336 61.8491 91.0619 53.2455 100.873 41.1522C101.268 41.3278 101.641 41.5693 102.058 41.7009C107.479 43.6763 113.778 42.7325 118.475 38.7819C118.585 38.6941 118.716 38.5843 118.826 38.4746C118.958 38.3649 119.067 38.2112 119.177 38.1234C124.73 42.7983 132.807 49.5802 138.93 54.6941C136.67 60.0274 137.306 66.3265 141.059 71.2209C135.638 77.6955 131.314 82.7874 124.51 90.9081L124.576 90.9301Z" fill="#017EFE" stroke="#017EFE" stroke-width="0.25" stroke-miterlimit="10"/>
<path d="M213.575 130.722C212.522 128.812 211.512 126.903 210.502 124.971C208.505 121.174 206.53 117.377 204.554 113.624C202.052 108.818 199.594 104.011 197.114 99.1826C197.685 98.6339 198.168 98.0194 198.387 97.2951C198.914 95.649 197.553 94.0907 196.609 92.8397C195.271 91.1936 193.976 89.4816 192.703 87.7697C190.135 84.4336 187.611 81.0975 185.109 77.7176C181.026 72.3184 176.988 66.8533 172.928 61.4542C173.476 60.8177 174.003 60.1812 174.53 59.5228C175.43 58.3815 176.725 57.0646 176.812 55.5502C176.944 53.7724 175.254 52.5214 174.047 51.5337C172.335 50.1949 170.689 48.7902 169.021 47.3856C165.729 44.6421 162.48 41.8766 159.21 39.1112C145.932 27.8519 132.807 16.3951 119.177 5.5309C117.553 4.23597 115.929 2.94105 114.261 1.64612C113.8 1.3169 112.944 0.241455 112.285 0.241455C111.627 0.241455 111.144 1.11937 110.793 1.53638C107.94 4.74078 104.977 7.85738 102.189 11.1057C96.5269 17.6681 91.0399 24.3842 85.5529 31.1002C74.557 44.5543 79.7587 38.8039 68.8286 52.2799C60.9932 61.959 53.1798 71.6599 45.3444 81.3609C42.7545 84.28 40.5378 87.2868 40.1427 87.7697C37.3773 91.0838 34.5899 94.398 31.7806 97.6682C26.2497 104.253 20.7408 110.859 15.1441 117.421C12.3347 120.714 9.50344 124.006 6.71606 127.364C5.35529 129.01 3.95062 130.678 2.6118 132.346C1.68999 133.465 0.417011 134.804 0.307272 136.318C0.197532 138.096 1.86557 139.325 3.09466 140.291C4.80659 141.652 6.43074 143.056 8.12073 144.461L8.64748 144.9C11.7421 147.512 14.8587 150.124 17.9314 152.736C22.1454 156.313 26.3594 159.934 30.5734 163.512C37.1578 172.335 43.808 181.114 50.568 189.806C50.4802 189.806 50.3924 189.827 50.2827 189.827C50.0851 189.784 49.8656 189.674 49.6462 189.432C49.3828 189.147 49.2292 188.752 49.1853 188.401L29.8492 163.49C30.1784 164.105 30.5295 164.763 30.8368 165.378C38.8697 180.829 46.7271 196.368 55.2209 211.6C56.2305 213.4 57.2621 215.221 58.3156 217.021C58.6009 217.504 58.996 218.799 59.5886 219.062C60.2031 219.325 60.9932 218.667 61.4761 218.426C65.295 216.538 69.2457 214.804 73.0646 212.829C80.7902 208.878 88.4281 204.752 96.0221 200.604C111.232 192.308 126.486 183.989 141.696 175.649C152.626 169.657 163.534 163.6 174.442 157.586C177.383 156.137 180.126 154.535 181.246 153.877C181.158 153.899 181.092 153.921 181.004 153.987C185.24 151.726 189.52 149.465 193.778 147.27C197.663 145.295 201.504 143.32 205.345 141.279C207.254 140.247 209.164 139.259 211.051 138.228C212.324 137.504 213.992 136.779 214.672 135.375C215.441 133.773 214.365 132.017 213.619 130.634L213.575 130.722ZM170.03 64.9439L165.334 70.6064C165.487 70.9137 165.816 71.1332 166.255 71.0235C167.309 70.7162 167.945 69.2457 168.275 68.3239C168.604 67.4898 169.174 66.3266 170.162 67.1387C170.755 67.6215 171.281 68.6092 171.413 69.3993C171.589 70.5625 170.601 71.5283 170.008 72.4281C169.57 73.0646 168.735 74.2278 169.306 75.0399C169.943 75.9617 171.018 75.0399 171.457 74.4254C171.852 73.8108 172.094 73.1304 172.379 72.4501C172.554 72.0989 172.774 71.5722 173.235 71.5283C173.959 71.4405 174.574 72.8232 174.793 73.3938C175.21 74.5132 174.661 75.3691 174.091 76.2909C173.74 76.9274 172.115 79.3856 173.674 79.649C175.035 79.8465 175.452 78.0029 175.956 77.1469C176.659 75.852 177.581 76.6641 178.107 77.6078C179.227 79.5392 177.295 80.922 176.549 82.5461C176.264 83.1606 175.912 84.1483 176.681 84.5873C177.602 85.136 178.371 83.863 178.722 83.1606C179.117 82.3925 179.446 80.8561 180.5 80.8122C181.948 80.7244 182.08 82.8095 181.86 83.7971C181.597 84.9384 180.982 85.9261 180.5 86.9576C180.236 87.5502 179.688 89.2402 180.917 89.1744C181.487 89.1524 182.212 88.4501 182.519 87.9892C182.958 87.4405 183.089 86.1895 183.77 85.8602C184.582 85.531 185.416 87.1332 185.657 87.7258C186.184 89.0427 185.24 90.0962 184.538 91.1936C184.143 91.7642 183.111 93.5639 184.34 93.8932C185.504 94.2004 186.25 92.3129 186.601 91.5886C186.908 90.8644 187.72 89.8767 188.291 91.0399C188.73 91.9398 187.962 93.0592 187.457 93.7834C186.886 94.6394 186.206 95.4295 185.745 96.3733C185.46 96.9439 184.823 98.7217 185.987 98.8095C186.689 98.8315 187.413 97.9755 187.742 97.4487C188.313 96.5708 188.576 94.9247 189.432 94.2224C190.508 93.3664 190.859 95.3856 190.683 96.0221C190.398 97.4268 189.081 98.5242 188.072 99.3801C185.548 101.443 159.561 120.494 156.489 123.172C143.473 134.431 129.646 144.461 116.082 155.04C102.585 165.597 89.1304 176.11 75.6325 186.645C74.0083 187.896 72.4062 189.147 70.7601 190.398C70.0138 190.991 69.2676 191.583 68.5433 192.154C67.841 192.681 67.1167 193.602 66.2827 193.888C66.1729 193.537 66.8314 192.966 66.9192 192.637C67.0508 192.308 67.0728 191.934 66.8094 191.627C66.3924 191.144 65.7559 191.539 65.3389 191.869C64.7244 192.308 64.1976 192.922 63.7148 193.515C63.3197 193.932 62.9685 194.568 62.5076 194.875C61.7395 195.424 60.8615 194.766 60.4665 194.107C59.7641 192.988 60.1592 191.671 60.7957 190.64C61.0371 190.244 61.4102 189.827 61.7834 189.389C62.1345 189.674 62.5076 189.981 62.8588 190.244C63.3197 190.596 64.1757 191.671 64.8341 191.671C65.4926 191.671 65.9535 190.793 66.3266 190.354C69.1798 187.15 72.1428 184.077 74.9302 180.807C76.7738 178.656 78.5516 176.505 80.3513 174.376C98.8973 159.847 137.35 130.305 156.072 115.205C159.517 112.681 162.019 110.771 163.929 109.366C166.782 107.216 168.297 106.03 169.613 104.911C171.194 103.616 172.489 102.453 175.386 99.9727C175.474 99.7972 175.495 99.6435 175.539 99.446C175.934 98.173 175.539 97.1634 174.793 96.088C174.091 95.1003 173.169 94.0468 172.225 92.5982C171.655 91.8301 170.974 90.9521 170.294 90.0084C169.021 88.3842 167.638 86.5406 166.124 84.5434C164.785 82.7656 163.358 80.8781 161.888 78.9466C161.339 78.2443 160.768 77.52 160.198 76.7519L156.708 80.9659C158.683 83.5557 160.593 86.0578 162.305 88.3403C159.013 92.9714 158.244 99.1607 160.746 104.67C157.432 107.172 151.88 111.451 147.007 115.205C142.135 118.958 137.986 122.206 137.569 122.733C125.213 132.39 110.069 144.242 96.1977 155.084C101.729 148.302 107.259 141.498 112.812 134.672C114.678 133.926 116.521 132.873 118.211 131.358C121.46 128.286 123.259 124.774 123.83 121.152C124.028 120.911 124.225 120.67 124.423 120.428C132.258 110.749 140.072 101.048 147.907 91.3472C150.431 88.494 152.582 85.5749 153.087 84.9823C156.028 81.4926 158.991 77.9809 161.954 74.4912C164.653 71.3307 167.353 68.1483 170.03 64.9658V64.9439ZM49.8437 179.995C49.7998 179.863 49.734 179.753 49.712 179.666C50.1729 180.061 50.6338 180.434 51.1386 180.829C50.6777 180.917 50.2168 180.631 49.8437 179.995ZM50.2827 170.426C49.9315 171.699 48.9219 171.918 48.0001 170.952C47.1002 169.987 47.3197 169.065 47.9123 168.033C48.3951 167.199 49.2292 166.102 48.8121 165.092C48.6146 164.565 48.1976 164.368 47.6489 164.609C46.8807 164.917 46.6612 165.882 46.3759 166.585C46.0467 167.419 45.4102 168.494 44.3787 167.989C43.4569 167.528 43.1276 166.497 43.3252 165.531C43.5007 164.609 44.0056 163.775 44.4006 162.941C44.8176 162.173 45.5858 161.032 45.2566 160.088C44.9274 159.122 44.0714 159.474 43.5227 159.978C42.6667 160.856 42.6887 161.954 42.3156 163.029C41.284 165.816 38.4308 163.007 38.2552 161.185C38.1016 159.869 38.8039 158.771 39.2209 157.564C39.3745 157.037 39.5062 156.511 39.3526 155.984C39.199 155.391 38.6722 154.952 38.0577 155.281C37.092 155.808 36.8066 157.41 36.653 158.376C36.5213 159.254 36.236 160.549 35.0508 159.956C34.3485 159.627 33.6022 158.749 33.3169 158.025C32.878 156.884 33.6242 155.72 34.0193 154.711C34.3265 153.943 34.8752 152.648 34.129 151.945C33.273 151.177 32.439 152.34 32.1537 153.065C31.8684 153.767 31.8025 154.513 31.6269 155.238C31.5391 155.633 31.4733 156.225 31.0124 156.357C30.2881 156.598 29.3882 155.369 29.081 154.864C28.4006 153.855 28.7518 152.867 29.081 151.814C29.3224 151.111 30.354 148.302 28.7737 148.39C27.369 148.5 27.3471 150.431 27.0618 151.397C26.6448 152.823 25.5913 152.253 24.8011 151.419C23.2648 149.729 24.845 147.951 25.262 146.151C25.4157 145.471 25.5254 144.439 24.6694 144.176C23.6159 143.847 23.177 145.251 22.9575 146.041C22.7161 146.897 22.76 148.5 21.7065 148.785C20.2799 149.18 19.6873 147.161 19.6653 146.129C19.6653 144.944 20.0604 143.847 20.3018 142.683C20.4335 142.069 20.5871 140.247 19.4239 140.554C18.8313 140.73 18.2826 141.586 18.0631 142.113C17.7778 142.749 17.9314 144.044 17.3169 144.483C16.7243 144.922 15.8464 144.066 15.3196 143.452C15.2318 143.342 15.166 143.254 15.0782 143.144C15.0563 143.144 15.0563 143.122 15.0343 143.1C14.2222 141.893 14.9246 140.642 15.3635 139.391C15.605 138.711 16.2195 136.735 14.9685 136.67C13.7174 136.604 13.3882 138.667 13.2346 139.457C13.1907 139.742 13.059 140.072 12.9054 140.335C12.8615 140.247 12.7956 140.203 12.7517 140.137L12.1372 140.73C12.0055 140.642 11.8519 140.576 11.6982 140.379C11.0617 139.567 11.5665 138.316 11.8738 137.482C12.2689 136.494 12.7517 135.55 13.0151 134.497C13.1687 133.882 13.4102 131.929 12.2469 132.17C11.5446 132.302 11.0398 133.312 10.8203 133.904C10.4692 134.914 10.535 136.626 9.85461 137.504C8.97669 138.579 8.20852 136.67 8.20852 135.967C8.20852 134.541 9.24007 133.158 10.0741 132.061C12.1152 129.427 14.3759 126.969 16.5707 124.423C17.6461 123.874 18.546 122.689 19.2922 121.899C28.8176 111.956 36.6749 100.609 45.498 90.0523C47.5831 87.5502 49.8656 85.1799 51.9068 82.6339C53.926 80.066 55.8135 77.3883 57.8766 74.8204C77.8931 50.151 81.8876 44.7957 102.036 20.2141C103.353 18.5899 104.67 16.9877 105.986 15.3855C106.579 14.6393 107.194 13.8931 107.83 13.1249C108.379 12.4445 108.906 11.369 109.674 10.9081C109.827 11.2374 109.323 11.9397 109.279 12.3128C109.235 12.642 109.301 13.0371 109.608 13.2346C110.157 13.6516 110.661 13.1249 111.013 12.7079C111.539 12.1153 111.912 11.391 112.285 10.6887C112.571 10.2058 112.768 9.48152 113.185 9.04256C113.822 8.34023 114.831 8.77919 115.38 9.37178C116.28 10.2936 116.214 11.6983 115.819 12.8615C115.424 13.9808 114.283 15.3636 114.568 16.5926C114.678 17.0316 114.919 17.3389 115.402 17.295C116.258 17.2072 116.829 16.1537 117.114 15.4952C117.377 14.8149 117.641 12.4664 118.563 12.4225C119.419 12.4006 120.362 13.8931 120.406 14.6393C120.494 15.5611 119.879 16.5049 119.441 17.295C119.023 18.0193 118.299 19.1825 118.914 20.0165C119.528 20.8286 120.362 20.0165 120.779 19.4239C121.196 18.8313 121.46 18.129 121.679 17.4486C121.811 17.0974 121.921 16.3732 122.36 16.2415C122.93 16.0439 123.676 16.856 124.072 17.1633C124.51 17.4925 124.993 17.7998 125.235 18.3265C125.849 19.5995 124.818 20.8944 124.335 21.9699C124.028 22.5844 123.303 24.4939 124.642 24.4719C126.047 24.4719 126.486 22.4308 126.793 21.4431C127.144 20.1921 128.132 19.9726 129.076 20.9603C129.954 21.926 129.712 22.8478 129.12 23.8794C128.659 24.7134 127.825 25.7888 128.242 26.8204C128.417 27.3471 128.856 27.5446 129.383 27.3032C130.195 26.996 130.393 26.0302 130.678 25.3279C130.985 24.4939 131.6 23.4184 132.653 23.9232C133.619 24.3842 133.926 25.3938 133.729 26.3814C133.553 27.3032 133.048 28.1372 132.609 28.9713C132.192 29.7394 131.446 30.8807 131.775 31.8245C132.083 32.7902 132.96 32.439 133.509 31.9123C134.365 31.0563 134.321 29.9809 134.716 28.8835C135.726 26.0741 138.579 28.8835 138.777 30.6832C138.908 32.022 138.206 33.1194 137.811 34.3266C137.657 34.8094 137.504 35.3581 137.657 35.8849C137.833 36.4994 138.36 36.9384 138.952 36.6091C139.94 36.0824 140.225 34.4802 140.379 33.5145C140.51 32.6366 140.796 31.3416 141.959 31.9123C142.683 32.2635 143.408 33.1194 143.693 33.8876C144.132 35.0069 143.386 36.1702 142.991 37.2017C142.705 37.9699 142.157 39.2648 142.881 39.9452C143.759 40.7573 144.571 39.594 144.878 38.8698C145.163 38.1674 145.229 37.4212 145.405 36.6969C145.493 36.3019 145.559 35.7093 145.997 35.5776C146.744 35.3362 147.644 36.5652 147.973 37.0481C148.609 38.0796 148.302 39.0454 147.951 40.1208C147.709 40.8231 146.678 43.6105 148.28 43.5447C149.685 43.4349 149.685 41.5035 149.97 40.5159C150.409 39.1112 151.462 39.6818 152.231 40.5159C153.767 42.2058 152.187 43.9836 151.792 45.7834C151.638 46.4637 151.528 47.4953 152.384 47.7587C153.438 48.0879 153.877 46.6832 154.096 45.8931C154.338 45.0371 154.294 43.4349 155.347 43.1496C156.774 42.7545 157.366 44.7738 157.366 45.7834C157.366 46.9685 156.971 48.0879 156.752 49.2511C156.62 49.8657 156.467 51.6873 157.63 51.3362C158.201 51.1825 158.771 50.3266 158.991 49.7998C159.254 49.1194 159.122 47.8684 159.715 47.4295C160.439 46.8808 161.624 48.2854 161.997 48.8341C162.831 50.0193 162.129 51.2923 161.69 52.4994C161.449 53.1798 160.812 55.199 162.085 55.2429C163.336 55.2868 163.644 53.2456 163.819 52.4555C163.973 51.6434 164.543 50.5241 165.377 51.5557C166.014 52.3677 165.487 53.6188 165.18 54.4528C164.829 55.4404 164.302 56.3842 164.039 57.3938C163.885 58.0303 163.687 59.9617 164.807 59.7422C165.531 59.6105 166.058 58.6009 166.255 58.0083C166.607 56.9987 166.519 55.2868 167.221 54.4089C168.077 53.3334 168.867 55.2429 168.867 55.9452C168.867 57.3719 167.814 58.7546 166.98 59.852C164.939 62.4857 119.155 117.707 108.115 131.27C97.0975 144.746 86.0797 158.244 75.0618 171.699C73.745 173.323 72.4281 174.925 71.1112 176.527C70.4967 177.273 69.9041 178.019 69.2676 178.788C68.6969 179.468 68.1921 180.544 67.424 180.982C67.2484 180.675 67.7532 179.973 67.819 179.622C67.841 179.292 67.7971 178.897 67.4898 178.656C66.9411 178.261 66.4363 178.788 66.0632 179.205C65.5803 179.797 65.1853 180.522 64.8122 181.224C64.5268 181.707 64.2854 182.431 63.9123 182.848C63.2319 183.572 62.2223 183.133 61.6956 182.541C60.7957 181.575 60.8835 180.214 61.2786 179.051C61.6297 177.932 62.8149 176.549 62.5296 175.32C62.4198 174.881 62.1345 174.574 61.6736 174.618C60.8396 174.661 60.247 175.759 59.9836 176.417C59.6983 177.098 59.4569 179.446 58.5351 179.468C57.6572 179.512 56.7353 178.019 56.6695 177.273C56.6256 176.308 57.2182 175.408 57.6352 174.618C58.0522 173.871 58.7984 172.73 58.1619 171.896C57.5474 171.084 56.7134 171.896 56.3183 172.489C55.8794 173.081 55.616 173.784 55.3965 174.464C55.2868 174.815 55.1551 175.517 54.7161 175.671C54.1674 175.847 53.3993 175.057 53.0042 174.749C52.5872 174.42 52.1043 174.069 51.8629 173.586C51.2484 172.313 52.258 171.018 52.7628 169.943C53.0481 169.328 53.7943 167.419 52.4335 167.441C51.0728 167.441 50.5899 169.482 50.3046 170.447L50.2827 170.426ZM60.0056 187.984C59.5886 188.708 58.8862 190.618 58.0303 190.442C57.1962 190.288 56.6256 188.664 56.7353 187.94C56.8451 187.303 57.284 186.733 57.723 186.206C57.7669 186.25 57.8547 186.316 57.8986 186.36C58.6009 186.908 59.3032 187.435 59.9836 187.984H60.0056ZM56.1427 184.911C56.1427 184.911 56.1427 184.955 56.1208 184.955C55.9233 185.284 55.6599 185.921 55.2209 185.965C54.6503 186.052 54.1016 185.065 53.7724 184.714C53.4431 184.275 53.07 183.858 52.9384 183.309C52.8506 182.98 52.9164 182.629 52.9822 182.321C54.0357 183.177 55.1112 184.055 56.1427 184.889V184.911ZM53.7724 194.415C53.0261 195.007 52.2141 194.766 51.7751 193.668C51.5117 192.988 51.5995 192.461 51.8629 191.978C51.9068 191.891 51.9726 191.847 52.0165 191.781C52.653 192.593 53.2895 193.405 53.926 194.239C53.8821 194.283 53.8163 194.371 53.7724 194.415ZM56.1866 200.56C55.594 200.516 55.199 199.485 54.9795 199.068C54.6942 198.607 54.3869 198.102 54.343 197.531C54.2991 196.917 54.5405 196.39 54.9576 195.951C55.0015 195.907 55.0892 195.841 55.1331 195.797C55.4185 196.148 55.7038 196.544 56.0111 196.917C56.5817 197.663 57.1962 198.387 57.7888 199.133C57.701 199.177 57.6571 199.265 57.5913 199.331C57.4816 199.441 57.3499 199.572 57.2621 199.66C57.0207 199.967 56.6475 200.56 56.2086 200.538L56.1866 200.56ZM58.2717 205.52C57.4596 205.235 57.1962 203.479 57.4157 202.777C57.6571 202.052 58.2936 201.504 58.8862 201.021L59.1496 200.823C59.413 201.109 59.6325 201.416 59.8739 201.701C60.1373 202.009 60.5104 202.689 60.9274 203.106L60.7738 203.26C60.7738 203.26 60.7299 203.282 60.686 203.347C60.1592 203.984 59.1057 205.849 58.2497 205.542L58.2717 205.52ZM207.1 132.851C206.552 134.168 205.059 135.067 203.896 135.748C201.021 137.438 171.808 152.187 168.253 154.338C153.35 163.49 137.767 171.26 122.403 179.6C107.128 187.962 91.83 196.258 76.5543 204.555C74.7107 205.542 72.8451 206.552 71.0454 207.496C70.1894 207.978 69.3554 208.461 68.4775 208.9C67.7312 209.339 66.8314 210.151 65.9535 210.261C65.9315 209.91 66.6777 209.427 66.8314 209.12C67.007 208.812 67.0947 208.417 66.8753 208.132C66.5461 207.539 65.8437 207.825 65.3828 208.088C64.6805 208.417 64.0659 208.966 63.4733 209.449C63.0124 209.8 62.5515 210.371 62.0028 210.634C61.1469 211.051 60.3787 210.239 60.0934 209.493C59.5666 208.286 60.2251 207.035 60.9932 206.069C61.7614 205.213 63.3636 204.357 63.5611 203.128C63.5831 203.018 63.5831 202.886 63.5831 202.799C63.5611 202.623 63.4733 202.491 63.3856 202.36C65.9754 200.516 68.6092 198.738 71.199 196.895L70.1894 197.663C70.3869 198.014 70.6284 198.343 70.8259 198.651L70.9576 198.738C72.0769 199.375 73.2182 198.585 74.3815 198.014C87.8136 190.42 144.088 160.505 169.24 146.305C173.103 144.308 175.956 142.837 178.107 141.696C179.534 140.971 180.631 140.379 181.575 139.852C182.212 139.523 182.782 139.216 183.309 138.93C185.043 137.943 186.206 137.218 188.094 136.055C188.95 135.572 189.937 134.98 191.166 134.211C192.878 131.644 190.815 129.888 189.257 126.288C188.928 125.674 188.576 124.993 188.225 124.313C188.225 124.313 188.225 124.291 188.203 124.291C187.128 122.228 185.855 119.792 184.45 117.18C183.463 115.292 182.431 113.317 181.377 111.276L177.01 114.7C178.041 116.675 179.073 118.585 180.017 120.34C176.944 123.435 175.144 127.693 175.144 132.104C175.144 133.553 175.32 135.024 175.715 136.472C171.962 138.447 168.626 140.203 165.048 142.069C161.449 143.934 157.63 145.954 152.955 148.434C151.814 149.048 150.475 149.86 149.443 150.76C130.919 160.79 106.864 173.959 87.8794 184.253C89.8767 182.694 91.83 181.18 93.8273 179.622C102.628 172.774 111.386 165.86 120.187 158.991C122.952 158.727 125.783 157.849 128.571 156.181C132.456 153.613 134.826 150.233 135.989 146.59C144.988 139.501 153.965 132.39 162.941 125.301C166.08 123.04 168.845 120.67 169.35 120.275L169.767 119.945L169.811 119.923C173.235 117.334 176.637 114.722 180.083 112.198C183.463 109.63 186.908 107.084 190.288 104.494C190.925 104.011 191.561 103.506 192.198 103.023C192.088 104.165 191.035 104.933 190.332 105.723C189.762 106.338 188.752 107.325 189.191 108.225C189.674 109.257 190.903 108.51 191.452 107.94C191.978 107.391 192.329 106.755 192.747 106.14C192.988 105.811 193.273 105.306 193.734 105.328C194.48 105.416 194.875 106.886 194.985 107.457C195.227 108.642 194.546 109.432 193.822 110.266C193.361 110.837 191.32 113.032 192.834 113.558C194.151 113.997 194.897 112.198 195.556 111.408C196.456 110.266 197.246 111.21 197.619 112.264C198.387 114.393 196.258 115.468 195.183 116.938C194.832 117.531 194.327 118.475 195.007 119.002C195.863 119.726 196.807 118.563 197.312 117.926C197.838 117.246 198.431 115.731 199.485 115.863C200.933 116.039 200.736 118.146 200.362 119.089C199.923 120.209 199.155 121.087 198.475 122.03C198.124 122.579 197.29 124.181 198.475 124.335C199.089 124.379 199.923 123.786 200.34 123.435C200.823 122.886 201.196 121.679 201.943 121.504C202.799 121.262 203.391 123.04 203.501 123.655C203.808 125.081 202.689 125.981 201.811 126.969C201.328 127.495 200.011 129.12 201.131 129.624C202.272 130.107 203.325 128.373 203.786 127.693C204.203 127.013 205.191 126.157 205.564 127.43C205.849 128.417 204.884 129.427 204.269 130.063C203.567 130.81 202.733 131.512 202.096 132.346C201.745 132.895 200.779 134.607 201.943 134.826C202.645 134.958 203.501 134.233 203.94 133.773C204.642 132.938 205.191 131.336 206.201 130.788C207.386 130.085 207.408 132.148 207.122 132.829L207.1 132.851Z" fill="#017EFE" stroke="#017EFE" stroke-width="0.25" stroke-miterlimit="10"/>
</g>
<g clip-path="url(#clip1_212_681)">
<path d="M97.0098 102.343C101.707 95.4515 95.8465 87.5283 89.3938 86.9357C82.3486 86.3431 76.8177 94.398 79.8026 100.521C82.3047 106.469 91.9398 109.191 97.0317 102.321L97.0098 102.343ZM96.5708 98.9192C93.8273 107.676 82.6119 104.626 81.1853 98.2608C79.5392 84.4775 98.7217 87.7697 96.5708 98.9192Z" fill="#017EFE"/>
<path d="M89.1744 106.711C88.7573 106.711 88.3403 106.689 87.9014 106.623C84.1263 106.162 80.8341 103.836 79.4953 100.653C78.0687 97.7121 78.4418 94.1345 80.5049 91.1057C82.6119 88.055 86.0358 86.3211 89.4158 86.6064C92.9713 86.9137 96.4611 89.4377 98.0852 92.8835C99.5996 96.1099 99.3143 99.5337 97.2951 102.519C95.2978 105.218 92.4007 106.711 89.1963 106.711H89.1744ZM88.6476 87.2429C85.6846 87.2429 82.8753 88.8012 81.0317 91.5008C79.1003 94.3321 78.7271 97.6682 80.066 100.412C81.317 103.397 84.4117 105.591 87.9672 106.008C91.413 106.425 94.6174 105.021 96.7464 102.167C98.6558 99.3801 98.9192 96.1757 97.4926 93.1908C95.9562 89.9644 92.686 87.5721 89.3719 87.2868C89.1305 87.2868 88.911 87.2649 88.6696 87.2649L88.6476 87.2429ZM89.5914 104.67C89.4816 104.67 89.3499 104.67 89.2402 104.67C85.2457 104.516 81.6682 101.794 80.9 98.3486C80.4391 94.4199 81.5804 91.435 84.1263 89.9206C86.804 88.3184 90.6888 88.6037 93.5859 90.6229C96.3513 92.5543 97.5804 95.6051 96.922 98.985V99.0289C95.8026 102.584 93.0811 104.691 89.6133 104.691L89.5914 104.67ZM88.077 89.5255C86.7601 89.5255 85.5091 89.8328 84.4336 90.4693C82.1071 91.852 81.0756 94.6174 81.5145 98.2388C82.2169 101.312 85.6188 103.879 89.2621 104.033C92.6641 104.143 95.1881 102.277 96.2635 98.8534C96.8561 95.7368 95.7368 92.9274 93.1908 91.1496C91.6545 90.0742 89.8328 89.5255 88.077 89.5255Z" fill="#017EFE"/>
<path d="M100.675 81.8437C100.675 81.8437 100.763 81.6681 100.807 81.5803L100.609 81.7779C97.5585 79.2758 93.8932 77.6078 90.0742 77.2785C76.3129 76.1372 65.5584 91.8081 71.3526 103.77C76.2251 115.336 95.0125 120.692 104.933 107.281C111.298 97.9535 107.698 87.616 100.697 81.8218L100.675 81.8437ZM104.318 97.0536C104.275 97.6243 104.077 98.1949 103.901 98.7436C103.704 99.3142 103.462 99.8629 103.265 100.434C103.177 100.675 103.089 100.916 103.067 101.158C103.023 101.312 103.023 101.553 103.221 101.509C103.419 101.465 103.616 101.202 103.704 101.026C103.792 100.916 103.858 100.785 103.945 100.675C103.967 100.631 103.989 100.565 103.989 100.499C104.011 100.456 104.033 100.324 104.099 100.324C104.187 100.302 104.099 100.587 104.077 100.631C104.055 100.763 104.033 100.916 103.967 101.07C103.857 101.355 103.726 101.663 103.638 101.948C103.375 102.563 103.111 103.199 102.804 103.792C102.189 104.977 101.399 106.096 100.478 107.084C99.5996 108.006 98.5681 108.818 97.4926 109.432C95.5173 110.552 93.3883 111.122 91.2813 111.232C88.9988 111.364 86.804 110.969 84.7848 110.31C82.59 109.564 80.5488 108.423 78.8149 106.93C77.959 106.206 77.1908 105.394 76.5104 104.494C75.83 103.616 75.2374 102.65 74.7985 101.597C73.9425 99.5996 73.7889 97.2731 73.9206 94.9466C74.0083 93.7614 74.1839 92.5323 74.4912 91.3252C74.8204 90.1181 75.3033 88.9109 75.9617 87.8135C76.6201 86.7161 77.52 85.6626 78.4857 84.8067C79.0125 84.3897 79.5173 84.0385 80.066 83.6873C80.3293 83.5337 80.5927 83.3801 80.8341 83.2264C80.9219 83.1386 81.0317 83.0728 81.1195 83.1825C81.2073 83.2703 81.2073 83.424 81.2073 83.5117V83.9288C81.2073 84.0604 81.2073 84.2141 81.2512 84.3238C81.2951 84.4336 81.3828 84.4994 81.4926 84.4775C81.6243 84.4775 81.734 84.3677 81.7779 84.236C81.8218 84.1043 81.8657 83.9507 81.9096 83.819C81.9315 83.6654 81.9535 83.5118 82.0193 83.3801C82.0413 83.2264 82.0632 83.0947 82.1071 82.963C82.1291 82.8094 82.151 82.6777 82.2827 82.6119C82.3925 82.5241 82.5241 82.4802 82.6339 82.4582C82.7875 82.4363 82.9192 82.4143 83.0509 82.3705C83.2045 82.3485 83.3362 82.2827 83.4679 82.2607C83.5996 82.2168 83.7313 82.151 83.8191 82.129C84.1044 82.129 83.9946 82.546 84.0166 82.7436C84.0166 82.8972 84.1044 83.2264 84.3019 83.1825C84.4336 83.1386 84.4775 83.0289 84.5433 82.9192C84.6311 82.7875 84.675 82.6338 84.697 82.4802C84.7409 82.2168 84.7848 81.9096 85.0481 81.7998C85.1798 81.7559 85.3115 81.7559 85.4432 81.7559C85.5968 81.7559 85.7505 81.734 85.9041 81.734C86.1016 81.712 86.4309 81.6901 86.4967 81.8876C86.6064 82.129 86.5406 82.4144 86.5406 82.6338C86.5625 82.8314 86.5625 83.0728 86.6942 83.1825C86.782 83.2703 86.8479 83.2703 86.9357 83.2264C87.0674 83.1825 87.1332 83.0508 87.1771 82.9411C87.221 82.8314 87.221 82.6997 87.2649 82.6119C87.2868 82.4802 87.3527 82.3485 87.3746 82.1949C87.3746 82.0632 87.3746 81.9315 87.4624 81.8437C87.5721 81.712 87.7038 81.6681 87.8136 81.6681C88.1208 81.6462 88.3842 81.712 88.6696 81.7559C88.8671 81.7779 89.2402 81.712 89.3499 81.9095C89.4597 82.0851 89.3499 82.3485 89.3499 82.5899C89.328 82.7875 89.3499 83.0508 89.5914 83.1167C89.8547 83.1606 89.9425 82.7655 89.9864 82.568C90.0303 82.4144 90.0303 82.2607 90.0962 82.129C90.1181 81.9973 90.2059 81.9534 90.2937 81.9754C90.4254 81.9754 90.5351 82.0193 90.6229 82.0632C90.7765 82.1071 90.9082 82.1071 91.0619 82.151C91.2155 82.1729 91.3472 82.2388 91.5008 82.2607C91.6325 82.2607 91.7642 82.2827 91.8959 82.3485C92.0934 82.4582 92.0276 82.7875 92.0056 83.0289C91.9617 83.3142 91.9178 83.6215 91.9178 83.9068C91.9178 84.1043 91.9398 84.4775 92.2251 84.4555C92.4885 84.4116 92.5543 83.9726 92.6202 83.7751C92.6641 83.6215 92.708 83.4898 92.7299 83.3581C92.7299 83.2045 92.7299 83.0289 92.7738 82.8753C92.7958 82.7655 92.8835 82.6777 93.0152 82.6777C93.125 82.6777 93.2567 82.7655 93.3444 82.8094C93.6298 82.8972 93.8932 82.985 94.1565 83.0947C94.4199 83.2264 94.6833 83.2923 94.9686 83.402C95.0564 83.424 95.1661 83.4898 95.232 83.5556C95.3198 83.6654 95.232 83.819 95.21 83.9507C95.1222 84.258 95.0125 84.5872 94.9028 84.9164C94.815 85.1798 94.7272 85.4432 94.6394 85.6846C94.6174 85.8382 94.5296 86.2113 94.7711 86.1674C94.9466 86.1455 95.1003 85.926 95.21 85.8163C95.4076 85.5529 95.5392 85.2456 95.6929 84.9603C95.7807 84.8067 95.8465 84.675 95.8904 84.5213C95.9343 84.3897 95.9782 84.236 96.066 84.1263C96.1977 83.9507 96.3952 84.1263 96.505 84.2141C96.7464 84.3897 96.9439 84.5433 97.2073 84.6969C97.4487 84.8506 97.6682 84.9823 97.9316 85.1139C98.0194 85.1578 98.1071 85.2237 98.1291 85.3554C98.151 85.4651 98.1071 85.5968 98.0413 85.6846C97.9316 85.9919 97.8657 86.2772 97.756 86.5625C97.7121 86.7161 97.6243 86.8698 97.6023 87.0234C97.5585 87.1332 97.5146 87.2648 97.5146 87.3746C97.5146 87.4624 97.5365 87.5282 97.6243 87.5502C97.7121 87.5721 97.7779 87.5282 97.8218 87.5063C97.9974 87.3746 98.1291 87.199 98.2388 87.0234C98.4144 86.7381 98.5461 86.4528 98.6997 86.1674C98.7217 86.0577 98.8095 85.9699 98.8753 85.9699C99.029 85.9699 99.1387 86.1235 99.2045 86.2113C99.446 86.3869 99.6435 86.5625 99.841 86.76C100.017 86.9137 100.28 87.0893 100.258 87.3526C100.258 87.4843 100.214 87.5941 100.17 87.7038C100.126 87.8794 100.061 88.033 99.9947 88.2305C99.9069 88.5378 99.8191 88.8451 99.7093 89.1963C99.5996 89.5035 99.5338 89.7888 99.4021 90.0961C99.3582 90.2936 99.2484 90.5351 99.2045 90.7326C99.2045 90.8204 99.2045 90.9082 99.2484 90.974C99.2923 91.0618 99.424 91.0179 99.5338 90.9521C99.7971 90.7984 99.9508 90.4912 100.082 90.2278C100.258 89.9425 100.412 89.6352 100.565 89.3279C100.697 89.0426 100.851 88.7573 100.96 88.45C101.004 88.3622 101.07 88.2086 101.158 88.2525C101.246 88.2744 101.29 88.3842 101.333 88.4281C101.487 88.6695 101.641 88.9109 101.794 89.1743C101.882 89.284 101.97 89.3718 102.058 89.5035C102.102 89.5913 102.168 89.6791 102.168 89.8108C102.146 89.9644 102.08 90.0961 102.036 90.2278C101.948 90.3814 101.904 90.5351 101.86 90.6887C101.619 91.3033 101.421 91.9617 101.224 92.5762C101.092 92.8835 100.982 93.1908 100.895 93.498C100.851 93.6078 100.807 93.7395 100.763 93.8492C100.741 93.9589 100.719 94.0467 100.719 94.1345C100.719 94.2223 100.719 94.2882 100.807 94.3321C100.895 94.376 100.982 94.3321 101.07 94.2443C101.312 94.0906 101.465 93.8053 101.597 93.5639C101.772 93.2786 101.904 92.9713 102.058 92.664C102.211 92.3787 102.365 92.0714 102.497 91.7861C102.628 91.5447 102.672 91.3252 102.804 91.1057C102.848 91.0618 102.914 90.974 102.958 90.996C103.002 91.0399 103.045 91.1057 103.045 91.1496C103.089 91.2374 103.133 91.3252 103.177 91.413C103.287 91.6764 103.375 91.9397 103.484 92.1812C103.572 92.4226 103.682 92.6421 103.748 92.9055C103.814 93.1688 103.726 93.4322 103.616 93.7175C103.506 94.0028 103.375 94.2882 103.309 94.5954C103.067 95.21 102.87 95.8684 102.628 96.483C102.585 96.6366 102.497 96.7683 102.475 96.9219C102.453 97.0317 102.431 97.1853 102.475 97.2511C102.563 97.4267 102.782 97.295 102.892 97.2072C103.045 97.0317 103.177 96.8122 103.287 96.6366C103.44 96.3513 103.594 96.044 103.748 95.7367C103.836 95.605 103.879 95.4514 103.945 95.2978C103.967 95.2539 103.989 95.1661 104.055 95.1222C104.077 95.0783 104.099 94.9686 104.165 94.9466C104.253 94.8588 104.253 94.9905 104.253 95.0563C104.275 95.1661 104.275 95.2539 104.275 95.3636C104.318 95.9562 104.428 96.5488 104.362 97.1414L104.318 97.0536Z" fill="#017EFE" stroke="#017EFE" stroke-width="0.25" stroke-miterlimit="10"/>
<path d="M149.794 56.7133C147.666 54.9355 144.966 52.6529 141.915 50.085C140.203 48.6365 138.382 47.0782 136.494 45.4979C128.329 38.9794 116.104 27.5006 109.542 23.4842L109.41 23.4403C108.159 23.2647 107.413 24.4499 106.535 25.4375C96.9878 37.5308 72.3403 67.2922 54.4308 89.9205C42.2497 104.077 28.0714 121.196 22.4966 128.615C21.904 131.643 24.4939 132.477 27.3032 135.199C30.6173 137.986 35.4459 142.069 40.6036 146.392C48.7682 152.911 61.0152 164.39 67.5557 168.406H67.6873C68.9603 168.648 69.7285 167.44 70.5845 166.497C80.1318 154.36 120.911 105.438 138.864 82.7874C141.718 79.4733 143.803 77.0371 145.361 75.1934C150.519 69.0919 150.343 68.9822 154.623 63.3196C155.238 60.3128 152.626 59.4568 149.838 56.7353L149.794 56.7133ZM124.576 90.9301C123.72 91.9397 122.799 93.1907 122.162 94.3979C108.115 111.561 89.6572 134.277 75.6544 151.331C75.2374 151.089 74.8204 150.848 74.3815 150.628C69.1359 148.258 62.793 148.653 57.8108 152.253C57.6791 152.296 57.5474 152.406 57.3938 152.516C57.2182 152.67 57.0646 152.845 56.8451 152.999C52.0604 148.96 45.7175 143.627 40.3622 139.128C40.5597 138.733 40.8012 138.381 40.9548 138.008C43.3032 132.697 42.8204 126.398 39.199 121.394C39.1112 121.284 39.0234 121.13 38.9136 120.999C38.3869 120.318 37.7943 119.682 37.1798 119.111C46.332 108.203 61.8273 89.8547 68.6311 81.7339C69.4432 80.7243 70.365 79.4733 71.0015 78.2881C84.4336 61.8491 91.0619 53.2455 100.873 41.1522C101.268 41.3278 101.641 41.5693 102.058 41.7009C107.479 43.6763 113.778 42.7325 118.475 38.7819C118.585 38.6941 118.716 38.5843 118.826 38.4746C118.958 38.3649 119.067 38.2112 119.177 38.1234C124.73 42.7983 132.807 49.5802 138.93 54.6941C136.67 60.0274 137.306 66.3265 141.059 71.2209C135.638 77.6955 131.314 82.7874 124.51 90.9081L124.576 90.9301Z" fill="#017EFE" stroke="#017EFE" stroke-width="0.25" stroke-miterlimit="10"/>
<path d="M213.575 130.722C212.522 128.812 211.512 126.903 210.502 124.971C208.505 121.174 206.53 117.377 204.554 113.624C202.052 108.818 199.594 104.011 197.114 99.1826C197.685 98.6339 198.168 98.0194 198.387 97.2951C198.914 95.649 197.553 94.0907 196.609 92.8397C195.271 91.1936 193.976 89.4816 192.703 87.7697C190.135 84.4336 187.611 81.0975 185.109 77.7176C181.026 72.3184 176.988 66.8533 172.928 61.4542C173.476 60.8177 174.003 60.1812 174.53 59.5228C175.43 58.3815 176.725 57.0646 176.812 55.5502C176.944 53.7724 175.254 52.5214 174.047 51.5337C172.335 50.1949 170.689 48.7902 169.021 47.3856C165.729 44.6421 162.48 41.8766 159.21 39.1112C145.932 27.8519 132.807 16.3951 119.177 5.5309C117.553 4.23597 115.929 2.94105 114.261 1.64612C113.8 1.3169 112.944 0.241455 112.285 0.241455C111.627 0.241455 111.144 1.11937 110.793 1.53638C107.94 4.74078 104.977 7.85738 102.189 11.1057C96.5269 17.6681 91.0399 24.3842 85.5529 31.1002C74.557 44.5543 79.7587 38.8039 68.8286 52.2799C60.9932 61.959 53.1798 71.6599 45.3444 81.3609C42.7545 84.28 40.5378 87.2868 40.1427 87.7697C37.3773 91.0838 34.5899 94.398 31.7806 97.6682C26.2497 104.253 20.7408 110.859 15.1441 117.421C12.3347 120.714 9.50344 124.006 6.71606 127.364C5.35529 129.01 3.95062 130.678 2.6118 132.346C1.68999 133.465 0.417011 134.804 0.307272 136.318C0.197532 138.096 1.86557 139.325 3.09466 140.291C4.80659 141.652 6.43074 143.056 8.12073 144.461L8.64748 144.9C11.7421 147.512 14.8587 150.124 17.9314 152.736C22.1454 156.313 26.3594 159.934 30.5734 163.512C37.1578 172.335 43.808 181.114 50.568 189.806C50.4802 189.806 50.3924 189.827 50.2827 189.827C50.0851 189.784 49.8656 189.674 49.6462 189.432C49.3828 189.147 49.2292 188.752 49.1853 188.401L29.8492 163.49C30.1784 164.105 30.5295 164.763 30.8368 165.378C38.8697 180.829 46.7271 196.368 55.2209 211.6C56.2305 213.4 57.2621 215.221 58.3156 217.021C58.6009 217.504 58.996 218.799 59.5886 219.062C60.2031 219.325 60.9932 218.667 61.4761 218.426C65.295 216.538 69.2457 214.804 73.0646 212.829C80.7902 208.878 88.4281 204.752 96.0221 200.604C111.232 192.308 126.486 183.989 141.696 175.649C152.626 169.657 163.534 163.6 174.442 157.586C177.383 156.137 180.126 154.535 181.246 153.877C181.158 153.899 181.092 153.921 181.004 153.987C185.24 151.726 189.52 149.465 193.778 147.27C197.663 145.295 201.504 143.32 205.345 141.279C207.254 140.247 209.164 139.259 211.051 138.228C212.324 137.504 213.992 136.779 214.672 135.375C215.441 133.773 214.365 132.017 213.619 130.634L213.575 130.722ZM170.03 64.9439L165.334 70.6064C165.487 70.9137 165.816 71.1332 166.255 71.0235C167.309 70.7162 167.945 69.2457 168.275 68.3239C168.604 67.4898 169.174 66.3266 170.162 67.1387C170.755 67.6215 171.281 68.6092 171.413 69.3993C171.589 70.5625 170.601 71.5283 170.008 72.4281C169.57 73.0646 168.735 74.2278 169.306 75.0399C169.943 75.9617 171.018 75.0399 171.457 74.4254C171.852 73.8108 172.094 73.1304 172.379 72.4501C172.554 72.0989 172.774 71.5722 173.235 71.5283C173.959 71.4405 174.574 72.8232 174.793 73.3938C175.21 74.5132 174.661 75.3691 174.091 76.2909C173.74 76.9274 172.115 79.3856 173.674 79.649C175.035 79.8465 175.452 78.0029 175.956 77.1469C176.659 75.852 177.581 76.6641 178.107 77.6078C179.227 79.5392 177.295 80.922 176.549 82.5461C176.264 83.1606 175.912 84.1483 176.681 84.5873C177.602 85.136 178.371 83.863 178.722 83.1606C179.117 82.3925 179.446 80.8561 180.5 80.8122C181.948 80.7244 182.08 82.8095 181.86 83.7971C181.597 84.9384 180.982 85.9261 180.5 86.9576C180.236 87.5502 179.688 89.2402 180.917 89.1744C181.487 89.1524 182.212 88.4501 182.519 87.9892C182.958 87.4405 183.089 86.1895 183.77 85.8602C184.582 85.531 185.416 87.1332 185.657 87.7258C186.184 89.0427 185.24 90.0962 184.538 91.1936C184.143 91.7642 183.111 93.5639 184.34 93.8932C185.504 94.2004 186.25 92.3129 186.601 91.5886C186.908 90.8644 187.72 89.8767 188.291 91.0399C188.73 91.9398 187.962 93.0592 187.457 93.7834C186.886 94.6394 186.206 95.4295 185.745 96.3733C185.46 96.9439 184.823 98.7217 185.987 98.8095C186.689 98.8315 187.413 97.9755 187.742 97.4487C188.313 96.5708 188.576 94.9247 189.432 94.2224C190.508 93.3664 190.859 95.3856 190.683 96.0221C190.398 97.4268 189.081 98.5242 188.072 99.3801C185.548 101.443 159.561 120.494 156.489 123.172C143.473 134.431 129.646 144.461 116.082 155.04C102.585 165.597 89.1304 176.11 75.6325 186.645C74.0083 187.896 72.4062 189.147 70.7601 190.398C70.0138 190.991 69.2676 191.583 68.5433 192.154C67.841 192.681 67.1167 193.602 66.2827 193.888C66.1729 193.537 66.8314 192.966 66.9192 192.637C67.0508 192.308 67.0728 191.934 66.8094 191.627C66.3924 191.144 65.7559 191.539 65.3389 191.869C64.7244 192.308 64.1976 192.922 63.7148 193.515C63.3197 193.932 62.9685 194.568 62.5076 194.875C61.7395 195.424 60.8615 194.766 60.4665 194.107C59.7641 192.988 60.1592 191.671 60.7957 190.64C61.0371 190.244 61.4102 189.827 61.7834 189.389C62.1345 189.674 62.5076 189.981 62.8588 190.244C63.3197 190.596 64.1757 191.671 64.8341 191.671C65.4926 191.671 65.9535 190.793 66.3266 190.354C69.1798 187.15 72.1428 184.077 74.9302 180.807C76.7738 178.656 78.5516 176.505 80.3513 174.376C98.8973 159.847 137.35 130.305 156.072 115.205C159.517 112.681 162.019 110.771 163.929 109.366C166.782 107.216 168.297 106.03 169.613 104.911C171.194 103.616 172.489 102.453 175.386 99.9727C175.474 99.7972 175.495 99.6435 175.539 99.446C175.934 98.173 175.539 97.1634 174.793 96.088C174.091 95.1003 173.169 94.0468 172.225 92.5982C171.655 91.8301 170.974 90.9521 170.294 90.0084C169.021 88.3842 167.638 86.5406 166.124 84.5434C164.785 82.7656 163.358 80.8781 161.888 78.9466C161.339 78.2443 160.768 77.52 160.198 76.7519L156.708 80.9659C158.683 83.5557 160.593 86.0578 162.305 88.3403C159.013 92.9714 158.244 99.1607 160.746 104.67C157.432 107.172 151.88 111.451 147.007 115.205C142.135 118.958 137.986 122.206 137.569 122.733C125.213 132.39 110.069 144.242 96.1977 155.084C101.729 148.302 107.259 141.498 112.812 134.672C114.678 133.926 116.521 132.873 118.211 131.358C121.46 128.286 123.259 124.774 123.83 121.152C124.028 120.911 124.225 120.67 124.423 120.428C132.258 110.749 140.072 101.048 147.907 91.3472C150.431 88.494 152.582 85.5749 153.087 84.9823C156.028 81.4926 158.991 77.9809 161.954 74.4912C164.653 71.3307 167.353 68.1483 170.03 64.9658V64.9439ZM49.8437 179.995C49.7998 179.863 49.734 179.753 49.712 179.666C50.1729 180.061 50.6338 180.434 51.1386 180.829C50.6777 180.917 50.2168 180.631 49.8437 179.995ZM50.2827 170.426C49.9315 171.699 48.9219 171.918 48.0001 170.952C47.1002 169.987 47.3197 169.065 47.9123 168.033C48.3951 167.199 49.2292 166.102 48.8121 165.092C48.6146 164.565 48.1976 164.368 47.6489 164.609C46.8807 164.917 46.6612 165.882 46.3759 166.585C46.0467 167.419 45.4102 168.494 44.3787 167.989C43.4569 167.528 43.1276 166.497 43.3252 165.531C43.5007 164.609 44.0056 163.775 44.4006 162.941C44.8176 162.173 45.5858 161.032 45.2566 160.088C44.9274 159.122 44.0714 159.474 43.5227 159.978C42.6667 160.856 42.6887 161.954 42.3156 163.029C41.284 165.816 38.4308 163.007 38.2552 161.185C38.1016 159.869 38.8039 158.771 39.2209 157.564C39.3745 157.037 39.5062 156.511 39.3526 155.984C39.199 155.391 38.6722 154.952 38.0577 155.281C37.092 155.808 36.8066 157.41 36.653 158.376C36.5213 159.254 36.236 160.549 35.0508 159.956C34.3485 159.627 33.6022 158.749 33.3169 158.025C32.878 156.884 33.6242 155.72 34.0193 154.711C34.3265 153.943 34.8752 152.648 34.129 151.945C33.273 151.177 32.439 152.34 32.1537 153.065C31.8684 153.767 31.8025 154.513 31.6269 155.238C31.5391 155.633 31.4733 156.225 31.0124 156.357C30.2881 156.598 29.3882 155.369 29.081 154.864C28.4006 153.855 28.7518 152.867 29.081 151.814C29.3224 151.111 30.354 148.302 28.7737 148.39C27.369 148.5 27.3471 150.431 27.0618 151.397C26.6448 152.823 25.5913 152.253 24.8011 151.419C23.2648 149.729 24.845 147.951 25.262 146.151C25.4157 145.471 25.5254 144.439 24.6694 144.176C23.6159 143.847 23.177 145.251 22.9575 146.041C22.7161 146.897 22.76 148.5 21.7065 148.785C20.2799 149.18 19.6873 147.161 19.6653 146.129C19.6653 144.944 20.0604 143.847 20.3018 142.683C20.4335 142.069 20.5871 140.247 19.4239 140.554C18.8313 140.73 18.2826 141.586 18.0631 142.113C17.7778 142.749 17.9314 144.044 17.3169 144.483C16.7243 144.922 15.8464 144.066 15.3196 143.452C15.2318 143.342 15.166 143.254 15.0782 143.144C15.0563 143.144 15.0563 143.122 15.0343 143.1C14.2222 141.893 14.9246 140.642 15.3635 139.391C15.605 138.711 16.2195 136.735 14.9685 136.67C13.7174 136.604 13.3882 138.667 13.2346 139.457C13.1907 139.742 13.059 140.072 12.9054 140.335C12.8615 140.247 12.7956 140.203 12.7517 140.137L12.1372 140.73C12.0055 140.642 11.8519 140.576 11.6982 140.379C11.0617 139.567 11.5665 138.316 11.8738 137.482C12.2689 136.494 12.7517 135.55 13.0151 134.497C13.1687 133.882 13.4102 131.929 12.2469 132.17C11.5446 132.302 11.0398 133.312 10.8203 133.904C10.4692 134.914 10.535 136.626 9.85461 137.504C8.97669 138.579 8.20852 136.67 8.20852 135.967C8.20852 134.541 9.24007 133.158 10.0741 132.061C12.1152 129.427 14.3759 126.969 16.5707 124.423C17.6461 123.874 18.546 122.689 19.2922 121.899C28.8176 111.956 36.6749 100.609 45.498 90.0523C47.5831 87.5502 49.8656 85.1799 51.9068 82.6339C53.926 80.066 55.8135 77.3883 57.8766 74.8204C77.8931 50.151 81.8876 44.7957 102.036 20.2141C103.353 18.5899 104.67 16.9877 105.986 15.3855C106.579 14.6393 107.194 13.8931 107.83 13.1249C108.379 12.4445 108.906 11.369 109.674 10.9081C109.827 11.2374 109.323 11.9397 109.279 12.3128C109.235 12.642 109.301 13.0371 109.608 13.2346C110.157 13.6516 110.661 13.1249 111.013 12.7079C111.539 12.1153 111.912 11.391 112.285 10.6887C112.571 10.2058 112.768 9.48152 113.185 9.04256C113.822 8.34023 114.831 8.77919 115.38 9.37178C116.28 10.2936 116.214 11.6983 115.819 12.8615C115.424 13.9808 114.283 15.3636 114.568 16.5926C114.678 17.0316 114.919 17.3389 115.402 17.295C116.258 17.2072 116.829 16.1537 117.114 15.4952C117.377 14.8149 117.641 12.4664 118.563 12.4225C119.419 12.4006 120.362 13.8931 120.406 14.6393C120.494 15.5611 119.879 16.5049 119.441 17.295C119.023 18.0193 118.299 19.1825 118.914 20.0165C119.528 20.8286 120.362 20.0165 120.779 19.4239C121.196 18.8313 121.46 18.129 121.679 17.4486C121.811 17.0974 121.921 16.3732 122.36 16.2415C122.93 16.0439 123.676 16.856 124.072 17.1633C124.51 17.4925 124.993 17.7998 125.235 18.3265C125.849 19.5995 124.818 20.8944 124.335 21.9699C124.028 22.5844 123.303 24.4939 124.642 24.4719C126.047 24.4719 126.486 22.4308 126.793 21.4431C127.144 20.1921 128.132 19.9726 129.076 20.9603C129.954 21.926 129.712 22.8478 129.12 23.8794C128.659 24.7134 127.825 25.7888 128.242 26.8204C128.417 27.3471 128.856 27.5446 129.383 27.3032C130.195 26.996 130.393 26.0302 130.678 25.3279C130.985 24.4939 131.6 23.4184 132.653 23.9232C133.619 24.3842 133.926 25.3938 133.729 26.3814C133.553 27.3032 133.048 28.1372 132.609 28.9713C132.192 29.7394 131.446 30.8807 131.775 31.8245C132.083 32.7902 132.96 32.439 133.509 31.9123C134.365 31.0563 134.321 29.9809 134.716 28.8835C135.726 26.0741 138.579 28.8835 138.777 30.6832C138.908 32.022 138.206 33.1194 137.811 34.3266C137.657 34.8094 137.504 35.3581 137.657 35.8849C137.833 36.4994 138.36 36.9384 138.952 36.6091C139.94 36.0824 140.225 34.4802 140.379 33.5145C140.51 32.6366 140.796 31.3416 141.959 31.9123C142.683 32.2635 143.408 33.1194 143.693 33.8876C144.132 35.0069 143.386 36.1702 142.991 37.2017C142.705 37.9699 142.157 39.2648 142.881 39.9452C143.759 40.7573 144.571 39.594 144.878 38.8698C145.163 38.1674 145.229 37.4212 145.405 36.6969C145.493 36.3019 145.559 35.7093 145.997 35.5776C146.744 35.3362 147.644 36.5652 147.973 37.0481C148.609 38.0796 148.302 39.0454 147.951 40.1208C147.709 40.8231 146.678 43.6105 148.28 43.5447C149.685 43.4349 149.685 41.5035 149.97 40.5159C150.409 39.1112 151.462 39.6818 152.231 40.5159C153.767 42.2058 152.187 43.9836 151.792 45.7834C151.638 46.4637 151.528 47.4953 152.384 47.7587C153.438 48.0879 153.877 46.6832 154.096 45.8931C154.338 45.0371 154.294 43.4349 155.347 43.1496C156.774 42.7545 157.366 44.7738 157.366 45.7834C157.366 46.9685 156.971 48.0879 156.752 49.2511C156.62 49.8657 156.467 51.6873 157.63 51.3362C158.201 51.1825 158.771 50.3266 158.991 49.7998C159.254 49.1194 159.122 47.8684 159.715 47.4295C160.439 46.8808 161.624 48.2854 161.997 48.8341C162.831 50.0193 162.129 51.2923 161.69 52.4994C161.449 53.1798 160.812 55.199 162.085 55.2429C163.336 55.2868 163.644 53.2456 163.819 52.4555C163.973 51.6434 164.543 50.5241 165.377 51.5557C166.014 52.3677 165.487 53.6188 165.18 54.4528C164.829 55.4404 164.302 56.3842 164.039 57.3938C163.885 58.0303 163.687 59.9617 164.807 59.7422C165.531 59.6105 166.058 58.6009 166.255 58.0083C166.607 56.9987 166.519 55.2868 167.221 54.4089C168.077 53.3334 168.867 55.2429 168.867 55.9452C168.867 57.3719 167.814 58.7546 166.98 59.852C164.939 62.4857 119.155 117.707 108.115 131.27C97.0975 144.746 86.0797 158.244 75.0618 171.699C73.745 173.323 72.4281 174.925 71.1112 176.527C70.4967 177.273 69.9041 178.019 69.2676 178.788C68.6969 179.468 68.1921 180.544 67.424 180.982C67.2484 180.675 67.7532 179.973 67.819 179.622C67.841 179.292 67.7971 178.897 67.4898 178.656C66.9411 178.261 66.4363 178.788 66.0632 179.205C65.5803 179.797 65.1853 180.522 64.8122 181.224C64.5268 181.707 64.2854 182.431 63.9123 182.848C63.2319 183.572 62.2223 183.133 61.6956 182.541C60.7957 181.575 60.8835 180.214 61.2786 179.051C61.6297 177.932 62.8149 176.549 62.5296 175.32C62.4198 174.881 62.1345 174.574 61.6736 174.618C60.8396 174.661 60.247 175.759 59.9836 176.417C59.6983 177.098 59.4569 179.446 58.5351 179.468C57.6572 179.512 56.7353 178.019 56.6695 177.273C56.6256 176.308 57.2182 175.408 57.6352 174.618C58.0522 173.871 58.7984 172.73 58.1619 171.896C57.5474 171.084 56.7134 171.896 56.3183 172.489C55.8794 173.081 55.616 173.784 55.3965 174.464C55.2868 174.815 55.1551 175.517 54.7161 175.671C54.1674 175.847 53.3993 175.057 53.0042 174.749C52.5872 174.42 52.1043 174.069 51.8629 173.586C51.2484 172.313 52.258 171.018 52.7628 169.943C53.0481 169.328 53.7943 167.419 52.4335 167.441C51.0728 167.441 50.5899 169.482 50.3046 170.447L50.2827 170.426ZM60.0056 187.984C59.5886 188.708 58.8862 190.618 58.0303 190.442C57.1962 190.288 56.6256 188.664 56.7353 187.94C56.8451 187.303 57.284 186.733 57.723 186.206C57.7669 186.25 57.8547 186.316 57.8986 186.36C58.6009 186.908 59.3032 187.435 59.9836 187.984H60.0056ZM56.1427 184.911C56.1427 184.911 56.1427 184.955 56.1208 184.955C55.9233 185.284 55.6599 185.921 55.2209 185.965C54.6503 186.052 54.1016 185.065 53.7724 184.714C53.4431 184.275 53.07 183.858 52.9384 183.309C52.8506 182.98 52.9164 182.629 52.9822 182.321C54.0357 183.177 55.1112 184.055 56.1427 184.889V184.911ZM53.7724 194.415C53.0261 195.007 52.2141 194.766 51.7751 193.668C51.5117 192.988 51.5995 192.461 51.8629 191.978C51.9068 191.891 51.9726 191.847 52.0165 191.781C52.653 192.593 53.2895 193.405 53.926 194.239C53.8821 194.283 53.8163 194.371 53.7724 194.415ZM56.1866 200.56C55.594 200.516 55.199 199.485 54.9795 199.068C54.6942 198.607 54.3869 198.102 54.343 197.531C54.2991 196.917 54.5405 196.39 54.9576 195.951C55.0015 195.907 55.0892 195.841 55.1331 195.797C55.4185 196.148 55.7038 196.544 56.0111 196.917C56.5817 197.663 57.1962 198.387 57.7888 199.133C57.701 199.177 57.6571 199.265 57.5913 199.331C57.4816 199.441 57.3499 199.572 57.2621 199.66C57.0207 199.967 56.6475 200.56 56.2086 200.538L56.1866 200.56ZM58.2717 205.52C57.4596 205.235 57.1962 203.479 57.4157 202.777C57.6571 202.052 58.2936 201.504 58.8862 201.021L59.1496 200.823C59.413 201.109 59.6325 201.416 59.8739 201.701C60.1373 202.009 60.5104 202.689 60.9274 203.106L60.7738 203.26C60.7738 203.26 60.7299 203.282 60.686 203.347C60.1592 203.984 59.1057 205.849 58.2497 205.542L58.2717 205.52ZM207.1 132.851C206.552 134.168 205.059 135.067 203.896 135.748C201.021 137.438 171.808 152.187 168.253 154.338C153.35 163.49 137.767 171.26 122.403 179.6C107.128 187.962 91.83 196.258 76.5543 204.555C74.7107 205.542 72.8451 206.552 71.0454 207.496C70.1894 207.978 69.3554 208.461 68.4775 208.9C67.7312 209.339 66.8314 210.151 65.9535 210.261C65.9315 209.91 66.6777 209.427 66.8314 209.12C67.007 208.812 67.0947 208.417 66.8753 208.132C66.5461 207.539 65.8437 207.825 65.3828 208.088C64.6805 208.417 64.0659 208.966 63.4733 209.449C63.0124 209.8 62.5515 210.371 62.0028 210.634C61.1469 211.051 60.3787 210.239 60.0934 209.493C59.5666 208.286 60.2251 207.035 60.9932 206.069C61.7614 205.213 63.3636 204.357 63.5611 203.128C63.5831 203.018 63.5831 202.886 63.5831 202.799C63.5611 202.623 63.4733 202.491 63.3856 202.36C65.9754 200.516 68.6092 198.738 71.199 196.895L70.1894 197.663C70.3869 198.014 70.6284 198.343 70.8259 198.651L70.9576 198.738C72.0769 199.375 73.2182 198.585 74.3815 198.014C87.8136 190.42 144.088 160.505 169.24 146.305C173.103 144.308 175.956 142.837 178.107 141.696C179.534 140.971 180.631 140.379 181.575 139.852C182.212 139.523 182.782 139.216 183.309 138.93C185.043 137.943 186.206 137.218 188.094 136.055C188.95 135.572 189.937 134.98 191.166 134.211C192.878 131.644 190.815 129.888 189.257 126.288C188.928 125.674 188.576 124.993 188.225 124.313C188.225 124.313 188.225 124.291 188.203 124.291C187.128 122.228 185.855 119.792 184.45 117.18C183.463 115.292 182.431 113.317 181.377 111.276L177.01 114.7C178.041 116.675 179.073 118.585 180.017 120.34C176.944 123.435 175.144 127.693 175.144 132.104C175.144 133.553 175.32 135.024 175.715 136.472C171.962 138.447 168.626 140.203 165.048 142.069C161.449 143.934 157.63 145.954 152.955 148.434C151.814 149.048 150.475 149.86 149.443 150.76C130.919 160.79 106.864 173.959 87.8794 184.253C89.8767 182.694 91.83 181.18 93.8273 179.622C102.628 172.774 111.386 165.86 120.187 158.991C122.952 158.727 125.783 157.849 128.571 156.181C132.456 153.613 134.826 150.233 135.989 146.59C144.988 139.501 153.965 132.39 162.941 125.301C166.08 123.04 168.845 120.67 169.35 120.275L169.767 119.945L169.811 119.923C173.235 117.334 176.637 114.722 180.083 112.198C183.463 109.63 186.908 107.084 190.288 104.494C190.925 104.011 191.561 103.506 192.198 103.023C192.088 104.165 191.035 104.933 190.332 105.723C189.762 106.338 188.752 107.325 189.191 108.225C189.674 109.257 190.903 108.51 191.452 107.94C191.978 107.391 192.329 106.755 192.747 106.14C192.988 105.811 193.273 105.306 193.734 105.328C194.48 105.416 194.875 106.886 194.985 107.457C195.227 108.642 194.546 109.432 193.822 110.266C193.361 110.837 191.32 113.032 192.834 113.558C194.151 113.997 194.897 112.198 195.556 111.408C196.456 110.266 197.246 111.21 197.619 112.264C198.387 114.393 196.258 115.468 195.183 116.938C194.832 117.531 194.327 118.475 195.007 119.002C195.863 119.726 196.807 118.563 197.312 117.926C197.838 117.246 198.431 115.731 199.485 115.863C200.933 116.039 200.736 118.146 200.362 119.089C199.923 120.209 199.155 121.087 198.475 122.03C198.124 122.579 197.29 124.181 198.475 124.335C199.089 124.379 199.923 123.786 200.34 123.435C200.823 122.886 201.196 121.679 201.943 121.504C202.799 121.262 203.391 123.04 203.501 123.655C203.808 125.081 202.689 125.981 201.811 126.969C201.328 127.495 200.011 129.12 201.131 129.624C202.272 130.107 203.325 128.373 203.786 127.693C204.203 127.013 205.191 126.157 205.564 127.43C205.849 128.417 204.884 129.427 204.269 130.063C203.567 130.81 202.733 131.512 202.096 132.346C201.745 132.895 200.779 134.607 201.943 134.826C202.645 134.958 203.501 134.233 203.94 133.773C204.642 132.938 205.191 131.336 206.201 130.788C207.386 130.085 207.408 132.148 207.122 132.829L207.1 132.851Z" fill="#017EFE" stroke="#017EFE" stroke-width="0.25" stroke-miterlimit="10"/>
</g>
<defs>
<clipPath id="clip0_212_681">
<rect width="215.177" height="219.501" fill="white"/>
</clipPath>
<clipPath id="clip1_212_681">
<rect width="215.177" height="219.501" fill="white"/>
</clipPath>
</defs>
</svg>
