<svg width="183" height="188" viewBox="0 0 183 188" fill="none" xmlns="http://www.w3.org/2000/svg">
<g clip-path="url(#clip0_201_708)">
<path d="M171.358 71.8144C171.334 70.8919 171.31 69.945 171.261 69.0467C171.213 69.0467 171.165 69.0953 171.116 69.0953C170.729 64.3368 170.318 59.6997 169.979 55.4024C163.565 49.6485 154.005 49.163 143.742 49.1144C144.057 38.5777 144.396 27.774 141.492 18.3056C133.359 -2.91348 105.623 -5.58407 92.2624 9.85678C84.6142 9.9539 77.0386 13.3528 71.2057 21.5345C67.672 23.7681 64.8402 35.2759 65.0097 42.4865C61.3792 42.4622 58.0876 42.705 55.3526 43.3848C54.6991 42.3651 52.8113 41.9038 49.3744 42.7779C41.218 46.6623 23.3076 49.6971 17.7167 55.7423C15.8531 65.842 6.05079 147.853 1.76683 182.158C1.28277 185.072 0.798704 188.034 0.217828 190.923C0.363047 190.898 0.532469 190.826 0.677688 190.777C0.38725 193.083 0.169422 194.904 0 195.948C0.435657 203.79 15.1996 201.119 19.6288 202.892C27.7852 205.951 31.2705 222.29 39.2575 226.417V226.587C39.2575 226.587 39.4753 226.563 39.5721 226.539C39.9352 226.709 40.274 226.878 40.6613 227.024C40.9517 226.806 41.1211 226.563 41.339 226.344C79.3863 221.95 147.3 219.279 183 207.747C180.41 170.432 175.013 114.131 171.358 71.863V71.8144ZM143.428 72.4942C144.856 74.4365 144.444 77.6169 141.492 78.4909C137.304 79.4377 135.634 74.8492 137.498 72.4214C138.587 76.6458 142.072 76.233 143.428 72.4699V72.4942ZM125.929 10.0025C125.76 10.1481 125.59 10.2938 125.493 10.4637C125.275 11.095 126.123 11.1678 126.486 11.095C126.776 11.0464 127.018 10.925 127.284 10.8036C128.349 11.4349 129.342 12.1389 130.261 12.9401C130.14 12.9887 130.044 13.0615 129.947 13.11C129.584 13.28 129.196 13.4499 128.833 13.5956C128.083 13.9112 127.333 14.1783 126.703 14.591C126.34 14.8581 125.856 15.3679 126.413 15.7078C126.873 15.9991 127.551 15.6592 128.01 15.4407C128.761 15.1251 129.414 14.7367 130.116 14.4453C130.503 14.2754 130.963 14.0569 131.399 14.0083C131.907 14.5182 132.391 15.028 132.851 15.6107C132.948 16.3148 132.004 16.5575 131.52 16.7275C130.891 16.9945 130.286 17.2616 129.705 17.5772C129.366 17.7229 128.858 17.9414 128.737 18.3784C128.64 18.9611 129.366 19.0339 129.753 18.9611C130.407 18.8639 130.987 18.4755 131.544 18.1113C132.028 17.82 132.633 17.4558 133.19 17.6015C133.48 17.7229 133.698 17.9657 133.843 18.2327C134.013 18.5483 134.182 18.8639 134.279 19.1796C134.473 19.9807 133.65 20.1507 133.093 20.3206C132.706 20.4906 132.198 20.6605 131.835 20.9519C131.689 21.0733 131.568 21.2189 131.52 21.4131C131.52 21.6316 131.689 21.8016 131.859 21.8987C132.391 22.1658 133.021 21.8502 133.48 21.5588C133.747 21.4131 134.013 21.2189 134.303 21.1704C134.618 21.0733 134.812 21.2918 134.981 21.5345C135.271 22.0444 135.562 22.797 135.199 23.3311C134.86 23.9381 134.182 24.0837 133.577 24.278C133.263 24.3751 132.972 24.4722 132.657 24.6179C132.391 24.7635 132.077 24.9335 131.98 25.2005C131.665 25.9046 132.609 26.0017 133.045 25.8803C133.722 25.7104 134.303 25.2976 134.86 24.9577C135.054 24.7878 135.344 24.6421 135.61 24.6907C135.901 24.7878 135.997 25.2005 136.094 25.4919C136.264 26.0988 136.53 26.9243 135.925 27.4341C135.707 27.6283 135.344 27.7497 135.029 27.8226C134.666 27.9682 134.231 28.0411 133.795 28.1625C133.505 28.2596 133.166 28.3567 132.851 28.4538C132.536 28.5509 132.198 28.648 131.956 28.8908C131.786 29.085 131.762 29.3764 131.956 29.5706C132.149 29.7891 132.488 29.8376 132.803 29.8376C133.408 29.7891 134.037 29.4977 134.57 29.2307C134.933 29.0607 135.247 28.9151 135.634 28.7694C135.925 28.648 136.288 28.4538 136.578 28.5752C136.845 28.6723 136.917 28.9151 136.966 29.1579C137.062 29.4735 137.087 29.7405 137.159 30.0561C137.208 30.3475 137.256 30.6874 137.062 31.003C136.869 31.3186 136.554 31.4885 136.215 31.6342C135.562 31.8284 134.812 31.9741 134.231 32.3868C133.964 32.5325 133.747 32.7753 133.843 33.0909C133.94 33.358 134.231 33.4308 134.473 33.4551C135.102 33.5522 135.731 33.188 136.264 32.921C136.578 32.751 137.159 32.3868 137.45 32.5811C137.401 33.2123 137.329 33.8435 137.256 34.499V35.98C137.111 36.1257 136.941 36.247 136.772 36.3684C136.191 36.7569 135.538 37.1211 135.005 37.6066C134.739 37.8008 134.376 38.1893 134.424 38.5292C134.521 39.1119 135.368 38.8448 135.683 38.6749C136.288 38.3592 136.772 37.8251 137.256 37.3638V40.52C137.038 40.7142 136.772 40.8842 136.554 41.0541C136.215 41.2483 135.925 41.4911 135.634 41.7339C135.441 41.9281 135.247 42.1709 135.175 42.4137C135.005 43.0206 135.683 42.9964 136.094 42.875C136.385 42.7536 136.627 42.6079 136.893 42.4137C137.038 42.3166 137.159 42.1952 137.256 42.0495V45.06C136.917 45.3513 136.482 45.5698 136.143 45.8854C135.949 46.0554 135.755 46.3467 135.755 46.6381C135.78 46.9537 136.118 47.0751 136.409 47.0751C136.724 47.0508 136.941 46.9051 137.208 46.6381C137.208 46.6381 137.232 46.6138 137.256 46.5895V48.7745C137.256 48.7745 137.232 48.9202 137.208 48.9688C137.159 49.0173 137.087 49.0659 137.062 49.1144C132.391 49.0901 127.647 48.9202 123.097 48.1919C128.688 32.2897 115.957 15.635 100.588 11.095C107.849 6.16652 118.039 5.94801 125.881 10.0267L125.929 10.0025ZM91.3911 31.0758C91.2217 25.4919 92.4802 20.9276 94.6827 17.3102C106.131 17.0431 117.361 24.545 117.337 41.1755C117.506 42.7536 117.288 45.2299 117.337 47.5849C110.124 47.682 100.83 46.3467 91.3185 45.0114C90.9554 39.1119 90.7134 33.9406 91.4153 31.0758H91.3911ZM90.7618 73.2468C92.6497 75.0434 92.456 78.7579 89.1886 79.7533C84.5416 80.8216 83.0168 75.092 85.897 72.9798C86.4779 74.9463 87.1555 76.5244 88.0268 77.5926C89.2612 76.7429 90.1083 75.1891 90.7376 73.2711L90.7618 73.2468ZM87.1313 18.6212C86.1632 24.0352 85.0015 33.8678 84.4448 44.0889C79.701 43.4576 75.054 42.9235 70.7216 42.6322C70.2375 29.9347 77.8857 21.6559 87.1313 18.6212ZM39.1123 186.407C38.725 189.393 38.5072 191.821 38.8945 192.379C38.604 200.44 38.5556 208.112 38.725 215.249C34.8525 209.811 29.189 204.13 28.3419 201.095C24.4452 193.86 12.513 197.114 6.9463 194.297C7.09152 192.816 7.43037 189.757 7.93863 185.484H7.96284C9.10038 185.047 10.4558 185.581 11.5933 185.387C12.4404 185.266 14.0378 184.416 12.9003 183.518C11.9564 182.814 10.4558 183.178 9.34241 183.396C8.97937 183.494 8.54371 183.542 8.20487 183.421C8.35009 182.255 8.49531 181.017 8.64052 179.706C8.80995 179.585 8.97937 179.488 9.2456 179.391C10.4074 179.075 11.6659 179.415 12.8761 179.391C13.6506 179.391 15.6352 179.439 15.7078 178.322C15.732 177.375 14.2557 177.06 13.6022 177.06C12.513 176.938 11.4239 177.254 10.3832 177.497C9.80227 177.618 9.31821 177.594 8.95516 177.351C9.10038 176.332 9.2214 175.288 9.34241 174.171C9.51184 174.025 9.68126 173.879 9.87488 173.831C10.964 173.394 12.271 173.661 13.3843 173.612C14.2799 173.588 16.2161 173.612 16.7244 172.666C17.16 171.913 15.9741 171.403 15.4416 171.282C14.2557 171.015 12.9971 171.427 11.7869 171.573C10.9882 171.719 10.1653 171.622 9.72967 170.966C9.82648 170.141 9.92329 169.315 10.0443 168.441C10.2137 168.223 10.4316 167.98 10.6978 167.834C11.6417 167.3 13.4085 167.543 14.0862 166.547C14.8849 165.358 12.4404 165.431 11.8837 165.479C11.3755 165.504 10.7462 165.528 10.4316 165.042C10.5526 164.095 10.6978 163.1 10.7946 162.105C11.1577 161.619 11.7143 161.303 12.4404 161.279C13.4327 161.303 15.2722 161.886 15.6836 160.599C16.1435 159.361 14.4251 159.288 13.6506 159.337C12.8277 159.458 11.7627 159.677 11.2303 158.9C11.2061 158.851 11.2061 158.778 11.2061 158.73C11.3029 158.05 11.3755 157.298 11.4723 156.593C11.5933 156.424 11.6901 156.229 11.8353 156.084C12.7551 155.258 14.0378 155.452 15.1512 155.549C15.9499 155.647 17.4263 155.719 17.8861 154.87C18.467 153.899 16.7002 153.364 16.0225 153.292C14.7881 153.17 12.6582 153.874 11.9079 152.903C12.029 151.956 12.1258 151.01 12.271 150.063C12.5856 149.626 13.0455 149.31 13.6022 149.213C14.5703 149.043 15.9741 149.431 16.676 148.533C17.4747 147.538 15.9015 147.101 15.1996 147.125C14.3525 147.174 13.2149 147.465 12.6824 146.639C12.8519 145.231 13.0213 143.847 13.1907 142.415C13.7958 141.832 14.8123 141.808 15.6836 141.784C16.6518 141.76 18.6606 141.832 19.1931 140.788C19.774 139.599 17.8619 139.332 17.0874 139.405C16.0709 139.526 14.8607 140.303 13.8442 139.914C13.699 139.866 13.6506 139.769 13.5538 139.696C13.699 138.531 13.8442 137.317 14.0136 136.127C15.2722 135.156 17.4989 135.617 19.0721 135.035C19.4593 134.889 19.9918 134.67 20.2338 134.258C20.5001 133.675 20.137 133.165 19.653 132.971C18.588 132.461 17.3779 133.019 16.3371 133.408C15.732 133.626 14.8849 133.869 14.3041 133.602C14.4493 132.315 14.6187 131.029 14.7881 129.742C16.4097 128.164 18.9753 128.965 20.8389 127.848C21.4924 127.46 21.9523 126.416 21.1051 126.052C20.5001 125.76 19.6288 125.955 18.9269 126.173C17.7651 126.537 16.4097 127.751 15.127 127.605C15.1028 127.605 15.0786 127.581 15.0302 127.581C15.1996 126.173 15.369 124.813 15.5384 123.43C15.8289 123.163 16.1435 122.92 16.4823 122.726C17.5715 122.143 18.83 122.07 19.9434 121.633C20.5485 121.439 21.4924 121.099 21.7586 120.492C22.2427 119.642 21.0083 119.327 20.4275 119.351C19.2899 119.327 18.2976 119.885 17.3295 120.419C16.8938 120.613 16.3613 120.808 15.9015 120.808C16.0951 119.254 16.2887 117.749 16.4823 116.195C17.1116 115.612 17.9345 115.272 18.83 115.078C19.8224 114.811 20.9357 114.738 21.807 114.107C22.6057 113.573 22.7026 112.626 21.6618 112.456C20.4275 112.286 19.3625 112.966 18.2008 113.403C17.7409 113.548 17.2568 113.621 16.8212 113.548C17.0874 111.509 17.3295 109.543 17.5715 107.576C18.104 107.358 18.709 107.212 19.2657 107.09C20.2096 106.799 21.7102 106.484 22.2911 105.585C23.0414 104.396 21.0083 104.323 20.3306 104.493C19.7014 104.663 19.0721 105.003 18.4428 105.294C18.2734 105.342 18.0798 105.44 17.8377 105.488C20.6937 82.7638 23.114 63.6084 23.5739 59.6754C29.0196 55.4025 39.7658 53.703 46.7121 50.5954C47.7286 50.474 48.6725 50.2555 49.568 49.9642C48.1159 88.6634 41.0485 142.342 39.1123 186.431V186.407ZM172.835 205.392C172.472 204.3 172.302 203.11 172.084 201.969C171.867 201.022 171.721 199.517 170.85 198.91C170.245 198.473 169.712 199.032 169.422 199.614C169.083 200.537 169.374 201.556 169.567 202.479C169.882 203.499 170.148 204.567 170.39 205.659C168.89 205.829 167.195 206.024 165.453 206.242C165.356 205.951 165.307 205.659 165.259 205.417C165.114 204.348 165.041 203.304 164.678 202.309C164.533 201.921 164.364 201.484 163.976 201.241C163.541 201.022 163.081 201.192 162.839 201.532C162.234 202.358 162.379 203.499 162.645 204.397C162.766 205.004 162.936 205.562 163.081 206.121C163.105 206.266 163.129 206.412 163.178 206.509C161.459 206.703 159.644 206.946 157.756 207.14C157.417 206.024 157.054 205.004 156.643 203.936C156.352 203.232 155.941 201.654 154.949 201.726C153.956 201.751 153.932 203.304 154.005 203.984C154.222 205.077 154.634 206.096 155.07 207.092C155.094 207.189 155.166 207.286 155.215 207.432C154.077 207.553 152.867 207.699 151.681 207.82C151.488 207.529 151.391 207.068 151.294 206.825C150.858 205.708 150.374 204.543 149.987 203.353C149.793 202.77 149.624 202.188 149.382 201.605C149.212 201.095 148.946 200.512 148.559 200.124C148.293 199.857 147.905 199.663 147.494 199.808C147.131 200.003 146.913 200.488 146.84 200.901C146.695 201.678 146.937 202.479 147.179 203.159C147.518 204.227 147.93 205.15 148.317 206.169C148.486 206.631 148.607 207.068 148.801 207.456C148.922 207.82 149.019 208.16 148.583 208.209H148.486C148.051 208.257 147.639 208.233 147.204 208.233C146.574 208.257 145.921 208.281 145.291 208.33C144.928 208.354 144.372 208.524 144.106 208.209C143.96 208.087 143.912 207.772 143.815 207.602C143.718 207.262 143.621 206.922 143.476 206.606C143.21 205.781 142.968 204.955 142.653 204.178C142.436 203.596 142.048 202.698 141.371 202.6C140.306 202.382 140.136 203.887 140.233 204.64C140.354 205.757 140.887 206.849 141.322 207.869C141.443 208.087 141.637 208.524 141.201 208.573C140.838 208.67 140.402 208.573 140.039 208.573C139.507 208.597 138.926 208.597 138.345 208.67C137.861 208.718 137.546 208.84 137.353 208.403C137.183 207.966 137.062 207.505 136.917 207.116C136.699 206.485 136.457 205.854 136.24 205.222C135.925 204.227 135.634 202.916 134.836 202.212C133.989 201.387 133.238 202.406 133.142 203.329C133.045 204.251 133.432 205.15 133.747 205.951C133.916 206.339 134.061 206.728 134.231 207.068C134.376 207.553 134.618 208.014 134.715 208.476C134.86 208.937 134.545 208.986 134.182 208.937C133.65 208.937 133.093 208.961 132.536 209.034C131.931 209.058 131.35 209.083 130.745 209.155C130.6 209.155 130.431 209.204 130.261 209.155C130.092 209.034 129.971 208.646 129.923 208.451C129.584 207.31 129.221 206.194 128.688 205.125C128.398 204.421 127.454 203.377 126.752 204.421C126.147 205.271 126.534 206.461 126.8 207.335C126.97 207.82 127.163 208.281 127.381 208.743C127.575 209.131 127.647 209.495 127.091 209.52C126.631 209.544 126.244 209.52 125.784 209.544C125.445 209.568 124.791 209.811 124.477 209.568C124.307 209.423 124.307 209.18 124.211 208.961C124.114 208.694 124.017 208.476 123.92 208.209C123.726 207.602 123.557 207.068 123.315 206.485C123.097 205.902 122.928 205.344 122.686 204.785C122.516 204.276 122.25 203.669 121.863 203.329C121.572 203.062 121.185 202.94 120.871 203.135C120.386 203.329 120.265 203.936 120.217 204.397C120.12 205.465 120.58 206.485 120.967 207.407C121.161 207.942 121.33 208.5 121.572 209.034C121.669 209.228 121.96 209.69 121.693 209.86C121.524 210.03 121.016 209.884 120.774 209.908C120.144 209.957 119.539 210.029 118.91 210.078C118.45 210.175 118.015 210.272 117.579 210.272C116.998 210.297 116.901 209.69 116.732 209.204C116.296 208.112 115.909 206.995 115.497 205.902C115.159 204.907 114.868 203.547 114.094 202.892C113.247 202.115 112.52 203.062 112.448 203.911C112.327 204.81 112.641 205.659 112.956 206.461C113.392 207.456 113.731 208.451 114.094 209.471C114.19 209.69 114.481 210.175 114.36 210.442C114.215 210.661 113.61 210.588 113.392 210.588C112.23 210.685 111.02 210.758 109.858 210.952C109.519 211.001 109.059 211.219 108.866 210.855C108.745 210.685 108.696 210.491 108.648 210.345C108.551 210.029 108.43 209.714 108.309 209.423C107.922 208.33 107.51 207.189 107.147 206.048C106.954 205.465 106.712 204.907 106.494 204.324C106.3 203.839 106.058 203.304 105.647 202.916C105.381 202.722 105.042 202.576 104.679 202.795C104.243 203.086 104.074 203.644 104.049 204.106C104.001 205.174 104.388 206.145 104.751 207.092C105.187 208.184 105.502 209.228 105.889 210.297C106.01 210.588 106.276 211.049 106.107 211.292C105.913 211.559 105.284 211.462 104.969 211.486C104.437 211.535 103.832 211.656 103.251 211.705C102.912 211.753 102.597 211.753 102.283 211.826C102.089 211.85 101.75 211.972 101.532 211.875C101.218 211.729 101.145 211.049 101.048 210.734C100.83 210.102 100.588 209.447 100.395 208.816C100.225 208.306 100.032 207.747 99.8138 207.213C99.6202 206.728 99.3539 206.194 98.9183 205.902C98.0712 205.247 97.4419 206.291 97.3451 207.14C97.2967 208.039 97.6113 208.864 97.9259 209.665C98.0954 210.054 98.2164 210.491 98.3858 210.904C98.4342 211.098 98.5552 211.341 98.6036 211.559C98.7004 211.705 98.8214 211.923 98.7972 212.093C98.773 212.433 98.289 212.384 98.0228 212.384C97.5145 212.384 97.0062 212.506 96.4495 212.554C95.8687 212.652 95.312 212.7 94.8037 212.773C94.4649 212.821 93.6904 213.113 93.3999 212.894C93.1337 212.676 93.0611 212.19 92.9159 211.826C92.6254 211.219 92.3834 210.636 92.093 210.054C91.8994 209.52 91.6089 208.961 91.2943 208.476C91.0764 208.014 90.8102 207.553 90.3746 207.286C89.358 206.606 88.8256 208.039 88.9224 208.864C89.0434 210.029 89.6969 211.098 90.1809 212.093C90.3261 212.312 90.3988 212.554 90.544 212.749C90.5924 212.894 90.7376 213.016 90.7618 213.186C90.8102 213.55 90.2293 213.501 89.9873 213.501C89.5032 213.526 88.995 213.623 88.5351 213.695C88.1479 213.744 87.5428 214.035 87.2039 213.793C87.0587 213.647 86.9861 213.404 86.8651 213.186C86.7683 212.967 86.6473 212.676 86.5021 212.433C86.1874 211.899 85.9212 211.316 85.6791 210.734C85.1467 209.665 84.6626 208.597 84.1301 207.529C83.8155 206.873 83.041 205.465 82.0971 206.024C81.25 206.533 81.5646 207.893 81.7824 208.573C82.1697 209.738 82.799 210.782 83.3314 211.875C83.5977 212.36 83.8397 212.943 84.0817 213.453C84.1786 213.647 84.5416 214.084 84.348 214.351C84.2028 214.57 83.5977 214.497 83.404 214.497C82.7506 214.618 82.0971 214.715 81.4436 214.837L80.5965 214.982C80.4029 215.007 80.0882 215.128 79.8462 215.079C79.4589 215.031 79.2411 214.157 79.0959 213.793C78.6118 212.676 78.1036 211.51 77.4985 210.491C77.1112 209.811 75.9979 208.694 75.3928 209.884C75.0056 210.782 75.296 211.923 75.7075 212.724C75.9253 213.21 76.1915 213.695 76.4577 214.205C76.6272 214.424 76.724 214.642 76.8208 214.837C76.9176 214.982 77.1112 215.274 77.0144 215.443C76.9176 215.783 76.0463 215.735 75.7317 215.783C75.1024 215.832 74.4731 216.002 73.8196 216.148C73.4324 216.196 73.1419 216.148 72.8999 215.783C72.6337 215.322 72.4642 214.764 72.2222 214.23C71.7139 213.161 71.2299 212.117 70.7216 211.049C70.407 210.418 69.6083 208.84 68.6401 209.495C67.8172 210.102 68.1561 211.486 68.4465 212.215C68.9064 213.331 69.463 214.351 69.9471 215.443C70.0681 215.638 70.1649 215.832 70.2859 216.05C70.3344 216.172 70.4554 216.318 70.4796 216.487C70.4796 216.876 69.9471 216.852 69.6809 216.852C68.5917 216.9 67.5752 217.192 66.5102 217.459C66.0262 217.58 65.8568 217.361 65.6631 216.949C65.4453 216.439 65.1549 215.881 64.8886 215.322C64.5982 214.691 64.3804 214.06 64.0415 213.428C63.7511 212.943 63.4122 212.263 62.8556 212.093C62.0327 211.802 61.6696 212.773 61.597 213.477C61.5728 214.57 62.1779 215.541 62.6135 216.415C62.7588 216.706 62.904 216.997 63.0734 217.24C63.1218 217.434 63.3396 217.677 63.2912 217.847C63.267 218.066 63.025 218.163 62.7588 218.187L62.1537 218.284C61.5244 218.333 60.8951 218.405 60.29 218.478C59.9996 218.26 59.8544 217.677 59.685 217.459C59.1767 216.293 58.5958 215.176 58.0634 214.035C57.7003 213.258 57.2162 211.778 56.1271 211.802C55.159 211.85 55.1832 213.307 55.3526 213.987C55.6188 215.152 56.2723 216.196 56.8048 217.24C56.9984 217.701 57.1678 218.138 57.4341 218.551C57.4825 218.648 57.5309 218.697 57.5551 218.77C56.2239 218.915 54.9653 219.061 53.7552 219.158V218.94C53.7068 218.405 53.5858 217.847 53.4406 217.24C53.2711 216.05 53.1743 214.837 52.9081 213.647C51.7705 208.791 50.1973 211.049 49.6891 212.215C49.2534 213.137 49.7859 216.585 50.3183 219.498C47.1477 219.789 44.8484 219.984 43.6383 220.008C44.4612 208.573 45.865 188.689 47.4866 165.989C48.5999 165.382 49.8827 165.941 50.996 165.625C51.7947 165.455 53.3437 164.29 52.2546 163.27C51.3107 162.444 49.8585 163.051 48.7693 163.391C48.4305 163.513 47.9948 163.61 47.656 163.513C47.777 162.032 47.8738 160.527 47.9706 159.046C48.1401 158.851 48.3579 158.657 48.6241 158.536C49.7617 158.05 50.996 158.366 52.1336 158.269C52.8839 158.22 54.8201 158.123 54.8443 156.763C54.8685 155.622 53.4163 155.355 52.7871 155.38C51.7221 155.331 50.7056 155.768 49.7133 156.132C49.084 156.351 48.5515 156.326 48.2127 155.938C48.3095 154.821 48.3821 153.68 48.4305 152.563C48.6483 152.199 48.8904 151.908 49.2292 151.714C50.2215 151.131 51.4801 151.374 52.5692 151.228C53.4648 151.082 55.3042 151.01 55.7883 149.82C56.1755 148.873 55.038 148.339 54.5297 148.242C53.3921 147.975 52.1578 148.582 51.0202 148.849C50.1005 149.116 49.084 149.067 48.7935 147.781V147.562C48.8177 147.101 48.842 146.664 48.8904 146.227C49.084 145.523 49.4228 144.819 49.9553 144.43C50.875 143.678 52.5692 143.847 53.1985 142.561C53.973 141.08 51.6253 141.323 51.0928 141.444C50.5846 141.492 49.9795 141.614 49.6649 141.007C49.3744 140.473 49.447 139.55 49.5196 138.919C49.6891 137.462 50.4152 136.418 51.6011 136.297C52.5692 136.248 54.3119 136.807 54.7475 135.204C55.1348 133.651 53.5132 133.699 52.7629 133.821C51.9884 134.015 50.9718 134.355 50.4636 133.456C49.9795 132.51 50.3425 130.859 50.996 129.985C51.8431 128.868 53.1017 129.038 54.1666 129.086C54.9411 129.086 56.3691 129.111 56.829 128.018C57.3373 126.78 55.6672 126.27 55.038 126.222C53.489 126.173 50.5846 127.848 50.8266 124.595C50.875 123.211 51.5769 121.803 52.7145 121.415C53.6342 121.147 54.9653 121.536 55.643 120.395C56.4175 119.108 54.8927 118.695 54.215 118.792C53.3679 118.914 52.2788 119.327 51.7705 118.355C51.4801 117.773 51.5527 117.069 51.6011 116.413C51.6495 115.661 51.6979 114.859 51.8189 114.131C52.1578 112.529 53.5374 112.335 54.6023 112.213C55.5462 112.116 57.4825 112.067 57.9665 110.756C58.5474 109.251 56.6838 109.057 55.9335 109.203C54.9411 109.47 53.8036 110.465 52.7871 110.101C51.8915 109.761 51.94 108.232 52.1094 107.236C52.7387 103.74 55.7883 104.833 57.7971 103.764C58.1602 103.57 58.6926 103.23 58.9105 102.696C59.1283 102.016 58.8137 101.409 58.3296 101.215C57.3131 100.681 56.1271 101.409 55.159 101.968C54.3603 102.356 53.1743 102.915 52.7387 101.774C52.303 100.632 52.8355 98.7874 53.489 97.792C55.0622 95.5098 57.6277 96.4081 59.4429 94.8786C60.0722 94.3688 60.5079 93.082 59.6608 92.6693C59.0799 92.3537 58.2328 92.6693 57.6035 92.9606C56.4659 93.4948 55.1832 95.0485 53.9488 95C52.9565 94.9029 52.9565 93.519 53.1501 92.5479C53.4648 91.1155 54.1424 89.7802 55.2316 88.9062C56.2481 88.1293 57.4583 87.9593 58.5474 87.3524C59.1283 87.0368 59.9996 86.5755 60.2658 85.7986C60.7257 84.7304 59.5639 84.4147 58.9831 84.5119C57.8939 84.5361 56.9258 85.3373 55.9819 86.0171C55.159 86.6241 53.8762 87.1824 53.7552 85.5801C53.6584 84.439 54.0214 83.0795 54.4571 82.0355C55.0864 80.6031 56.1513 79.899 57.3615 79.4135C58.3054 79.0493 59.3945 78.8308 60.2174 78.0296C60.9919 77.3255 61.0403 76.1359 60.048 75.9902C58.8621 75.8689 57.8213 76.8157 56.7322 77.3984C56.0303 77.7626 55.1832 77.9811 54.6507 77.2284C53.8278 76.0388 54.1908 73.5867 54.7475 72.1543C54.9654 71.5474 55.2558 70.989 55.6914 70.5762C56.2965 70.0421 57.071 69.8722 57.7245 69.6051C58.6442 69.2167 60.0964 68.7068 60.6047 67.5415C61.3066 66.0605 59.3461 66.1091 58.7168 66.3761C58.0876 66.6432 57.5309 67.0802 56.9016 67.4929C56.5628 67.6871 56.0545 68.027 55.643 67.8328C55.1348 67.5658 55.1832 66.7646 55.28 66.1334C55.3768 65.3807 55.4494 64.6767 55.4978 63.9483L54.9169 63.7298C55.3526 58.2673 55.7398 53.1931 56.0787 48.7988C62.6135 49.4786 72.7305 50.2555 84.227 51.081C84.1059 56.5435 84.2512 61.8361 84.7352 66.3276C75.417 69.4837 75.5864 85.4101 87.9784 86.187C99.5475 86.3813 102.04 70.2121 91.9236 66.449C92.2382 61.9818 92.0446 56.762 91.7299 51.6393C107.051 52.7319 123.799 53.8729 137.329 55.014V65.0166C127.696 67.9299 127.744 84.1963 140.306 84.9489C152.093 85.1431 154.44 68.4398 143.694 65.0408C143.525 61.9818 143.525 58.7771 143.573 55.5481C154.222 56.5192 161.967 57.4904 163.855 58.3886C164.122 62.5402 164.485 67.4201 164.944 72.7855C164.436 73.1012 163.976 73.3925 163.468 73.7081V73.8781C163.637 75.0434 164.122 76.7186 163.323 77.7383C163.178 77.9325 163.008 78.1024 162.79 78.2238C161.387 79.1464 159.547 78.8308 158.095 79.3649C157.006 79.7533 155.166 81.3314 156.909 82.1569C158.361 82.8367 160.225 81.8898 161.604 81.3072C162.064 81.0887 162.669 80.8459 163.178 80.943C164.097 81.0644 164.122 82.1083 164.146 82.861C164.194 84.172 164.291 85.7258 162.887 86.5027C161.435 87.2553 159.692 87.1582 158.143 87.5223C157.127 87.7166 154.489 88.2264 154.755 89.7316C154.973 90.9213 157.03 90.9213 157.853 90.7513C159.305 90.5814 160.612 89.853 161.943 89.2946C163.178 88.712 164.339 88.6877 164.702 90.1201C165.041 91.3826 164.823 93.1306 163.589 93.9317C162.306 94.7572 160.539 94.7815 159.111 95.1942C157.95 95.5098 155.408 95.9954 154.997 97.3792C154.682 98.4718 156.328 98.8116 157.078 98.8116C158.676 98.8116 160.225 97.9134 161.75 97.3792C162.936 96.918 164.315 96.748 164.993 98.059C165.598 99.2972 165.211 100.972 164.194 101.919C163.105 102.89 160.709 103.06 160.104 104.59C159.426 106.362 162.597 105.561 163.274 105.367C163.976 105.173 164.775 104.93 165.332 105.512C165.84 106.022 165.961 106.993 165.985 107.722C166.082 109.324 165.332 110.587 163.734 110.975C162.427 111.242 159.886 110.999 159.692 112.796C159.475 114.52 161.677 114.131 162.694 113.864C163.71 113.476 165.041 112.893 165.985 113.743C166.881 114.665 166.687 116.51 165.985 117.579C165.065 118.962 163.323 119.035 161.846 119.205C160.782 119.351 158.821 119.642 158.458 120.905C158.022 122.337 160.443 122.531 161.338 122.458C163.42 122.191 167.074 119.764 167.462 123.284C167.655 124.765 167.099 126.464 165.574 127.096C164.412 127.581 162.427 127.46 161.75 128.844C160.999 130.397 163.178 130.495 164.097 130.252C165.235 129.96 166.639 129.256 167.583 130.203C168.091 130.737 168.163 131.538 168.236 132.267C168.333 133.068 168.454 133.918 168.406 134.767C168.284 136.54 166.469 137.05 164.993 137.389C163.734 137.705 161.12 138.166 160.709 139.696C160.273 141.444 162.839 141.201 163.807 140.886C165.138 140.4 166.493 139.089 167.921 139.283C169.228 139.453 169.519 141.055 169.519 142.172C169.422 146.033 164.993 145.547 162.5 147.101C162.016 147.416 161.411 147.878 161.217 148.485C161.024 149.286 161.604 149.868 162.306 149.966C163.855 150.33 165.283 149.286 166.493 148.509C167.462 147.878 169.011 147.052 169.858 148.169C170.681 149.31 170.39 151.398 169.688 152.612C168.067 155.404 164.364 154.967 162.185 157.006C161.435 157.686 161.169 159.143 162.355 159.41C163.25 159.604 164.315 159.094 165.114 158.657C166.566 157.832 167.97 155.914 169.688 155.719C171.068 155.574 171.382 157.103 171.31 158.147C171.213 159.774 170.535 161.352 169.253 162.493C168.018 163.513 166.397 163.998 165.09 164.848C164.339 165.334 163.274 166.013 163.032 166.887C162.669 168.126 164.339 168.198 165.114 168.004C166.566 167.713 167.728 166.693 168.841 165.746C169.858 164.921 171.504 164.047 172.012 165.722C172.375 166.912 172.205 168.441 171.818 169.679C171.286 171.379 170.003 172.35 168.43 173.103C167.195 173.71 165.767 174.171 164.799 175.19C163.904 176.137 164.097 177.4 165.477 177.327C167.123 177.181 168.357 175.992 169.737 175.118C170.656 174.584 171.697 174.171 172.617 174.851C174.021 175.943 174.045 178.662 173.609 180.289C173.44 180.993 173.174 181.673 172.665 182.183C171.963 182.887 170.947 183.251 170.1 183.639C168.962 184.27 167.074 185.096 166.59 186.48C165.985 188.228 168.648 187.767 169.47 187.305C170.245 186.917 170.947 186.31 171.697 185.751C172.157 185.436 172.786 184.975 173.343 185.096C174.117 185.242 174.19 186.116 174.238 186.82C174.287 187.645 174.335 188.422 174.408 189.199L175.328 189.345C175.812 197.138 175.981 202.77 175.642 205.052C174.795 205.15 173.851 205.247 172.883 205.368L172.835 205.392Z" fill="#017EFE"/>
</g>
<defs>
<clipPath id="clip0_201_708">
<rect width="183" height="227" fill="white"/>
</clipPath>
</defs>
</svg>
